<svg id="14e8e8f8-2a54-4e88-98c3-4e42e3d0a8c1" data-name="svg6535" xmlns="http://www.w3.org/2000/svg" viewBox="0 0 519.4 100.9"><title>schema_openfisca</title><path d="M222.8,6.4a10.9,10.9,0,0,0-17.3,0H138.7V17h84.2Z" transform="translate(-12.8 -2.2)" fill="#d66990"/><rect x="36.7" y="6.3" width="67.2" height="94.44" fill="#efefef"/><path d="M241,101.9l-102.3.3V56.7h4.3v34h75.7v-34l22.3-.3V69.4a4.3,4.3,0,1,0,0,8.4v4.4a4.3,4.3,0,1,1,0,8.4Z" transform="translate(-12.8 -2.2)" fill="#67acce"/><polygon points="203.7 86.4 132.2 86.4 132.2 52.3 125.8 52.3 125.8 40.1 210 40.1 210 52.3 203.7 52.3 203.7 86.4" fill="#971640"/><rect x="302.9" y="68.8" width="1.8" height="1.84" fill="#e22424"/><path d="M155.8,66.5a2.6,2.6,0,0,1,.6-1.8,2.1,2.1,0,0,1,1.6-.7,2.3,2.3,0,0,1,1.2.3,2,2,0,0,1,.8.9,2.8,2.8,0,0,1,.3,1.3,2.8,2.8,0,0,1-.3,1.3,2,2,0,0,1-.8.9,2.4,2.4,0,0,1-1.1.3,2.2,2.2,0,0,1-1.2-.3,2.1,2.1,0,0,1-.8-.9A2.7,2.7,0,0,1,155.8,66.5Zm.6,0a1.9,1.9,0,0,0,.5,1.3,1.6,1.6,0,0,0,2.3,0,2,2,0,0,0,.5-1.4,2.4,2.4,0,0,0-.2-1,1.5,1.5,0,0,0-.6-.7l-.8-.2a1.6,1.6,0,0,0-1.1.5A2,2,0,0,0,156.5,66.5Z" transform="translate(-12.8 -2.2)" fill="#fcfcfc"/><path d="M161.1,70.1V65.4h.5v.4l.4-.4h.6l.8.2a1.4,1.4,0,0,1,.5.6,2.3,2.3,0,0,1,.2.9,2.3,2.3,0,0,1-.2.9,1.4,1.4,0,0,1-.5.6l-.8.2h-.5l-.4-.3v1.7Zm.5-3a1.5,1.5,0,0,0,.3,1,.8.8,0,0,0,.6.3.8.8,0,0,0,.7-.3,1.5,1.5,0,0,0,.3-1,1.5,1.5,0,0,0-.3-1,.8.8,0,0,0-.6-.3.8.8,0,0,0-.7.3A1.6,1.6,0,0,0,161.6,67.1Z" transform="translate(-12.8 -2.2)" fill="#fcfcfc"/><path d="M167.1,67.7h.6a1.5,1.5,0,0,1-.5.8,1.8,1.8,0,0,1-2.2-.2,1.8,1.8,0,0,1-.4-1.3,1.9,1.9,0,0,1,.4-1.3,1.5,1.5,0,0,1,1.2-.5,1.5,1.5,0,0,1,1.1.5,1.9,1.9,0,0,1,.4,1.3v.2h-2.6a1.3,1.3,0,0,0,.3.9,1,1,0,0,0,.7.3l.5-.2A1.1,1.1,0,0,0,167.1,67.7Zm-1.9-.9h1.9a1.2,1.2,0,0,0-.2-.6.9.9,0,0,0-.7-.3.9.9,0,0,0-.7.3A1.1,1.1,0,0,0,165.2,66.8Z" transform="translate(-12.8 -2.2)" fill="#fcfcfc"/><path d="M168.4,68.8V65.4h.5v.5a1.2,1.2,0,0,1,1.1-.6h.6l.4.3.2.4a3.3,3.3,0,0,1,0,.6v2.1h-.6V66.7a1.6,1.6,0,0,0-.1-.5l-.2-.3h-.4l-.6.2a1.2,1.2,0,0,0-.3.9v1.9Z" transform="translate(-12.8 -2.2)" fill="#fcfcfc"/><path d="M172.2,68.8V64.1h3.2v.6h-2.6v1.5h2.2v.6h-2.2v2.1Z" transform="translate(-12.8 -2.2)" fill="#fcfcfc"/><path d="M176.2,64.7v-.7h.6v.7Zm0,4.1V65.4h.6v3.4Z" transform="translate(-12.8 -2.2)" fill="#fcfcfc"/><path d="M177.4,67.8h.6a.8.8,0,0,0,.3.5l.6.2.6-.2a.5.5,0,0,0,.2-.4.4.4,0,0,0-.2-.3l-.6-.2-.9-.3-.4-.3a.9.9,0,0,1-.1-.5.9.9,0,0,1,.1-.4l.3-.3.4-.2h1.2l.4.3a1.2,1.2,0,0,1,.2.5h-.6a.6.6,0,0,0-.2-.4h-1.1a.4.4,0,0,0-.2.3v.2l.2.2h.5l.9.3.4.3a.8.8,0,0,1,.1.5,1,1,0,0,1-.2.5l-.5.4h-.7a1.6,1.6,0,0,1-1-.3A1.3,1.3,0,0,1,177.4,67.8Z" transform="translate(-12.8 -2.2)" fill="#fcfcfc"/><path d="M183.2,67.6h.6a1.5,1.5,0,0,1-.5.9,1.4,1.4,0,0,1-.9.3,1.5,1.5,0,0,1-1.1-.5,1.9,1.9,0,0,1-.4-1.3,2.4,2.4,0,0,1,.2-1,1.3,1.3,0,0,1,.6-.6l.8-.2a1.4,1.4,0,0,1,.9.3,1.3,1.3,0,0,1,.5.8h-.6a.9.9,0,0,0-.3-.5l-.5-.2a.9.9,0,0,0-.7.3,1.5,1.5,0,0,0-.3,1,1.5,1.5,0,0,0,.3,1,.9.9,0,0,0,.7.3l.6-.2A1,1,0,0,0,183.2,67.6Z" transform="translate(-12.8 -2.2)" fill="#fcfcfc"/><path d="M186.5,68.4l-.6.4h-.6a1.2,1.2,0,0,1-.9-.3.9.9,0,0,1-.3-.7.9.9,0,0,1,.1-.5l.3-.3.4-.2h.5l1-.2v-.2a.6.6,0,0,0-.2-.5l-.7-.2H185a.9.9,0,0,0-.3.5h-.6a1.4,1.4,0,0,1,.3-.6l.5-.3h1.5l.4.3.2.4a3.4,3.4,0,0,1,0,.5v.8a8.3,8.3,0,0,0,0,1v.4h-.6A1.2,1.2,0,0,1,186.5,68.4Zm0-1.3-.9.2H185l-.2.2a.5.5,0,0,0,.1.7l.5.2h.6l.4-.4a1.4,1.4,0,0,0,.1-.6Z" transform="translate(-12.8 -2.2)" fill="#fcfcfc"/><path d="M187.7,67.4v-.6h1.8v.6Z" transform="translate(-12.8 -2.2)" fill="#fcfcfc"/><path d="M190.2,68.8V64.1h3.2v.6h-2.6v1.5H193v.6h-2.2v2.1Z" transform="translate(-12.8 -2.2)" fill="#fcfcfc"/><path d="M194.1,68.8V65.4h.5v.5l.4-.5h.4l.6.2-.2.5H195l-.2.3a2.3,2.3,0,0,0-.1.7v1.8Z" transform="translate(-12.8 -2.2)" fill="#fcfcfc"/><path d="M198.6,68.4l-.6.4h-.6a1.2,1.2,0,0,1-.9-.3.9.9,0,0,1-.3-.7.9.9,0,0,1,.1-.5l.3-.3.4-.2h.5l1-.2v-.2a.6.6,0,0,0-.2-.5l-.7-.2h-.6a.9.9,0,0,0-.3.5h-.6a1.4,1.4,0,0,1,.3-.6l.5-.3h1.5l.4.3.2.4a3.4,3.4,0,0,1,0,.5v.8a8.3,8.3,0,0,0,0,1v.4h-.6A1.2,1.2,0,0,1,198.6,68.4Zm0-1.3-.9.2h-.5l-.2.2a.5.5,0,0,0,.1.7l.5.2h.6l.4-.4a1.4,1.4,0,0,0,.1-.6Z" transform="translate(-12.8 -2.2)" fill="#fcfcfc"/><path d="M200,68.8V65.4h.5v.5a1.2,1.2,0,0,1,1.1-.6h.6l.4.3.2.4a3.3,3.3,0,0,1,0,.6v2.1h-.6V66.7a1.5,1.5,0,0,0-.1-.5l-.2-.3h-.4l-.6.2a1.2,1.2,0,0,0-.3.9v1.9Z" transform="translate(-12.8 -2.2)" fill="#fcfcfc"/><path d="M205.9,67.6h.6a1.5,1.5,0,0,1-.5.9,1.4,1.4,0,0,1-.9.3,1.5,1.5,0,0,1-1.1-.5,1.9,1.9,0,0,1-.4-1.3,2.4,2.4,0,0,1,.2-1,1.3,1.3,0,0,1,.6-.6l.8-.2a1.4,1.4,0,0,1,.9.3,1.3,1.3,0,0,1,.5.8h-.6a.9.9,0,0,0-.3-.5l-.5-.2a.9.9,0,0,0-.7.3,1.5,1.5,0,0,0-.3,1,1.5,1.5,0,0,0,.3,1,.9.9,0,0,0,.7.3l.6-.2A1,1,0,0,0,205.9,67.6Z" transform="translate(-12.8 -2.2)" fill="#fcfcfc"/><path d="M209.3,67.7h.6a1.5,1.5,0,0,1-.5.8,1.8,1.8,0,0,1-2.2-.2,1.8,1.8,0,0,1-.4-1.3,1.9,1.9,0,0,1,.4-1.3,1.5,1.5,0,0,1,1.2-.5,1.5,1.5,0,0,1,1.1.5,1.9,1.9,0,0,1,.4,1.3v.2h-2.6a1.3,1.3,0,0,0,.3.9,1,1,0,0,0,.7.3l.5-.2A1.1,1.1,0,0,0,209.3,67.7Zm-1.9-.9h1.9a1.2,1.2,0,0,0-.2-.6.9.9,0,0,0-.7-.3.9.9,0,0,0-.7.3A1.1,1.1,0,0,0,207.4,66.8Z" transform="translate(-12.8 -2.2)" fill="#fcfcfc"/><path d="M222.8,18.9a10.9,10.9,0,0,0-17.3,0H138.7V29.4h84.2Z" transform="translate(-12.8 -2.2)" fill="#e593b5"/><path d="M222.8,30.8a10.9,10.9,0,0,0-17.3,0H138.7V41.4h84.2Z" transform="translate(-12.8 -2.2)" fill="#d66990"/><path d="M147.6,37.9V33.2h3.1a1.1,1.1,0,0,1,.5.5,1.3,1.3,0,0,1,.2.7,1.2,1.2,0,0,1-.3.8,1.7,1.7,0,0,1-1,.4l.4.2.5.6.8,1.3H151l-.6-1-.5-.7-.3-.3h-1.4v2.1Zm.6-2.6h2l.4-.3a.8.8,0,0,0,.1-.4.7.7,0,0,0-.2-.6l-.8-.2h-1.5Z" transform="translate(-12.8 -2.2)"/><path d="M154.7,36.8h.6a1.5,1.5,0,0,1-.5.8,1.8,1.8,0,0,1-2.2-.2,1.8,1.8,0,0,1-.4-1.3,1.9,1.9,0,0,1,.4-1.3,1.5,1.5,0,0,1,1.2-.5,1.5,1.5,0,0,1,1.1.5,1.9,1.9,0,0,1,.4,1.3v.2h-2.6a1.3,1.3,0,0,0,.3.9,1,1,0,0,0,.7.3l.5-.2A1.1,1.1,0,0,0,154.7,36.8Zm-1.9-.9h1.9a1.2,1.2,0,0,0-.2-.6.9.9,0,0,0-.7-.3.9.9,0,0,0-.7.3A1.1,1.1,0,0,0,152.8,35.9Z" transform="translate(-12.8 -2.2)"/><path d="M156,37.9V34.5h.5V35a1.2,1.2,0,0,1,1.1-.6h.6l.4.3.2.4a3.3,3.3,0,0,1,0,.6v2.1h-.6V35.8a1.6,1.6,0,0,0-.1-.5l-.2-.3h-.4l-.6.2a1.2,1.2,0,0,0-.3.9v1.9Z" transform="translate(-12.8 -2.2)"/><path d="M159.7,37.9V34.5h.5V35a1.2,1.2,0,0,1,1.1-.6h.6l.4.3.2.4a3.3,3.3,0,0,1,0,.6v2.1h-.6V35.8a1.6,1.6,0,0,0-.1-.5l-.2-.3h-.4l-.6.2a1.2,1.2,0,0,0-.3.9v1.9Z" transform="translate(-12.8 -2.2)"/><path d="M165.7,36.8h.6a1.5,1.5,0,0,1-.5.8,1.8,1.8,0,0,1-2.2-.2,1.8,1.8,0,0,1-.4-1.3,1.9,1.9,0,0,1,.4-1.3,1.5,1.5,0,0,1,1.2-.5,1.5,1.5,0,0,1,1.1.5,1.9,1.9,0,0,1,.4,1.3v.2h-2.6a1.3,1.3,0,0,0,.3.9,1,1,0,0,0,.7.3l.5-.2A1.1,1.1,0,0,0,165.7,36.8Zm-1.9-.9h1.9a1.2,1.2,0,0,0-.2-.6.9.9,0,0,0-.7-.3.9.9,0,0,0-.7.3A1.1,1.1,0,0,0,163.8,35.9Z" transform="translate(-12.8 -2.2)"/><path d="M166.8,36.9h.6a.8.8,0,0,0,.3.5l.6.2.6-.2a.5.5,0,0,0,.2-.4.4.4,0,0,0-.2-.3l-.6-.2-.9-.3-.4-.3a.9.9,0,0,1-.1-.5.9.9,0,0,1,.1-.4l.3-.3.4-.2h1.2l.4.3a1.2,1.2,0,0,1,.2.5h-.6a.6.6,0,0,0-.2-.4h-1.1a.4.4,0,0,0-.2.3v.2l.2.2h.5l.9.3.4.3a.8.8,0,0,1,.1.5,1,1,0,0,1-.2.5l-.5.4h-.7a1.6,1.6,0,0,1-1-.3A1.3,1.3,0,0,1,166.8,36.9Z" transform="translate(-12.8 -2.2)"/><path d="M147.6,26.7V22h2.5l.6.2.4.5a1.5,1.5,0,0,1-.2,1.7,1.8,1.8,0,0,1-1.4.4h-1.2v1.9Zm.6-2.5h1.2a1.3,1.3,0,0,0,.9-.2.8.8,0,0,0,.3-.6.9.9,0,0,0-.1-.5l-.4-.3h-1.8Z" transform="translate(-12.8 -2.2)"/><path d="M154.2,26.3l-.6.4h-.6a1.2,1.2,0,0,1-.9-.3.9.9,0,0,1-.3-.7.9.9,0,0,1,.1-.5l.3-.3.4-.2h.5l1-.2v-.2a.6.6,0,0,0-.2-.5l-.7-.2h-.6a.9.9,0,0,0-.3.5h-.6a1.4,1.4,0,0,1,.3-.6l.5-.3h1.5l.4.3.2.4a3.3,3.3,0,0,1,0,.5v.8a8.3,8.3,0,0,0,0,1v.4h-.6Zm0-1.3-.9.2h-.5l-.2.2a.5.5,0,0,0,.1.7l.5.2h.6l.4-.4a1.4,1.4,0,0,0,.1-.6Z" transform="translate(-12.8 -2.2)"/><path d="M155.6,26.7V23.3h.5v.5l.4-.5h.4l.6.2-.2.5h-.8l-.2.3a2.3,2.3,0,0,0-.1.7v1.8Z" transform="translate(-12.8 -2.2)"/><path d="M157.8,22.7V22h.6v.7Zm0,4.1V23.3h.6v3.4Z" transform="translate(-12.8 -2.2)"/><path d="M159.1,25.7h.6a.8.8,0,0,0,.3.5l.6.2.6-.2a.5.5,0,0,0,.2-.4.4.4,0,0,0-.2-.3l-.6-.2-.9-.3-.4-.3a.9.9,0,0,1-.1-.5.9.9,0,0,1,.1-.4l.3-.3.4-.2h1.2l.4.3a1.2,1.2,0,0,1,.2.5h-.6a.6.6,0,0,0-.2-.4h-1.1a.4.4,0,0,0-.2.3v.2l.2.2h.5l.9.3.4.3a.8.8,0,0,1,.1.5,1,1,0,0,1-.2.5l-.5.4h-.7a1.6,1.6,0,0,1-1-.3A1.3,1.3,0,0,1,159.1,25.7Z" transform="translate(-12.8 -2.2)"/><path d="M222.8,73.9" transform="translate(-12.8 -2.2)" fill="none"/><path d="M232.7,87.3" transform="translate(-12.8 -2.2)" fill="#e22424"/><path d="M320.8,100.7H249.2V91a4.2,4.2,0,1,0,0-8.5V78.5a4.3,4.3,0,1,1-.1-8.6V64.4l71.4.3Z" transform="translate(-12.8 -2.2)" fill="#595a5b"/><path d="M258.7,83.9V79.2h.6v4.2h2.3v.6Z" transform="translate(-12.8 -2.2)" fill="#fffdfd"/><path d="M264.7,82.8h.6a1.5,1.5,0,0,1-.5.8,1.8,1.8,0,0,1-2.2-.2,1.8,1.8,0,0,1-.4-1.3,1.9,1.9,0,0,1,.4-1.3,1.5,1.5,0,0,1,1.2-.5,1.5,1.5,0,0,1,1.1.5,1.9,1.9,0,0,1,.4,1.3v.2h-2.6a1.3,1.3,0,0,0,.3.9,1,1,0,0,0,.7.3l.5-.2A1.1,1.1,0,0,0,264.7,82.8Zm-1.9-.9h1.9a1.2,1.2,0,0,0-.2-.6.9.9,0,0,0-.7-.3.9.9,0,0,0-.7.3A1.1,1.1,0,0,0,262.8,81.9Z" transform="translate(-12.8 -2.2)" fill="#fffdfd"/><path d="M265.9,84.2h.6a.5.5,0,0,0,.2.4l.6.2.6-.2a.8.8,0,0,0,.3-.5,3.7,3.7,0,0,0,0-.7,1.2,1.2,0,0,1-.9.4,1.3,1.3,0,0,1-1.1-.5,2,2,0,0,1-.4-1.2,2.3,2.3,0,0,1,.2-.9,1.4,1.4,0,0,1,.5-.6l.8-.2a1.2,1.2,0,0,1,1,.5v-.4h.5v3a2.8,2.8,0,0,1-.2,1.1,1.2,1.2,0,0,1-.5.5l-.9.2a1.6,1.6,0,0,1-1-.3A.9.9,0,0,1,265.9,84.2Zm.5-2.1a1.5,1.5,0,0,0,.3,1,.8.8,0,0,0,.7.3.9.9,0,0,0,.7-.3,1.4,1.4,0,0,0,.3-1,1.4,1.4,0,0,0-.3-.9.9.9,0,0,0-.7-.3.8.8,0,0,0-.7.3A1.4,1.4,0,0,0,266.4,82.2Z" transform="translate(-12.8 -2.2)" fill="#fffdfd"/><path d="M269.7,79.9v-.7h.6v.7Zm0,4.1V80.5h.6v3.4Z" transform="translate(-12.8 -2.2)" fill="#fffdfd"/><path d="M270.9,82.9h.6a.8.8,0,0,0,.3.5l.6.2.6-.2a.5.5,0,0,0,.2-.4.4.4,0,0,0-.2-.3l-.6-.2-.9-.3-.4-.3a.9.9,0,0,1-.1-.5.9.9,0,0,1,.1-.4l.3-.3.4-.2H273l.4.3a1.2,1.2,0,0,1,.2.5h-.6a.6.6,0,0,0-.2-.4h-1.1a.4.4,0,0,0-.2.3v.2l.2.2h.5l.9.3.4.3a.8.8,0,0,1,.1.5,1,1,0,0,1-.2.5l-.5.4h-.7a1.6,1.6,0,0,1-1-.3A1.3,1.3,0,0,1,270.9,82.9Z" transform="translate(-12.8 -2.2)" fill="#fffdfd"/><path d="M274.4,83.9V79.2h.6v4.7Z" transform="translate(-12.8 -2.2)" fill="#fffdfd"/><path d="M278.2,83.5l-.6.4h-.6a1.2,1.2,0,0,1-.9-.3.9.9,0,0,1-.3-.7.9.9,0,0,1,.1-.5l.3-.3.4-.2h.5l1-.2v-.2a.6.6,0,0,0-.2-.5l-.7-.2h-.6a.9.9,0,0,0-.3.5h-.6a1.4,1.4,0,0,1,.3-.6l.5-.3h1.5l.4.3.2.4a3.4,3.4,0,0,1,0,.5v.8a8.3,8.3,0,0,0,0,1v.4h-.6A1.2,1.2,0,0,1,278.2,83.5Zm0-1.3-.9.2h-.5l-.2.2a.5.5,0,0,0,.1.7l.5.2h.6l.4-.4a1.4,1.4,0,0,0,.1-.6Z" transform="translate(-12.8 -2.2)" fill="#fffdfd"/><path d="M280.9,83.4v.5H280l-.2-.3a2.1,2.1,0,0,1-.1-.7V81h-.4v-.5h.4v-.8l.6-.3v1.2h.6V81h-.6v2a1,1,0,0,0,0,.3h.6Z" transform="translate(-12.8 -2.2)" fill="#fffdfd"/><path d="M281.4,79.9v-.7h.6v.7Zm0,4.1V80.5h.6v3.4Z" transform="translate(-12.8 -2.2)" fill="#fffdfd"/><path d="M282.7,82.2a1.8,1.8,0,0,1,.5-1.4,1.6,1.6,0,0,1,1.1-.4,1.5,1.5,0,0,1,1.2.5,1.8,1.8,0,0,1,.4,1.3,2.3,2.3,0,0,1-.2,1,1.4,1.4,0,0,1-.6.6l-.8.2a1.5,1.5,0,0,1-1.2-.5A1.8,1.8,0,0,1,282.7,82.2Zm.6,0a1.5,1.5,0,0,0,.3,1,1,1,0,0,0,1.4,0,1.5,1.5,0,0,0,.3-1,1.4,1.4,0,0,0-.3-1,1,1,0,0,0-1.4,0A1.5,1.5,0,0,0,283.3,82.2Z" transform="translate(-12.8 -2.2)" fill="#fffdfd"/><path d="M286.6,83.9V80.5h.5V81a1.2,1.2,0,0,1,1.1-.6h.6l.4.3.2.4a3.3,3.3,0,0,1,0,.6v2.1h-.6V81.9a1.5,1.5,0,0,0-.1-.5l-.2-.3h-.4l-.6.2a1.2,1.2,0,0,0-.3.9v1.9Z" transform="translate(-12.8 -2.2)" fill="#fffdfd"/><path d="M290,82.5v-.6h1.8v.6Z" transform="translate(-12.8 -2.2)" fill="#fffdfd"/><path d="M292.5,83.9V79.2h3.4v.6h-2.8v1.4h2.6v.6h-2.6v1.6h2.9v.6Z" transform="translate(-12.8 -2.2)" fill="#fffdfd"/><path d="M296.5,83.9l1.3-1.8-1.2-1.6h.7l.5.8.2.4.3-.4.6-.8h.7l-1.2,1.6,1.3,1.8H299l-.7-1.1-.2-.3-.9,1.4Z" transform="translate(-12.8 -2.2)" fill="#fffdfd"/><path d="M300.2,85.3V80.5h.5V81l.4-.4h.6l.8.2a1.4,1.4,0,0,1,.5.6,2.3,2.3,0,0,1,.2.9,2.3,2.3,0,0,1-.2.9,1.4,1.4,0,0,1-.5.6l-.8.2h-.5l-.4-.3v1.7Zm.5-3a1.5,1.5,0,0,0,.3,1,.8.8,0,0,0,.6.3.8.8,0,0,0,.7-.3,1.6,1.6,0,0,0,.3-1,1.5,1.5,0,0,0-.3-1,.8.8,0,0,0-.6-.3.8.8,0,0,0-.7.3A1.5,1.5,0,0,0,300.7,82.3Z" transform="translate(-12.8 -2.2)" fill="#fffdfd"/><path d="M303.8,83.9V79.2h.6v4.7Z" transform="translate(-12.8 -2.2)" fill="#fffdfd"/><path d="M305.1,82.2a1.8,1.8,0,0,1,.5-1.4,1.6,1.6,0,0,1,1.1-.4,1.5,1.5,0,0,1,1.2.5,1.8,1.8,0,0,1,.4,1.3,2.3,2.3,0,0,1-.2,1,1.4,1.4,0,0,1-.6.6l-.8.2a1.5,1.5,0,0,1-1.2-.5A1.8,1.8,0,0,1,305.1,82.2Zm.6,0a1.5,1.5,0,0,0,.3,1,1,1,0,0,0,1.4,0,1.5,1.5,0,0,0,.3-1,1.4,1.4,0,0,0-.3-1,1,1,0,0,0-1.4,0A1.5,1.5,0,0,0,305.7,82.2Z" transform="translate(-12.8 -2.2)" fill="#fffdfd"/><path d="M309,83.9V80.5h.5V81l.4-.5h.4l.6.2-.2.5h-.8l-.2.3a2.3,2.3,0,0,0-.1.7v1.8Z" transform="translate(-12.8 -2.2)" fill="#fffdfd"/><path d="M313.5,82.8h.6a1.5,1.5,0,0,1-.5.8,1.8,1.8,0,0,1-2.2-.2,1.8,1.8,0,0,1-.4-1.3,1.9,1.9,0,0,1,.4-1.3,1.5,1.5,0,0,1,1.2-.5,1.5,1.5,0,0,1,1.1.5,1.9,1.9,0,0,1,.4,1.3v.2h-2.6a1.3,1.3,0,0,0,.3.9,1,1,0,0,0,.7.3l.5-.2A1.1,1.1,0,0,0,313.5,82.8Zm-1.9-.9h1.9a1.2,1.2,0,0,0-.2-.6.9.9,0,0,0-.7-.3.9.9,0,0,0-.7.3A1.1,1.1,0,0,0,311.6,81.9Z" transform="translate(-12.8 -2.2)" fill="#fffdfd"/><path d="M314.8,83.9V80.5h.5V81l.4-.5h.4l.6.2-.2.5h-.8l-.2.3a2.3,2.3,0,0,0-.1.7v1.8Z" transform="translate(-12.8 -2.2)" fill="#fffdfd"/><path d="M224.3,82.5,223,77.8h.6l.7,3.1.2,1,.2-.9.9-3.2h.8l.7,2.4a12.6,12.6,0,0,1,.4,1.7l.2-1,.7-3h.6l-1.3,4.7h-.6l-1-3.6v0l-1,3.6Z" transform="translate(-12.8 -2.2)"/><path d="M231.8,81.4h.6a1.5,1.5,0,0,1-.5.8,1.8,1.8,0,0,1-2.2-.2,1.8,1.8,0,0,1-.4-1.3,1.9,1.9,0,0,1,.4-1.3,1.5,1.5,0,0,1,1.2-.5,1.5,1.5,0,0,1,1.1.5,1.9,1.9,0,0,1,.4,1.3V81h-2.6a1.3,1.3,0,0,0,.3.9,1,1,0,0,0,.7.3l.5-.2A1.1,1.1,0,0,0,231.8,81.4Zm-1.9-.9h1.9a1.2,1.2,0,0,0-.2-.6.9.9,0,0,0-.7-.3.9.9,0,0,0-.7.3A1.1,1.1,0,0,0,229.9,80.5Z" transform="translate(-12.8 -2.2)"/><path d="M233.7,82.5h-.5V77.8h.6v1.7a1.2,1.2,0,0,1,.9-.5h.6l.5.4.3.6a2.3,2.3,0,0,1,.1.7,2,2,0,0,1-.4,1.4,1.4,1.4,0,0,1-1,.5,1.1,1.1,0,0,1-1-.5Zm0-1.7a1.8,1.8,0,0,0,.2.9.8.8,0,0,0,1.4.1,1.5,1.5,0,0,0,.3-1,1.5,1.5,0,0,0-.3-1,.8.8,0,0,0-.6-.3.8.8,0,0,0-.7.3A1.5,1.5,0,0,0,233.7,80.8Z" transform="translate(-12.8 -2.2)"/><path d="M222.9,90.5l1.8-4.7h.7l1.9,4.7h-.7l-.6-1.4h-2l-.5,1.4Zm1.4-1.9h1.6l-.5-1.3-.3-1-.3.9Z" transform="translate(-12.8 -2.2)"/><path d="M227.9,90.5V85.7h2.5l.6.2.4.5a1.5,1.5,0,0,1-.2,1.7,1.8,1.8,0,0,1-1.4.4h-1.2v1.9Zm.6-2.5h1.2a1.3,1.3,0,0,0,.9-.2.8.8,0,0,0,.3-.6.9.9,0,0,0-.2-.5l-.4-.3h-1.8Z" transform="translate(-12.8 -2.2)"/><path d="M232.4,90.5V85.7h.6v4.7Z" transform="translate(-12.8 -2.2)"/><polygon points="205.8 99.6 125.8 100.1 125.8 54.6 130.1 54.6 130.1 88.6 205.8 88.6 205.8 99.6" fill="#326c97"/><path d="M158.5,96a2.6,2.6,0,0,1,.6-1.8,2.1,2.1,0,0,1,1.6-.7,2.3,2.3,0,0,1,1.2.3,2,2,0,0,1,.8.9,2.8,2.8,0,0,1,.3,1.3,2.8,2.8,0,0,1-.3,1.3,2,2,0,0,1-.8.9,2.4,2.4,0,0,1-1.1.3,2.2,2.2,0,0,1-1.2-.3,2.1,2.1,0,0,1-.8-.9A2.7,2.7,0,0,1,158.5,96Zm.6,0a1.9,1.9,0,0,0,.5,1.3,1.6,1.6,0,0,0,2.3,0,2,2,0,0,0,.5-1.4,2.4,2.4,0,0,0-.2-1,1.5,1.5,0,0,0-.6-.7l-.8-.2a1.6,1.6,0,0,0-1.1.5A2,2,0,0,0,159.1,96Z" transform="translate(-12.8 -2.2)" fill="#fff"/><path d="M163.7,99.6V94.8h.5v.4l.4-.4h.6l.8.2a1.4,1.4,0,0,1,.5.6,2.3,2.3,0,0,1,.2.9,2.3,2.3,0,0,1-.2.9,1.4,1.4,0,0,1-.5.6l-.8.2h-.5l-.4-.3v1.7Zm.5-3a1.5,1.5,0,0,0,.3,1,.8.8,0,0,0,.6.3.8.8,0,0,0,.7-.3,1.5,1.5,0,0,0,.3-1,1.5,1.5,0,0,0-.3-1,.8.8,0,0,0-.6-.3.8.8,0,0,0-.7.3A1.6,1.6,0,0,0,164.3,96.6Z" transform="translate(-12.8 -2.2)" fill="#fff"/><path d="M169.7,97.2h.6a1.5,1.5,0,0,1-.5.8,1.8,1.8,0,0,1-2.2-.2,1.8,1.8,0,0,1-.4-1.3,1.9,1.9,0,0,1,.4-1.3,1.5,1.5,0,0,1,1.2-.5,1.5,1.5,0,0,1,1.1.5,1.9,1.9,0,0,1,.4,1.3v.2h-2.6a1.3,1.3,0,0,0,.3.9,1,1,0,0,0,.7.3l.5-.2A1.1,1.1,0,0,0,169.7,97.2Zm-1.9-.9h1.9a1.2,1.2,0,0,0-.2-.6.9.9,0,0,0-.7-.3.9.9,0,0,0-.7.3A1.1,1.1,0,0,0,167.8,96.2Z" transform="translate(-12.8 -2.2)" fill="#fff"/><path d="M171.1,98.3V94.8h.5v.5a1.2,1.2,0,0,1,1.1-.6h.6l.4.3.2.4a3.3,3.3,0,0,1,0,.6v2.1h-.6V96.2a1.6,1.6,0,0,0-.1-.5l-.2-.3h-.4l-.6.2a1.2,1.2,0,0,0-.3.9v1.9Z" transform="translate(-12.8 -2.2)" fill="#fff"/><path d="M174.8,98.3V93.5H178v.6h-2.6v1.5h2.2v.6h-2.2v2.1Z" transform="translate(-12.8 -2.2)" fill="#fff"/><path d="M178.8,94.2v-.7h.6v.7Zm0,4.1V94.8h.6v3.4Z" transform="translate(-12.8 -2.2)" fill="#fff"/><path d="M180,97.2h.6a.8.8,0,0,0,.3.5l.6.2.6-.2a.5.5,0,0,0,.2-.4.4.4,0,0,0-.2-.3l-.6-.2-.9-.3-.4-.3a.9.9,0,0,1-.1-.5.9.9,0,0,1,.1-.4l.3-.3.4-.2h1.2l.5.3a1.3,1.3,0,0,1,.2.5h-.6a.6.6,0,0,0-.2-.4h-1.1a.4.4,0,0,0-.2.3v.2l.2.2h.5l.9.3.4.3a.8.8,0,0,1,.1.5,1,1,0,0,1-.2.5l-.5.4h-.7a1.6,1.6,0,0,1-1-.3A1.3,1.3,0,0,1,180,97.2Z" transform="translate(-12.8 -2.2)" fill="#fff"/><path d="M185.8,97h.6a1.5,1.5,0,0,1-.5.9,1.4,1.4,0,0,1-.9.3,1.5,1.5,0,0,1-1.1-.5,1.9,1.9,0,0,1-.4-1.3,2.4,2.4,0,0,1,.2-1,1.3,1.3,0,0,1,.6-.6l.8-.2a1.4,1.4,0,0,1,.9.3,1.3,1.3,0,0,1,.5.8h-.6a.9.9,0,0,0-.3-.5l-.5-.2a.9.9,0,0,0-.7.3,1.5,1.5,0,0,0-.3,1,1.5,1.5,0,0,0,.3,1,.9.9,0,0,0,.7.3l.6-.2A1,1,0,0,0,185.8,97Z" transform="translate(-12.8 -2.2)" fill="#fff"/><path d="M189.1,97.8l-.6.4h-.6a1.2,1.2,0,0,1-.9-.3.9.9,0,0,1-.3-.7.9.9,0,0,1,.1-.5l.3-.3.4-.2h.5l1-.2v-.2a.6.6,0,0,0-.2-.5l-.7-.2h-.6a.9.9,0,0,0-.3.5h-.6a1.4,1.4,0,0,1,.3-.6l.5-.3H189l.4.3.2.4a3.4,3.4,0,0,1,0,.5v.8a8.3,8.3,0,0,0,0,1v.4h-.6A1.2,1.2,0,0,1,189.1,97.8Zm0-1.3-.9.2h-.5l-.2.2a.5.5,0,0,0,.1.7l.5.2h.6l.4-.4a1.4,1.4,0,0,0,.1-.6Z" transform="translate(-12.8 -2.2)" fill="#fff"/><path d="M195.8,96.6l.6.2a2.1,2.1,0,0,1-.7,1.2,2,2,0,0,1-1.2.4,2.2,2.2,0,0,1-1.2-.3,1.9,1.9,0,0,1-.7-.9,3.2,3.2,0,0,1-.2-1.3,2.8,2.8,0,0,1,.3-1.3,1.9,1.9,0,0,1,.8-.8,2.4,2.4,0,0,1,1.1-.3,1.9,1.9,0,0,1,1.2.4,1.9,1.9,0,0,1,.7,1h-.6a1.5,1.5,0,0,0-.5-.8l-.8-.2a1.5,1.5,0,0,0-.9.3,1.4,1.4,0,0,0-.5.7,2.8,2.8,0,0,0-.1.9,2.9,2.9,0,0,0,.2,1.1,1.3,1.3,0,0,0,.5.7l.8.2a1.3,1.3,0,0,0,.9-.3A1.5,1.5,0,0,0,195.8,96.6Z" transform="translate(-12.8 -2.2)" fill="#fff"/><path d="M196.9,96.6a1.8,1.8,0,0,1,.5-1.4,1.6,1.6,0,0,1,1.1-.4,1.5,1.5,0,0,1,1.2.5,1.8,1.8,0,0,1,.4,1.3,2.3,2.3,0,0,1-.2,1,1.4,1.4,0,0,1-.6.6l-.8.2a1.5,1.5,0,0,1-1.2-.5A1.8,1.8,0,0,1,196.9,96.6Zm.6,0a1.5,1.5,0,0,0,.3,1,1,1,0,0,0,1.4,0,1.5,1.5,0,0,0,.3-1,1.4,1.4,0,0,0-.3-1,1,1,0,0,0-1.4,0A1.5,1.5,0,0,0,197.5,96.6Z" transform="translate(-12.8 -2.2)" fill="#fff"/><path d="M200.8,98.3V94.8h.5v.5l.4-.5h.4l.6.2-.2.5h-.8l-.2.3a2.3,2.3,0,0,0-.1.7v1.8Z" transform="translate(-12.8 -2.2)" fill="#fff"/><path d="M205.3,97.2h.6a1.5,1.5,0,0,1-.5.8,1.8,1.8,0,0,1-2.2-.2,1.8,1.8,0,0,1-.4-1.3,1.9,1.9,0,0,1,.4-1.3,1.5,1.5,0,0,1,1.2-.5,1.5,1.5,0,0,1,1.1.5,1.9,1.9,0,0,1,.4,1.3v.2h-2.6a1.3,1.3,0,0,0,.3.9,1,1,0,0,0,.7.3l.5-.2A1.1,1.1,0,0,0,205.3,97.2Zm-1.9-.9h1.9a1.2,1.2,0,0,0-.2-.6.9.9,0,0,0-.7-.3.9.9,0,0,0-.7.3A1.1,1.1,0,0,0,203.4,96.2Z" transform="translate(-12.8 -2.2)" fill="#fff"/><polygon points="28.5 21.7 9.2 21.7 9.2 12.6 7.5 12.6 7.5 9.3 30.2 9.3 30.2 12.6 28.5 12.6 28.5 21.7" fill="#971640"/><path d="M43.4,39.4a3.3,3.3,0,0,0-5.3,0H17.8v3.2H43.4Z" transform="translate(-12.8 -2.2)" fill="#d66990"/><path d="M45.6,64.9H17.6V52.5h1.2v9.3H39.5V52.5h6.1V56a1.2,1.2,0,1,0,0,2.3v1.2a1.2,1.2,0,1,1,0,2.3Z" transform="translate(-12.8 -2.2)" fill="#67acce"/><polygon points="26.6 62.7 4.7 62.8 4.7 50.3 5.9 50.3 5.9 59.6 26.6 59.6 26.6 62.7" fill="#326c97"/><path d="M41.2,94.7H17.4V91.5a1.4,1.4,0,1,0,0-2.8V87.3a1.4,1.4,0,1,1,0-2.9V82.7H41.1Z" transform="translate(-12.8 -2.2)" fill="#595a5b"/><path d="M57.7,19.4l.6.2a2.1,2.1,0,0,1-.7,1.2,2,2,0,0,1-1.2.4,2.2,2.2,0,0,1-1.2-.3,1.9,1.9,0,0,1-.7-.9,3.2,3.2,0,0,1-.2-1.3,2.8,2.8,0,0,1,.3-1.3,1.9,1.9,0,0,1,.8-.8,2.4,2.4,0,0,1,1.1-.3,1.9,1.9,0,0,1,1.2.4,1.9,1.9,0,0,1,.7,1h-.6a1.5,1.5,0,0,0-.5-.8l-.8-.2a1.5,1.5,0,0,0-.9.3,1.4,1.4,0,0,0-.5.7,2.8,2.8,0,0,0-.1.9,2.9,2.9,0,0,0,.2,1.1,1.3,1.3,0,0,0,.5.7l.8.2a1.3,1.3,0,0,0,.9-.3A1.6,1.6,0,0,0,57.7,19.4Z" transform="translate(-12.8 -2.2)"/><path d="M58.9,19.4a1.8,1.8,0,0,1,.5-1.4,1.6,1.6,0,0,1,1.1-.4,1.5,1.5,0,0,1,1.2.5,1.8,1.8,0,0,1,.4,1.3,2.3,2.3,0,0,1-.2,1,1.4,1.4,0,0,1-.6.6l-.8.2a1.5,1.5,0,0,1-1.2-.5A1.8,1.8,0,0,1,58.9,19.4Zm.6,0a1.5,1.5,0,0,0,.3,1,1,1,0,0,0,1.4,0,1.5,1.5,0,0,0,.3-1,1.4,1.4,0,0,0-.3-1,1,1,0,0,0-1.4,0A1.5,1.5,0,0,0,59.4,19.4Z" transform="translate(-12.8 -2.2)"/><path d="M65,21.1v-.5a1.3,1.3,0,0,1-1.1.6h-.6l-.4-.3-.2-.4a2.9,2.9,0,0,1,0-.5V17.6h.6v1.9a3.4,3.4,0,0,0,0,.6l.2.4h.9l.3-.4a1.8,1.8,0,0,0,.1-.7V17.6h.6v3.4Z" transform="translate(-12.8 -2.2)"/><path d="M66.4,21.1V17.6h.5v.5a1.2,1.2,0,0,1,1.1-.6h.6l.4.3.2.4a3.3,3.3,0,0,1,0,.6v2.1h-.6V19a1.6,1.6,0,0,0-.1-.5l-.2-.3h-.4l-.6.2a1.2,1.2,0,0,0-.3.9v1.9Z" transform="translate(-12.8 -2.2)"/><path d="M71.4,20.5v.5h-.9l-.2-.3a2.1,2.1,0,0,1-.1-.7v-2h-.4v-.5h.4v-.8l.6-.3v1.2h.6v.5h-.6v2a1,1,0,0,0,0,.3h.6Z" transform="translate(-12.8 -2.2)"/><path d="M71.9,21.1V17.6h.5v.5l.4-.5h.4l.6.2-.2.5h-.8l-.2.3a2.3,2.3,0,0,0-.1.7v1.8Z" transform="translate(-12.8 -2.2)"/><path d="M74.1,22.4v-.5h.6l.2-.2.2-.4h.1l-1.3-3.4h.6l.7,2,.2.8.2-.8.7-2h.6l-1.3,3.5-.3.8-.4.4h-.9Z" transform="translate(-12.8 -2.2)"/><path d="M79.3,21.1V16.3h2.5l.6.2.4.5a1.5,1.5,0,0,1-.2,1.7,1.8,1.8,0,0,1-1.4.4H80v1.9Zm.6-2.5h1.2a1.3,1.3,0,0,0,.9-.2.8.8,0,0,0,.3-.6.9.9,0,0,0-.1-.5l-.4-.3H80Z" transform="translate(-12.8 -2.2)"/><path d="M85.9,20.6l-.6.4h-.6a1.2,1.2,0,0,1-.9-.3.9.9,0,0,1-.3-.7.9.9,0,0,1,.1-.5l.3-.3.4-.2h.5l1-.2v-.2a.6.6,0,0,0-.2-.5L85,18h-.6a.9.9,0,0,0-.3.5h-.6a1.4,1.4,0,0,1,.3-.6l.5-.3h1.5l.4.3.2.4a3.3,3.3,0,0,1,0,.5v.8a8.3,8.3,0,0,0,0,1v.4H86Zm0-1.3-.9.2h-.5l-.2.2a.5.5,0,0,0,.1.7l.5.2h.6l.4-.4a1.4,1.4,0,0,0,.1-.6Z" transform="translate(-12.8 -2.2)"/><path d="M89.6,19.8h.6a1.5,1.5,0,0,1-.5.9,1.4,1.4,0,0,1-.9.3,1.5,1.5,0,0,1-1.1-.5,1.9,1.9,0,0,1-.4-1.3,2.4,2.4,0,0,1,.2-1,1.3,1.3,0,0,1,.6-.6l.8-.2a1.4,1.4,0,0,1,.9.3,1.3,1.3,0,0,1,.5.8h-.6a.9.9,0,0,0-.3-.5l-.5-.2a.9.9,0,0,0-.7.3,1.5,1.5,0,0,0-.3,1,1.5,1.5,0,0,0,.3,1,.9.9,0,0,0,.7.3l.6-.2A1,1,0,0,0,89.6,19.8Z" transform="translate(-12.8 -2.2)"/><path d="M90.6,21.1V16.3h.6V19l1.4-1.4h.8L92,18.9l1.4,2.2h-.7l-1.1-1.8-.4.4v1.4Z" transform="translate(-12.8 -2.2)"/><path d="M96.2,20.6l-.6.4h-.6a1.2,1.2,0,0,1-.9-.3.9.9,0,0,1-.3-.7.9.9,0,0,1,.1-.5l.3-.3.4-.2h.5l1-.2v-.2a.6.6,0,0,0-.2-.5l-.7-.2h-.6a.9.9,0,0,0-.3.5h-.6a1.4,1.4,0,0,1,.3-.6l.5-.3h1.5l.4.3.2.4a3.3,3.3,0,0,1,0,.5v.8a8.3,8.3,0,0,0,0,1v.4h-.6Zm0-1.3-.9.2h-.5l-.2.2a.5.5,0,0,0,.1.7l.5.2h.6l.4-.4a1.4,1.4,0,0,0,.1-.6Z" transform="translate(-12.8 -2.2)"/><path d="M97.5,21.3h.6a.5.5,0,0,0,.2.4l.6.2.6-.2a.8.8,0,0,0,.3-.5,3.7,3.7,0,0,0,0-.7,1.2,1.2,0,0,1-.9.4,1.3,1.3,0,0,1-1.1-.5,2,2,0,0,1-.4-1.2,2.3,2.3,0,0,1,.2-.9,1.4,1.4,0,0,1,.5-.6l.8-.2a1.2,1.2,0,0,1,1,.5v-.4h.5v3a2.8,2.8,0,0,1-.2,1.1,1.2,1.2,0,0,1-.5.5l-.9.2a1.6,1.6,0,0,1-1-.3A.9.9,0,0,1,97.5,21.3Zm.5-2.1a1.5,1.5,0,0,0,.3,1,.9.9,0,0,0,1.3,0,1.4,1.4,0,0,0,.3-1,1.4,1.4,0,0,0-.3-.9.9.9,0,0,0-.7-.3.8.8,0,0,0-.7.3A1.4,1.4,0,0,0,98,19.3Z" transform="translate(-12.8 -2.2)"/><path d="M103.6,20h.6a1.5,1.5,0,0,1-.5.8,1.8,1.8,0,0,1-2.2-.2,1.8,1.8,0,0,1-.4-1.3,1.9,1.9,0,0,1,.4-1.3,1.5,1.5,0,0,1,1.2-.5,1.5,1.5,0,0,1,1.1.5,1.9,1.9,0,0,1,.4,1.3v.2h-2.6a1.3,1.3,0,0,0,.3.9,1,1,0,0,0,.7.3l.5-.2A1.1,1.1,0,0,0,103.6,20Zm-1.9-.9h1.9a1.2,1.2,0,0,0-.2-.6.9.9,0,0,0-.7-.3.9.9,0,0,0-.7.3A1.1,1.1,0,0,0,101.7,19Z" transform="translate(-12.8 -2.2)"/><path d="M54.4,43.4V38.7h3.4v.6H55v1.4h2.6v.6H55v1.6h2.9v.6Z" transform="translate(-12.8 -2.2)"/><path d="M58.3,43.4l1.3-1.8L58.4,40h.7l.5.8.2.4.3-.4.6-.8h.7l-1.2,1.6,1.3,1.8h-.7l-.7-1.1-.2-.3L59,43.4Z" transform="translate(-12.8 -2.2)"/><path d="M63.3,42.9v.5h-.9l-.2-.3a2.1,2.1,0,0,1-.1-.7v-2h-.4V40h.4v-.8l.6-.3V40h.6v.5h-.6v2a1,1,0,0,0,0,.3h.6Z" transform="translate(-12.8 -2.2)"/><path d="M66.2,42.3h.6a1.5,1.5,0,0,1-.5.8,1.8,1.8,0,0,1-2.2-.2,1.8,1.8,0,0,1-.4-1.3,1.9,1.9,0,0,1,.4-1.3,1.5,1.5,0,0,1,1.2-.5,1.5,1.5,0,0,1,1.1.5,1.9,1.9,0,0,1,.4,1.3v.2H64.2a1.3,1.3,0,0,0,.3.9,1,1,0,0,0,.7.3l.5-.2A1.1,1.1,0,0,0,66.2,42.3Zm-1.9-.9h1.9a1.2,1.2,0,0,0-.2-.6.9.9,0,0,0-.7-.3.9.9,0,0,0-.7.3A1.1,1.1,0,0,0,64.3,41.4Z" transform="translate(-12.8 -2.2)"/><path d="M67.5,43.4V40H68v.5a1.2,1.2,0,0,1,1.1-.6h.6l.4.3.2.4a3.3,3.3,0,0,1,0,.6v2.1h-.6V41.3a1.6,1.6,0,0,0-.1-.5l-.2-.3H69l-.6.2a1.2,1.2,0,0,0-.3.9v1.9Z" transform="translate(-12.8 -2.2)"/><path d="M71,42.4h.6a.8.8,0,0,0,.3.5l.6.2.6-.2a.5.5,0,0,0,.2-.4.4.4,0,0,0-.2-.3l-.6-.2-.9-.3-.4-.3a.9.9,0,0,1-.1-.5.9.9,0,0,1,.1-.4l.3-.3.4-.2H73l.4.3a1.2,1.2,0,0,1,.2.5h-.6a.6.6,0,0,0-.2-.4H71.8a.4.4,0,0,0-.2.3V41l.2.2h.5l.9.3.4.3a.8.8,0,0,1,.1.5,1,1,0,0,1-.2.5l-.5.4h-.7a1.6,1.6,0,0,1-1-.3A1.3,1.3,0,0,1,71,42.4Z" transform="translate(-12.8 -2.2)"/><path d="M74.5,39.4v-.7h.6v.7Zm0,4.1V40h.6v3.4Z" transform="translate(-12.8 -2.2)"/><path d="M75.7,41.7a1.8,1.8,0,0,1,.5-1.4,1.6,1.6,0,0,1,1.1-.4,1.5,1.5,0,0,1,1.2.5,1.8,1.8,0,0,1,.4,1.3,2.3,2.3,0,0,1-.2,1,1.4,1.4,0,0,1-.6.6l-.8.2a1.5,1.5,0,0,1-1.2-.5A1.8,1.8,0,0,1,75.7,41.7Zm.6,0a1.5,1.5,0,0,0,.3,1,1,1,0,0,0,1.4,0,1.5,1.5,0,0,0,.3-1,1.4,1.4,0,0,0-.3-1,1,1,0,0,0-1.4,0A1.5,1.5,0,0,0,76.3,41.7Z" transform="translate(-12.8 -2.2)"/><path d="M79.6,43.4V40h.5v.5a1.2,1.2,0,0,1,1.1-.6h.6l.4.3.2.4a3.3,3.3,0,0,1,0,.6v2.1h-.6V41.3a1.6,1.6,0,0,0-.1-.5l-.2-.3h-.4l-.6.2a1.2,1.2,0,0,0-.3.9v1.9Z" transform="translate(-12.8 -2.2)"/><path d="M85.2,43.4V38.7h2.5l.6.2.4.5a1.5,1.5,0,0,1-.2,1.7,1.8,1.8,0,0,1-1.4.4H85.8v1.9Zm.6-2.5h1.2a1.3,1.3,0,0,0,.9-.2.8.8,0,0,0,.3-.6.9.9,0,0,0-.1-.5l-.4-.3H85.8Z" transform="translate(-12.8 -2.2)"/><path d="M91.8,43l-.6.4h-.6a1.2,1.2,0,0,1-.9-.3.9.9,0,0,1-.3-.7.9.9,0,0,1,.1-.5l.3-.3.4-.2h.5l1-.2v-.2a.6.6,0,0,0-.2-.5l-.7-.2h-.6a.9.9,0,0,0-.3.5h-.6a1.4,1.4,0,0,1,.3-.6l.5-.3h1.5l.4.3.2.4a3.3,3.3,0,0,1,0,.5V42a8.3,8.3,0,0,0,0,1v.4h-.6Zm0-1.3-.9.2h-.5l-.2.2a.5.5,0,0,0,.1.7l.5.2h.6l.4-.4a1.4,1.4,0,0,0,.1-.6Z" transform="translate(-12.8 -2.2)"/><path d="M95.4,42.2H96a1.5,1.5,0,0,1-.5.9,1.4,1.4,0,0,1-.9.3,1.5,1.5,0,0,1-1.1-.5,1.9,1.9,0,0,1-.4-1.3,2.4,2.4,0,0,1,.2-1,1.3,1.3,0,0,1,.6-.6l.8-.2a1.4,1.4,0,0,1,.9.3,1.3,1.3,0,0,1,.5.8h-.6a.9.9,0,0,0-.3-.5l-.5-.2a.9.9,0,0,0-.7.3,1.5,1.5,0,0,0-.3,1,1.5,1.5,0,0,0,.3,1,.9.9,0,0,0,.7.3l.6-.2A1,1,0,0,0,95.4,42.2Z" transform="translate(-12.8 -2.2)"/><path d="M96.5,43.4V38.7h.6v2.7L98.5,40h.8l-1.3,1.3,1.4,2.2h-.7l-1.1-1.8-.4.4v1.4Z" transform="translate(-12.8 -2.2)"/><path d="M102,43l-.6.4h-.6a1.2,1.2,0,0,1-.9-.3.9.9,0,0,1-.3-.7.9.9,0,0,1,.1-.5l.3-.3.4-.2h.5l1-.2v-.2a.6.6,0,0,0-.2-.5l-.7-.2h-.6a.9.9,0,0,0-.3.5h-.6a1.4,1.4,0,0,1,.3-.6l.5-.3H102l.4.3.2.4a3.3,3.3,0,0,1,0,.5V42a8.3,8.3,0,0,0,0,1v.4h-.6Zm0-1.3-.9.2h-.5l-.2.2a.5.5,0,0,0,.1.7l.5.2h.6l.4-.4a1.4,1.4,0,0,0,.1-.6Z" transform="translate(-12.8 -2.2)"/><path d="M103.4,43.7h.6a.5.5,0,0,0,.2.4l.6.2.6-.2a.8.8,0,0,0,.3-.5,3.7,3.7,0,0,0,0-.7,1.2,1.2,0,0,1-.9.4,1.3,1.3,0,0,1-1.1-.5,2,2,0,0,1-.4-1.2,2.3,2.3,0,0,1,.2-.9,1.4,1.4,0,0,1,.5-.6l.8-.2a1.2,1.2,0,0,1,1,.5V40h.5v3a2.8,2.8,0,0,1-.2,1.1,1.2,1.2,0,0,1-.5.5l-.9.2a1.6,1.6,0,0,1-1-.3A.9.9,0,0,1,103.4,43.7Zm.5-2.1a1.5,1.5,0,0,0,.3,1,.9.9,0,0,0,1.3,0,1.4,1.4,0,0,0,.3-1,1.4,1.4,0,0,0-.3-.9.9.9,0,0,0-.7-.3.8.8,0,0,0-.7.3A1.4,1.4,0,0,0,103.9,41.6Z" transform="translate(-12.8 -2.2)"/><path d="M109.5,42.3h.6a1.5,1.5,0,0,1-.5.8,1.8,1.8,0,0,1-2.2-.2,1.8,1.8,0,0,1-.4-1.3,1.9,1.9,0,0,1,.4-1.3,1.5,1.5,0,0,1,1.2-.5,1.5,1.5,0,0,1,1.1.5,1.9,1.9,0,0,1,.4,1.3v.2h-2.6a1.3,1.3,0,0,0,.3.9,1,1,0,0,0,.7.3l.5-.2A1.1,1.1,0,0,0,109.5,42.3Zm-1.9-.9h1.9a1.2,1.2,0,0,0-.2-.6.9.9,0,0,0-.7-.3.9.9,0,0,0-.7.3A1.1,1.1,0,0,0,107.6,41.4Z" transform="translate(-12.8 -2.2)"/><path d="M54.2,59.7a2.6,2.6,0,0,1,.6-1.8,2.1,2.1,0,0,1,1.6-.7,2.3,2.3,0,0,1,1.2.3,2,2,0,0,1,.8.9,2.8,2.8,0,0,1,.3,1.3,2.8,2.8,0,0,1-.3,1.3,2,2,0,0,1-.8.9,2.4,2.4,0,0,1-1.1.3,2.2,2.2,0,0,1-1.2-.3,2.1,2.1,0,0,1-.8-.9A2.7,2.7,0,0,1,54.2,59.7Zm.6,0a1.9,1.9,0,0,0,.5,1.3,1.6,1.6,0,0,0,2.3,0,2,2,0,0,0,.5-1.4,2.4,2.4,0,0,0-.2-1,1.5,1.5,0,0,0-.6-.7l-.8-.2a1.6,1.6,0,0,0-1.1.5A2,2,0,0,0,54.8,59.7Z" transform="translate(-12.8 -2.2)"/><path d="M59.4,63.3V58.6H60V59l.4-.4H61l.8.2a1.4,1.4,0,0,1,.5.6,2.3,2.3,0,0,1,.2.9,2.3,2.3,0,0,1-.2.9,1.4,1.4,0,0,1-.5.6l-.8.2h-.5l-.4-.3v1.7Zm.5-3a1.5,1.5,0,0,0,.3,1,.8.8,0,0,0,.6.3.8.8,0,0,0,.7-.3,1.5,1.5,0,0,0,.3-1,1.5,1.5,0,0,0-.3-1,.8.8,0,0,0-.6-.3.8.8,0,0,0-.7.3A1.6,1.6,0,0,0,60,60.3Z" transform="translate(-12.8 -2.2)"/><path d="M65.5,60.9h.6a1.5,1.5,0,0,1-.5.8,1.8,1.8,0,0,1-2.2-.2,1.8,1.8,0,0,1-.4-1.3,1.9,1.9,0,0,1,.4-1.3,1.5,1.5,0,0,1,1.2-.5,1.5,1.5,0,0,1,1.1.5,1.9,1.9,0,0,1,.4,1.3v.2H63.5a1.3,1.3,0,0,0,.3.9,1,1,0,0,0,.7.3l.5-.2A1.1,1.1,0,0,0,65.5,60.9ZM63.5,60h1.9a1.2,1.2,0,0,0-.2-.6.9.9,0,0,0-.7-.3.9.9,0,0,0-.7.3A1.1,1.1,0,0,0,63.5,60Z" transform="translate(-12.8 -2.2)"/><path d="M66.8,62V58.6h.5v.5a1.2,1.2,0,0,1,1.1-.6H69l.4.3.2.4a3.3,3.3,0,0,1,0,.6V62H69V59.9a1.6,1.6,0,0,0-.1-.5l-.2-.3h-.4l-.6.2a1.2,1.2,0,0,0-.3.9V62Z" transform="translate(-12.8 -2.2)"/><path d="M70.6,62V57.3h3.2v.6H71.2v1.5h2.2v.6H71.2V62Z" transform="translate(-12.8 -2.2)"/><path d="M74.5,57.9v-.7h.6v.7Zm0,4.1V58.6h.6V62Z" transform="translate(-12.8 -2.2)"/><path d="M75.7,61h.6a.8.8,0,0,0,.3.5l.6.2.6-.2a.5.5,0,0,0,.2-.4.4.4,0,0,0-.2-.3l-.6-.2-.9-.3-.4-.3a.9.9,0,0,1-.1-.5.9.9,0,0,1,.1-.4l.3-.3.4-.2h1.2l.4.3a1.2,1.2,0,0,1,.2.5h-.6a.6.6,0,0,0-.2-.4H76.6a.4.4,0,0,0-.2.3v.2l.2.2h.5l.9.3.4.3a.8.8,0,0,1,.1.5,1,1,0,0,1-.2.5l-.5.4h-.7a1.6,1.6,0,0,1-1-.3A1.3,1.3,0,0,1,75.7,61Z" transform="translate(-12.8 -2.2)"/><path d="M81.5,60.8h.6a1.5,1.5,0,0,1-.5.9,1.4,1.4,0,0,1-.9.3,1.5,1.5,0,0,1-1.1-.5,1.9,1.9,0,0,1-.4-1.3,2.4,2.4,0,0,1,.2-1,1.3,1.3,0,0,1,.6-.6l.8-.2a1.4,1.4,0,0,1,.9.3,1.3,1.3,0,0,1,.5.8h-.6a.9.9,0,0,0-.3-.5l-.5-.2a.9.9,0,0,0-.7.3,1.5,1.5,0,0,0-.3,1,1.5,1.5,0,0,0,.3,1,.9.9,0,0,0,.7.3l.6-.2A1,1,0,0,0,81.5,60.8Z" transform="translate(-12.8 -2.2)"/><path d="M84.8,61.6l-.6.4h-.6a1.2,1.2,0,0,1-.9-.3.9.9,0,0,1-.3-.7.9.9,0,0,1,.1-.5l.3-.3.4-.2h.5l1-.2v-.2a.6.6,0,0,0-.2-.5l-.7-.2h-.6a.9.9,0,0,0-.3.5h-.6a1.4,1.4,0,0,1,.3-.6l.5-.3h1.5l.4.3.2.4a3.3,3.3,0,0,1,0,.5v.8a8.3,8.3,0,0,0,0,1V62h-.6Zm0-1.3-.9.2h-.5l-.2.2a.5.5,0,0,0,.1.7l.5.2h.6l.4-.4a1.4,1.4,0,0,0,.1-.6Z" transform="translate(-12.8 -2.2)"/><path d="M86,60.6V60h1.8v.6Z" transform="translate(-12.8 -2.2)"/><path d="M91.9,60.4l.6.2a2.1,2.1,0,0,1-.7,1.2,2,2,0,0,1-1.2.4,2.2,2.2,0,0,1-1.2-.3,1.9,1.9,0,0,1-.7-.9,3.2,3.2,0,0,1-.2-1.3,2.8,2.8,0,0,1,.3-1.3,1.9,1.9,0,0,1,.8-.8,2.4,2.4,0,0,1,1.1-.3,1.9,1.9,0,0,1,1.2.4,1.9,1.9,0,0,1,.7,1h-.6a1.5,1.5,0,0,0-.5-.8l-.8-.2a1.5,1.5,0,0,0-.9.3,1.4,1.4,0,0,0-.5.7,2.8,2.8,0,0,0-.1.9,2.9,2.9,0,0,0,.2,1.1,1.3,1.3,0,0,0,.5.7l.8.2a1.3,1.3,0,0,0,.9-.3A1.6,1.6,0,0,0,91.9,60.4Z" transform="translate(-12.8 -2.2)"/><path d="M93,60.3a1.8,1.8,0,0,1,.5-1.4,1.6,1.6,0,0,1,1.1-.4,1.5,1.5,0,0,1,1.2.5,1.8,1.8,0,0,1,.4,1.3,2.3,2.3,0,0,1-.2,1,1.4,1.4,0,0,1-.6.6l-.8.2a1.5,1.5,0,0,1-1.2-.5A1.8,1.8,0,0,1,93,60.3Zm.6,0a1.5,1.5,0,0,0,.3,1,1,1,0,0,0,1.4,0,1.5,1.5,0,0,0,.3-1,1.4,1.4,0,0,0-.3-1,1,1,0,0,0-1.4,0A1.5,1.5,0,0,0,93.6,60.3Z" transform="translate(-12.8 -2.2)"/><path d="M96.9,62V58.6h.5v.5l.4-.5h.4l.6.2-.2.5h-.8l-.2.3a2.3,2.3,0,0,0-.1.7V62Z" transform="translate(-12.8 -2.2)"/><path d="M101.4,60.9h.6a1.5,1.5,0,0,1-.5.8,1.8,1.8,0,0,1-2.2-.2,1.8,1.8,0,0,1-.4-1.3,1.9,1.9,0,0,1,.4-1.3,1.5,1.5,0,0,1,1.2-.5,1.5,1.5,0,0,1,1.1.5,1.9,1.9,0,0,1,.4,1.3v.2H99.5a1.3,1.3,0,0,0,.3.9,1,1,0,0,0,.7.3l.5-.2A1.1,1.1,0,0,0,101.4,60.9ZM99.5,60h1.9a1.2,1.2,0,0,0-.2-.6.9.9,0,0,0-.7-.3.9.9,0,0,0-.7.3A1.1,1.1,0,0,0,99.5,60Z" transform="translate(-12.8 -2.2)"/><path d="M53.9,87.6l1.8-4.7h.7l1.9,4.7h-.7L57,86.1H55l-.5,1.4Zm1.4-1.9h1.6l-.5-1.3-.3-1-.3.9Z" transform="translate(-12.8 -2.2)"/><path d="M58.7,88.9V84.2h.5v.4l.4-.4h.6l.8.2a1.4,1.4,0,0,1,.5.6,2.3,2.3,0,0,1,.2.9,2.3,2.3,0,0,1-.2.9,1.4,1.4,0,0,1-.5.6l-.8.2h-.5l-.4-.3v1.7Zm.5-3a1.5,1.5,0,0,0,.3,1,.8.8,0,0,0,.6.3.8.8,0,0,0,.7-.3,1.5,1.5,0,0,0,.3-1,1.5,1.5,0,0,0-.3-1,.8.8,0,0,0-.6-.3.8.8,0,0,0-.7.3A1.6,1.6,0,0,0,59.2,85.9Z" transform="translate(-12.8 -2.2)"/><path d="M62.4,88.9V84.2h.5v.4l.4-.4h.6l.8.2a1.4,1.4,0,0,1,.5.6,2.3,2.3,0,0,1,.2.9,2.3,2.3,0,0,1-.2.9,1.4,1.4,0,0,1-.5.6l-.8.2h-.5l-.4-.3v1.7Zm.5-3a1.5,1.5,0,0,0,.3,1,.8.8,0,0,0,.6.3.8.8,0,0,0,.7-.3,1.5,1.5,0,0,0,.3-1,1.5,1.5,0,0,0-.3-1,.8.8,0,0,0-.6-.3.8.8,0,0,0-.7.3A1.6,1.6,0,0,0,62.9,85.9Z" transform="translate(-12.8 -2.2)"/><path d="M65.8,86.6h.6a.8.8,0,0,0,.3.5l.6.2.6-.2a.5.5,0,0,0,.2-.4.4.4,0,0,0-.2-.3l-.6-.2-.9-.3-.4-.3a.9.9,0,0,1-.1-.5.9.9,0,0,1,.1-.4l.3-.3.4-.2h1.2l.4.3a1.2,1.2,0,0,1,.2.5H68a.6.6,0,0,0-.2-.4H66.6a.4.4,0,0,0-.2.3v.2l.2.2h.5l.9.3.4.3a.8.8,0,0,1,.1.5,1,1,0,0,1-.2.5l-.5.4h-.7a1.6,1.6,0,0,1-1-.3A1.3,1.3,0,0,1,65.8,86.6Z" transform="translate(-12.8 -2.2)"/><path d="M73.4,86.3H74a1.5,1.5,0,0,1-.5.9,1.4,1.4,0,0,1-.9.3,1.5,1.5,0,0,1-1.1-.5,1.9,1.9,0,0,1-.4-1.3,2.4,2.4,0,0,1,.2-1,1.3,1.3,0,0,1,.6-.6l.8-.2a1.4,1.4,0,0,1,.9.3,1.3,1.3,0,0,1,.5.8h-.6a.9.9,0,0,0-.3-.5l-.5-.2a.9.9,0,0,0-.7.3,1.5,1.5,0,0,0-.3,1,1.5,1.5,0,0,0,.3,1,.9.9,0,0,0,.7.3l.6-.2A1,1,0,0,0,73.4,86.3Z" transform="translate(-12.8 -2.2)"/><path d="M74.3,85.9a1.8,1.8,0,0,1,.5-1.4,1.6,1.6,0,0,1,1.1-.4,1.5,1.5,0,0,1,1.2.5,1.8,1.8,0,0,1,.4,1.3,2.3,2.3,0,0,1-.2,1,1.4,1.4,0,0,1-.6.6l-.8.2a1.5,1.5,0,0,1-1.2-.5A1.8,1.8,0,0,1,74.3,85.9Zm.6,0a1.5,1.5,0,0,0,.3,1,1,1,0,0,0,1.4,0,1.5,1.5,0,0,0,.3-1,1.4,1.4,0,0,0-.3-1,1,1,0,0,0-1.4,0A1.5,1.5,0,0,0,74.9,85.9Z" transform="translate(-12.8 -2.2)"/><path d="M78.2,87.6V84.2h.5v.5a1.2,1.2,0,0,1,1.1-.6h.6l.4.3.2.4a3.3,3.3,0,0,1,0,.6v2.1h-.6V85.5a1.6,1.6,0,0,0-.1-.5l-.2-.3h-.4l-.6.2a1.2,1.2,0,0,0-.3.9v1.9Z" transform="translate(-12.8 -2.2)"/><path d="M81.8,87.6V84.2h.5v.5a1.2,1.2,0,0,1,1.1-.6H84l.4.3.2.4a3.3,3.3,0,0,1,0,.6v2.1H84V85.5A1.6,1.6,0,0,0,84,85l-.2-.3h-.4l-.6.2a1.2,1.2,0,0,0-.3.9v1.9Z" transform="translate(-12.8 -2.2)"/><path d="M87.8,86.5h.6a1.5,1.5,0,0,1-.5.8,1.8,1.8,0,0,1-2.2-.2,1.8,1.8,0,0,1-.4-1.3,1.9,1.9,0,0,1,.4-1.3,1.5,1.5,0,0,1,1.2-.5,1.5,1.5,0,0,1,1.1.5,1.9,1.9,0,0,1,.4,1.3V86H85.9a1.3,1.3,0,0,0,.3.9,1,1,0,0,0,.7.3l.5-.2A1.1,1.1,0,0,0,87.8,86.5Zm-1.9-.9h1.9a1.2,1.2,0,0,0-.2-.6.9.9,0,0,0-.7-.3.9.9,0,0,0-.7.3A1.1,1.1,0,0,0,85.9,85.5Z" transform="translate(-12.8 -2.2)"/><path d="M91.4,86.3H92a1.5,1.5,0,0,1-.5.9,1.4,1.4,0,0,1-.9.3,1.5,1.5,0,0,1-1.1-.5,1.9,1.9,0,0,1-.4-1.3,2.4,2.4,0,0,1,.2-1,1.3,1.3,0,0,1,.6-.6l.8-.2a1.4,1.4,0,0,1,.9.3,1.3,1.3,0,0,1,.5.8h-.6a.9.9,0,0,0-.3-.5l-.5-.2a.9.9,0,0,0-.7.3,1.5,1.5,0,0,0-.3,1,1.5,1.5,0,0,0,.3,1,.9.9,0,0,0,.7.3l.6-.2A1,1,0,0,0,91.4,86.3Z" transform="translate(-12.8 -2.2)"/><path d="M93.7,87.1v.5h-.9l-.2-.3a2.1,2.1,0,0,1-.1-.7v-2h-.4v-.5h.4v-.8l.6-.3v1.2h.6v.5h-.6v2a1,1,0,0,0,0,.3h.6Z" transform="translate(-12.8 -2.2)"/><path d="M94.3,83.5v-.7h.6v.7Zm0,4.1V84.2h.6v3.4Z" transform="translate(-12.8 -2.2)"/><path d="M95.8,87.6V84.2h.5v.5a1.2,1.2,0,0,1,1.1-.6H98l.4.3.2.4a3.3,3.3,0,0,1,0,.6v2.1H98V85.5a1.6,1.6,0,0,0-.1-.5l-.2-.3h-.4l-.6.2a1.2,1.2,0,0,0-.3.9v1.9Z" transform="translate(-12.8 -2.2)"/><path d="M99.3,87.9h.6a.5.5,0,0,0,.2.4l.6.2.6-.2a.8.8,0,0,0,.3-.5,3.7,3.7,0,0,0,0-.7,1.2,1.2,0,0,1-.9.4,1.3,1.3,0,0,1-1.1-.5,2,2,0,0,1-.4-1.2,2.3,2.3,0,0,1,.2-.9,1.4,1.4,0,0,1,.5-.6l.8-.2a1.2,1.2,0,0,1,1,.5v-.4h.5v3a2.8,2.8,0,0,1-.2,1.1,1.2,1.2,0,0,1-.5.5l-.9.2a1.6,1.6,0,0,1-1-.3A.9.9,0,0,1,99.3,87.9Zm.5-2.1a1.5,1.5,0,0,0,.3,1,.9.9,0,0,0,1.3,0,1.4,1.4,0,0,0,.3-1,1.4,1.4,0,0,0-.3-.9.9.9,0,0,0-.7-.3.8.8,0,0,0-.7.3A1.4,1.4,0,0,0,99.8,85.8Z" transform="translate(-12.8 -2.2)"/><path d="M55.6,95v.5h-.9l-.2-.3a2.1,2.1,0,0,1-.1-.7v-2H54v-.5h.4v-.8l.6-.3v1.2h.6v.5H55v2a1,1,0,0,0,0,.3h.6Z" transform="translate(-12.8 -2.2)"/><path d="M56.1,95.5V90.8h.6v1.7a1.3,1.3,0,0,1,1-.5l.7.2.4.4a1.9,1.9,0,0,1,.1.8v2.2h-.6V93.3a.9.9,0,0,0-.2-.6l-.5-.2h-.5l-.3.4a1.7,1.7,0,0,0-.1.6v1.9Z" transform="translate(-12.8 -2.2)"/><path d="M59.8,95.5V92.1h.5v.5l.4-.5h.4l.6.2-.2.5h-.8l-.2.3a2.3,2.3,0,0,0-.1.7v1.8Z" transform="translate(-12.8 -2.2)"/><path d="M61.8,93.8a1.8,1.8,0,0,1,.5-1.4,1.6,1.6,0,0,1,1.1-.4,1.5,1.5,0,0,1,1.2.5,1.8,1.8,0,0,1,.4,1.3,2.3,2.3,0,0,1-.2,1,1.4,1.4,0,0,1-.6.6l-.8.2a1.5,1.5,0,0,1-1.2-.5A1.8,1.8,0,0,1,61.8,93.8Zm.6,0a1.5,1.5,0,0,0,.3,1,1,1,0,0,0,1.4,0,1.5,1.5,0,0,0,.3-1,1.4,1.4,0,0,0-.3-1,1,1,0,0,0-1.4,0A1.5,1.5,0,0,0,62.4,93.8Z" transform="translate(-12.8 -2.2)"/><path d="M67.9,95.5V95a1.3,1.3,0,0,1-1.1.6h-.6l-.4-.3-.2-.4a2.9,2.9,0,0,1,0-.5V92.1h.6V94a3.4,3.4,0,0,0,0,.6l.2.4h.9l.3-.4a1.8,1.8,0,0,0,.1-.7V92.1h.6v3.4Z" transform="translate(-12.8 -2.2)"/><path d="M69.2,95.8h.6a.5.5,0,0,0,.2.4l.6.2.6-.2a.8.8,0,0,0,.3-.5,3.7,3.7,0,0,0,0-.7,1.2,1.2,0,0,1-.9.4,1.3,1.3,0,0,1-1.1-.5,2,2,0,0,1-.4-1.2,2.3,2.3,0,0,1,.2-.9,1.4,1.4,0,0,1,.5-.6l.8-.2a1.2,1.2,0,0,1,1,.5v-.4h.5v3a2.8,2.8,0,0,1-.2,1.1,1.2,1.2,0,0,1-.5.5l-.9.2a1.6,1.6,0,0,1-1-.3A.9.9,0,0,1,69.2,95.8Zm.5-2.1a1.5,1.5,0,0,0,.3,1,.9.9,0,0,0,1.3,0,1.4,1.4,0,0,0,.3-1,1.4,1.4,0,0,0-.3-.9.9.9,0,0,0-.7-.3.8.8,0,0,0-.7.3A1.4,1.4,0,0,0,69.7,93.7Z" transform="translate(-12.8 -2.2)"/><path d="M73,95.5V90.8h.6v1.7a1.3,1.3,0,0,1,1-.5l.7.2.4.4a1.9,1.9,0,0,1,.1.8v2.2h-.6V93.3a.9.9,0,0,0-.2-.6l-.5-.2H74l-.3.4a1.7,1.7,0,0,0-.1.6v1.9Z" transform="translate(-12.8 -2.2)"/><path d="M79.8,95v.5H79l-.2-.3a2.1,2.1,0,0,1-.1-.7v-2h-.4v-.5h.4v-.8l.6-.3v1.2h.6v.5h-.6v2a1,1,0,0,0,0,.3h.6Z" transform="translate(-12.8 -2.2)"/><path d="M80.4,95.5V90.8h.6v1.7a1.3,1.3,0,0,1,1-.5l.7.2.4.4a1.9,1.9,0,0,1,.1.8v2.2h-.6V93.3a.9.9,0,0,0-.2-.6l-.5-.2h-.5L81,93a1.7,1.7,0,0,0-.1.6v1.9Z" transform="translate(-12.8 -2.2)"/><path d="M86.4,94.4H87a1.5,1.5,0,0,1-.5.8,1.8,1.8,0,0,1-2.2-.2,1.8,1.8,0,0,1-.4-1.3,1.9,1.9,0,0,1,.4-1.3,1.5,1.5,0,0,1,1.2-.5,1.5,1.5,0,0,1,1.1.5,1.9,1.9,0,0,1,.4,1.3v.2H84.4a1.3,1.3,0,0,0,.3.9,1,1,0,0,0,.7.3l.5-.2A1.1,1.1,0,0,0,86.4,94.4Zm-1.9-.9h1.9a1.2,1.2,0,0,0-.2-.6.9.9,0,0,0-.7-.3.9.9,0,0,0-.7.3A1.1,1.1,0,0,0,84.5,93.5Z" transform="translate(-12.8 -2.2)"/><path d="M90.2,95.5l-1-3.4h.6l.5,2,.2.7.2-.7.5-2h.6l.5,2,.2.7.2-.7.6-2h.6l-1.1,3.4h-.6l-.5-2.1v-.6l-.7,2.6Z" transform="translate(-12.8 -2.2)"/><path d="M96.7,94.4h.6a1.5,1.5,0,0,1-.5.8,1.8,1.8,0,0,1-2.2-.2,1.8,1.8,0,0,1-.4-1.3,1.9,1.9,0,0,1,.4-1.3,1.5,1.5,0,0,1,1.2-.5,1.5,1.5,0,0,1,1.1.5,1.9,1.9,0,0,1,.4,1.3v.2H94.7a1.3,1.3,0,0,0,.3.9,1,1,0,0,0,.7.3l.5-.2A1.1,1.1,0,0,0,96.7,94.4Zm-1.9-.9h1.9a1.2,1.2,0,0,0-.2-.6.9.9,0,0,0-.7-.3.9.9,0,0,0-.7.3A1.1,1.1,0,0,0,94.8,93.5Z" transform="translate(-12.8 -2.2)"/><path d="M98.5,95.5H98V90.8h.6v1.7a1.2,1.2,0,0,1,.9-.5h.6l.5.4.3.6a2.3,2.3,0,0,1,.1.7,2,2,0,0,1-.4,1.4,1.4,1.4,0,0,1-1,.5,1.1,1.1,0,0,1-1-.5Zm0-1.7a1.8,1.8,0,0,0,.2.9.8.8,0,0,0,1.4.1,1.5,1.5,0,0,0,.3-1,1.5,1.5,0,0,0-.3-1,.8.8,0,0,0-.6-.3.8.8,0,0,0-.7.3A1.5,1.5,0,0,0,98.5,93.8Z" transform="translate(-12.8 -2.2)"/><path d="M104.5,95.5l1.8-4.7h.7l1.9,4.7h-.7l-.6-1.4h-2l-.5,1.4Zm1.4-1.9h1.6l-.5-1.3-.3-1-.3.9Z" transform="translate(-12.8 -2.2)"/><path d="M109.4,95.5V90.8h2.5l.6.2.4.5a1.5,1.5,0,0,1-.2,1.7,1.8,1.8,0,0,1-1.4.4h-1.2v1.9Zm.6-2.5h1.2a1.3,1.3,0,0,0,.9-.2.8.8,0,0,0,.3-.6.9.9,0,0,0-.1-.5l-.4-.3h-1.8Z" transform="translate(-12.8 -2.2)"/><path d="M114,95.5V90.8h.6v4.7Z" transform="translate(-12.8 -2.2)"/><line x1="36.7" y1="6.3" x2="36.7" y2="100.7" fill="#c5c9c8" stroke="#b6b7b7" stroke-miterlimit="10" stroke-width="0.25"/><line x1="103.9" y1="26.2" x2="0.2" y2="26.2" fill="#c5c9c8" stroke="#b6b7b7" stroke-miterlimit="10" stroke-width="0.25"/><line x1="103.9" y1="47.8" x2="0.2" y2="47.8" fill="#c5c9c8" stroke="#b6b7b7" stroke-miterlimit="10" stroke-width="0.25"/><line x1="103.9" y1="68.8" x2="0.2" y2="68.8" fill="#c5c9c8" stroke="#b6b7b7" stroke-miterlimit="10" stroke-width="0.25"/><line x1="103.7" y1="6.3" y2="6.3" fill="#c5c9c8" stroke="#b6b7b7" stroke-miterlimit="10" stroke-width="0.25"/><line x1="103.9" y1="100.7" x2="0.2" y2="100.7" fill="#c5c9c8" stroke="#b6b7b7" stroke-miterlimit="10" stroke-width="0.25"/><line x1="0.2" y1="6.4" x2="0.2" y2="100.8" fill="#c5c9c8" stroke="#b6b7b7" stroke-miterlimit="10" stroke-width="0.25"/><line x1="103.7" y1="6.3" x2="103.7" y2="100.8" fill="#c5c9c8" stroke="#b6b7b7" stroke-miterlimit="10" stroke-width="0.25"/><path d="M147.5,14.2V9.5h.6l2.5,3.7V9.5h.6v4.7h-.6l-2.5-3.7v3.7Z" transform="translate(-12.8 -2.2)"/><path d="M154.6,13.1h.6a1.5,1.5,0,0,1-.5.8,1.8,1.8,0,0,1-2.2-.2,1.8,1.8,0,0,1-.4-1.3,1.9,1.9,0,0,1,.4-1.3,1.5,1.5,0,0,1,1.2-.5,1.5,1.5,0,0,1,1.1.5,1.9,1.9,0,0,1,.4,1.3v.2h-2.6a1.3,1.3,0,0,0,.3.9.9.9,0,0,0,.7.3l.5-.2A1.1,1.1,0,0,0,154.6,13.1Zm-1.9-.9h1.9a1.2,1.2,0,0,0-.2-.6.9.9,0,0,0-.7-.3.9.9,0,0,0-.7.3A1.1,1.1,0,0,0,152.7,12.2Z" transform="translate(-12.8 -2.2)"/><path d="M156.5,14.2l-1-3.4h.6l.5,2,.2.7.2-.7.5-2h.6l.5,2,.2.7.2-.7.6-2h.6l-1.1,3.4h-.6l-.5-2.1v-.6l-.7,2.6Z" transform="translate(-12.8 -2.2)"/><path d="M162.6,14.2V9.5H166v.6h-2.8v1.4h2.6v.6h-2.6v1.6h2.9v.6Z" transform="translate(-12.8 -2.2)"/><path d="M166.5,14.2l1.3-1.8-1.2-1.6h.7l.5.8.2.4.3-.4.6-.8h.7l-1.2,1.6,1.3,1.8H169l-.7-1.1-.2-.3-.9,1.4Z" transform="translate(-12.8 -2.2)"/><path d="M171.5,13.7v.5h-.9l-.2-.3a2.1,2.1,0,0,1-.1-.7v-2h-.4v-.5h.4V10l.6-.3v1.2h.6v.5h-.6v2a1,1,0,0,0,0,.3h.6Z" transform="translate(-12.8 -2.2)"/><path d="M174.4,13.1h.6a1.5,1.5,0,0,1-.5.8,1.8,1.8,0,0,1-2.2-.2,1.8,1.8,0,0,1-.4-1.3,1.9,1.9,0,0,1,.4-1.3,1.5,1.5,0,0,1,1.2-.5,1.5,1.5,0,0,1,1.1.5,1.9,1.9,0,0,1,.4,1.3v.2h-2.6a1.3,1.3,0,0,0,.3.9.9.9,0,0,0,.7.3l.5-.2A1.1,1.1,0,0,0,174.4,13.1Zm-1.9-.9h1.9a1.2,1.2,0,0,0-.2-.6.9.9,0,0,0-.7-.3.9.9,0,0,0-.7.3A1.1,1.1,0,0,0,172.5,12.2Z" transform="translate(-12.8 -2.2)"/><path d="M175.7,14.2V10.8h.5v.5a1.2,1.2,0,0,1,1.1-.6h.6l.4.3.2.4a3.3,3.3,0,0,1,0,.6v2.1h-.6V12.2a1.6,1.6,0,0,0-.1-.5l-.2-.3h-.4l-.6.2a1.2,1.2,0,0,0-.3.9v1.9Z" transform="translate(-12.8 -2.2)"/><path d="M179.2,13.2h.6a.8.8,0,0,0,.3.5l.6.2.6-.2a.5.5,0,0,0,.2-.4.4.4,0,0,0-.2-.3l-.6-.2-.9-.3-.4-.3a.9.9,0,0,1-.1-.5.9.9,0,0,1,.1-.4l.3-.3.4-.2h1.2l.4.3a1.2,1.2,0,0,1,.2.5h-.6a.6.6,0,0,0-.2-.4H180a.4.4,0,0,0-.2.3v.2l.2.2h.5l.9.3.4.3a.8.8,0,0,1,.1.5,1,1,0,0,1-.2.5l-.5.4h-.7a1.6,1.6,0,0,1-1-.3A1.3,1.3,0,0,1,179.2,13.2Z" transform="translate(-12.8 -2.2)"/><path d="M182.7,10.2V9.5h.6v.7Zm0,4.1V10.8h.6v3.4Z" transform="translate(-12.8 -2.2)"/><path d="M183.9,12.5a1.8,1.8,0,0,1,.5-1.4,1.6,1.6,0,0,1,1.1-.4,1.5,1.5,0,0,1,1.2.5,1.8,1.8,0,0,1,.4,1.3,2.3,2.3,0,0,1-.2,1,1.4,1.4,0,0,1-.6.6l-.8.2a1.5,1.5,0,0,1-1.2-.5A1.8,1.8,0,0,1,183.9,12.5Zm.6,0a1.5,1.5,0,0,0,.3,1,1,1,0,0,0,1.4,0,1.5,1.5,0,0,0,.3-1,1.4,1.4,0,0,0-.3-1,1,1,0,0,0-1.4,0A1.5,1.5,0,0,0,184.5,12.5Z" transform="translate(-12.8 -2.2)"/><path d="M187.8,14.2V10.8h.5v.5a1.2,1.2,0,0,1,1.1-.6h.6l.4.3.2.4a3.3,3.3,0,0,1,0,.6v2.1H190V12.2a1.5,1.5,0,0,0-.1-.5l-.2-.3h-.4l-.6.2a1.2,1.2,0,0,0-.3.9v1.9Z" transform="translate(-12.8 -2.2)"/><path d="M320.8,53.2H249.2V43.5a4.2,4.2,0,1,0,0-8.5V31a4.3,4.3,0,1,1-.1-8.6V17l71.4.3Z" transform="translate(-12.8 -2.2)" fill="#595a5b"/><path d="M271.5,38V33.3h.6l2.5,3.7V33.3h.6V38h-.6l-2.5-3.7V38Z" transform="translate(-12.8 -2.2)" fill="#fffdfd"/><path d="M278.5,36.9h.6a1.5,1.5,0,0,1-.5.8,1.8,1.8,0,0,1-2.2-.2,1.8,1.8,0,0,1-.4-1.3,1.9,1.9,0,0,1,.4-1.3,1.5,1.5,0,0,1,1.2-.5,1.5,1.5,0,0,1,1.1.5,1.9,1.9,0,0,1,.4,1.3v.2h-2.6a1.3,1.3,0,0,0,.3.9.9.9,0,0,0,.7.3l.5-.2A1.1,1.1,0,0,0,278.5,36.9Zm-1.9-.9h1.9a1.2,1.2,0,0,0-.2-.6.9.9,0,0,0-.7-.3.9.9,0,0,0-.7.3A1.1,1.1,0,0,0,276.6,36Z" transform="translate(-12.8 -2.2)" fill="#fffdfd"/><path d="M280.5,38l-1-3.4h.6l.5,2,.2.7.2-.7.5-2h.6l.5,2,.2.7.2-.7.6-2h.6L283.1,38h-.6l-.5-2.1v-.6l-.7,2.6Z" transform="translate(-12.8 -2.2)" fill="#fffdfd"/><path d="M285.7,38l1.8-4.7h.7l1.9,4.7h-.7l-.6-1.4h-2l-.5,1.4Zm1.4-1.9h1.6l-.5-1.3-.3-1-.3.9Z" transform="translate(-12.8 -2.2)" fill="#fffdfd"/><path d="M290.5,39.3V34.6h.5v.4l.4-.4h.6l.8.2a1.4,1.4,0,0,1,.5.6,2.3,2.3,0,0,1,.2.9,2.3,2.3,0,0,1-.2.9,1.4,1.4,0,0,1-.5.6l-.8.2h-.5l-.4-.3v1.7Zm.5-3a1.5,1.5,0,0,0,.3,1,.8.8,0,0,0,.6.3.8.8,0,0,0,.7-.3,1.6,1.6,0,0,0,.3-1,1.5,1.5,0,0,0-.3-1,.8.8,0,0,0-.6-.3.8.8,0,0,0-.7.3A1.5,1.5,0,0,0,291,36.3Z" transform="translate(-12.8 -2.2)" fill="#fffdfd"/><path d="M294.2,39.3V34.6h.5v.4l.4-.4h.6l.8.2a1.4,1.4,0,0,1,.5.6,2.3,2.3,0,0,1,.2.9,2.3,2.3,0,0,1-.2.9,1.4,1.4,0,0,1-.5.6l-.8.2h-.5l-.4-.3v1.7Zm.5-3a1.5,1.5,0,0,0,.3,1,.8.8,0,0,0,.6.3.8.8,0,0,0,.7-.3,1.6,1.6,0,0,0,.3-1,1.5,1.5,0,0,0-.3-1,.8.8,0,0,0-.6-.3.8.8,0,0,0-.7.3A1.5,1.5,0,0,0,294.7,36.3Z" transform="translate(-12.8 -2.2)" fill="#fffdfd"/><path d="M445.1,101.6l-102.3.3V56.5H347v34h75.7v-34l22.3-.3V69.2a4.3,4.3,0,1,0,0,8.4v4.4a4.3,4.3,0,1,1,0,8.4Z" transform="translate(-12.8 -2.2)" fill="#67acce"/><path d="M426.9,73.7" transform="translate(-12.8 -2.2)" fill="none"/><path d="M436.8,87.1" transform="translate(-12.8 -2.2)" fill="#e22424"/><path d="M428.4,82.3l-1.3-4.7h.6l.7,3.1.2,1,.2-.9.9-3.2h.8l.7,2.4a12.6,12.6,0,0,1,.4,1.7l.2-1,.7-3h.6l-1.3,4.7h-.6l-1-3.6v0l-1,3.6Z" transform="translate(-12.8 -2.2)"/><path d="M435.9,81.2h.6a1.5,1.5,0,0,1-.5.8,1.8,1.8,0,0,1-2.2-.2,1.8,1.8,0,0,1-.4-1.3,1.9,1.9,0,0,1,.4-1.3,1.5,1.5,0,0,1,1.2-.5,1.5,1.5,0,0,1,1.1.5,1.9,1.9,0,0,1,.4,1.3v.2H434a1.3,1.3,0,0,0,.3.9,1,1,0,0,0,.7.3l.5-.2A1.1,1.1,0,0,0,435.9,81.2Zm-1.9-.9h1.9a1.2,1.2,0,0,0-.2-.6.9.9,0,0,0-.7-.3.9.9,0,0,0-.7.3A1.1,1.1,0,0,0,434,80.2Z" transform="translate(-12.8 -2.2)"/><path d="M437.8,82.3h-.5V77.6h.6v1.7a1.2,1.2,0,0,1,.9-.5h.6l.5.4.3.6a2.3,2.3,0,0,1,.1.7,2,2,0,0,1-.4,1.4,1.4,1.4,0,0,1-1,.5,1.1,1.1,0,0,1-1-.5Zm0-1.7a1.8,1.8,0,0,0,.2.9.8.8,0,0,0,1.4.1,1.5,1.5,0,0,0,.3-1,1.5,1.5,0,0,0-.3-1,.8.8,0,0,0-.6-.3.8.8,0,0,0-.7.3A1.5,1.5,0,0,0,437.8,80.5Z" transform="translate(-12.8 -2.2)"/><path d="M427,90.2l1.8-4.7h.7l1.9,4.7h-.7l-.6-1.4h-2l-.5,1.4Zm1.4-1.9H430l-.5-1.3-.3-1-.3.9Z" transform="translate(-12.8 -2.2)"/><path d="M431.9,90.2V85.5h2.5l.6.2.4.5a1.5,1.5,0,0,1-.2,1.7,1.8,1.8,0,0,1-1.4.4h-1.2v1.9Zm.6-2.5h1.2a1.3,1.3,0,0,0,.9-.2.8.8,0,0,0,.3-.6.9.9,0,0,0-.2-.5l-.4-.3h-1.8Z" transform="translate(-12.8 -2.2)"/><path d="M436.5,90.2V85.5h.6v4.7Z" transform="translate(-12.8 -2.2)"/><polygon points="409.9 99.4 329.9 99.9 329.9 54.3 334.2 54.3 334.2 88.3 409.9 88.3 409.9 99.4" fill="#326c97"/><path d="M362.6,95.7a2.6,2.6,0,0,1,.6-1.8,2.1,2.1,0,0,1,1.6-.7,2.3,2.3,0,0,1,1.2.3,2,2,0,0,1,.8.9,2.8,2.8,0,0,1,.3,1.3,2.8,2.8,0,0,1-.3,1.3,2,2,0,0,1-.8.9,2.4,2.4,0,0,1-1.1.3,2.2,2.2,0,0,1-1.2-.3,2.1,2.1,0,0,1-.8-.9A2.7,2.7,0,0,1,362.6,95.7Zm.6,0a1.9,1.9,0,0,0,.5,1.3,1.6,1.6,0,0,0,2.3,0,2,2,0,0,0,.5-1.4,2.4,2.4,0,0,0-.2-1,1.5,1.5,0,0,0-.6-.7l-.8-.2a1.6,1.6,0,0,0-1.1.5A2,2,0,0,0,363.2,95.7Z" transform="translate(-12.8 -2.2)" fill="#fff"/><path d="M367.8,99.3V94.6h.5V95l.4-.4h.6l.8.2a1.4,1.4,0,0,1,.5.6,2.3,2.3,0,0,1,.2.9,2.3,2.3,0,0,1-.2.9,1.4,1.4,0,0,1-.5.6l-.8.2h-.5l-.4-.3v1.7Zm.5-3a1.5,1.5,0,0,0,.3,1,.8.8,0,0,0,.6.3.8.8,0,0,0,.7-.3,1.6,1.6,0,0,0,.3-1,1.5,1.5,0,0,0-.3-1,.8.8,0,0,0-.6-.3.8.8,0,0,0-.7.3A1.5,1.5,0,0,0,368.3,96.3Z" transform="translate(-12.8 -2.2)" fill="#fff"/><path d="M373.8,96.9h.6a1.5,1.5,0,0,1-.5.8,1.8,1.8,0,0,1-2.2-.2,1.8,1.8,0,0,1-.4-1.3,1.9,1.9,0,0,1,.4-1.3,1.5,1.5,0,0,1,1.2-.5,1.5,1.5,0,0,1,1.1.5,1.9,1.9,0,0,1,.4,1.3v.2h-2.6a1.3,1.3,0,0,0,.3.9,1,1,0,0,0,.7.3l.5-.2A1.1,1.1,0,0,0,373.8,96.9Zm-1.9-.9h1.9a1.2,1.2,0,0,0-.2-.6.9.9,0,0,0-.7-.3.9.9,0,0,0-.7.3A1.1,1.1,0,0,0,371.9,96Z" transform="translate(-12.8 -2.2)" fill="#fff"/><path d="M375.2,98V94.6h.5v.5a1.2,1.2,0,0,1,1.1-.6h.6l.4.3.2.4a3.3,3.3,0,0,1,0,.6V98h-.6V95.9a1.6,1.6,0,0,0-.1-.5l-.2-.3h-.4l-.6.2a1.2,1.2,0,0,0-.3.9V98Z" transform="translate(-12.8 -2.2)" fill="#fff"/><path d="M378.9,98V93.3h3.2v.6h-2.6v1.5h2.2v.6h-2.2V98Z" transform="translate(-12.8 -2.2)" fill="#fff"/><path d="M382.9,94v-.7h.6V94Zm0,4.1V94.6h.6V98Z" transform="translate(-12.8 -2.2)" fill="#fff"/><path d="M384.1,97h.6a.8.8,0,0,0,.3.5l.6.2.6-.2a.5.5,0,0,0,.2-.4.4.4,0,0,0-.2-.3l-.6-.2-.9-.3-.4-.3a.9.9,0,0,1-.1-.5.9.9,0,0,1,.1-.4l.3-.3.4-.2h1.2l.5.3a1.3,1.3,0,0,1,.2.5h-.6a.6.6,0,0,0-.2-.4h-1.1a.4.4,0,0,0-.2.3v.2l.2.2h.5l.9.3.4.3a.8.8,0,0,1,.1.5,1,1,0,0,1-.2.5l-.5.4h-.7a1.6,1.6,0,0,1-1-.3A1.3,1.3,0,0,1,384.1,97Z" transform="translate(-12.8 -2.2)" fill="#fff"/><path d="M389.9,96.8h.6a1.5,1.5,0,0,1-.5.9,1.4,1.4,0,0,1-.9.3,1.5,1.5,0,0,1-1.1-.5,1.9,1.9,0,0,1-.4-1.3,2.4,2.4,0,0,1,.2-1,1.3,1.3,0,0,1,.6-.6l.8-.2a1.4,1.4,0,0,1,.9.3,1.3,1.3,0,0,1,.5.8h-.6a.9.9,0,0,0-.3-.5L389,95a.9.9,0,0,0-.7.3,1.5,1.5,0,0,0-.3,1,1.5,1.5,0,0,0,.3,1,.9.9,0,0,0,.7.3l.6-.2A1,1,0,0,0,389.9,96.8Z" transform="translate(-12.8 -2.2)" fill="#fff"/><path d="M393.2,97.6l-.6.4h-.6a1.2,1.2,0,0,1-.9-.3.9.9,0,0,1-.3-.7.9.9,0,0,1,.1-.5l.3-.3.4-.2h.5l1-.2v-.2a.6.6,0,0,0-.2-.5l-.7-.2h-.6a.9.9,0,0,0-.3.5h-.6a1.4,1.4,0,0,1,.3-.6l.5-.3h1.5l.4.3.2.4a3.4,3.4,0,0,1,0,.5v.8a8.3,8.3,0,0,0,0,1V98h-.6A1.2,1.2,0,0,1,393.2,97.6Zm0-1.3-.9.2h-.5l-.2.2a.5.5,0,0,0,.1.7l.5.2h.6l.4-.4a1.4,1.4,0,0,0,.1-.6Z" transform="translate(-12.8 -2.2)" fill="#fff"/><path d="M399.9,96.4l.6.2a2.1,2.1,0,0,1-.7,1.2,2,2,0,0,1-1.2.4,2.2,2.2,0,0,1-1.2-.3,1.9,1.9,0,0,1-.7-.9,3.2,3.2,0,0,1-.2-1.3,2.8,2.8,0,0,1,.3-1.3,1.9,1.9,0,0,1,.8-.8,2.4,2.4,0,0,1,1.1-.3,1.9,1.9,0,0,1,1.2.4,1.9,1.9,0,0,1,.7,1h-.6a1.5,1.5,0,0,0-.5-.8l-.8-.2a1.5,1.5,0,0,0-.9.3,1.4,1.4,0,0,0-.5.7,2.8,2.8,0,0,0-.1.9,2.9,2.9,0,0,0,.2,1.1,1.3,1.3,0,0,0,.5.7l.8.2a1.3,1.3,0,0,0,.9-.3A1.5,1.5,0,0,0,399.9,96.4Z" transform="translate(-12.8 -2.2)" fill="#fff"/><path d="M401,96.3a1.8,1.8,0,0,1,.5-1.4,1.6,1.6,0,0,1,1.1-.4,1.5,1.5,0,0,1,1.2.5,1.8,1.8,0,0,1,.4,1.3,2.3,2.3,0,0,1-.2,1,1.4,1.4,0,0,1-.6.6l-.8.2a1.5,1.5,0,0,1-1.2-.5A1.8,1.8,0,0,1,401,96.3Zm.6,0a1.5,1.5,0,0,0,.3,1,1,1,0,0,0,1.4,0,1.5,1.5,0,0,0,.3-1,1.4,1.4,0,0,0-.3-1,1,1,0,0,0-1.4,0A1.5,1.5,0,0,0,401.6,96.3Z" transform="translate(-12.8 -2.2)" fill="#fff"/><path d="M404.9,98V94.6h.5v.5l.4-.5h.4l.6.2-.2.5h-.8l-.2.3a2.3,2.3,0,0,0-.1.7V98Z" transform="translate(-12.8 -2.2)" fill="#fff"/><path d="M409.4,96.9h.6a1.5,1.5,0,0,1-.5.8,1.8,1.8,0,0,1-2.2-.2,1.8,1.8,0,0,1-.4-1.3,1.9,1.9,0,0,1,.4-1.3,1.5,1.5,0,0,1,1.2-.5,1.5,1.5,0,0,1,1.1.5,1.9,1.9,0,0,1,.4,1.3v.2h-2.6a1.3,1.3,0,0,0,.3.9,1,1,0,0,0,.7.3l.5-.2A1.1,1.1,0,0,0,409.4,96.9Zm-1.9-.9h1.9a1.2,1.2,0,0,0-.2-.6.9.9,0,0,0-.7-.3.9.9,0,0,0-.7.3A1.1,1.1,0,0,0,407.5,96Z" transform="translate(-12.8 -2.2)" fill="#fff"/><path d="M532.2,100.8H460.6V91.1a4.2,4.2,0,1,0,0-8.5V78.6a4.3,4.3,0,1,1-.1-8.6V64.5l71.4.3Z" transform="translate(-12.8 -2.2)" fill="#595a5b"/><polygon points="408.2 85.7 336.6 85.7 336.6 51.6 330.3 51.6 330.3 39.4 414.5 39.4 414.5 51.6 408.2 51.6 408.2 85.7" fill="#971640"/><path d="M427.3,30.4a10.9,10.9,0,0,0-17.3,0H343.2V41h84.2Z" transform="translate(-12.8 -2.2)" fill="#d66990"/><path d="M348.5,37.8V33.1h.6l2.5,3.7V33.1h.6v4.7h-.6l-2.5-3.7v3.7Z" transform="translate(-12.8 -2.2)"/><path d="M355.6,36.7h.6a1.5,1.5,0,0,1-.5.8,1.6,1.6,0,0,1-1,.3,1.6,1.6,0,0,1-1.2-.5,1.8,1.8,0,0,1-.4-1.3,1.9,1.9,0,0,1,.4-1.3,1.5,1.5,0,0,1,1.2-.5,1.5,1.5,0,0,1,1.1.5,1.9,1.9,0,0,1,.4,1.3v.2h-2.6a1.3,1.3,0,0,0,.3.9,1,1,0,0,0,.7.3l.5-.2A1.1,1.1,0,0,0,355.6,36.7Zm-1.9-.9h1.9a1.2,1.2,0,0,0-.2-.6.9.9,0,0,0-.7-.3.9.9,0,0,0-.7.3A1.1,1.1,0,0,0,353.7,35.8Z" transform="translate(-12.8 -2.2)"/><path d="M357.5,37.8l-1-3.4h.6l.5,2,.2.7.2-.7.5-2h.6l.5,2,.2.7.2-.7.6-2h.6l-1.1,3.4h-.6l-.5-2.1v-.6l-.7,2.6Z" transform="translate(-12.8 -2.2)"/><path d="M363.6,37.8V33.1H367v.6h-2.8v1.4h2.6v.6h-2.6v1.6h2.9v.6Z" transform="translate(-12.8 -2.2)"/><path d="M367.5,37.8l1.3-1.8-1.2-1.6h.7l.5.8.2.4.3-.4.6-.8h.7L369.5,36l1.3,1.8H370l-.7-1.1-.2-.3-.9,1.4Z" transform="translate(-12.8 -2.2)"/><path d="M372.5,37.3v.5h-.9l-.2-.3a2.1,2.1,0,0,1-.1-.7v-2h-.4v-.5h.4v-.8l.6-.3v1.2h.6v.5h-.6v2a1,1,0,0,0,0,.3h.6Z" transform="translate(-12.8 -2.2)"/><path d="M375.4,36.7h.6a1.5,1.5,0,0,1-.5.8,1.6,1.6,0,0,1-1,.3,1.6,1.6,0,0,1-1.2-.5,1.8,1.8,0,0,1-.4-1.3,1.9,1.9,0,0,1,.4-1.3,1.5,1.5,0,0,1,1.2-.5,1.5,1.5,0,0,1,1.1.5,1.9,1.9,0,0,1,.4,1.3v.2h-2.6a1.3,1.3,0,0,0,.3.9,1,1,0,0,0,.7.3l.5-.2A1.1,1.1,0,0,0,375.4,36.7Zm-1.9-.9h1.9a1.2,1.2,0,0,0-.2-.6.9.9,0,0,0-.7-.3.9.9,0,0,0-.7.3A1.1,1.1,0,0,0,373.5,35.8Z" transform="translate(-12.8 -2.2)"/><path d="M376.7,37.8V34.4h.5v.5a1.2,1.2,0,0,1,1.1-.6h.6l.4.3.2.4a3.3,3.3,0,0,1,0,.6v2.1h-.6V35.8a1.6,1.6,0,0,0-.1-.5l-.2-.3h-.4l-.6.2a1.2,1.2,0,0,0-.3.9v1.9Z" transform="translate(-12.8 -2.2)"/><path d="M380.2,36.8h.6a.8.8,0,0,0,.3.5l.6.2.6-.2a.5.5,0,0,0,.2-.4.4.4,0,0,0-.2-.3l-.6-.2-.9-.3-.4-.3a.9.9,0,0,1-.1-.5.9.9,0,0,1,.1-.4l.3-.3.4-.2h1.2l.5.3a1.2,1.2,0,0,1,.2.5h-.6a.6.6,0,0,0-.2-.4H381a.4.4,0,0,0-.2.3v.2l.2.2h.5l.9.3.4.3a.8.8,0,0,1,.1.5,1,1,0,0,1-.2.5l-.5.4h-.7a1.6,1.6,0,0,1-1-.3A1.3,1.3,0,0,1,380.2,36.8Z" transform="translate(-12.8 -2.2)"/><path d="M383.7,33.8v-.7h.6v.7Zm0,4.1V34.4h.6v3.4Z" transform="translate(-12.8 -2.2)"/><path d="M385,36.1a1.8,1.8,0,0,1,.5-1.4,1.6,1.6,0,0,1,1.1-.4,1.5,1.5,0,0,1,1.2.5,1.8,1.8,0,0,1,.4,1.3,2.3,2.3,0,0,1-.2,1,1.4,1.4,0,0,1-.6.6l-.8.2a1.5,1.5,0,0,1-1.2-.5A1.8,1.8,0,0,1,385,36.1Zm.6,0a1.5,1.5,0,0,0,.3,1,.9.9,0,0,0,.7.3.9.9,0,0,0,.7-.3,1.5,1.5,0,0,0,.3-1,1.4,1.4,0,0,0-.3-1,1,1,0,0,0-1.4,0A1.5,1.5,0,0,0,385.6,36.1Z" transform="translate(-12.8 -2.2)"/><path d="M388.8,37.8V34.4h.5v.5a1.2,1.2,0,0,1,1.1-.6h.6l.4.3.2.4a3.3,3.3,0,0,1,0,.6v2.1H391V35.8a1.5,1.5,0,0,0-.1-.5l-.2-.3h-.4l-.6.2a1.2,1.2,0,0,0-.3.9v1.9Z" transform="translate(-12.8 -2.2)"/><path d="M365.2,69.3V64.6h.6l2.5,3.7V64.6h.6v4.7h-.6l-2.5-3.7v3.7Z" transform="translate(-12.8 -2.2)" fill="#fcfcfc"/><path d="M372.3,68.2h.6a1.5,1.5,0,0,1-.5.8,1.8,1.8,0,0,1-2.2-.2,1.8,1.8,0,0,1-.4-1.3,1.9,1.9,0,0,1,.4-1.3,1.5,1.5,0,0,1,1.2-.5,1.5,1.5,0,0,1,1.1.5,1.9,1.9,0,0,1,.4,1.3v.2h-2.6a1.3,1.3,0,0,0,.3.9,1,1,0,0,0,.7.3l.5-.2A1.1,1.1,0,0,0,372.3,68.2Zm-1.9-.9h1.9a1.2,1.2,0,0,0-.2-.6.9.9,0,0,0-.7-.3.9.9,0,0,0-.7.3A1.1,1.1,0,0,0,370.4,67.3Z" transform="translate(-12.8 -2.2)" fill="#fcfcfc"/><path d="M374.2,69.3l-1-3.4h.6l.5,2,.2.7.2-.7.5-2h.6l.5,2,.2.7.2-.7.6-2h.6l-1.1,3.4h-.6l-.5-2.1v-.6l-.7,2.6Z" transform="translate(-12.8 -2.2)" fill="#fcfcfc"/><path d="M383.7,67.6l.6.2a2.1,2.1,0,0,1-.7,1.2,2,2,0,0,1-1.2.4,2.2,2.2,0,0,1-1.2-.3,1.9,1.9,0,0,1-.7-.9,3.2,3.2,0,0,1-.2-1.3,2.8,2.8,0,0,1,.3-1.3,1.9,1.9,0,0,1,.8-.8,2.4,2.4,0,0,1,1.1-.3,1.9,1.9,0,0,1,1.2.4,1.9,1.9,0,0,1,.7,1h-.6a1.5,1.5,0,0,0-.5-.8l-.8-.2a1.5,1.5,0,0,0-.9.3,1.4,1.4,0,0,0-.5.7,2.8,2.8,0,0,0-.1.9,2.9,2.9,0,0,0,.2,1.1,1.3,1.3,0,0,0,.5.7l.8.2a1.3,1.3,0,0,0,.9-.3A1.5,1.5,0,0,0,383.7,67.6Z" transform="translate(-12.8 -2.2)" fill="#fcfcfc"/><path d="M384.8,67.6a1.8,1.8,0,0,1,.5-1.4,1.6,1.6,0,0,1,1.1-.4,1.5,1.5,0,0,1,1.2.5,1.8,1.8,0,0,1,.4,1.3,2.3,2.3,0,0,1-.2,1,1.4,1.4,0,0,1-.6.6l-.8.2a1.5,1.5,0,0,1-1.2-.5A1.8,1.8,0,0,1,384.8,67.6Zm.6,0a1.5,1.5,0,0,0,.3,1,1,1,0,0,0,1.4,0,1.5,1.5,0,0,0,.3-1,1.4,1.4,0,0,0-.3-1,1,1,0,0,0-1.4,0A1.5,1.5,0,0,0,385.4,67.6Z" transform="translate(-12.8 -2.2)" fill="#fcfcfc"/><path d="M390.9,69.3v-.5a1.3,1.3,0,0,1-1.1.6h-.6l-.4-.3-.2-.4a2.9,2.9,0,0,1,0-.5V65.9h.6v1.9a3.4,3.4,0,0,0,0,.6l.2.4h.9l.3-.4a1.8,1.8,0,0,0,.1-.7V65.9h.6v3.4Z" transform="translate(-12.8 -2.2)" fill="#fcfcfc"/><path d="M392.3,69.3V65.9h.5v.5a1.2,1.2,0,0,1,1.1-.6h.6l.4.3.2.4a3.3,3.3,0,0,1,0,.6v2.1h-.6V67.2a1.6,1.6,0,0,0-.1-.5l-.2-.3h-.4l-.6.2a1.2,1.2,0,0,0-.3.9v1.9Z" transform="translate(-12.8 -2.2)" fill="#fcfcfc"/><path d="M397.3,68.8v.5h-.9l-.2-.3a2.1,2.1,0,0,1-.1-.7v-2h-.4v-.5h.4V65l.6-.3v1.2h.6v.5h-.6v2a1,1,0,0,0,0,.3h.6Z" transform="translate(-12.8 -2.2)" fill="#fcfcfc"/><path d="M397.8,69.3V65.9h.5v.5l.4-.5h.4l.6.2-.2.5h-.8l-.2.3a2.3,2.3,0,0,0-.1.7v1.8Z" transform="translate(-12.8 -2.2)" fill="#fcfcfc"/><path d="M400,70.6v-.5h.6l.2-.2.2-.4h.1l-1.3-3.4h.6l.7,2,.2.8.2-.8.7-2h.6l-1.3,3.5-.3.8-.4.4H400Z" transform="translate(-12.8 -2.2)" fill="#fcfcfc"/><path d="M484.2,85.5V80.8h.6l2.5,3.7V80.8h.6v4.7h-.6l-2.5-3.7v3.7Z" transform="translate(-12.8 -2.2)" fill="#fffdfd"/><path d="M491.3,84.4h.6a1.5,1.5,0,0,1-.5.8,1.8,1.8,0,0,1-2.2-.2,1.8,1.8,0,0,1-.4-1.3,1.9,1.9,0,0,1,.4-1.3,1.5,1.5,0,0,1,1.2-.5,1.5,1.5,0,0,1,1.1.5,1.9,1.9,0,0,1,.4,1.3v.2h-2.6a1.3,1.3,0,0,0,.3.9.9.9,0,0,0,.7.3l.5-.2A1.1,1.1,0,0,0,491.3,84.4Zm-1.9-.9h1.9a1.2,1.2,0,0,0-.2-.6.9.9,0,0,0-.7-.3.9.9,0,0,0-.7.3A1.1,1.1,0,0,0,489.4,83.5Z" transform="translate(-12.8 -2.2)" fill="#fffdfd"/><path d="M493.2,85.5l-1-3.4h.6l.5,2,.2.7.2-.7.5-2h.6l.5,2,.2.7.2-.7.6-2h.6l-1.1,3.4h-.6l-.5-2.1v-.6l-.7,2.6Z" transform="translate(-12.8 -2.2)" fill="#fffdfd"/><path d="M498.4,85.5l1.8-4.7h.7l1.9,4.7h-.7l-.6-1.4h-2l-.5,1.4Zm1.4-1.9h1.6l-.5-1.3-.3-1-.3.9Z" transform="translate(-12.8 -2.2)" fill="#fffdfd"/><path d="M503.2,86.8V82.1h.5v.4l.4-.4h.6l.8.2a1.4,1.4,0,0,1,.5.6,2.3,2.3,0,0,1,.2.9,2.3,2.3,0,0,1-.2.9,1.4,1.4,0,0,1-.5.6l-.8.2h-.5l-.4-.3v1.7Zm.5-3a1.5,1.5,0,0,0,.3,1,.8.8,0,0,0,.6.3.8.8,0,0,0,.7-.3,1.6,1.6,0,0,0,.3-1,1.5,1.5,0,0,0-.3-1,.8.8,0,0,0-.6-.3.8.8,0,0,0-.7.3A1.5,1.5,0,0,0,503.8,83.8Z" transform="translate(-12.8 -2.2)" fill="#fffdfd"/><path d="M506.9,86.8V82.1h.5v.4l.4-.4h.6l.8.2a1.4,1.4,0,0,1,.5.6,2.3,2.3,0,0,1,.2.9,2.3,2.3,0,0,1-.2.9,1.4,1.4,0,0,1-.5.6l-.8.2h-.5l-.4-.3v1.7Zm.5-3a1.5,1.5,0,0,0,.3,1,.8.8,0,0,0,.6.3.8.8,0,0,0,.7-.3,1.6,1.6,0,0,0,.3-1,1.5,1.5,0,0,0-.3-1,.8.8,0,0,0-.6-.3.8.8,0,0,0-.7.3A1.5,1.5,0,0,0,507.4,83.8Z" transform="translate(-12.8 -2.2)" fill="#fffdfd"/></svg>