<svg id="85b3cec7-f744-4bcc-b642-7e9ddfad3090" data-name="svg6535" xmlns="http://www.w3.org/2000/svg" viewBox="0 0 731 665.9"><title>schema_openfisca</title><path d="M197.7,124.3l-102.3.3V79.2h4.3v34h75.7v-34l22.3-.3V91.9a4.3,4.3,0,1,0,0,8.4v4.4a4.3,4.3,0,1,1,0,8.4Z" transform="translate(-6 -5.1)" fill="#79ccb4"/><path d="M117.2,118.3a2.6,2.6,0,0,1,.6-1.8,2.1,2.1,0,0,1,1.6-.7,2.3,2.3,0,0,1,1.2.3,2,2,0,0,1,.8.9,2.8,2.8,0,0,1,.3,1.3,2.8,2.8,0,0,1-.3,1.3,2,2,0,0,1-.8.9,2.4,2.4,0,0,1-1.1.3,2.2,2.2,0,0,1-1.2-.3,2.1,2.1,0,0,1-.8-.9A2.7,2.7,0,0,1,117.2,118.3Zm.6,0a1.9,1.9,0,0,0,.5,1.3,1.6,1.6,0,0,0,2.3,0,2,2,0,0,0,.5-1.4,2.4,2.4,0,0,0-.2-1,1.5,1.5,0,0,0-.6-.7l-.8-.2a1.6,1.6,0,0,0-1.1.5A2,2,0,0,0,117.8,118.3Z" transform="translate(-6 -5.1)"/><path d="M122.4,121.9v-4.7h.5v.4l.4-.4h.6l.8.2a1.4,1.4,0,0,1,.5.6,2.3,2.3,0,0,1,.2.9,2.3,2.3,0,0,1-.2.9,1.4,1.4,0,0,1-.5.6l-.8.2h-.5l-.4-.3v1.7Zm.5-3a1.5,1.5,0,0,0,.3,1,.8.8,0,0,0,.6.3.8.8,0,0,0,.7-.3,1.5,1.5,0,0,0,.3-1,1.5,1.5,0,0,0-.3-1,.8.8,0,0,0-.6-.3.8.8,0,0,0-.7.3A1.6,1.6,0,0,0,123,118.9Z" transform="translate(-6 -5.1)"/><path d="M128.5,119.5h.6a1.5,1.5,0,0,1-.5.8,1.8,1.8,0,0,1-2.2-.2,1.8,1.8,0,0,1-.4-1.3,1.9,1.9,0,0,1,.4-1.3,1.5,1.5,0,0,1,1.2-.5,1.5,1.5,0,0,1,1.1.5,1.9,1.9,0,0,1,.4,1.3v.2h-2.6a1.3,1.3,0,0,0,.3.9,1,1,0,0,0,.7.3l.5-.2A1.1,1.1,0,0,0,128.5,119.5Zm-1.9-.9h1.9a1.2,1.2,0,0,0-.2-.6.9.9,0,0,0-.7-.3.9.9,0,0,0-.7.3A1.1,1.1,0,0,0,126.5,118.6Z" transform="translate(-6 -5.1)"/><path d="M129.8,120.6v-3.4h.5v.5a1.2,1.2,0,0,1,1.1-.6h.6l.4.3.2.4a3.3,3.3,0,0,1,0,.6v2.1H132v-2.1a1.6,1.6,0,0,0-.1-.5l-.2-.3h-.4l-.6.2a1.2,1.2,0,0,0-.3.9v1.9Z" transform="translate(-6 -5.1)"/><path d="M133.6,120.6v-4.7h3.2v.6h-2.6v1.5h2.2v.6h-2.2v2.1Z" transform="translate(-6 -5.1)"/><path d="M137.5,116.6v-.7h.6v.7Zm0,4.1v-3.4h.6v3.4Z" transform="translate(-6 -5.1)"/><path d="M138.7,119.6h.6a.8.8,0,0,0,.3.5l.6.2.6-.2a.5.5,0,0,0,.2-.4.4.4,0,0,0-.2-.3l-.6-.2-.9-.3-.4-.3a.9.9,0,0,1-.1-.5.9.9,0,0,1,.1-.4l.3-.3.4-.2h1.2l.5.3a1.3,1.3,0,0,1,.2.5h-.6a.6.6,0,0,0-.2-.4h-1.1a.4.4,0,0,0-.2.3v.2l.2.2h.5l.9.3.4.3a.8.8,0,0,1,.1.5,1,1,0,0,1-.2.5l-.5.4h-.7a1.6,1.6,0,0,1-1-.3A1.3,1.3,0,0,1,138.7,119.6Z" transform="translate(-6 -5.1)"/><path d="M144.5,119.4h.6a1.5,1.5,0,0,1-.5.9,1.4,1.4,0,0,1-.9.3,1.5,1.5,0,0,1-1.1-.5,1.9,1.9,0,0,1-.4-1.3,2.4,2.4,0,0,1,.2-1,1.3,1.3,0,0,1,.6-.6l.8-.2a1.4,1.4,0,0,1,.9.3,1.3,1.3,0,0,1,.5.8h-.6a.9.9,0,0,0-.3-.5l-.5-.2a.9.9,0,0,0-.7.3,1.5,1.5,0,0,0-.3,1,1.5,1.5,0,0,0,.3,1,.9.9,0,0,0,.7.3l.6-.2A1,1,0,0,0,144.5,119.4Z" transform="translate(-6 -5.1)"/><path d="M147.8,120.2l-.6.4h-.6a1.2,1.2,0,0,1-.9-.3.9.9,0,0,1-.3-.7.9.9,0,0,1,.1-.5l.3-.3.4-.2h.5l1-.2v-.2a.6.6,0,0,0-.2-.5l-.7-.2h-.6a.9.9,0,0,0-.3.5h-.6a1.4,1.4,0,0,1,.3-.6l.5-.3h1.5l.4.3.2.4a3.4,3.4,0,0,1,0,.5v.8a8.3,8.3,0,0,0,0,1v.4h-.6A1.2,1.2,0,0,1,147.8,120.2Zm0-1.3-.9.2h-.5l-.2.2a.5.5,0,0,0,.1.7l.5.2h.6l.4-.4a1.4,1.4,0,0,0,.1-.6Z" transform="translate(-6 -5.1)"/><path d="M154.5,119l.6.2a2.1,2.1,0,0,1-.7,1.2,2,2,0,0,1-1.2.4,2.2,2.2,0,0,1-1.2-.3,1.9,1.9,0,0,1-.7-.9,3.2,3.2,0,0,1-.2-1.3,2.8,2.8,0,0,1,.3-1.3,1.9,1.9,0,0,1,.8-.8,2.4,2.4,0,0,1,1.1-.3,1.9,1.9,0,0,1,1.2.4,1.9,1.9,0,0,1,.7,1h-.6a1.5,1.5,0,0,0-.5-.8l-.8-.2a1.5,1.5,0,0,0-.9.3,1.4,1.4,0,0,0-.5.7,2.8,2.8,0,0,0-.1.9,2.9,2.9,0,0,0,.2,1.1,1.3,1.3,0,0,0,.5.7l.8.2a1.3,1.3,0,0,0,.9-.3A1.5,1.5,0,0,0,154.5,119Z" transform="translate(-6 -5.1)"/><path d="M155.6,118.9a1.8,1.8,0,0,1,.5-1.4,1.6,1.6,0,0,1,1.1-.4,1.5,1.5,0,0,1,1.2.5,1.8,1.8,0,0,1,.4,1.3,2.3,2.3,0,0,1-.2,1,1.4,1.4,0,0,1-.6.6l-.8.2a1.5,1.5,0,0,1-1.2-.5A1.8,1.8,0,0,1,155.6,118.9Zm.6,0a1.5,1.5,0,0,0,.3,1,1,1,0,0,0,1.4,0,1.5,1.5,0,0,0,.3-1,1.4,1.4,0,0,0-.3-1,1,1,0,0,0-1.4,0A1.5,1.5,0,0,0,156.2,118.9Z" transform="translate(-6 -5.1)"/><path d="M159.5,120.6v-3.4h.5v.5l.4-.5h.4l.6.2-.2.5h-.8l-.2.3a2.3,2.3,0,0,0-.1.7v1.8Z" transform="translate(-6 -5.1)"/><path d="M164,119.5h.6a1.5,1.5,0,0,1-.5.8,1.8,1.8,0,0,1-2.2-.2,1.8,1.8,0,0,1-.4-1.3,1.9,1.9,0,0,1,.4-1.3,1.5,1.5,0,0,1,1.2-.5,1.5,1.5,0,0,1,1.1.5,1.9,1.9,0,0,1,.4,1.3v.2h-2.6a1.3,1.3,0,0,0,.3.9,1,1,0,0,0,.7.3l.5-.2A1.1,1.1,0,0,0,164,119.5Zm-1.9-.9h1.9a1.2,1.2,0,0,0-.2-.6.9.9,0,0,0-.7-.3.9.9,0,0,0-.7.3A1.1,1.1,0,0,0,162.1,118.6Z" transform="translate(-6 -5.1)"/><polygon points="167.3 105.9 95.8 105.9 95.8 71.8 89.4 71.8 89.4 59.6 173.6 59.6 173.6 71.8 167.3 71.8 167.3 105.9" fill="#ffdb96"/><path d="M280,41.4H208.4V31.7a4.2,4.2,0,1,0,0-8.5V19.2a4.4,4.4,0,0,1-4.7-4.5,4.4,4.4,0,0,1,4.6-4.2V5.1l71.4.3Z" transform="translate(-6 -5.1)" fill="#1b74b2"/><rect x="266.5" y="89.3" width="1.8" height="1.84" fill="#e22424"/><path d="M128.5,91.3V86.5h3.2v.6h-2.6v1.5h2.2v.6h-2.2v2.1Z" transform="translate(-6 -5.1)" fill="#070707"/><path d="M132.4,91.3V87.8h.5v.5l.4-.5h.4l.6.2-.2.5h-.8l-.2.3a2.3,2.3,0,0,0-.1.7v1.8Z" transform="translate(-6 -5.1)" fill="#070707"/><path d="M136.9,90.8l-.6.4h-.6a1.2,1.2,0,0,1-.9-.3.9.9,0,0,1-.3-.7.9.9,0,0,1,.1-.5l.3-.3.4-.2h.5l1-.2v-.2a.6.6,0,0,0-.2-.5l-.7-.2h-.6a.9.9,0,0,0-.3.5h-.6a1.4,1.4,0,0,1,.3-.6l.5-.3h1.5l.4.3.2.4a3.3,3.3,0,0,1,0,.5v.8a8.3,8.3,0,0,0,0,1v.4H137Zm0-1.3-.9.2h-.5l-.2.2a.5.5,0,0,0,.1.7l.5.2h.6l.4-.4a1.4,1.4,0,0,0,.1-.6Z" transform="translate(-6 -5.1)" fill="#070707"/><path d="M138.3,91.3V87.8h.5v.5a1.2,1.2,0,0,1,1.1-.6h.6l.4.3.2.4a3.3,3.3,0,0,1,0,.6v2.1h-.6V89.2a1.6,1.6,0,0,0-.1-.5l-.2-.3h-.4l-.6.2a1.2,1.2,0,0,0-.3.9v1.9Z" transform="translate(-6 -5.1)" fill="#070707"/><path d="M144.2,90h.6a1.5,1.5,0,0,1-.5.9,1.4,1.4,0,0,1-.9.3,1.5,1.5,0,0,1-1.1-.5,1.9,1.9,0,0,1-.4-1.3,2.4,2.4,0,0,1,.2-1,1.3,1.3,0,0,1,.6-.6l.8-.2a1.4,1.4,0,0,1,.9.3,1.3,1.3,0,0,1,.5.8h-.6a.9.9,0,0,0-.3-.5l-.5-.2a.9.9,0,0,0-.7.3,1.5,1.5,0,0,0-.3,1,1.5,1.5,0,0,0,.3,1,.9.9,0,0,0,.7.3l.6-.2A1,1,0,0,0,144.2,90Z" transform="translate(-6 -5.1)" fill="#070707"/><path d="M147.6,90.2h.6a1.5,1.5,0,0,1-.5.8,1.8,1.8,0,0,1-2.2-.2,1.8,1.8,0,0,1-.4-1.3,1.9,1.9,0,0,1,.4-1.3,1.5,1.5,0,0,1,1.2-.5,1.5,1.5,0,0,1,1.1.5,1.9,1.9,0,0,1,.4,1.3v.2h-2.6a1.3,1.3,0,0,0,.3.9,1,1,0,0,0,.7.3l.5-.2A1.1,1.1,0,0,0,147.6,90.2Zm-1.9-.9h1.9a1.2,1.2,0,0,0-.2-.6.9.9,0,0,0-.7-.3.9.9,0,0,0-.7.3A1.1,1.1,0,0,0,145.7,89.2Z" transform="translate(-6 -5.1)" fill="#070707"/><polygon points="77.9 61.4 6.3 61.4 6.3 27.4 0 27.4 0 15.2 84.2 15.2 84.2 27.4 77.9 27.4 77.9 61.4" fill="#ffdb96"/><path d="M40,46.8V42.6H38.4v-.6h3.7v.6H40.6v4.2Z" transform="translate(-6 -5.1)" fill="#070707"/><path d="M44.8,46.8v-.5a1.3,1.3,0,0,1-1.1.6h-.6l-.4-.3-.2-.4a2.9,2.9,0,0,1,0-.5V43.4h.6v1.9a3.4,3.4,0,0,0,0,.6l.2.4h.9l.3-.4a1.8,1.8,0,0,0,.1-.7V43.4h.6v3.4Z" transform="translate(-6 -5.1)" fill="#070707"/><path d="M46.2,46.8V43.4h.5v.5a1.2,1.2,0,0,1,1.1-.6h.6l.4.3.2.4a3.3,3.3,0,0,1,0,.6v2.1h-.6V44.7a1.6,1.6,0,0,0-.1-.5l-.2-.3h-.4L47,44a1.2,1.2,0,0,0-.3.9v1.9Z" transform="translate(-6 -5.1)" fill="#070707"/><path d="M49.9,42.7v-.7h.6v.7Zm0,4.1V43.4h.6v3.4Z" transform="translate(-6 -5.1)" fill="#070707"/><path d="M51.1,45.8h.6a.8.8,0,0,0,.3.5l.6.2.6-.2a.5.5,0,0,0,.2-.4.4.4,0,0,0-.2-.3l-.6-.2-.9-.3-.4-.3a.9.9,0,0,1-.1-.5.9.9,0,0,1,.1-.4l.3-.3.4-.2h1.2l.4.3a1.2,1.2,0,0,1,.2.5h-.6a.6.6,0,0,0-.2-.4H51.9a.4.4,0,0,0-.2.3v.2l.2.2h.5l.9.3.4.3a.8.8,0,0,1,.1.5,1,1,0,0,1-.2.5l-.5.4h-.7a1.6,1.6,0,0,1-1-.3A1.3,1.3,0,0,1,51.1,45.8Z" transform="translate(-6 -5.1)" fill="#070707"/><path d="M54.6,42.7v-.7h.6v.7Zm0,4.1V43.4h.6v3.4Z" transform="translate(-6 -5.1)" fill="#070707"/><path d="M58.4,45.7H59a1.5,1.5,0,0,1-.5.8,1.8,1.8,0,0,1-2.2-.2,1.8,1.8,0,0,1-.4-1.3,1.9,1.9,0,0,1,.4-1.3,1.5,1.5,0,0,1,1.2-.5,1.5,1.5,0,0,1,1.1.5,1.9,1.9,0,0,1,.4,1.3v.2H56.5a1.3,1.3,0,0,0,.3.9,1,1,0,0,0,.7.3l.5-.2A1.1,1.1,0,0,0,58.4,45.7Zm-1.9-.9h1.9a1.2,1.2,0,0,0-.2-.6.9.9,0,0,0-.7-.3.9.9,0,0,0-.7.3A1.1,1.1,0,0,0,56.5,44.8Z" transform="translate(-6 -5.1)" fill="#070707"/><polygon points="78 119.6 6.4 119.6 6.4 85.6 0 85.6 0 73.4 84.2 73.4 84.2 85.6 78 85.6 78 119.6" fill="#ffdb96"/><path d="M702.8,664.1h0l-1.4.7-.2-.8,1.7-.9h.9v7.8h-1Z" transform="translate(-6 -5.1)"/><path d="M707.1,663l1.9-.2a3.3,3.3,0,0,1,2.2.6,1.7,1.7,0,0,1,.7,1.4,1.9,1.9,0,0,1-1.4,1.8h0a2.1,2.1,0,0,1,1.7,2,2.2,2.2,0,0,1-.7,1.6,4.1,4.1,0,0,1-2.8.8h-1.6Zm1,3.3h.9c1.1,0,1.8-.6,1.8-1.4s-.7-1.3-1.8-1.3h-.9Zm0,3.9h.9c1.1,0,2.1-.4,2.1-1.6s-.9-1.6-2.1-1.6h-.9Z" transform="translate(-6 -5.1)"/><path d="M718.3,663.1v.7l-3.4,7.1h-1.1l3.4-6.9h-3.8v-.9Z" transform="translate(-6 -5.1)"/><path d="M722.6,670.9v-2.1H719v-.7l3.5-5h1.1V668h1.1v.8h-1.1v2.1Zm0-3v-2.6q0-.6,0-1.2h0l-.6,1.2-1.9,2.7h2.6Z" transform="translate(-6 -5.1)"/><path d="M725.9,663l1.9-.2a3.3,3.3,0,0,1,2.2.6,1.7,1.7,0,0,1,.7,1.4,1.9,1.9,0,0,1-1.4,1.8h0a2.1,2.1,0,0,1,1.7,2,2.2,2.2,0,0,1-.7,1.6,4.1,4.1,0,0,1-2.8.8h-1.6Zm1,3.3h.9c1.1,0,1.8-.6,1.8-1.4s-.7-1.3-1.8-1.3h-.9Zm0,3.9h.9c1.1,0,2.1-.4,2.1-1.6s-.9-1.6-2.1-1.6h-.9Z" transform="translate(-6 -5.1)"/><path d="M732,670.9v-.6l.8-.8c2-1.9,2.9-2.9,2.9-4.1a1.4,1.4,0,0,0-1.5-1.5,2.7,2.7,0,0,0-1.7.7l-.3-.7a3.4,3.4,0,0,1,2.2-.8,2.2,2.2,0,0,1,2.4,2.3c0,1.4-1,2.6-2.7,4.2l-.6.6H737v.9Z" transform="translate(-6 -5.1)"/><path d="M29.9,105v-2l-1.8-2.7h.8l.9,1.4.5.8.5-.8.9-1.4h.7L30.5,103v2Z" transform="translate(-6 -5.1)"/><path d="M32.1,103.3a1.8,1.8,0,0,1,.5-1.4,1.6,1.6,0,0,1,1.1-.4,1.5,1.5,0,0,1,1.2.5,1.8,1.8,0,0,1,.4,1.3,2.3,2.3,0,0,1-.2,1,1.4,1.4,0,0,1-.6.6l-.8.2a1.5,1.5,0,0,1-1.2-.5A1.8,1.8,0,0,1,32.1,103.3Zm.6,0a1.5,1.5,0,0,0,.3,1,1,1,0,0,0,1.4,0,1.5,1.5,0,0,0,.3-1,1.4,1.4,0,0,0-.3-1,1,1,0,0,0-1.4,0A1.5,1.5,0,0,0,32.6,103.3Z" transform="translate(-6 -5.1)"/><path d="M38.2,105v-.5a1.3,1.3,0,0,1-1.1.6h-.6l-.4-.3-.2-.4a2.9,2.9,0,0,1,0-.5v-2.1h.6v1.9a3.4,3.4,0,0,0,0,.6l.2.4h.9l.3-.4a1.8,1.8,0,0,0,.1-.7v-1.8h.6V105Z" transform="translate(-6 -5.1)"/><path d="M39.6,105v-3.4h.5v.5l.4-.5h.4l.6.2-.2.5h-.8l-.2.3a2.3,2.3,0,0,0-.1.7V105Z" transform="translate(-6 -5.1)"/><path d="M47.1,103.3l.6.2a2.1,2.1,0,0,1-.7,1.2,2,2,0,0,1-1.2.4,2.2,2.2,0,0,1-1.2-.3,1.9,1.9,0,0,1-.7-.9,3.2,3.2,0,0,1-.2-1.3,2.8,2.8,0,0,1,.3-1.3,1.9,1.9,0,0,1,.8-.8,2.4,2.4,0,0,1,1.1-.3,1.9,1.9,0,0,1,1.2.4,1.9,1.9,0,0,1,.7,1H47a1.5,1.5,0,0,0-.5-.8l-.8-.2a1.5,1.5,0,0,0-.9.3,1.4,1.4,0,0,0-.5.7,2.8,2.8,0,0,0-.1.9,2.9,2.9,0,0,0,.2,1.1,1.3,1.3,0,0,0,.5.7l.8.2a1.3,1.3,0,0,0,.9-.3A1.6,1.6,0,0,0,47.1,103.3Z" transform="translate(-6 -5.1)"/><path d="M48.2,103.3a1.8,1.8,0,0,1,.5-1.4,1.6,1.6,0,0,1,1.1-.4,1.5,1.5,0,0,1,1.2.5,1.8,1.8,0,0,1,.4,1.3,2.3,2.3,0,0,1-.2,1,1.4,1.4,0,0,1-.6.6l-.8.2a1.5,1.5,0,0,1-1.2-.5A1.8,1.8,0,0,1,48.2,103.3Zm.6,0a1.5,1.5,0,0,0,.3,1,1,1,0,0,0,1.4,0,1.5,1.5,0,0,0,.3-1,1.4,1.4,0,0,0-.3-1,1,1,0,0,0-1.4,0A1.5,1.5,0,0,0,48.8,103.3Z" transform="translate(-6 -5.1)"/><path d="M54.3,105v-.5a1.3,1.3,0,0,1-1.1.6h-.6l-.4-.3-.2-.4a2.9,2.9,0,0,1,0-.5v-2.1h.6v1.9a3.4,3.4,0,0,0,0,.6l.2.4h.9l.3-.4a1.8,1.8,0,0,0,.1-.7v-1.8h.6V105Z" transform="translate(-6 -5.1)"/><path d="M55.8,105v-3.4h.5v.5a1.2,1.2,0,0,1,1.1-.6h.6l.4.3.2.4a3.3,3.3,0,0,1,0,.6V105H58v-2.1a1.6,1.6,0,0,0-.1-.5l-.2-.3h-.4l-.6.2a1.2,1.2,0,0,0-.3.9V105Z" transform="translate(-6 -5.1)"/><path d="M60.7,104.5v.5h-.9l-.2-.3a2.1,2.1,0,0,1-.1-.7v-2h-.4v-.5h.4v-.8l.6-.3v1.2h.6v.5h-.6v2a1,1,0,0,0,0,.3h.6Z" transform="translate(-6 -5.1)"/><path d="M61.3,105v-3.4h.5v.5l.4-.5h.4l.6.2-.2.5h-.8l-.2.3a2.3,2.3,0,0,0-.1.7V105Z" transform="translate(-6 -5.1)"/><path d="M63.4,106.3v-.5H64l.2-.2.2-.4h.1l-1.3-3.4h.6l.7,2,.2.8.2-.8.7-2h.6L65,105l-.3.8-.4.4h-.9Z" transform="translate(-6 -5.1)"/><path d="M69.7,103.8v-.2a1.6,1.6,0,0,1,.1-.6l.2-.4.4-.4.4-.4a.7.7,0,0,0,.1-.3.8.8,0,0,0-.3-.6.9.9,0,0,0-.6-.3l-.6.2a1.2,1.2,0,0,0-.3.7h-.6a1.4,1.4,0,0,1,1.5-1.4,1.6,1.6,0,0,1,1.1.4,1.2,1.2,0,0,1,.4.9,1.2,1.2,0,0,1-.1.6l-.6.6-.4.4v.3a2.3,2.3,0,0,0,0,.5Zm0,1.2v-.7h.7v.7Z" transform="translate(-6 -5.1)"/><path d="M179.6,29.1a10.9,10.9,0,0,0-17.3,0H95.5V39.7h84.2Z" transform="translate(-6 -5.1)" fill="#96c3ff"/><path d="M179.6,41.4a10.9,10.9,0,0,0-17.3,0H95.4V51.9h84.2Z" transform="translate(-6 -5.1)" fill="#afd1ff"/><path d="M179.6,53.3a10.9,10.9,0,0,0-17.3,0H95.4V63.8h84.2Z" transform="translate(-6 -5.1)" fill="#96c3ff"/><path d="M104.3,60.4V55.6h3.1a1.1,1.1,0,0,1,.5.5,1.3,1.3,0,0,1,.2.7,1.2,1.2,0,0,1-.3.8,1.7,1.7,0,0,1-1,.4l.4.2.5.6.8,1.3h-.8l-.6-1-.5-.7-.3-.3H105v2.1Zm.6-2.6h2l.4-.3a.8.8,0,0,0,.1-.4.7.7,0,0,0-.2-.6l-.8-.2H105Z" transform="translate(-6 -5.1)"/><path d="M111.4,59.3h.6a1.5,1.5,0,0,1-.5.8,1.8,1.8,0,0,1-2.2-.2,1.8,1.8,0,0,1-.4-1.3,1.9,1.9,0,0,1,.4-1.3,1.5,1.5,0,0,1,1.2-.5,1.5,1.5,0,0,1,1.1.5,1.9,1.9,0,0,1,.4,1.3v.2h-2.6a1.3,1.3,0,0,0,.3.9,1,1,0,0,0,.7.3l.5-.2A1.1,1.1,0,0,0,111.4,59.3Zm-1.9-.9h1.9a1.2,1.2,0,0,0-.2-.6.9.9,0,0,0-.7-.3.9.9,0,0,0-.7.3A1.1,1.1,0,0,0,109.5,58.3Z" transform="translate(-6 -5.1)"/><path d="M112.7,60.4V56.9h.5v.5a1.2,1.2,0,0,1,1.1-.6h.6l.4.3.2.4a3.3,3.3,0,0,1,0,.6v2.1h-.6V58.3a1.6,1.6,0,0,0-.1-.5l-.2-.3h-.4l-.6.2a1.2,1.2,0,0,0-.3.9v1.9Z" transform="translate(-6 -5.1)"/><path d="M116.4,60.4V56.9h.5v.5a1.2,1.2,0,0,1,1.1-.6h.6l.4.3.2.4a3.3,3.3,0,0,1,0,.6v2.1h-.6V58.3a1.6,1.6,0,0,0-.1-.5l-.2-.3h-.4l-.6.2a1.2,1.2,0,0,0-.3.9v1.9Z" transform="translate(-6 -5.1)"/><path d="M122.4,59.3h.6a1.5,1.5,0,0,1-.5.8,1.8,1.8,0,0,1-2.2-.2,1.8,1.8,0,0,1-.4-1.3,1.9,1.9,0,0,1,.4-1.3,1.5,1.5,0,0,1,1.2-.5,1.5,1.5,0,0,1,1.1.5,1.9,1.9,0,0,1,.4,1.3v.2h-2.6a1.3,1.3,0,0,0,.3.9,1,1,0,0,0,.7.3l.5-.2A1.1,1.1,0,0,0,122.4,59.3Zm-1.9-.9h1.9a1.2,1.2,0,0,0-.2-.6.9.9,0,0,0-.7-.3.9.9,0,0,0-.7.3A1.1,1.1,0,0,0,120.5,58.3Z" transform="translate(-6 -5.1)"/><path d="M123.5,59.3h.6a.8.8,0,0,0,.3.5l.6.2.6-.2a.5.5,0,0,0,.2-.4.4.4,0,0,0-.2-.3l-.6-.2-.9-.3-.4-.3a.9.9,0,0,1-.1-.5.9.9,0,0,1,.1-.4l.3-.3.4-.2h1.2l.4.3a1.2,1.2,0,0,1,.2.5h-.6a.6.6,0,0,0-.2-.4h-1.1a.4.4,0,0,0-.2.3V58l.2.2h.5l.9.3.4.3a.8.8,0,0,1,.1.5,1,1,0,0,1-.2.5l-.5.4h-.7a1.6,1.6,0,0,1-1-.3A1.3,1.3,0,0,1,123.5,59.3Z" transform="translate(-6 -5.1)"/><path d="M104.3,49.2V44.5h2.5l.6.2.4.5a1.5,1.5,0,0,1-.2,1.7,1.8,1.8,0,0,1-1.4.4H105v1.9Zm.6-2.5h1.2a1.3,1.3,0,0,0,.9-.2.8.8,0,0,0,.3-.6.9.9,0,0,0-.1-.5l-.4-.3H105Z" transform="translate(-6 -5.1)"/><path d="M110.9,48.8l-.6.4h-.6a1.2,1.2,0,0,1-.9-.3.9.9,0,0,1-.3-.7.9.9,0,0,1,.1-.5l.3-.3.4-.2h.5l1-.2v-.2a.6.6,0,0,0-.2-.5l-.7-.2h-.6a.9.9,0,0,0-.3.5h-.6a1.4,1.4,0,0,1,.3-.6l.5-.3h1.5l.4.3.2.4a3.3,3.3,0,0,1,0,.5v.8a8.3,8.3,0,0,0,0,1v.4H111Zm0-1.3-.9.2h-.5l-.2.2a.5.5,0,0,0,.1.7l.5.2h.6l.4-.4a1.4,1.4,0,0,0,.1-.6Z" transform="translate(-6 -5.1)"/><path d="M112.3,49.2V45.8h.5v.5l.4-.5h.4l.6.2-.2.5h-.8l-.2.3a2.3,2.3,0,0,0-.1.7v1.8Z" transform="translate(-6 -5.1)"/><path d="M114.5,45.1v-.7h.6v.7Zm0,4.1V45.8h.6v3.4Z" transform="translate(-6 -5.1)"/><path d="M115.8,48.2h.6a.8.8,0,0,0,.3.5l.6.2.6-.2a.5.5,0,0,0,.2-.4.4.4,0,0,0-.2-.3l-.6-.2-.9-.3-.4-.3a.9.9,0,0,1-.1-.5.9.9,0,0,1,.1-.4l.3-.3.4-.2h1.2l.4.3a1.2,1.2,0,0,1,.2.5h-.6a.6.6,0,0,0-.2-.4h-1.1a.4.4,0,0,0-.2.3v.2l.2.2h.5l.9.3.4.3a.8.8,0,0,1,.1.5,1,1,0,0,1-.2.5l-.5.4h-.7a1.6,1.6,0,0,1-1-.3A1.3,1.3,0,0,1,115.8,48.2Z" transform="translate(-6 -5.1)"/><path d="M105.7,37V35l-1.8-2.7h.8l.9,1.4.5.8.5-.8.9-1.4h.7L106.3,35v2Z" transform="translate(-6 -5.1)"/><path d="M107.8,35.3a1.8,1.8,0,0,1,.5-1.4,1.6,1.6,0,0,1,1.1-.4,1.5,1.5,0,0,1,1.2.5,1.8,1.8,0,0,1,.4,1.3,2.3,2.3,0,0,1-.2,1,1.4,1.4,0,0,1-.6.6l-.8.2a1.5,1.5,0,0,1-1.2-.5A1.8,1.8,0,0,1,107.8,35.3Zm.6,0a1.5,1.5,0,0,0,.3,1,1,1,0,0,0,1.4,0,1.5,1.5,0,0,0,.3-1,1.4,1.4,0,0,0-.3-1,1,1,0,0,0-1.4,0A1.5,1.5,0,0,0,108.4,35.3Z" transform="translate(-6 -5.1)"/><path d="M114,37v-.5a1.3,1.3,0,0,1-1.1.6h-.6l-.4-.3-.2-.4a2.9,2.9,0,0,1,0-.5V33.6h.6v1.9a3.4,3.4,0,0,0,0,.6l.2.4h.9l.3-.4a1.8,1.8,0,0,0,.1-.7V33.6h.6V37Z" transform="translate(-6 -5.1)"/><path d="M115.4,37V33.6h.5v.5l.4-.5h.4l.6.2-.2.5h-.8l-.2.3a2.3,2.3,0,0,0-.1.7V37Z" transform="translate(-6 -5.1)"/><path d="M119.5,37V32.3h3.4v.6h-2.8v1.4h2.6v.6h-2.6v1.6h2.9V37Z" transform="translate(-6 -5.1)"/><path d="M123.5,37l1.3-1.8-1.2-1.6h.7l.5.8.2.4.3-.4.6-.8h.7l-1.2,1.6,1.3,1.8h-.7l-.7-1.1-.2-.3-.9,1.4Z" transform="translate(-6 -5.1)"/><path d="M128.4,36.5V37h-.9l-.2-.3a2.1,2.1,0,0,1-.1-.7V34h-.4v-.5h.4v-.8l.6-.3v1.2h.6V34h-.6v2a1,1,0,0,0,0,.3h.6Z" transform="translate(-6 -5.1)"/><path d="M131.3,35.9h.6a1.5,1.5,0,0,1-.5.8,1.8,1.8,0,0,1-2.2-.2,1.8,1.8,0,0,1-.4-1.3,1.9,1.9,0,0,1,.4-1.3,1.5,1.5,0,0,1,1.2-.5,1.5,1.5,0,0,1,1.1.5,1.9,1.9,0,0,1,.4,1.3v.2h-2.6a1.3,1.3,0,0,0,.3.9,1,1,0,0,0,.7.3l.5-.2A1.1,1.1,0,0,0,131.3,35.9Zm-1.9-.9h1.9a1.2,1.2,0,0,0-.2-.6.9.9,0,0,0-.7-.3.9.9,0,0,0-.7.3A1.1,1.1,0,0,0,129.4,34.9Z" transform="translate(-6 -5.1)"/><path d="M132.6,37V33.6h.5V34a1.2,1.2,0,0,1,1.1-.6h.6l.4.3.2.4a3.3,3.3,0,0,1,0,.6V37h-.6V34.9a1.6,1.6,0,0,0-.1-.5l-.2-.3h-.4l-.6.2a1.2,1.2,0,0,0-.3.9V37Z" transform="translate(-6 -5.1)"/><path d="M136.1,36h.6a.8.8,0,0,0,.3.5l.6.2.6-.2a.5.5,0,0,0,.2-.4.4.4,0,0,0-.2-.3l-.6-.2-.9-.3-.4-.3a.9.9,0,0,1-.1-.5.9.9,0,0,1,.1-.4l.3-.3.4-.2h1.2l.4.3a1.2,1.2,0,0,1,.2.5h-.6a.6.6,0,0,0-.2-.4h-1.1a.4.4,0,0,0-.2.3v.2l.2.2h.5l.9.3.4.3a.8.8,0,0,1,.1.5,1,1,0,0,1-.2.5l-.5.4h-.7a1.6,1.6,0,0,1-1-.3A1.3,1.3,0,0,1,136.1,36Z" transform="translate(-6 -5.1)"/><path d="M139.6,32.9v-.7h.6v.7Zm0,4.1V33.6h.6V37Z" transform="translate(-6 -5.1)"/><path d="M140.9,35.3a1.8,1.8,0,0,1,.5-1.4,1.6,1.6,0,0,1,1.1-.4,1.5,1.5,0,0,1,1.2.5,1.8,1.8,0,0,1,.4,1.3,2.3,2.3,0,0,1-.2,1,1.4,1.4,0,0,1-.6.6l-.8.2a1.5,1.5,0,0,1-1.2-.5A1.8,1.8,0,0,1,140.9,35.3Zm.6,0a1.5,1.5,0,0,0,.3,1,1,1,0,0,0,1.4,0,1.5,1.5,0,0,0,.3-1,1.4,1.4,0,0,0-.3-1,1,1,0,0,0-1.4,0A1.5,1.5,0,0,0,141.5,35.3Z" transform="translate(-6 -5.1)"/><path d="M144.8,37V33.6h.5V34a1.2,1.2,0,0,1,1.1-.6h.6l.4.3.2.4a3.3,3.3,0,0,1,0,.6V37H147V34.9a1.5,1.5,0,0,0-.1-.5l-.2-.3h-.4l-.6.2a1.2,1.2,0,0,0-.3.9V37Z" transform="translate(-6 -5.1)"/><path d="M151.4,35.8v-.2a1.6,1.6,0,0,1,.1-.6l.2-.4.4-.4.4-.4a.7.7,0,0,0,.1-.3.8.8,0,0,0-.3-.6.9.9,0,0,0-.6-.3l-.6.2a1.2,1.2,0,0,0-.3.7h-.6a1.4,1.4,0,0,1,1.5-1.4,1.6,1.6,0,0,1,1.1.4,1.2,1.2,0,0,1,.4.9,1.2,1.2,0,0,1-.1.6l-.6.6-.4.4v.3a2.3,2.3,0,0,0,0,.5Zm0,1.2v-.7h.7V37Z" transform="translate(-6 -5.1)"/><path d="M90.1,9.8a10.9,10.9,0,0,0-17.3,0H6V20.4H90.1Z" transform="translate(-6 -5.1)" fill="#afd1ff"/><path d="M10.1,17.9V13.2h2.5l.6.2.4.5a1.5,1.5,0,0,1-.2,1.7A1.8,1.8,0,0,1,12,16H10.8v1.9Zm.6-2.5H12a1.3,1.3,0,0,0,.9-.2.8.8,0,0,0,.3-.6.9.9,0,0,0-.1-.5l-.4-.3H10.8Z" transform="translate(-6 -5.1)"/><path d="M16.8,16.8h.6a1.5,1.5,0,0,1-.5.8,1.8,1.8,0,0,1-2.2-.2,1.8,1.8,0,0,1-.4-1.3,1.9,1.9,0,0,1,.4-1.3,1.5,1.5,0,0,1,1.2-.5,1.5,1.5,0,0,1,1.1.5,1.9,1.9,0,0,1,.4,1.3v.2H14.9a1.3,1.3,0,0,0,.3.9,1,1,0,0,0,.7.3l.5-.2A1.1,1.1,0,0,0,16.8,16.8Zm-1.9-.9h1.9a1.2,1.2,0,0,0-.2-.6.9.9,0,0,0-.7-.3.9.9,0,0,0-.7.3A1.1,1.1,0,0,0,14.9,15.9Z" transform="translate(-6 -5.1)"/><path d="M18.1,17.9V14.5h.5V15a1.2,1.2,0,0,1,1.1-.6h.6l.4.3.2.4a3.3,3.3,0,0,1,0,.6v2.1h-.6V15.9a1.6,1.6,0,0,0-.1-.5L20,15h-.4l-.6.2a1.2,1.2,0,0,0-.3.9v1.9Z" transform="translate(-6 -5.1)"/><path d="M21.6,16.9h.6a.8.8,0,0,0,.3.5l.6.2.6-.2a.5.5,0,0,0,.2-.4.4.4,0,0,0-.2-.3l-.6-.2-.9-.3-.4-.3a.9.9,0,0,1-.1-.5.9.9,0,0,1,.1-.4l.3-.3.4-.2h1.2l.4.3a1.2,1.2,0,0,1,.2.5h-.6a.6.6,0,0,0-.2-.4H22.4a.4.4,0,0,0-.2.3v.2l.2.2H23l.9.3.4.3a.8.8,0,0,1,.1.5,1,1,0,0,1-.2.5l-.5.4H23a1.6,1.6,0,0,1-1-.3A1.3,1.3,0,0,1,21.6,16.9Z" transform="translate(-6 -5.1)"/><path d="M25.1,13.9v-.7h.6v.7Zm0,4.1V14.5h.6v3.4Z" transform="translate(-6 -5.1)"/><path d="M26.4,16.2a1.8,1.8,0,0,1,.5-1.4,1.6,1.6,0,0,1,1.1-.4,1.5,1.5,0,0,1,1.2.5,1.8,1.8,0,0,1,.4,1.3,2.3,2.3,0,0,1-.2,1,1.4,1.4,0,0,1-.6.6L28,18a1.5,1.5,0,0,1-1.2-.5A1.8,1.8,0,0,1,26.4,16.2Zm.6,0a1.5,1.5,0,0,0,.3,1,1,1,0,0,0,1.4,0,1.5,1.5,0,0,0,.3-1,1.4,1.4,0,0,0-.3-1,1,1,0,0,0-1.4,0A1.5,1.5,0,0,0,27,16.2Z" transform="translate(-6 -5.1)"/><path d="M30.2,17.9V14.5h.5V15a1.2,1.2,0,0,1,1.1-.6h.6l.4.3.2.4a3.3,3.3,0,0,1,0,.6v2.1h-.6V15.9a1.6,1.6,0,0,0-.1-.5l-.2-.3h-.4l-.6.2a1.2,1.2,0,0,0-.3.9v1.9Z" transform="translate(-6 -5.1)"/><path d="M33.7,16.9h.6a.8.8,0,0,0,.3.5l.6.2.6-.2a.5.5,0,0,0,.2-.4.4.4,0,0,0-.2-.3l-.6-.2-.9-.3-.4-.3a.9.9,0,0,1-.1-.5.9.9,0,0,1,.1-.4l.3-.3.4-.2h1.2l.4.3a1.2,1.2,0,0,1,.2.5h-.6a.6.6,0,0,0-.2-.4H34.5a.4.4,0,0,0-.2.3v.2l.2.2h.5l.9.3.4.3a.8.8,0,0,1,.1.5,1,1,0,0,1-.2.5l-.5.4h-.7a1.6,1.6,0,0,1-1-.3A1.3,1.3,0,0,1,33.7,16.9Z" transform="translate(-6 -5.1)"/><path d="M228.1,26.2v-2l-1.8-2.7h.8l.9,1.4.5.8.5-.8.9-1.4h.7l-1.9,2.7v2Z" transform="translate(-6 -5.1)" fill="#fffdfd"/><path d="M230.2,24.5a1.8,1.8,0,0,1,.5-1.4,1.6,1.6,0,0,1,1.1-.4,1.5,1.5,0,0,1,1.2.5,1.8,1.8,0,0,1,.4,1.3,2.3,2.3,0,0,1-.2,1,1.4,1.4,0,0,1-.6.6l-.8.2a1.5,1.5,0,0,1-1.2-.5A1.8,1.8,0,0,1,230.2,24.5Zm.6,0a1.5,1.5,0,0,0,.3,1,1,1,0,0,0,1.4,0,1.5,1.5,0,0,0,.3-1,1.4,1.4,0,0,0-.3-1,1,1,0,0,0-1.4,0A1.5,1.5,0,0,0,230.8,24.5Z" transform="translate(-6 -5.1)" fill="#fffdfd"/><path d="M236.4,26.2v-.5a1.3,1.3,0,0,1-1.1.6h-.6l-.4-.3-.2-.4a3,3,0,0,1,0-.5V22.8h.6v1.9a3.4,3.4,0,0,0,0,.6l.2.4h.9l.3-.4a1.8,1.8,0,0,0,.1-.7V22.8h.6v3.4Z" transform="translate(-6 -5.1)" fill="#fffdfd"/><path d="M237.8,26.2V22.8h.5v.5l.4-.5h.4l.6.2-.2.5h-.8l-.2.3a2.3,2.3,0,0,0-.1.7v1.8Z" transform="translate(-6 -5.1)" fill="#fffdfd"/><path d="M241,26.2l1.8-4.7h.7l1.9,4.7h-.7l-.6-1.4h-2l-.5,1.4Zm1.4-1.9H244l-.5-1.3-.3-1-.3.9Z" transform="translate(-6 -5.1)" fill="#fffdfd"/><path d="M245.9,27.5V22.8h.5v.4l.4-.4h.6l.8.2a1.4,1.4,0,0,1,.5.6,2.3,2.3,0,0,1,.2.9,2.3,2.3,0,0,1-.2.9,1.4,1.4,0,0,1-.5.6l-.8.2h-.5l-.4-.3v1.7Zm.5-3a1.5,1.5,0,0,0,.3,1,.8.8,0,0,0,.6.3.8.8,0,0,0,.7-.3,1.6,1.6,0,0,0,.3-1,1.5,1.5,0,0,0-.3-1,.8.8,0,0,0-.6-.3.8.8,0,0,0-.7.3A1.5,1.5,0,0,0,246.4,24.5Z" transform="translate(-6 -5.1)" fill="#fffdfd"/><path d="M249.5,27.5V22.8h.5v.4l.4-.4h.6l.8.2a1.4,1.4,0,0,1,.5.6,2.3,2.3,0,0,1,.2.9,2.3,2.3,0,0,1-.2.9,1.4,1.4,0,0,1-.5.6l-.8.2h-.5l-.4-.3v1.7Zm.5-3a1.5,1.5,0,0,0,.3,1,.8.8,0,0,0,.6.3.8.8,0,0,0,.7-.3,1.6,1.6,0,0,0,.3-1,1.5,1.5,0,0,0-.3-1,.8.8,0,0,0-.6-.3.8.8,0,0,0-.7.3A1.5,1.5,0,0,0,250.1,24.5Z" transform="translate(-6 -5.1)" fill="#fffdfd"/><path d="M256.1,25.1v-.2a1.6,1.6,0,0,1,.1-.6l.2-.4.4-.4.4-.4a.7.7,0,0,0,.1-.3.8.8,0,0,0-.3-.6.9.9,0,0,0-.6-.3l-.6.2a1.2,1.2,0,0,0-.3.7h-.6a1.4,1.4,0,0,1,1.5-1.4,1.6,1.6,0,0,1,1.1.4,1.2,1.2,0,0,1,.4.9,1.2,1.2,0,0,1-.1.6l-.6.6-.4.4v.3a2.3,2.3,0,0,0,0,.5Zm0,1.2v-.7h.7v.7Z" transform="translate(-6 -5.1)" fill="#fffdfd"/><rect x="372.2" y="185.7" width="8.5" height="7.59" fill="#e22424"/><path d="M179.6,96.4" transform="translate(-6 -5.1)" fill="none"/><path d="M189.4,109.8" transform="translate(-6 -5.1)" fill="#e22424"/><path d="M279.1,124.4H207.5v-9.7a4.2,4.2,0,1,0,0-8.5v-4.1a4.3,4.3,0,1,1-.1-8.6V88.1l71.4.3Z" transform="translate(-6 -5.1)" fill="#1b74b2"/><path d="M217,107.7v-4.7h.6v4.2H220v.6Z" transform="translate(-6 -5.1)" fill="#fffdfd"/><path d="M223,106.6h.6a1.5,1.5,0,0,1-.5.8,1.8,1.8,0,0,1-2.2-.2,1.8,1.8,0,0,1-.4-1.3,1.9,1.9,0,0,1,.4-1.3,1.5,1.5,0,0,1,1.2-.5,1.5,1.5,0,0,1,1.1.5,1.9,1.9,0,0,1,.4,1.3v.2h-2.6a1.3,1.3,0,0,0,.3.9,1,1,0,0,0,.7.3l.5-.2A1.1,1.1,0,0,0,223,106.6Zm-1.9-.9H223a1.2,1.2,0,0,0-.2-.6.9.9,0,0,0-.7-.3.9.9,0,0,0-.7.3A1.1,1.1,0,0,0,221.1,105.6Z" transform="translate(-6 -5.1)" fill="#fffdfd"/><path d="M224.2,108h.6a.5.5,0,0,0,.2.4l.6.2.6-.2a.8.8,0,0,0,.3-.5,3.7,3.7,0,0,0,0-.7,1.2,1.2,0,0,1-.9.4,1.3,1.3,0,0,1-1.1-.5,2,2,0,0,1-.4-1.2,2.3,2.3,0,0,1,.2-.9,1.4,1.4,0,0,1,.5-.6l.8-.2a1.2,1.2,0,0,1,1,.5v-.4h.5v3a2.8,2.8,0,0,1-.2,1.1,1.2,1.2,0,0,1-.5.5l-.9.2a1.6,1.6,0,0,1-1-.3A.9.9,0,0,1,224.2,108Zm.5-2.1a1.5,1.5,0,0,0,.3,1,.8.8,0,0,0,.7.3.9.9,0,0,0,.7-.3,1.4,1.4,0,0,0,.3-1,1.4,1.4,0,0,0-.3-.9.9.9,0,0,0-.7-.3.8.8,0,0,0-.7.3A1.4,1.4,0,0,0,224.7,105.9Z" transform="translate(-6 -5.1)" fill="#fffdfd"/><path d="M228,103.6v-.7h.6v.7Zm0,4.1v-3.4h.6v3.4Z" transform="translate(-6 -5.1)" fill="#fffdfd"/><path d="M229.2,106.6h.6a.8.8,0,0,0,.3.5l.6.2.6-.2a.5.5,0,0,0,.2-.4.4.4,0,0,0-.2-.3l-.6-.2-.9-.3-.4-.3a.9.9,0,0,1-.1-.5.9.9,0,0,1,.1-.4l.3-.3.4-.2h1.2l.4.3a1.2,1.2,0,0,1,.2.5h-.6a.6.6,0,0,0-.2-.4h-1.1a.4.4,0,0,0-.2.3v.2l.2.2h.5l.9.3.4.3a.8.8,0,0,1,.1.5,1,1,0,0,1-.2.5l-.5.4h-.7a1.6,1.6,0,0,1-1-.3A1.3,1.3,0,0,1,229.2,106.6Z" transform="translate(-6 -5.1)" fill="#fffdfd"/><path d="M232.8,107.7v-4.7h.6v4.7Z" transform="translate(-6 -5.1)" fill="#fffdfd"/><path d="M236.5,107.2l-.6.4h-.6a1.2,1.2,0,0,1-.9-.3.9.9,0,0,1-.3-.7.9.9,0,0,1,.1-.5l.3-.3.4-.2h.5l1-.2v-.2a.6.6,0,0,0-.2-.5l-.7-.2H235a.9.9,0,0,0-.3.5h-.6a1.4,1.4,0,0,1,.3-.6l.5-.3h1.5l.4.3.2.4a3.4,3.4,0,0,1,0,.5v.8a8.3,8.3,0,0,0,0,1v.4h-.6A1.2,1.2,0,0,1,236.5,107.2Zm0-1.3-.9.2H235l-.2.2a.5.5,0,0,0,.1.7l.5.2h.6l.4-.4a1.4,1.4,0,0,0,.1-.6Z" transform="translate(-6 -5.1)" fill="#fffdfd"/><path d="M239.2,107.1v.5h-.9l-.2-.3a2.1,2.1,0,0,1-.1-.7v-2h-.4v-.5h.4v-.8l.6-.3v1.2h.6v.5h-.6v2a1,1,0,0,0,0,.3h.6Z" transform="translate(-6 -5.1)" fill="#fffdfd"/><path d="M239.8,103.6v-.7h.6v.7Zm0,4.1v-3.4h.6v3.4Z" transform="translate(-6 -5.1)" fill="#fffdfd"/><path d="M241,106a1.8,1.8,0,0,1,.5-1.4,1.6,1.6,0,0,1,1.1-.4,1.5,1.5,0,0,1,1.2.5,1.8,1.8,0,0,1,.4,1.3,2.3,2.3,0,0,1-.2,1,1.4,1.4,0,0,1-.6.6l-.8.2a1.5,1.5,0,0,1-1.2-.5A1.8,1.8,0,0,1,241,106Zm.6,0a1.5,1.5,0,0,0,.3,1,1,1,0,0,0,1.4,0,1.5,1.5,0,0,0,.3-1,1.4,1.4,0,0,0-.3-1,1,1,0,0,0-1.4,0A1.5,1.5,0,0,0,241.6,106Z" transform="translate(-6 -5.1)" fill="#fffdfd"/><path d="M244.9,107.7v-3.4h.5v.5a1.2,1.2,0,0,1,1.1-.6h.6l.4.3.2.4a3.3,3.3,0,0,1,0,.6v2.1h-.6v-2.1a1.5,1.5,0,0,0-.1-.5l-.2-.3h-.4l-.6.2a1.2,1.2,0,0,0-.3.9v1.9Z" transform="translate(-6 -5.1)" fill="#fffdfd"/><path d="M248.3,106.2v-.6h1.8v.6Z" transform="translate(-6 -5.1)" fill="#fffdfd"/><path d="M250.9,107.7v-4.7h3.4v.6h-2.8v1.4h2.6v.6h-2.6v1.6h2.9v.6Z" transform="translate(-6 -5.1)" fill="#fffdfd"/><path d="M254.8,107.7l1.3-1.8-1.2-1.6h.7l.5.8.2.4.3-.4.6-.8h.7l-1.2,1.6,1.3,1.8h-.7l-.7-1.1-.2-.3-.9,1.4Z" transform="translate(-6 -5.1)" fill="#fffdfd"/><path d="M258.5,109v-4.7h.5v.4l.4-.4h.6l.8.2a1.4,1.4,0,0,1,.5.6,2.3,2.3,0,0,1,.2.9,2.3,2.3,0,0,1-.2.9,1.4,1.4,0,0,1-.5.6l-.8.2h-.5l-.4-.3V109Zm.5-3a1.5,1.5,0,0,0,.3,1,.8.8,0,0,0,.6.3.8.8,0,0,0,.7-.3,1.6,1.6,0,0,0,.3-1,1.5,1.5,0,0,0-.3-1,.8.8,0,0,0-.6-.3.8.8,0,0,0-.7.3A1.5,1.5,0,0,0,259,106Z" transform="translate(-6 -5.1)" fill="#fffdfd"/><path d="M262.1,107.7v-4.7h.6v4.7Z" transform="translate(-6 -5.1)" fill="#fffdfd"/><path d="M263.4,106a1.8,1.8,0,0,1,.5-1.4,1.6,1.6,0,0,1,1.1-.4,1.5,1.5,0,0,1,1.2.5,1.8,1.8,0,0,1,.4,1.3,2.3,2.3,0,0,1-.2,1,1.4,1.4,0,0,1-.6.6l-.8.2a1.5,1.5,0,0,1-1.2-.5A1.8,1.8,0,0,1,263.4,106Zm.6,0a1.5,1.5,0,0,0,.3,1,1,1,0,0,0,1.4,0,1.5,1.5,0,0,0,.3-1,1.4,1.4,0,0,0-.3-1,1,1,0,0,0-1.4,0A1.5,1.5,0,0,0,264,106Z" transform="translate(-6 -5.1)" fill="#fffdfd"/><path d="M267.3,107.7v-3.4h.5v.5l.4-.5h.4l.6.2-.2.5h-.8l-.2.3a2.3,2.3,0,0,0-.1.7v1.8Z" transform="translate(-6 -5.1)" fill="#fffdfd"/><path d="M271.8,106.6h.6a1.5,1.5,0,0,1-.5.8,1.8,1.8,0,0,1-2.2-.2,1.8,1.8,0,0,1-.4-1.3,1.9,1.9,0,0,1,.4-1.3,1.5,1.5,0,0,1,1.2-.5,1.5,1.5,0,0,1,1.1.5,1.9,1.9,0,0,1,.4,1.3v.2h-2.6a1.3,1.3,0,0,0,.3.9,1,1,0,0,0,.7.3l.5-.2A1.1,1.1,0,0,0,271.8,106.6Zm-1.9-.9h1.9a1.2,1.2,0,0,0-.2-.6.9.9,0,0,0-.7-.3.9.9,0,0,0-.7.3A1.1,1.1,0,0,0,269.9,105.6Z" transform="translate(-6 -5.1)" fill="#fffdfd"/><path d="M273.1,107.7v-3.4h.5v.5l.4-.5h.4l.6.2-.2.5H274l-.2.3a2.3,2.3,0,0,0-.1.7v1.8Z" transform="translate(-6 -5.1)" fill="#fffdfd"/><path d="M279.1,82.6H207.5V72.9a4.2,4.2,0,1,0,0-8.5V60.4a4.3,4.3,0,1,1-.1-8.6V46.4l71.4.3Z" transform="translate(-6 -5.1)" fill="#1b74b2"/><path d="M218,67.1V63.7h.5v.5l.4-.4.6-.2.6.2a.8.8,0,0,1,.3.4,1.2,1.2,0,0,1,1.1-.6,1,1,0,0,1,.8.3,1.2,1.2,0,0,1,.3.9v2.4h-.6V65a1.6,1.6,0,0,0-.1-.5l-.2-.2h-.3l-.6.2a1.1,1.1,0,0,0-.2.8v2H220V64.9a1,1,0,0,0-.1-.6l-.5-.2H219l-.3.4a2.1,2.1,0,0,0-.1.7v1.8Z" transform="translate(-6 -5.1)" fill="#fffdfd"/><path d="M225.8,66h.6a1.5,1.5,0,0,1-.5.8,1.8,1.8,0,0,1-2.2-.2,1.8,1.8,0,0,1-.4-1.3,1.9,1.9,0,0,1,.4-1.3,1.5,1.5,0,0,1,1.2-.5,1.5,1.5,0,0,1,1.1.5,1.9,1.9,0,0,1,.4,1.3v.2h-2.6a1.3,1.3,0,0,0,.3.9,1,1,0,0,0,.7.3l.5-.2A1.1,1.1,0,0,0,225.8,66Zm-1.9-.9h1.9a1.2,1.2,0,0,0-.2-.6.9.9,0,0,0-.7-.3.9.9,0,0,0-.7.3A1.1,1.1,0,0,0,223.9,65.1Z" transform="translate(-6 -5.1)" fill="#fffdfd"/><path d="M226.9,66.1h.6a.8.8,0,0,0,.3.5l.6.2.6-.2a.5.5,0,0,0,.2-.4.4.4,0,0,0-.2-.3l-.6-.2-.9-.3-.4-.3a.9.9,0,0,1-.1-.5.9.9,0,0,1,.1-.4l.3-.3.4-.2H229l.4.3a1.2,1.2,0,0,1,.2.5h-.6a.6.6,0,0,0-.2-.4h-1.1a.4.4,0,0,0-.2.3v.2l.2.2h.5l.9.3.4.3a.8.8,0,0,1,.1.5,1,1,0,0,1-.2.5l-.5.4h-.7a1.6,1.6,0,0,1-1-.3A1.3,1.3,0,0,1,226.9,66.1Z" transform="translate(-6 -5.1)" fill="#fffdfd"/><path d="M230.2,65.7v-.6H232v.6Z" transform="translate(-6 -5.1)" fill="#fffdfd"/><path d="M234.9,66.7l-.6.4h-.6a1.2,1.2,0,0,1-.9-.3.9.9,0,0,1-.3-.7.9.9,0,0,1,.1-.5l.3-.3.4-.2h.5l1-.2v-.2a.6.6,0,0,0-.2-.5l-.7-.2h-.6a.9.9,0,0,0-.3.5h-.6a1.4,1.4,0,0,1,.3-.6l.5-.3h1.5l.4.3.2.4a3.4,3.4,0,0,1,0,.5v.8a8.3,8.3,0,0,0,0,1v.4H235A1.2,1.2,0,0,1,234.9,66.7Zm0-1.3-.9.2h-.5l-.2.2a.5.5,0,0,0,.1.7l.5.2h.6l.4-.4a1.4,1.4,0,0,0,.1-.6Z" transform="translate(-6 -5.1)" fill="#fffdfd"/><path d="M236.3,63.1v-.7h.6v.7Zm0,4.1V63.7h.6v3.4Z" transform="translate(-6 -5.1)" fill="#fffdfd"/><path d="M240,67.1v-.4a1.1,1.1,0,0,1-1,.5l-.8-.2a1.5,1.5,0,0,1-.5-.6,2.2,2.2,0,0,1-.2-.9,2.4,2.4,0,0,1,.2-.9,1.3,1.3,0,0,1,.5-.6l.8-.2h.6l.4.3V62.4h.6v4.7Zm-1.8-1.7a1.5,1.5,0,0,0,.3,1,.8.8,0,0,0,.7.3.8.8,0,0,0,.6-.3,1.4,1.4,0,0,0,.3-.9,1.6,1.6,0,0,0-.3-1,.8.8,0,0,0-.7-.3.8.8,0,0,0-.6.3A1.6,1.6,0,0,0,238.2,65.4Z" transform="translate(-6 -5.1)" fill="#fffdfd"/><path d="M243.8,66h.6a1.5,1.5,0,0,1-.5.8,1.8,1.8,0,0,1-2.2-.2,1.8,1.8,0,0,1-.4-1.3,1.9,1.9,0,0,1,.4-1.3,1.5,1.5,0,0,1,1.2-.5,1.5,1.5,0,0,1,1.1.5,1.9,1.9,0,0,1,.4,1.3v.2h-2.6a1.3,1.3,0,0,0,.3.9,1,1,0,0,0,.7.3l.5-.2A1.1,1.1,0,0,0,243.8,66Zm-1.9-.9h1.9a1.2,1.2,0,0,0-.2-.6.9.9,0,0,0-.7-.3.9.9,0,0,0-.7.3A1.1,1.1,0,0,0,241.9,65.1Z" transform="translate(-6 -5.1)" fill="#fffdfd"/><path d="M244.9,66.1h.6a.8.8,0,0,0,.3.5l.6.2.6-.2a.5.5,0,0,0,.2-.4.4.4,0,0,0-.2-.3l-.6-.2-.9-.3-.4-.3a.9.9,0,0,1-.1-.5.9.9,0,0,1,.1-.4l.3-.3.4-.2H247l.4.3a1.2,1.2,0,0,1,.2.5h-.6a.6.6,0,0,0-.2-.4h-1.1a.4.4,0,0,0-.2.3v.2l.2.2h.5l.9.3.4.3a.8.8,0,0,1,.1.5,1,1,0,0,1-.2.5l-.5.4h-.7a1.6,1.6,0,0,1-1-.3A1.3,1.3,0,0,1,244.9,66.1Z" transform="translate(-6 -5.1)" fill="#fffdfd"/><path d="M248.6,67.1v-.7h.7v.7Z" transform="translate(-6 -5.1)" fill="#fffdfd"/><path d="M250.2,67.4h.6a.5.5,0,0,0,.2.4l.6.2.6-.2a.8.8,0,0,0,.3-.5,3.7,3.7,0,0,0,0-.7,1.2,1.2,0,0,1-.9.4,1.3,1.3,0,0,1-1.1-.5,2,2,0,0,1-.4-1.2,2.3,2.3,0,0,1,.2-.9,1.4,1.4,0,0,1,.5-.6l.8-.2a1.2,1.2,0,0,1,1,.5v-.4h.5v3a2.8,2.8,0,0,1-.2,1.1,1.2,1.2,0,0,1-.5.5l-.9.2a1.6,1.6,0,0,1-1-.3A.9.9,0,0,1,250.2,67.4Zm.5-2.1a1.5,1.5,0,0,0,.3,1,.8.8,0,0,0,.7.3.9.9,0,0,0,.7-.3,1.4,1.4,0,0,0,.3-1,1.4,1.4,0,0,0-.3-.9.9.9,0,0,0-.7-.3.8.8,0,0,0-.7.3A1.4,1.4,0,0,0,250.7,65.4Z" transform="translate(-6 -5.1)" fill="#fffdfd"/><path d="M253.7,65.4a1.8,1.8,0,0,1,.5-1.4,1.6,1.6,0,0,1,1.1-.4,1.5,1.5,0,0,1,1.2.5,1.8,1.8,0,0,1,.4,1.3,2.3,2.3,0,0,1-.2,1,1.4,1.4,0,0,1-.6.6l-.8.2a1.5,1.5,0,0,1-1.2-.5A1.8,1.8,0,0,1,253.7,65.4Zm.6,0a1.5,1.5,0,0,0,.3,1,1,1,0,0,0,1.4,0,1.5,1.5,0,0,0,.3-1,1.4,1.4,0,0,0-.3-1,1,1,0,0,0-1.4,0A1.5,1.5,0,0,0,254.3,65.4Z" transform="translate(-6 -5.1)" fill="#fffdfd"/><path d="M259.9,67.1v-.5a1.3,1.3,0,0,1-1.1.6h-.6l-.4-.3-.2-.4a3,3,0,0,1,0-.5V63.7h.6v1.9a3.4,3.4,0,0,0,0,.6l.2.4h.9l.3-.4a1.8,1.8,0,0,0,.1-.7V63.7h.6v3.4Z" transform="translate(-6 -5.1)" fill="#fffdfd"/><path d="M262.3,67.1,261,63.7h.6l.7,2,.2.7.2-.7.8-2.1h.6l-1.3,3.4Z" transform="translate(-6 -5.1)" fill="#fffdfd"/><path d="M264.3,67.1v-.7h.7v.7Z" transform="translate(-6 -5.1)" fill="#fffdfd"/><path d="M266.1,67.1v-3h-.5v-.5h.5v-.4a1.6,1.6,0,0,1,.1-.5l.3-.4h1.1v.5h-.7a.6.6,0,0,0-.1.4v.3h.7v.5h-.7v3Z" transform="translate(-6 -5.1)" fill="#fffdfd"/><path d="M267.8,67.1V63.7h.5v.5l.4-.5h.4l.6.2-.2.5h-.8l-.2.3a2.3,2.3,0,0,0-.1.7v1.8Z" transform="translate(-6 -5.1)" fill="#fffdfd"/><path d="M179.8,107.7l-1.3-4.7h.6l.7,3.1.2,1,.2-.9.9-3.2h.8l.7,2.4a12.6,12.6,0,0,1,.4,1.7l.2-1,.7-3h.6l-1.3,4.7h-.6l-1-3.6v0l-1,3.6Z" transform="translate(-6 -5.1)"/><path d="M187.3,106.6h.6a1.5,1.5,0,0,1-.5.8,1.8,1.8,0,0,1-2.2-.2,1.8,1.8,0,0,1-.4-1.3,1.9,1.9,0,0,1,.4-1.3,1.5,1.5,0,0,1,1.2-.5,1.5,1.5,0,0,1,1.1.5,1.9,1.9,0,0,1,.4,1.3v.2h-2.6a1.3,1.3,0,0,0,.3.9,1,1,0,0,0,.7.3l.5-.2A1.1,1.1,0,0,0,187.3,106.6Zm-1.9-.9h1.9a1.2,1.2,0,0,0-.2-.6.9.9,0,0,0-.7-.3.9.9,0,0,0-.7.3A1.1,1.1,0,0,0,185.4,105.7Z" transform="translate(-6 -5.1)"/><path d="M189.2,107.7h-.5V103h.6v1.7a1.2,1.2,0,0,1,.9-.5h.6l.5.4.3.6a2.3,2.3,0,0,1,.1.7,2,2,0,0,1-.4,1.4,1.4,1.4,0,0,1-1,.5,1.1,1.1,0,0,1-1-.5Zm0-1.7a1.8,1.8,0,0,0,.2.9.8.8,0,0,0,1.4.1,1.5,1.5,0,0,0,.3-1,1.5,1.5,0,0,0-.3-1,.8.8,0,0,0-.6-.3.8.8,0,0,0-.7.3A1.5,1.5,0,0,0,189.2,106Z" transform="translate(-6 -5.1)"/><path d="M178.4,115.7l1.8-4.7h.7l1.9,4.7h-.7l-.6-1.4h-2l-.5,1.4Zm1.4-1.9h1.6l-.5-1.3-.3-1-.3.9Z" transform="translate(-6 -5.1)"/><path d="M183.4,115.7v-4.7h2.5l.6.2.4.5a1.5,1.5,0,0,1-.2,1.7,1.8,1.8,0,0,1-1.4.4H184v1.9Zm.6-2.5h1.2a1.3,1.3,0,0,0,.9-.2.8.8,0,0,0,.3-.6.9.9,0,0,0-.2-.5l-.4-.3H184Z" transform="translate(-6 -5.1)"/><path d="M187.9,115.7v-4.7h.6v4.7Z" transform="translate(-6 -5.1)"/></svg>