<svg data-name="svg6535" xmlns="http://www.w3.org/2000/svg" viewBox="0 0 519.4 100.9"><title>schema_openfisca</title><path d="M210 4.2a10.9 10.9 0 0 0-17.3 0h-66.8v10.6h84.2z" fill="#d66990"/><path fill="#efefef" d="M36.7 6.3h67.2v94.44H36.7z"/><path d="M228.2 99.7l-102.3.3V54.5h4.3v34h75.7v-34l22.3-.3v13a4.3 4.3 0 1 0 0 8.4V80a4.3 4.3 0 1 1 0 8.4z" fill="#67acce"/><path fill="#971640" d="M203.7 86.4h-71.5V52.3h-6.4V40.1H210v12.2h-6.3v34.1"/><path fill="#e22424" d="M302.9 68.8h1.8v1.84h-1.8z"/><path d="M143 64.3a2.6 2.6 0 0 1 .6-1.8 2.1 2.1 0 0 1 1.6-.7 2.3 2.3 0 0 1 1.2.3 2 2 0 0 1 .8.9 2.8 2.8 0 0 1 .3 1.3 2.8 2.8 0 0 1-.3 1.3 2 2 0 0 1-.8.9 2.4 2.4 0 0 1-1.1.3 2.2 2.2 0 0 1-1.2-.3 2.1 2.1 0 0 1-.8-.9 2.7 2.7 0 0 1-.3-1.3zm.6 0a1.9 1.9 0 0 0 .5 1.3 1.6 1.6 0 0 0 2.3 0 2 2 0 0 0 .5-1.4 2.4 2.4 0 0 0-.2-1 1.5 1.5 0 0 0-.6-.7l-.8-.2a1.6 1.6 0 0 0-1.1.5 2 2 0 0 0-.5 1.5zM148.3 67.9v-4.7h.5v.4l.4-.4h.6l.8.2a1.4 1.4 0 0 1 .5.6 2.3 2.3 0 0 1 .2.9 2.3 2.3 0 0 1-.2.9 1.4 1.4 0 0 1-.5.6l-.8.2h-.5l-.4-.3V68zm.5-3a1.5 1.5 0 0 0 .3 1 .8.8 0 0 0 .6.3.8.8 0 0 0 .7-.3 1.5 1.5 0 0 0 .3-1 1.5 1.5 0 0 0-.3-1 .8.8 0 0 0-.6-.3.8.8 0 0 0-.7.3 1.6 1.6 0 0 0-.3 1zM154.3 65.5h.6a1.5 1.5 0 0 1-.5.8 1.8 1.8 0 0 1-2.2-.2 1.8 1.8 0 0 1-.4-1.3 1.9 1.9 0 0 1 .4-1.3 1.5 1.5 0 0 1 1.2-.5 1.5 1.5 0 0 1 1.1.5 1.9 1.9 0 0 1 .4 1.3v.2h-2.6a1.3 1.3 0 0 0 .3.9 1 1 0 0 0 .7.3l.5-.2a1.1 1.1 0 0 0 .5-.5zm-1.9-.9h1.9a1.2 1.2 0 0 0-.2-.6.9.9 0 0 0-.7-.3.9.9 0 0 0-.7.3 1.1 1.1 0 0 0-.3.6zM155.6 66.6v-3.4h.5v.5a1.2 1.2 0 0 1 1.1-.6h.6l.4.3.2.4a3.3 3.3 0 0 1 0 .6v2.1h-.6v-2a1.6 1.6 0 0 0-.1-.5l-.2-.3h-.4l-.6.2a1.2 1.2 0 0 0-.3.9v1.9zM159.4 66.6v-4.7h3.2v.6H160V64h2.2v.6H160v2.1zM163.4 62.5v-.7h.6v.7zm0 4.1v-3.4h.6v3.4zM164.6 65.6h.6a.8.8 0 0 0 .3.5l.6.2.6-.2a.5.5 0 0 0 .2-.4.4.4 0 0 0-.2-.3l-.6-.2-.9-.3-.4-.3a.9.9 0 0 1-.1-.5.9.9 0 0 1 .1-.4l.3-.3.4-.2h1.2l.4.3a1.2 1.2 0 0 1 .2.5h-.6a.6.6 0 0 0-.2-.4h-1.1a.4.4 0 0 0-.2.3v.2l.2.2h.5l.9.3.4.3a.8.8 0 0 1 .1.5 1 1 0 0 1-.2.5l-.5.4h-.7a1.6 1.6 0 0 1-1-.3 1.3 1.3 0 0 1-.3-.4zM170.4 65.4h.6a1.5 1.5 0 0 1-.5.9 1.4 1.4 0 0 1-.9.3 1.5 1.5 0 0 1-1.1-.5 1.9 1.9 0 0 1-.4-1.3 2.4 2.4 0 0 1 .2-1 1.3 1.3 0 0 1 .6-.6l.8-.2a1.4 1.4 0 0 1 .9.3 1.3 1.3 0 0 1 .5.8h-.6a.9.9 0 0 0-.3-.5l-.5-.2a.9.9 0 0 0-.7.3 1.5 1.5 0 0 0-.3 1 1.5 1.5 0 0 0 .3 1 .9.9 0 0 0 .7.3l.6-.2a1 1 0 0 0 .1-.4zM173.7 66.2l-.6.4h-.6a1.2 1.2 0 0 1-.9-.3.9.9 0 0 1-.3-.7.9.9 0 0 1 .1-.5l.3-.3.4-.2h.5l1-.2v-.2a.6.6 0 0 0-.2-.5l-.7-.2h-.5a.9.9 0 0 0-.3.5h-.6a1.4 1.4 0 0 1 .3-.6l.5-.3h1.5l.4.3.2.4a3.4 3.4 0 0 1 0 .5v.8a8.3 8.3 0 0 0 0 1v.4h-.6a1.2 1.2 0 0 1 .1-.3zm0-1.3l-.9.2h-.6l-.2.2a.5.5 0 0 0 .1.7l.5.2h.6l.4-.4a1.4 1.4 0 0 0 .1-.6zM174.9 65.2v-.6h1.8v.6zM177.4 66.6v-4.7h3.2v.6H178V64h2.2v.6H178v2.1zM181.3 66.6v-3.4h.5v.5l.4-.5h.4l.6.2-.2.5h-.8l-.2.3a2.3 2.3 0 0 0-.1.7v1.8zM185.8 66.2l-.6.4h-.6a1.2 1.2 0 0 1-.9-.3.9.9 0 0 1-.3-.7.9.9 0 0 1 .1-.5l.3-.3.4-.2h.5l1-.2v-.2a.6.6 0 0 0-.2-.5l-.7-.2h-.6a.9.9 0 0 0-.3.5h-.6a1.4 1.4 0 0 1 .3-.6l.5-.3h1.5l.4.3.2.4a3.4 3.4 0 0 1 0 .5v.8a8.3 8.3 0 0 0 0 1v.4h-.6a1.2 1.2 0 0 1 .2-.3zm0-1.3l-.9.2h-.5l-.2.2a.5.5 0 0 0 .1.7l.5.2h.6l.4-.4a1.4 1.4 0 0 0 .1-.6zM187.2 66.6v-3.4h.5v.5a1.2 1.2 0 0 1 1.1-.6h.6l.4.3.2.4a3.3 3.3 0 0 1 0 .6v2.1h-.6v-2a1.5 1.5 0 0 0-.1-.5l-.2-.3h-.4l-.6.2a1.2 1.2 0 0 0-.3.9v1.9zM193.1 65.4h.6a1.5 1.5 0 0 1-.5.9 1.4 1.4 0 0 1-.9.3 1.5 1.5 0 0 1-1.1-.5 1.9 1.9 0 0 1-.4-1.3 2.4 2.4 0 0 1 .2-1 1.3 1.3 0 0 1 .6-.6l.8-.2a1.4 1.4 0 0 1 .9.3 1.3 1.3 0 0 1 .5.8h-.6a.9.9 0 0 0-.3-.5l-.5-.2a.9.9 0 0 0-.7.3 1.5 1.5 0 0 0-.3 1 1.5 1.5 0 0 0 .3 1 .9.9 0 0 0 .7.3l.6-.2a1 1 0 0 0 .1-.4zM196.5 65.5h.6a1.5 1.5 0 0 1-.5.8 1.8 1.8 0 0 1-2.2-.2 1.8 1.8 0 0 1-.4-1.3 1.9 1.9 0 0 1 .4-1.3 1.5 1.5 0 0 1 1.2-.5 1.5 1.5 0 0 1 1.1.5 1.9 1.9 0 0 1 .4 1.3v.2h-2.6a1.3 1.3 0 0 0 .3.9 1 1 0 0 0 .7.3l.5-.2a1.1 1.1 0 0 0 .5-.5zm-1.9-.9h1.9a1.2 1.2 0 0 0-.2-.6.9.9 0 0 0-.7-.3.9.9 0 0 0-.7.3 1.1 1.1 0 0 0-.3.6z" fill="#fcfcfc"/><path d="M210 16.7a10.9 10.9 0 0 0-17.3 0h-66.8v10.5h84.2z" fill="#d66990"/><path d="M210 28.6a10.9 10.9 0 0 0-17.3 0h-66.8v10.6h84.2z" fill="#d66990"/><path d="M134.8 35.7V31h3.1a1.1 1.1 0 0 1 .5.5 1.3 1.3 0 0 1 .2.7 1.2 1.2 0 0 1-.3.8 1.7 1.7 0 0 1-1 .4l.4.2.5.6.8 1.3h-.8l-.6-1-.5-.7-.3-.3h-1.4v2.1zm.6-2.6h2l.4-.3a.8.8 0 0 0 .1-.4.7.7 0 0 0-.2-.6l-.8-.2h-1.5zM141.9 34.6h.6a1.5 1.5 0 0 1-.5.8 1.8 1.8 0 0 1-2.2-.2 1.8 1.8 0 0 1-.4-1.3 1.9 1.9 0 0 1 .4-1.3 1.5 1.5 0 0 1 1.2-.5 1.5 1.5 0 0 1 1.1.5 1.9 1.9 0 0 1 .4 1.3v.2h-2.6a1.3 1.3 0 0 0 .3.9 1 1 0 0 0 .7.3l.5-.2a1.1 1.1 0 0 0 .5-.5zm-1.9-.9h1.9a1.2 1.2 0 0 0-.2-.6.9.9 0 0 0-.7-.3.9.9 0 0 0-.7.3 1.1 1.1 0 0 0-.3.6zM143.2 35.7v-3.4h.5v.5a1.2 1.2 0 0 1 1.1-.6h.6l.4.3.2.4a3.3 3.3 0 0 1 0 .6v2.1h-.6v-2a1.6 1.6 0 0 0-.1-.5l-.2-.3h-.4l-.6.2a1.2 1.2 0 0 0-.3.9v1.9zM146.9 35.7v-3.4h.5v.5a1.2 1.2 0 0 1 1.1-.6h.6l.4.3.2.4a3.3 3.3 0 0 1 0 .6v2.1h-.6v-2a1.6 1.6 0 0 0-.1-.5l-.2-.3h-.4l-.6.2a1.2 1.2 0 0 0-.3.9v1.9zM152.9 34.6h.6a1.5 1.5 0 0 1-.5.8 1.8 1.8 0 0 1-2.2-.2 1.8 1.8 0 0 1-.4-1.3 1.9 1.9 0 0 1 .4-1.3 1.5 1.5 0 0 1 1.2-.5 1.5 1.5 0 0 1 1.1.5 1.9 1.9 0 0 1 .4 1.3v.2h-2.6a1.3 1.3 0 0 0 .3.9 1 1 0 0 0 .7.3l.5-.2a1.1 1.1 0 0 0 .5-.5zm-1.9-.9h1.9a1.2 1.2 0 0 0-.2-.6.9.9 0 0 0-.7-.3.9.9 0 0 0-.7.3 1.1 1.1 0 0 0-.3.6zM154 34.7h.6a.8.8 0 0 0 .3.5l.6.2.6-.2a.5.5 0 0 0 .2-.4.4.4 0 0 0-.2-.3l-.6-.2-.9-.3-.4-.3a.9.9 0 0 1-.1-.5.9.9 0 0 1 .1-.4l.3-.3.4-.2h1.2l.4.3a1.2 1.2 0 0 1 .2.5h-.6a.6.6 0 0 0-.2-.4h-1.1a.4.4 0 0 0-.2.3v.2l.2.2h.5l.9.3.4.3a.8.8 0 0 1 .1.5 1 1 0 0 1-.2.5l-.5.4h-.7a1.6 1.6 0 0 1-1-.3 1.3 1.3 0 0 1-.3-.4zM134.8 24.5v-4.7h2.5l.6.2.4.5a1.5 1.5 0 0 1-.2 1.7 1.8 1.8 0 0 1-1.4.4h-1.2v1.9zm.6-2.5h1.2a1.3 1.3 0 0 0 .9-.2.8.8 0 0 0 .3-.6.9.9 0 0 0-.1-.5l-.4-.3h-1.8zM141.4 24.1l-.6.4h-.6a1.2 1.2 0 0 1-.9-.3.9.9 0 0 1-.3-.7.9.9 0 0 1 .1-.5l.3-.3.4-.2h.5l1-.2v-.2a.6.6 0 0 0-.2-.5l-.7-.2h-.6a.9.9 0 0 0-.3.5h-.6a1.4 1.4 0 0 1 .3-.6l.5-.3h1.5l.4.3.2.4a3.3 3.3 0 0 1 0 .5v.8a8.3 8.3 0 0 0 0 1v.4h-.6zm0-1.3l-.9.2h-.5l-.2.2a.5.5 0 0 0 .1.7l.5.2h.6l.4-.4a1.4 1.4 0 0 0 .1-.6zM142.8 24.5v-3.4h.5v.5l.4-.5h.4l.6.2-.2.5h-.8l-.2.3a2.3 2.3 0 0 0-.1.7v1.8zM145 20.5v-.7h.6v.7zm0 4.1v-3.5h.6v3.4zM146.3 23.5h.6a.8.8 0 0 0 .3.5l.6.2.6-.2a.5.5 0 0 0 .2-.4.4.4 0 0 0-.2-.3l-.6-.2-.9-.3-.4-.3a.9.9 0 0 1-.1-.5.9.9 0 0 1 .1-.4l.3-.3.4-.2h1.2l.4.3a1.2 1.2 0 0 1 .2.5h-.6a.6.6 0 0 0-.2-.4h-1.1a.4.4 0 0 0-.2.3v.2l.2.2h.5l.9.3.4.3a.8.8 0 0 1 .1.5 1 1 0 0 1-.2.5l-.5.4h-.7a1.6 1.6 0 0 1-1-.3 1.3 1.3 0 0 1-.3-.4z"/><path d="M308 98.5h-71.6v-9.7a4.25 4.25 0 1 0 0-8.5v-4a4.3 4.3 0 1 1-.1-8.6v-5.5l71.4.3z" fill="#595a5b"/><path d="M245.9 81.7V77h.6v4.2h2.3v.6zM251.9 80.6h.6a1.5 1.5 0 0 1-.5.8 1.8 1.8 0 0 1-2.2-.2 1.8 1.8 0 0 1-.4-1.3 1.9 1.9 0 0 1 .4-1.3 1.5 1.5 0 0 1 1.2-.5 1.5 1.5 0 0 1 1.1.5 1.9 1.9 0 0 1 .4 1.3v.2h-2.6a1.3 1.3 0 0 0 .3.9 1 1 0 0 0 .7.3l.5-.2a1.1 1.1 0 0 0 .5-.5zm-1.9-.9h1.9a1.2 1.2 0 0 0-.2-.6.9.9 0 0 0-.7-.3.9.9 0 0 0-.7.3 1.1 1.1 0 0 0-.3.6zM253.1 82h.6a.5.5 0 0 0 .2.4l.6.2.6-.2a.8.8 0 0 0 .3-.5 3.7 3.7 0 0 0 0-.7 1.2 1.2 0 0 1-.9.4 1.3 1.3 0 0 1-1.1-.5 2 2 0 0 1-.4-1.2 2.3 2.3 0 0 1 .2-.9 1.4 1.4 0 0 1 .5-.6l.8-.2a1.2 1.2 0 0 1 1 .5v-.4h.5v3a2.8 2.8 0 0 1-.2 1.1 1.2 1.2 0 0 1-.5.5l-.9.2a1.6 1.6 0 0 1-1-.3.9.9 0 0 1-.3-.8zm.5-2.1a1.5 1.5 0 0 0 .3 1 .8.8 0 0 0 .7.3.9.9 0 0 0 .7-.3 1.4 1.4 0 0 0 .3-1 1.4 1.4 0 0 0-.3-.9.9.9 0 0 0-.7-.3.8.8 0 0 0-.7.3 1.4 1.4 0 0 0-.3 1zM256.9 77.7V77h.6v.7zm0 4.1v-3.5h.6v3.4zM258.1 80.7h.6a.8.8 0 0 0 .3.5l.6.2.6-.2a.5.5 0 0 0 .2-.4.4.4 0 0 0-.2-.3l-.6-.2-.9-.3-.4-.3a.9.9 0 0 1-.1-.5.9.9 0 0 1 .1-.4l.3-.3.4-.2h1.2l.4.3a1.2 1.2 0 0 1 .2.5h-.6a.6.6 0 0 0-.2-.4h-1.1a.4.4 0 0 0-.2.3v.2l.2.2h.5l.9.3.4.3a.8.8 0 0 1 .1.5 1 1 0 0 1-.2.5l-.5.4h-.7a1.6 1.6 0 0 1-1-.3 1.3 1.3 0 0 1-.3-.4zM261.6 81.7V77h.6v4.7zM265.4 81.3l-.6.4h-.6a1.2 1.2 0 0 1-.9-.3.9.9 0 0 1-.3-.7.9.9 0 0 1 .1-.5l.3-.3.4-.2h.5l1-.2v-.2a.6.6 0 0 0-.2-.5l-.7-.2h-.6a.9.9 0 0 0-.3.5h-.6a1.4 1.4 0 0 1 .3-.6l.5-.3h1.5l.4.3.2.4a3.4 3.4 0 0 1 0 .5v.8a8.3 8.3 0 0 0 0 1v.4h-.6a1.2 1.2 0 0 1 .2-.3zm0-1.3l-.9.2h-.5l-.2.2a.5.5 0 0 0 .1.7l.5.2h.6l.4-.4a1.4 1.4 0 0 0 .1-.6zM268.1 81.2v.5h-.9l-.2-.3a2.1 2.1 0 0 1-.1-.7v-1.9h-.4v-.5h.4v-.8l.6-.3v1.2h.6v.4h-.6v2a1 1 0 0 0 0 .3h.6zM268.6 77.7V77h.6v.7zm0 4.1v-3.5h.6v3.4zM269.9 80a1.8 1.8 0 0 1 .5-1.4 1.6 1.6 0 0 1 1.1-.4 1.5 1.5 0 0 1 1.2.5 1.8 1.8 0 0 1 .4 1.3 2.3 2.3 0 0 1-.2 1 1.4 1.4 0 0 1-.6.6l-.8.2a1.5 1.5 0 0 1-1.2-.5 1.8 1.8 0 0 1-.4-1.3zm.6 0a1.5 1.5 0 0 0 .3 1 1 1 0 0 0 1.4 0 1.5 1.5 0 0 0 .3-1 1.4 1.4 0 0 0-.3-1 1 1 0 0 0-1.4 0 1.5 1.5 0 0 0-.3 1zM273.8 81.7v-3.4h.5v.5a1.2 1.2 0 0 1 1.1-.6h.6l.4.3.2.4a3.3 3.3 0 0 1 0 .6v2.1h-.6v-1.9a1.5 1.5 0 0 0-.1-.5l-.2-.3h-.4l-.6.2a1.2 1.2 0 0 0-.3.9v1.9zM277.2 80.3v-.6h1.8v.6zM279.7 81.7V77h3.4v.6h-2.8V79h2.6v.6h-2.6v1.6h2.9v.6zM283.7 81.7l1.3-1.8-1.2-1.6h.7l.5.8.2.4.3-.4.6-.8h.7l-1.2 1.6 1.3 1.8h-.7l-.7-1.1-.2-.3-.9 1.4zM287.4 83.1v-4.8h.5v.5l.4-.4h.6l.8.2a1.4 1.4 0 0 1 .5.6 2.3 2.3 0 0 1 .2.9 2.3 2.3 0 0 1-.2.9 1.4 1.4 0 0 1-.5.6l-.8.2h-.5l-.4-.3v1.7zm.5-3a1.5 1.5 0 0 0 .3 1 .8.8 0 0 0 .6.3.8.8 0 0 0 .7-.3 1.6 1.6 0 0 0 .3-1 1.5 1.5 0 0 0-.3-1 .8.8 0 0 0-.6-.3.8.8 0 0 0-.7.3 1.5 1.5 0 0 0-.3 1zM291 81.7V77h.6v4.7zM292.3 80a1.8 1.8 0 0 1 .5-1.4 1.6 1.6 0 0 1 1.1-.4 1.5 1.5 0 0 1 1.2.5 1.8 1.8 0 0 1 .4 1.3 2.3 2.3 0 0 1-.2 1 1.4 1.4 0 0 1-.6.6l-.8.2a1.5 1.5 0 0 1-1.2-.5 1.8 1.8 0 0 1-.4-1.3zm.6 0a1.5 1.5 0 0 0 .3 1 1 1 0 0 0 1.4 0 1.5 1.5 0 0 0 .3-1 1.4 1.4 0 0 0-.3-1 1 1 0 0 0-1.4 0 1.5 1.5 0 0 0-.3 1zM296.2 81.7v-3.4h.5v.5l.4-.5h.4l.6.2-.2.5h-.8l-.2.3a2.3 2.3 0 0 0-.1.7v1.8zM300.7 80.6h.6a1.5 1.5 0 0 1-.5.8 1.8 1.8 0 0 1-2.2-.2 1.8 1.8 0 0 1-.4-1.3 1.9 1.9 0 0 1 .4-1.3 1.5 1.5 0 0 1 1.2-.5 1.5 1.5 0 0 1 1.1.5 1.9 1.9 0 0 1 .4 1.3v.2h-2.6a1.3 1.3 0 0 0 .3.9 1 1 0 0 0 .7.3l.5-.2a1.1 1.1 0 0 0 .5-.5zm-1.9-.9h1.9a1.2 1.2 0 0 0-.2-.6.9.9 0 0 0-.7-.3.9.9 0 0 0-.7.3 1.1 1.1 0 0 0-.3.6zM302 81.7v-3.4h.5v.5l.4-.5h.4l.6.2-.2.5h-.8l-.2.3a2.3 2.3 0 0 0-.1.7v1.8z" fill="#fffdfd"/><path d="M211.5 80.3l-1.3-4.7h.6l.7 3.1.2 1 .2-.9.9-3.2h.8l.7 2.4a12.6 12.6 0 0 1 .4 1.7l.2-1 .7-3h.6l-1.3 4.7h-.6l-1-3.6-1 3.6zM219 79.2h.6a1.5 1.5 0 0 1-.5.8 1.8 1.8 0 0 1-2.2-.2 1.8 1.8 0 0 1-.4-1.3 1.9 1.9 0 0 1 .4-1.3 1.5 1.5 0 0 1 1.2-.5 1.5 1.5 0 0 1 1.1.5 1.9 1.9 0 0 1 .4 1.3v.3H217a1.3 1.3 0 0 0 .3.9 1 1 0 0 0 .7.3l.5-.2a1.1 1.1 0 0 0 .5-.6zm-1.9-.9h1.9a1.2 1.2 0 0 0-.2-.6.9.9 0 0 0-.7-.3.9.9 0 0 0-.7.3 1.1 1.1 0 0 0-.3.6zM220.9 80.3h-.5v-4.7h.6v1.7a1.2 1.2 0 0 1 .9-.5h.6l.5.4.3.6a2.3 2.3 0 0 1 .1.7 2 2 0 0 1-.4 1.4 1.4 1.4 0 0 1-1 .5 1.1 1.1 0 0 1-1-.5zm0-1.7a1.8 1.8 0 0 0 .2.9.8.8 0 0 0 1.4.1 1.5 1.5 0 0 0 .3-1 1.5 1.5 0 0 0-.3-1 .8.8 0 0 0-.6-.3.8.8 0 0 0-.7.3 1.5 1.5 0 0 0-.3 1zM210.1 88.3l1.8-4.7h.7l1.9 4.7h-.7l-.6-1.4h-2l-.5 1.4zm1.4-1.9h1.6l-.5-1.3-.3-1-.3.9zM215.1 88.3v-4.8h2.5l.6.2.4.5a1.5 1.5 0 0 1-.2 1.7 1.8 1.8 0 0 1-1.4.4h-1.2v1.9zm.6-2.5h1.2a1.3 1.3 0 0 0 .9-.2.8.8 0 0 0 .3-.6.9.9 0 0 0-.2-.5l-.4-.3h-1.8zM219.6 88.3v-4.8h.6v4.7z"/><path fill="#326c97" d="M205.8 99.6l-80 .5V54.6h4.3v34h75.7v11"/><path d="M145.7 93.8a2.6 2.6 0 0 1 .6-1.8 2.1 2.1 0 0 1 1.6-.7 2.3 2.3 0 0 1 1.2.3 2 2 0 0 1 .8.9 2.8 2.8 0 0 1 .3 1.3 2.8 2.8 0 0 1-.3 1.3 2 2 0 0 1-.8.9 2.4 2.4 0 0 1-1.1.3 2.2 2.2 0 0 1-1.2-.3 2.1 2.1 0 0 1-.8-.9 2.7 2.7 0 0 1-.3-1.3zm.6 0a1.9 1.9 0 0 0 .5 1.3 1.6 1.6 0 0 0 2.3 0 2 2 0 0 0 .5-1.4 2.4 2.4 0 0 0-.2-1 1.5 1.5 0 0 0-.6-.7l-.8-.2a1.6 1.6 0 0 0-1.1.5 2 2 0 0 0-.6 1.5zM150.9 97.4v-4.8h.5v.4l.4-.4h.6l.8.2a1.4 1.4 0 0 1 .5.6 2.3 2.3 0 0 1 .2.9 2.3 2.3 0 0 1-.2.9 1.4 1.4 0 0 1-.5.6l-.8.2h-.5l-.4-.3v1.7zm.5-3a1.5 1.5 0 0 0 .3 1 .8.8 0 0 0 .6.3.8.8 0 0 0 .7-.3 1.5 1.5 0 0 0 .3-1 1.5 1.5 0 0 0-.3-1 .8.8 0 0 0-.6-.3.8.8 0 0 0-.7.3 1.6 1.6 0 0 0-.2 1zM156.9 95h.6a1.5 1.5 0 0 1-.5.8 1.8 1.8 0 0 1-2.2-.2 1.8 1.8 0 0 1-.4-1.3 1.9 1.9 0 0 1 .4-1.3 1.5 1.5 0 0 1 1.2-.5 1.5 1.5 0 0 1 1.1.5 1.9 1.9 0 0 1 .4 1.3v.2h-2.6a1.3 1.3 0 0 0 .3.9 1 1 0 0 0 .7.3l.5-.2a1.1 1.1 0 0 0 .5-.5zm-1.9-.9h1.9a1.2 1.2 0 0 0-.2-.6.9.9 0 0 0-.7-.3.9.9 0 0 0-.7.3 1.1 1.1 0 0 0-.3.5zM158.3 96.1v-3.5h.5v.5a1.2 1.2 0 0 1 1.1-.6h.6l.4.3.2.4a3.3 3.3 0 0 1 0 .6v2.1h-.6V94a1.6 1.6 0 0 0-.1-.5l-.2-.3h-.4l-.6.2a1.2 1.2 0 0 0-.3.9v1.9zM162 96.1v-4.8h3.2v.6h-2.6v1.5h2.2v.6h-2.2v2.1zM166 92v-.7h.6v.7zm0 4.1v-3.5h.6V96zM167.2 95h.6a.8.8 0 0 0 .3.5l.6.2.6-.2a.5.5 0 0 0 .2-.4.4.4 0 0 0-.2-.3l-.6-.2-.9-.3-.4-.3a.9.9 0 0 1-.1-.5.9.9 0 0 1 .1-.4l.3-.3.4-.2h1.2l.5.3a1.3 1.3 0 0 1 .2.5h-.6a.6.6 0 0 0-.2-.4h-1.1a.4.4 0 0 0-.2.3v.2l.2.2h.5l.9.3.4.3a.8.8 0 0 1 .1.5 1 1 0 0 1-.2.5l-.5.4h-.7a1.6 1.6 0 0 1-1-.3 1.3 1.3 0 0 1-.4-.4zM173 94.8h.6a1.5 1.5 0 0 1-.5.9 1.4 1.4 0 0 1-.9.3 1.5 1.5 0 0 1-1.1-.5 1.9 1.9 0 0 1-.4-1.3 2.4 2.4 0 0 1 .2-1 1.3 1.3 0 0 1 .6-.6l.8-.2a1.4 1.4 0 0 1 .9.3 1.3 1.3 0 0 1 .5.8h-.6a.9.9 0 0 0-.3-.5l-.5-.2a.9.9 0 0 0-.7.3 1.5 1.5 0 0 0-.3 1 1.5 1.5 0 0 0 .3 1 .9.9 0 0 0 .7.3l.6-.2a1 1 0 0 0 .1-.4zM176.3 95.6l-.6.4h-.6a1.2 1.2 0 0 1-.9-.3.9.9 0 0 1-.3-.7.9.9 0 0 1 .1-.5l.3-.3.4-.2h.5l1-.2v-.2a.6.6 0 0 0-.2-.5l-.7-.2h-.6a.9.9 0 0 0-.3.5h-.6a1.4 1.4 0 0 1 .3-.6l.5-.3h1.6l.4.3.2.4a3.4 3.4 0 0 1 0 .5v.8a8.3 8.3 0 0 0 0 1v.4h-.6a1.2 1.2 0 0 1 .1-.3zm0-1.3l-.9.2h-.5l-.2.2a.5.5 0 0 0 .1.7l.5.2h.6l.4-.4a1.4 1.4 0 0 0 .1-.6zM183 94.4l.6.2a2.1 2.1 0 0 1-.7 1.2 2 2 0 0 1-1.2.4 2.2 2.2 0 0 1-1.2-.3 1.9 1.9 0 0 1-.7-.9 3.2 3.2 0 0 1-.2-1.3 2.8 2.8 0 0 1 .3-1.3 1.9 1.9 0 0 1 .8-.8 2.4 2.4 0 0 1 1.1-.3 1.9 1.9 0 0 1 1.2.4 1.9 1.9 0 0 1 .7 1h-.6a1.5 1.5 0 0 0-.5-.8l-.8-.2a1.5 1.5 0 0 0-.9.3 1.4 1.4 0 0 0-.5.7 2.8 2.8 0 0 0-.1.9 2.9 2.9 0 0 0 .2 1.1 1.3 1.3 0 0 0 .5.7l.8.2a1.3 1.3 0 0 0 .9-.3 1.5 1.5 0 0 0 .3-.9zM184.1 94.4a1.8 1.8 0 0 1 .5-1.4 1.6 1.6 0 0 1 1.1-.4 1.5 1.5 0 0 1 1.2.5 1.8 1.8 0 0 1 .4 1.3 2.3 2.3 0 0 1-.2 1 1.4 1.4 0 0 1-.6.6l-.8.2a1.5 1.5 0 0 1-1.2-.5 1.8 1.8 0 0 1-.4-1.3zm.6 0a1.5 1.5 0 0 0 .3 1 1 1 0 0 0 1.4 0 1.5 1.5 0 0 0 .3-1 1.4 1.4 0 0 0-.3-1 1 1 0 0 0-1.4 0 1.5 1.5 0 0 0-.3 1zM188 96.1v-3.5h.5v.5l.4-.5h.4l.6.2-.2.5h-.8l-.2.3a2.3 2.3 0 0 0-.1.7v1.8zM192.5 95h.6a1.5 1.5 0 0 1-.5.8 1.8 1.8 0 0 1-2.2-.2 1.8 1.8 0 0 1-.4-1.3 1.9 1.9 0 0 1 .4-1.3 1.5 1.5 0 0 1 1.2-.5 1.5 1.5 0 0 1 1.1.5 1.9 1.9 0 0 1 .4 1.3v.2h-2.6a1.3 1.3 0 0 0 .3.9 1 1 0 0 0 .7.3l.5-.2a1.1 1.1 0 0 0 .5-.5zm-1.9-.9h1.9a1.2 1.2 0 0 0-.2-.6.9.9 0 0 0-.7-.3.9.9 0 0 0-.7.3 1.1 1.1 0 0 0-.3.5z" fill="#fff"/><path fill="#971640" d="M28.5 21.7H9.2v-9.1H7.5V9.3h22.7v3.3h-1.7v9.1"/><path d="M30.6 37.2a3.3 3.3 0 0 0-5.3 0H5v3.2h25.6z" fill="#d66990"/><path d="M32.8 62.7h-28V50.3H6v9.3h20.7v-9.3h6.1v3.5a1.2 1.2 0 1 0 0 2.3v1.2a1.2 1.2 0 1 1 0 2.3z" fill="#67acce"/><path fill="#326c97" d="M26.6 62.7l-21.9.1V50.3h1.2v9.3h20.7v3.1"/><path d="M28.4 92.5H4.6v-3.2a1.4 1.4 0 1 0 0-2.8v-1.4a1.45 1.45 0 1 1 0-2.9v-1.7h23.7z" fill="#595a5b"/><path d="M44.9 17.2l.6.2a2.1 2.1 0 0 1-.7 1.2 2 2 0 0 1-1.2.4 2.2 2.2 0 0 1-1.2-.3 1.9 1.9 0 0 1-.7-.9 3.2 3.2 0 0 1-.2-1.3 2.8 2.8 0 0 1 .3-1.3 1.9 1.9 0 0 1 .8-.8 2.4 2.4 0 0 1 1.1-.3 1.9 1.9 0 0 1 1.2.4 1.9 1.9 0 0 1 .7 1H45a1.5 1.5 0 0 0-.5-.8l-.8-.2a1.5 1.5 0 0 0-.9.3 1.4 1.4 0 0 0-.5.7 2.8 2.8 0 0 0-.1.9 2.9 2.9 0 0 0 .2 1.1 1.3 1.3 0 0 0 .5.7l.8.2a1.3 1.3 0 0 0 .9-.3 1.6 1.6 0 0 0 .3-.9zM46.1 17.2a1.8 1.8 0 0 1 .5-1.4 1.6 1.6 0 0 1 1.1-.4 1.5 1.5 0 0 1 1.2.5 1.8 1.8 0 0 1 .4 1.3 2.3 2.3 0 0 1-.2 1 1.4 1.4 0 0 1-.6.6l-.8.2a1.5 1.5 0 0 1-1.2-.5 1.8 1.8 0 0 1-.4-1.3zm.6 0a1.5 1.5 0 0 0 .3 1 1 1 0 0 0 1.4 0 1.5 1.5 0 0 0 .3-1 1.4 1.4 0 0 0-.3-1 1 1 0 0 0-1.4 0 1.5 1.5 0 0 0-.4 1zM52.2 18.9v-.5a1.3 1.3 0 0 1-1.1.6h-.6l-.4-.3-.2-.4a2.9 2.9 0 0 1 0-.5v-2.4h.6v1.9a3.4 3.4 0 0 0 0 .6l.2.4h.9l.3-.4a1.8 1.8 0 0 0 .1-.7v-1.8h.6v3.4zM53.6 18.9v-3.5h.5v.5a1.2 1.2 0 0 1 1.1-.6h.6l.4.3.2.4a3.3 3.3 0 0 1 0 .6v2.1h-.6v-1.9a1.6 1.6 0 0 0-.1-.5l-.2-.3h-.4l-.6.2a1.2 1.2 0 0 0-.3.9V19zM58.6 18.3v.5h-.9l-.2-.3a2.1 2.1 0 0 1-.1-.7v-2H57v-.5h.4v-.8l.6-.3v1.2h.6v.5H58v2a1 1 0 0 0 0 .3h.6zM59.1 18.9v-3.5h.5v.5l.4-.5h.4l.6.2-.2.5H60l-.2.3a2.3 2.3 0 0 0-.1.7v1.8zM61.3 20.2v-.5h.6l.2-.2.2-.4h.1l-1.3-3.4h.6l.7 2 .2.8.2-.8.7-2h.6l-1.3 3.5-.3.8-.4.4h-.9zM66.5 18.9v-4.8H69l.6.2.4.5a1.5 1.5 0 0 1-.2 1.7 1.8 1.8 0 0 1-1.4.4h-1.2v1.9zm.6-2.5h1.2a1.3 1.3 0 0 0 .9-.2.8.8 0 0 0 .3-.6.9.9 0 0 0-.1-.5l-.4-.3h-1.8zM73.1 18.4l-.6.4h-.6a1.2 1.2 0 0 1-.9-.3.9.9 0 0 1-.3-.7.9.9 0 0 1 .1-.5l.3-.3.4-.2h.5l1-.2v-.2a.6.6 0 0 0-.2-.5l-.6-.1h-.6a.9.9 0 0 0-.3.5h-.6a1.4 1.4 0 0 1 .3-.6l.5-.3H73l.4.3.2.4a3.3 3.3 0 0 1 0 .5v.8a8.3 8.3 0 0 0 0 1v.4h-.4zm0-1.3l-.9.2h-.5l-.2.2a.5.5 0 0 0 .1.7l.5.2h.6l.4-.4a1.4 1.4 0 0 0 .1-.6zM76.8 17.6h.6a1.5 1.5 0 0 1-.5.9 1.4 1.4 0 0 1-.9.3 1.5 1.5 0 0 1-1.1-.5 1.9 1.9 0 0 1-.4-1.3 2.4 2.4 0 0 1 .2-1 1.3 1.3 0 0 1 .6-.6l.8-.2a1.4 1.4 0 0 1 .9.3 1.3 1.3 0 0 1 .5.8h-.6a.9.9 0 0 0-.3-.5l-.5-.2a.9.9 0 0 0-.7.3 1.5 1.5 0 0 0-.3 1 1.5 1.5 0 0 0 .3 1 .9.9 0 0 0 .7.3l.6-.2a1 1 0 0 0 .1-.4zM77.8 18.9v-4.8h.6v2.7l1.4-1.4h.8l-1.4 1.3 1.4 2.2h-.7l-1.1-1.8-.4.4v1.4zM83.4 18.4l-.6.4h-.6a1.2 1.2 0 0 1-.9-.3.9.9 0 0 1-.3-.7.9.9 0 0 1 .1-.5l.3-.3.4-.2h.5l1-.2v-.2a.6.6 0 0 0-.2-.5l-.7-.2h-.6a.9.9 0 0 0-.3.5h-.6a1.4 1.4 0 0 1 .3-.6l.5-.3h1.5l.4.3.2.4a3.3 3.3 0 0 1 0 .5v.8a8.3 8.3 0 0 0 0 1v.4h-.6zm0-1.3l-.9.2H82l-.2.2a.5.5 0 0 0 .1.7l.5.2h.6l.4-.4a1.4 1.4 0 0 0 .1-.6zM84.7 19.1h.6a.5.5 0 0 0 .2.4l.6.2.6-.2a.8.8 0 0 0 .3-.5 3.7 3.7 0 0 0 0-.7 1.2 1.2 0 0 1-.9.4 1.3 1.3 0 0 1-1.1-.5 2 2 0 0 1-.4-1.2 2.3 2.3 0 0 1 .2-.9 1.4 1.4 0 0 1 .5-.6l.8-.2a1.2 1.2 0 0 1 1 .5v-.4h.5v3a2.8 2.8 0 0 1-.2 1.1 1.2 1.2 0 0 1-.5.5l-.9.2a1.6 1.6 0 0 1-1-.3.9.9 0 0 1-.3-.8zm.5-2.1a1.5 1.5 0 0 0 .3 1 .9.9 0 0 0 1.3 0 1.4 1.4 0 0 0 .3-1 1.4 1.4 0 0 0-.3-.9.9.9 0 0 0-.7-.3.8.8 0 0 0-.7.3 1.4 1.4 0 0 0-.2 1zM90.8 17.8h.6a1.5 1.5 0 0 1-.5.8 1.8 1.8 0 0 1-2.2-.2 1.8 1.8 0 0 1-.4-1.3 1.9 1.9 0 0 1 .4-1.3 1.5 1.5 0 0 1 1.2-.5 1.5 1.5 0 0 1 1.1.5 1.9 1.9 0 0 1 .4 1.3v.2h-2.6a1.3 1.3 0 0 0 .3.9 1 1 0 0 0 .7.3l.5-.2a1.1 1.1 0 0 0 .5-.5zm-1.9-.9h1.9a1.2 1.2 0 0 0-.2-.6.9.9 0 0 0-.7-.3.9.9 0 0 0-.7.3 1.1 1.1 0 0 0-.3.5zM41.6 41.2v-4.7H45v.6h-2.8v1.4h2.6v.6h-2.6v1.6h2.9v.6zM45.5 41.2l1.3-1.8-1.2-1.6h.7l.5.8.2.4.3-.4.6-.8h.7l-1.2 1.6 1.3 1.8H48l-.7-1.1-.2-.3-.9 1.4zM50.5 40.7v.5h-.9l-.2-.3a2.1 2.1 0 0 1-.1-.7v-2h-.4v-.4h.4V37l.6-.3v1.1h.6v.5h-.6v2a1 1 0 0 0 0 .3h.6zM53.4 40.1h.6a1.5 1.5 0 0 1-.5.8 1.8 1.8 0 0 1-2.2-.2 1.8 1.8 0 0 1-.4-1.3 1.9 1.9 0 0 1 .4-1.3 1.5 1.5 0 0 1 1.2-.5 1.5 1.5 0 0 1 1.1.5 1.9 1.9 0 0 1 .4 1.3v.2h-2.6a1.3 1.3 0 0 0 .3.9 1 1 0 0 0 .7.3l.5-.2a1.1 1.1 0 0 0 .5-.5zm-1.9-.9h1.9a1.2 1.2 0 0 0-.2-.6.9.9 0 0 0-.7-.3.9.9 0 0 0-.7.3 1.1 1.1 0 0 0-.3.6zM54.7 41.2v-3.4h.5v.5a1.2 1.2 0 0 1 1.1-.6h.6l.4.3.2.4a3.3 3.3 0 0 1 0 .6v2.1h-.6v-2a1.6 1.6 0 0 0-.1-.5l-.2-.3h-.4l-.6.2a1.2 1.2 0 0 0-.3.9v1.9zM58.2 40.2h.6a.8.8 0 0 0 .3.5l.6.2.6-.2a.5.5 0 0 0 .2-.4.4.4 0 0 0-.2-.3l-.6-.2-.9-.3-.4-.3a.9.9 0 0 1-.1-.5.9.9 0 0 1 .1-.4l.3-.3.4-.2h1.1l.4.3a1.2 1.2 0 0 1 .2.5h-.6a.6.6 0 0 0-.2-.4h-1a.4.4 0 0 0-.2.3v.3l.2.2h.5l.9.3.4.3a.8.8 0 0 1 .1.5 1 1 0 0 1-.2.5l-.5.4h-.7a1.6 1.6 0 0 1-1-.3 1.3 1.3 0 0 1-.3-.5zM61.7 37.2v-.7h.6v.7zm0 4.1v-3.5h.6v3.4zM62.9 39.5a1.8 1.8 0 0 1 .5-1.4 1.6 1.6 0 0 1 1.1-.4 1.5 1.5 0 0 1 1.2.5 1.8 1.8 0 0 1 .4 1.3 2.3 2.3 0 0 1-.2 1 1.4 1.4 0 0 1-.6.6l-.8.2a1.5 1.5 0 0 1-1.2-.5 1.8 1.8 0 0 1-.4-1.3zm.6 0a1.5 1.5 0 0 0 .3 1 1 1 0 0 0 1.4 0 1.5 1.5 0 0 0 .3-1 1.4 1.4 0 0 0-.3-1 1 1 0 0 0-1.4 0 1.5 1.5 0 0 0-.3 1zM66.8 41.2v-3.4h.5v.5a1.2 1.2 0 0 1 1.1-.6h.6l.4.3.2.4a3.3 3.3 0 0 1 0 .6v2.1H69v-2a1.6 1.6 0 0 0-.1-.5l-.2-.3h-.4l-.6.2a1.2 1.2 0 0 0-.3.9v1.9zM72.4 41.2v-4.7h2.5l.6.2.4.5a1.5 1.5 0 0 1-.2 1.7 1.8 1.8 0 0 1-1.4.4H73v1.9zm.6-2.5h1.2a1.3 1.3 0 0 0 .9-.2.8.8 0 0 0 .3-.6.9.9 0 0 0-.1-.5l-.4-.3H73zM79 40.8l-.6.4h-.6a1.2 1.2 0 0 1-.9-.3.9.9 0 0 1-.3-.7.9.9 0 0 1 .1-.5l.3-.3.4-.2h.5l1-.2v-.2a.6.6 0 0 0-.2-.5l-.7-.2h-.6a.9.9 0 0 0-.3.5h-.6a1.4 1.4 0 0 1 .3-.6l.5-.3h1.5l.4.3.2.4a3.3 3.3 0 0 1 0 .5v.9a8.3 8.3 0 0 0 0 1v.4h-.6zm0-1.3l-.9.2h-.5l-.2.2a.5.5 0 0 0 .1.7l.5.2h.6l.4-.4a1.4 1.4 0 0 0 .1-.6zM82.6 40h.6a1.5 1.5 0 0 1-.5.9 1.4 1.4 0 0 1-.9.3 1.5 1.5 0 0 1-1.1-.5 1.9 1.9 0 0 1-.4-1.3 2.4 2.4 0 0 1 .2-1 1.3 1.3 0 0 1 .6-.6l.8-.2a1.4 1.4 0 0 1 .9.3 1.3 1.3 0 0 1 .5.8h-.6a.9.9 0 0 0-.3-.5l-.5-.2a.9.9 0 0 0-.7.3 1.5 1.5 0 0 0-.3 1 1.5 1.5 0 0 0 .3 1 .9.9 0 0 0 .7.3l.6-.2a1 1 0 0 0 .1-.4zM83.7 41.2v-4.7h.6v2.7l1.4-1.4h.8l-1.3 1.3 1.4 2.2h-.7l-1.1-1.8-.4.4v1.4zM89.2 40.8l-.6.4H88a1.2 1.2 0 0 1-.9-.3.9.9 0 0 1-.3-.7.9.9 0 0 1 .1-.5l.3-.3.4-.2h.5l1-.2v-.2a.6.6 0 0 0-.2-.5l-.7-.2h-.6a.9.9 0 0 0-.3.5h-.6a1.4 1.4 0 0 1 .3-.6l.5-.3h1.7l.4.3.2.4a3.3 3.3 0 0 1 0 .5v.9a8.3 8.3 0 0 0 0 1v.4h-.6zm0-1.3l-.9.2h-.5l-.2.2a.5.5 0 0 0 .1.7l.5.2h.6l.4-.4a1.4 1.4 0 0 0 .1-.6zM90.6 41.5h.6a.5.5 0 0 0 .2.4l.6.2.6-.2a.8.8 0 0 0 .3-.5 3.7 3.7 0 0 0 0-.7 1.2 1.2 0 0 1-.9.4 1.3 1.3 0 0 1-1.1-.5 2 2 0 0 1-.4-1.2 2.3 2.3 0 0 1 .2-.9 1.4 1.4 0 0 1 .5-.6l.8-.2a1.2 1.2 0 0 1 1 .5v-.4h.5v3a2.8 2.8 0 0 1-.2 1.1 1.2 1.2 0 0 1-.5.5l-.9.2a1.6 1.6 0 0 1-1-.3.9.9 0 0 1-.3-.8zm.5-2.1a1.5 1.5 0 0 0 .3 1 .9.9 0 0 0 1.3 0 1.4 1.4 0 0 0 .3-1 1.4 1.4 0 0 0-.3-.9.9.9 0 0 0-.7-.3.8.8 0 0 0-.7.3 1.4 1.4 0 0 0-.2.9zM96.7 40.1h.6a1.5 1.5 0 0 1-.5.8 1.8 1.8 0 0 1-2.2-.2 1.8 1.8 0 0 1-.4-1.3 1.9 1.9 0 0 1 .4-1.3 1.5 1.5 0 0 1 1.2-.5 1.5 1.5 0 0 1 1.1.5 1.9 1.9 0 0 1 .4 1.3v.2h-2.6a1.3 1.3 0 0 0 .3.9 1 1 0 0 0 .7.3l.5-.2a1.1 1.1 0 0 0 .5-.5zm-1.9-.9h1.9a1.2 1.2 0 0 0-.2-.6.9.9 0 0 0-.7-.3.9.9 0 0 0-.7.3 1.1 1.1 0 0 0-.3.6zM41.4 57.5a2.6 2.6 0 0 1 .6-1.8 2.1 2.1 0 0 1 1.6-.7 2.3 2.3 0 0 1 1.2.3 2 2 0 0 1 .8.9 2.8 2.8 0 0 1 .3 1.3 2.8 2.8 0 0 1-.3 1.3 2 2 0 0 1-.8.9 2.4 2.4 0 0 1-1.1.3 2.2 2.2 0 0 1-1.2-.3 2.1 2.1 0 0 1-.8-.9 2.7 2.7 0 0 1-.3-1.3zm.6 0a1.9 1.9 0 0 0 .5 1.3 1.6 1.6 0 0 0 2.3 0 2 2 0 0 0 .5-1.4 2.4 2.4 0 0 0-.2-1 1.5 1.5 0 0 0-.6-.7l-.8-.2a1.6 1.6 0 0 0-1.1.5 2 2 0 0 0-.6 1.5zM46.6 61.1v-4.7h.6v.4l.4-.4h.6l.8.2a1.4 1.4 0 0 1 .5.6 2.3 2.3 0 0 1 .2.9 2.3 2.3 0 0 1-.2.9 1.4 1.4 0 0 1-.5.6l-.8.2h-.5l-.4-.3v1.7zm.5-3a1.5 1.5 0 0 0 .3 1 .8.8 0 0 0 .6.3.8.8 0 0 0 .7-.3 1.5 1.5 0 0 0 .3-1 1.5 1.5 0 0 0-.3-1 .8.8 0 0 0-.6-.3.8.8 0 0 0-.7.3 1.6 1.6 0 0 0-.2 1zM52.7 58.7h.6a1.5 1.5 0 0 1-.5.8 1.8 1.8 0 0 1-2.2-.2 1.8 1.8 0 0 1-.4-1.3 1.9 1.9 0 0 1 .4-1.3 1.5 1.5 0 0 1 1.2-.5 1.5 1.5 0 0 1 1.1.5 1.9 1.9 0 0 1 .4 1.3v.2h-2.6a1.3 1.3 0 0 0 .3.9 1 1 0 0 0 .7.3l.5-.2a1.1 1.1 0 0 0 .5-.5zm-2-.9h1.9a1.2 1.2 0 0 0-.2-.6.9.9 0 0 0-.7-.3.9.9 0 0 0-.7.3 1.1 1.1 0 0 0-.3.6zM54 59.8v-3.4h.5v.5a1.2 1.2 0 0 1 1.1-.6h.6l.4.3.2.4a3.3 3.3 0 0 1 0 .6v2.2h-.6v-2.1a1.6 1.6 0 0 0-.1-.5l-.2-.3h-.4l-.6.2a1.2 1.2 0 0 0-.3.9v1.8zM57.8 59.8v-4.7H61v.6h-2.6v1.5h2.2v.6h-2.2v2zM61.7 55.7V55h.6v.7zm0 4.1v-3.4h.6v3.4zM62.9 58.8h.6a.8.8 0 0 0 .3.5l.6.2.6-.2a.5.5 0 0 0 .2-.4.4.4 0 0 0-.2-.3l-.6-.2-.9-.3-.4-.3a.9.9 0 0 1-.1-.5.9.9 0 0 1 .1-.4l.3-.3.4-.2H65l.4.3a1.2 1.2 0 0 1 .2.5H65a.6.6 0 0 0-.2-.4h-1a.4.4 0 0 0-.2.3v.2l.2.2h.5l.9.3.4.3a.8.8 0 0 1 .1.5 1 1 0 0 1-.2.5l-.5.4h-.7a1.6 1.6 0 0 1-1-.3 1.3 1.3 0 0 1-.4-.4zM68.7 58.6h.6a1.5 1.5 0 0 1-.5.9 1.4 1.4 0 0 1-.9.3 1.5 1.5 0 0 1-1.1-.5 1.9 1.9 0 0 1-.4-1.3 2.4 2.4 0 0 1 .2-1 1.3 1.3 0 0 1 .6-.6l.8-.2a1.4 1.4 0 0 1 .9.3 1.3 1.3 0 0 1 .5.8h-.6a.9.9 0 0 0-.3-.5l-.5-.2a.9.9 0 0 0-.7.3 1.5 1.5 0 0 0-.3 1 1.5 1.5 0 0 0 .3 1 .9.9 0 0 0 .7.3l.6-.2a1 1 0 0 0 .1-.4zM72 59.4l-.6.4h-.6a1.2 1.2 0 0 1-.9-.3.9.9 0 0 1-.3-.7.9.9 0 0 1 .1-.5l.3-.3.4-.2h.5l1-.2v-.2a.6.6 0 0 0-.2-.5l-.7-.2h-.6a.9.9 0 0 0-.3.5h-.6a1.4 1.4 0 0 1 .3-.6l.5-.3h1.5l.4.3.2.4a3.3 3.3 0 0 1 0 .5v.8a8.3 8.3 0 0 0 0 1v.5h-.6zm0-1.3l-.9.2h-.5l-.2.2a.5.5 0 0 0 .1.7l.5.2h.6l.4-.4a1.4 1.4 0 0 0 .1-.6zM73.2 58.4v-.6H75v.6zM79.1 58.2l.6.2a2.1 2.1 0 0 1-.7 1.2 2 2 0 0 1-1.2.4 2.2 2.2 0 0 1-1.2-.3 1.9 1.9 0 0 1-.7-.9 3.2 3.2 0 0 1-.2-1.3 2.8 2.8 0 0 1 .3-1.3 1.9 1.9 0 0 1 .8-.8 2.4 2.4 0 0 1 1.1-.3 1.9 1.9 0 0 1 1.2.4 1.9 1.9 0 0 1 .7 1h-.6a1.5 1.5 0 0 0-.5-.8l-.8-.2a1.5 1.5 0 0 0-.9.3 1.4 1.4 0 0 0-.5.7 2.8 2.8 0 0 0-.1.9 2.9 2.9 0 0 0 .2 1.1 1.3 1.3 0 0 0 .5.7l.8.2a1.3 1.3 0 0 0 .9-.3 1.6 1.6 0 0 0 .3-.9zM80.2 58.1a1.8 1.8 0 0 1 .5-1.4 1.6 1.6 0 0 1 1.1-.4 1.5 1.5 0 0 1 1.2.5 1.8 1.8 0 0 1 .4 1.3 2.3 2.3 0 0 1-.2 1 1.4 1.4 0 0 1-.6.6l-.8.2a1.5 1.5 0 0 1-1.2-.5 1.8 1.8 0 0 1-.4-1.3zm.6 0a1.5 1.5 0 0 0 .3 1 1 1 0 0 0 1.4 0 1.5 1.5 0 0 0 .3-1 1.4 1.4 0 0 0-.3-1 1 1 0 0 0-1.4 0 1.5 1.5 0 0 0-.3 1zM84.1 59.8v-3.4h.5v.5l.4-.5h.4l.6.2-.2.5H85l-.2.3a2.3 2.3 0 0 0-.1.7v1.7zM88.6 58.7h.6a1.5 1.5 0 0 1-.5.8 1.8 1.8 0 0 1-2.2-.2 1.8 1.8 0 0 1-.4-1.3 1.9 1.9 0 0 1 .4-1.3 1.5 1.5 0 0 1 1.2-.5 1.5 1.5 0 0 1 1.1.5 1.9 1.9 0 0 1 .4 1.3v.2h-2.5a1.3 1.3 0 0 0 .3.9 1 1 0 0 0 .7.3l.5-.2a1.1 1.1 0 0 0 .4-.5zm-1.9-.9h1.9a1.2 1.2 0 0 0-.2-.6.9.9 0 0 0-.7-.3.9.9 0 0 0-.7.3 1.1 1.1 0 0 0-.3.6zM41.1 85.4l1.8-4.7h.7l1.9 4.7h-.7l-.6-1.5h-2l-.5 1.4zm1.4-1.9h1.6l-.5-1.3-.3-1-.3.9zM45.9 86.7V82h.5v.4l.4-.4h.6l.8.2a1.4 1.4 0 0 1 .5.6 2.3 2.3 0 0 1 .2.9 2.3 2.3 0 0 1-.2.9 1.4 1.4 0 0 1-.5.6l-.8.2h-.5l-.4-.3v1.7zm.5-3a1.5 1.5 0 0 0 .3 1 .8.8 0 0 0 .6.3.8.8 0 0 0 .7-.3 1.5 1.5 0 0 0 .3-1 1.5 1.5 0 0 0-.3-1 .8.8 0 0 0-.6-.3.8.8 0 0 0-.7.3 1.6 1.6 0 0 0-.3 1zM49.6 86.7V82h.5v.4l.4-.4h.6l.8.2a1.4 1.4 0 0 1 .5.6 2.3 2.3 0 0 1 .2.9 2.3 2.3 0 0 1-.2.9 1.4 1.4 0 0 1-.5.6l-.8.2h-.5l-.4-.3v1.7zm.5-3a1.5 1.5 0 0 0 .3 1 .8.8 0 0 0 .6.3.8.8 0 0 0 .7-.3 1.5 1.5 0 0 0 .3-1 1.5 1.5 0 0 0-.3-1 .8.8 0 0 0-.6-.3.8.8 0 0 0-.7.3 1.6 1.6 0 0 0-.3 1zM53 84.4h.6a.8.8 0 0 0 .3.5l.6.2.6-.2a.5.5 0 0 0 .2-.4.4.4 0 0 0-.2-.3l-.6-.2-.9-.3-.4-.3a.9.9 0 0 1-.1-.5.9.9 0 0 1 .1-.4l.3-.3.4-.2h1.2l.4.3a1.2 1.2 0 0 1 .2.5h-.5a.6.6 0 0 0-.2-.4h-1.2a.4.4 0 0 0-.2.3v.2l.2.2h.5l.9.3.4.3a.8.8 0 0 1 .1.5 1 1 0 0 1-.2.5l-.5.4h-.7a1.6 1.6 0 0 1-1-.3 1.3 1.3 0 0 1-.3-.4zM60.6 84.1h.6a1.5 1.5 0 0 1-.5.9 1.4 1.4 0 0 1-.9.3 1.5 1.5 0 0 1-1.1-.5 1.9 1.9 0 0 1-.4-1.3 2.4 2.4 0 0 1 .2-1 1.3 1.3 0 0 1 .6-.6l.8-.2a1.4 1.4 0 0 1 .9.3 1.3 1.3 0 0 1 .5.8h-.6a.9.9 0 0 0-.3-.5l-.5-.2a.9.9 0 0 0-.7.3 1.5 1.5 0 0 0-.3 1 1.5 1.5 0 0 0 .3 1 .9.9 0 0 0 .7.3l.6-.2a1 1 0 0 0 .1-.4zM61.5 83.7a1.8 1.8 0 0 1 .5-1.4 1.6 1.6 0 0 1 1.1-.4 1.5 1.5 0 0 1 1.2.5 1.8 1.8 0 0 1 .4 1.3 2.3 2.3 0 0 1-.2 1 1.4 1.4 0 0 1-.6.6l-.8.2a1.5 1.5 0 0 1-1.2-.5 1.8 1.8 0 0 1-.4-1.3zm.6 0a1.5 1.5 0 0 0 .3 1 1 1 0 0 0 1.4 0 1.5 1.5 0 0 0 .3-1 1.4 1.4 0 0 0-.3-1 1 1 0 0 0-1.4 0 1.5 1.5 0 0 0-.3 1zM65.4 85.4V82h.5v.5a1.2 1.2 0 0 1 1.1-.6h.6l.4.3.2.4a3.3 3.3 0 0 1 0 .6v2.1h-.6v-2a1.6 1.6 0 0 0-.1-.5l-.2-.3h-.4l-.6.2a1.2 1.2 0 0 0-.3.9v1.9zM69 85.4V82h.5v.5a1.2 1.2 0 0 1 1.1-.6h.6l.4.3.2.4a3.3 3.3 0 0 1 0 .6v2.1h-.6v-2a1.6 1.6 0 0 0 0-.5l-.2-.3h-.4l-.6.2a1.2 1.2 0 0 0-.3.9v1.9zM75 84.3h.6a1.5 1.5 0 0 1-.5.8 1.8 1.8 0 0 1-2.2-.2 1.8 1.8 0 0 1-.4-1.3 1.9 1.9 0 0 1 .4-1.3 1.5 1.5 0 0 1 1.2-.5 1.5 1.5 0 0 1 1.1.5 1.9 1.9 0 0 1 .4 1.3v.2h-2.5a1.3 1.3 0 0 0 .3.9 1 1 0 0 0 .7.3l.5-.2a1.1 1.1 0 0 0 .4-.5zm-1.9-.9H75a1.2 1.2 0 0 0-.2-.6.9.9 0 0 0-.7-.3.9.9 0 0 0-.7.3 1.1 1.1 0 0 0-.3.5zM78.6 84.1h.6a1.5 1.5 0 0 1-.5.9 1.4 1.4 0 0 1-.9.3 1.5 1.5 0 0 1-1.1-.5 1.9 1.9 0 0 1-.4-1.3 2.4 2.4 0 0 1 .2-1 1.3 1.3 0 0 1 .6-.6l.8-.2a1.4 1.4 0 0 1 .9.3 1.3 1.3 0 0 1 .5.8h-.6a.9.9 0 0 0-.3-.5l-.5-.2a.9.9 0 0 0-.7.3 1.5 1.5 0 0 0-.3 1 1.5 1.5 0 0 0 .3 1 .9.9 0 0 0 .7.3l.6-.2a1 1 0 0 0 .1-.4zM80.9 84.9v.5H80l-.2-.3a2.1 2.1 0 0 1-.1-.7v-2h-.4v-.5h.4v-.8l.6-.3V82h.6v.5h-.6v2a1 1 0 0 0 0 .3h.6zM81.5 81.3v-.7h.6v.7zm0 4.1V82h.6v3.4zM83 85.4V82h.5v.5a1.2 1.2 0 0 1 1.1-.6h.6l.4.3.2.4a3.3 3.3 0 0 1 0 .6v2.1h-.6v-2a1.6 1.6 0 0 0-.1-.5l-.2-.3h-.4l-.6.2a1.2 1.2 0 0 0-.3.9v1.9zM86.5 85.7h.6a.5.5 0 0 0 .2.4l.6.2.6-.2a.8.8 0 0 0 .3-.5 3.7 3.7 0 0 0 0-.7 1.2 1.2 0 0 1-.9.4 1.3 1.3 0 0 1-1.1-.5 2 2 0 0 1-.4-1.2 2.3 2.3 0 0 1 .2-.9 1.4 1.4 0 0 1 .5-.6l.8-.2a1.2 1.2 0 0 1 1 .5V82h.5v3a2.8 2.8 0 0 1-.2 1.1 1.2 1.2 0 0 1-.5.5l-.9.2a1.6 1.6 0 0 1-1-.3.9.9 0 0 1-.3-.8zm.5-2.1a1.5 1.5 0 0 0 .3 1 .9.9 0 0 0 1.3 0 1.4 1.4 0 0 0 .3-1 1.4 1.4 0 0 0-.3-.9.9.9 0 0 0-.7-.3.8.8 0 0 0-.7.3 1.4 1.4 0 0 0-.2.9zM42.8 92.8v.5h-.9l-.2-.3a2.1 2.1 0 0 1-.1-.7v-2h-.4v-.5h.4V89l.6-.3v1.2h.6v.5h-.6v2a1 1 0 0 0 0 .3h.6zM43.3 93.3v-4.7h.6v1.7a1.3 1.3 0 0 1 1-.5l.7.2.4.4a1.9 1.9 0 0 1 .1.8v2.2h-.6v-2.3a.9.9 0 0 0-.2-.6l-.5-.2h-.5l-.3.4a1.7 1.7 0 0 0-.1.6v1.9zM47 93.3v-3.4h.5v.5l.4-.5h.4l.6.2-.2.5h-.8l-.2.3a2.3 2.3 0 0 0-.1.7v1.8zM49 91.6a1.8 1.8 0 0 1 .5-1.4 1.6 1.6 0 0 1 1.1-.4 1.5 1.5 0 0 1 1.2.5 1.8 1.8 0 0 1 .4 1.3 2.3 2.3 0 0 1-.2 1 1.4 1.4 0 0 1-.6.6l-.8.2a1.5 1.5 0 0 1-1.2-.5 1.8 1.8 0 0 1-.4-1.3zm.6 0a1.5 1.5 0 0 0 .3 1 1 1 0 0 0 1.4 0 1.5 1.5 0 0 0 .3-1 1.4 1.4 0 0 0-.3-1 1 1 0 0 0-1.4 0 1.5 1.5 0 0 0-.3 1zM55.1 93.3v-.5a1.3 1.3 0 0 1-1.1.6h-.6l-.4-.3-.2-.4a2.9 2.9 0 0 1 0-.5v-2.3h.6v1.9a3.4 3.4 0 0 0 0 .6l.2.4h.9l.3-.4a1.8 1.8 0 0 0 .1-.7v-1.8h.6v3.4zM56.4 93.6h.6a.5.5 0 0 0 .2.4l.6.2.6-.2a.8.8 0 0 0 .3-.5 3.7 3.7 0 0 0 0-.7 1.2 1.2 0 0 1-.9.4 1.3 1.3 0 0 1-1.1-.5 2 2 0 0 1-.4-1.2 2.3 2.3 0 0 1 .2-.9 1.4 1.4 0 0 1 .5-.6l.8-.2a1.2 1.2 0 0 1 1 .5v-.4h.5v3a2.8 2.8 0 0 1-.2 1.1 1.2 1.2 0 0 1-.5.5l-.9.2a1.6 1.6 0 0 1-1-.3.9.9 0 0 1-.3-.8zm.5-2.1a1.5 1.5 0 0 0 .3 1 .9.9 0 0 0 1.3 0 1.4 1.4 0 0 0 .3-1 1.4 1.4 0 0 0-.3-.9.9.9 0 0 0-.7-.3.8.8 0 0 0-.7.3 1.4 1.4 0 0 0-.2.9zM60.2 93.3v-4.7h.6v1.7a1.3 1.3 0 0 1 1-.5l.7.2.4.4a1.9 1.9 0 0 1 .1.8v2.2h-.6v-2.3a.9.9 0 0 0-.2-.6l-.5-.2h-.5l-.3.4a1.7 1.7 0 0 0-.1.6v1.9zM67 92.8v.5h-.8L66 93a2.1 2.1 0 0 1-.1-.7v-2h-.4v-.5h.4V89l.6-.3v1.2h.6v.5h-.6v2a1 1 0 0 0 0 .3h.6zM67.6 93.3v-4.7h.6v1.7a1.3 1.3 0 0 1 1-.5l.7.2.4.4a1.9 1.9 0 0 1 .1.8v2.2h-.6v-2.3a.9.9 0 0 0-.2-.6l-.5-.2h-.5l-.4.5a1.7 1.7 0 0 0-.1.6v1.9zM73.6 92.2h.6a1.5 1.5 0 0 1-.5.8 1.8 1.8 0 0 1-2.2-.2 1.8 1.8 0 0 1-.4-1.3 1.9 1.9 0 0 1 .4-1.3 1.5 1.5 0 0 1 1.2-.5 1.5 1.5 0 0 1 1.1.5 1.9 1.9 0 0 1 .4 1.3v.2h-2.6a1.3 1.3 0 0 0 .3.9 1 1 0 0 0 .7.3l.5-.2a1.1 1.1 0 0 0 .5-.5zm-1.9-.9h1.9a1.2 1.2 0 0 0-.2-.6.9.9 0 0 0-.7-.3.9.9 0 0 0-.7.3 1.1 1.1 0 0 0-.3.6zM77.4 93.3l-1-3.4h.6l.5 2 .2.7.2-.7.5-2h.6l.5 2 .2.7.2-.7.6-2h.6L80 93.3h-.6l-.5-2.1v-.6l-.7 2.6zM83.9 92.2h.6a1.5 1.5 0 0 1-.5.8 1.8 1.8 0 0 1-2.2-.2 1.8 1.8 0 0 1-.4-1.3 1.9 1.9 0 0 1 .4-1.3 1.5 1.5 0 0 1 1.2-.5 1.5 1.5 0 0 1 1.1.5 1.9 1.9 0 0 1 .4 1.3v.2h-2.6a1.3 1.3 0 0 0 .3.9 1 1 0 0 0 .7.3l.5-.2a1.1 1.1 0 0 0 .5-.5zm-1.9-.9h1.9a1.2 1.2 0 0 0-.2-.6.9.9 0 0 0-.7-.3.9.9 0 0 0-.7.3 1.1 1.1 0 0 0-.3.6zM85.7 93.3h-.5v-4.7h.6v1.7a1.2 1.2 0 0 1 .9-.5h.6l.5.4.3.6a2.3 2.3 0 0 1 .1.7 2 2 0 0 1-.4 1.4 1.4 1.4 0 0 1-1 .5 1.1 1.1 0 0 1-1-.5zm0-1.7a1.8 1.8 0 0 0 .2.9.8.8 0 0 0 1.4.1 1.5 1.5 0 0 0 .3-1 1.5 1.5 0 0 0-.3-1 .8.8 0 0 0-.6-.3.8.8 0 0 0-.7.3 1.5 1.5 0 0 0-.3 1zM91.7 93.3l1.8-4.7h.7l1.9 4.7h-.7l-.6-1.4h-2l-.5 1.4zm1.4-1.9h1.6l-.5-1.3-.3-1-.3.9zM96.6 93.3v-4.7h2.5l.6.2.4.5a1.5 1.5 0 0 1-.2 1.7 1.8 1.8 0 0 1-1.4.4h-1.2v1.9zm.6-2.5h1.2a1.3 1.3 0 0 0 .9-.2.8.8 0 0 0 .3-.6.9.9 0 0 0-.1-.5l-.4-.3h-1.8zM101.2 93.3v-4.7h.6v4.7z"/><path fill="#c5c9c8" stroke="#b6b7b7" stroke-miterlimit="10" stroke-width=".25" d="M36.7 6.3v94.4M103.9 26.2H.2M103.9 47.8H.2M103.9 68.8H.2M103.7 6.3H0M103.9 100.7H.2M.2 6.4v94.4M103.7 6.3v94.5"/><path d="M134.7 12V7.3h.6l2.5 3.7V7.3h.6V12h-.6l-2.5-3.7V12zM141.8 10.9h.6a1.5 1.5 0 0 1-.5.8 1.8 1.8 0 0 1-2.2-.2 1.8 1.8 0 0 1-.4-1.3 1.9 1.9 0 0 1 .4-1.3 1.5 1.5 0 0 1 1.2-.5 1.5 1.5 0 0 1 1.1.5 1.9 1.9 0 0 1 .4 1.3v.2h-2.6a1.3 1.3 0 0 0 .3.9.9.9 0 0 0 .7.3l.5-.2a1.1 1.1 0 0 0 .5-.5zm-1.9-.9h1.9a1.2 1.2 0 0 0-.2-.6.9.9 0 0 0-.7-.3.9.9 0 0 0-.7.3 1.1 1.1 0 0 0-.3.6zM143.7 12l-1-3.4h.6l.5 2 .2.7.2-.7.5-2h.6l.5 2 .2.7.2-.7.6-2h.6l-1.1 3.4h-.6l-.5-2.1v-.6l-.7 2.6zM149.8 12V7.3h3.4v.6h-2.8v1.4h2.6v.6h-2.6v1.6h2.9v.6zM153.7 12l1.3-1.8-1.2-1.6h.7l.5.8.2.4.3-.4.6-.8h.7l-1.2 1.6 1.3 1.8h-.7l-.7-1.1-.2-.3-.9 1.4zM158.7 11.5v.5h-.9l-.2-.3a2.1 2.1 0 0 1-.1-.7V9h-.4v-.5h.4v-.7l.6-.3v1.2h.6v.5h-.6v2a1 1 0 0 0 0 .3h.6zM161.6 10.9h.6a1.5 1.5 0 0 1-.5.8 1.8 1.8 0 0 1-2.2-.2 1.8 1.8 0 0 1-.4-1.3 1.9 1.9 0 0 1 .4-1.3 1.5 1.5 0 0 1 1.2-.5 1.5 1.5 0 0 1 1.1.5 1.9 1.9 0 0 1 .4 1.3v.2h-2.6a1.3 1.3 0 0 0 .3.9.9.9 0 0 0 .7.3l.5-.2a1.1 1.1 0 0 0 .5-.5zm-1.9-.9h1.9a1.2 1.2 0 0 0-.2-.6.9.9 0 0 0-.7-.3.9.9 0 0 0-.7.3 1.1 1.1 0 0 0-.3.6zM162.9 12V8.6h.5v.5a1.2 1.2 0 0 1 1.1-.6h.6l.4.3.2.4a3.3 3.3 0 0 1 0 .6v2.1h-.6V10a1.6 1.6 0 0 0-.1-.5l-.2-.3h-.4l-.6.2a1.2 1.2 0 0 0-.3.9v1.9zM166.4 11h.6a.8.8 0 0 0 .3.5l.6.2.6-.2a.5.5 0 0 0 .2-.4.4.4 0 0 0-.2-.3l-.6-.2-.9-.3-.4-.3a.9.9 0 0 1-.1-.5.9.9 0 0 1 .1-.4l.3-.3.4-.2h1.2l.4.3a1.2 1.2 0 0 1 .2.5h-.6a.6.6 0 0 0-.2-.4h-1.1a.4.4 0 0 0-.2.3v.2l.2.2h.5l.9.3.4.3a.8.8 0 0 1 .1.5 1 1 0 0 1-.2.5l-.5.4h-.7a1.6 1.6 0 0 1-1-.3 1.3 1.3 0 0 1-.3-.4zM169.9 8v-.7h.6V8zm0 4.1V8.6h.6V12zM171.1 10.3a1.8 1.8 0 0 1 .5-1.4 1.6 1.6 0 0 1 1.1-.4 1.5 1.5 0 0 1 1.2.5 1.8 1.8 0 0 1 .4 1.3 2.3 2.3 0 0 1-.2 1 1.4 1.4 0 0 1-.6.6l-.8.2a1.5 1.5 0 0 1-1.2-.5 1.8 1.8 0 0 1-.4-1.3zm.6 0a1.5 1.5 0 0 0 .3 1 1 1 0 0 0 1.4 0 1.5 1.5 0 0 0 .3-1 1.4 1.4 0 0 0-.3-1 1 1 0 0 0-1.4 0 1.5 1.5 0 0 0-.3 1zM175 12V8.6h.5v.5a1.2 1.2 0 0 1 1.1-.6h.6l.4.3.2.4a3.3 3.3 0 0 1 0 .6v2.1h-.6V10a1.5 1.5 0 0 0-.1-.5l-.2-.3h-.4l-.6.2a1.2 1.2 0 0 0-.3.9v1.9z"/><path d="M308 51h-71.6v-9.7a4.25 4.25 0 1 0 0-8.5v-4a4.3 4.3 0 1 1-.1-8.6v-5.4l71.4.3z" fill="#595a5b"/><path d="M258.7 35.8v-4.7h.6l2.5 3.7v-3.7h.6v4.7h-.6l-2.5-3.7v3.7zM265.7 34.7h.6a1.5 1.5 0 0 1-.5.8 1.8 1.8 0 0 1-2.2-.2 1.8 1.8 0 0 1-.4-1.3 1.9 1.9 0 0 1 .4-1.3 1.5 1.5 0 0 1 1.2-.5 1.5 1.5 0 0 1 1.1.5 1.9 1.9 0 0 1 .4 1.3v.2h-2.6a1.3 1.3 0 0 0 .3.9.9.9 0 0 0 .7.3l.5-.2a1.1 1.1 0 0 0 .5-.5zm-1.9-.9h1.9a1.2 1.2 0 0 0-.2-.6.9.9 0 0 0-.7-.3.9.9 0 0 0-.7.3 1.1 1.1 0 0 0-.3.6zM267.7 35.8l-1-3.4h.6l.5 2 .2.7.2-.7.5-2h.6l.5 2 .2.7.2-.7.6-2h.6l-1.1 3.4h-.6l-.5-2.1v-.6l-.7 2.6zM272.9 35.8l1.8-4.7h.7l1.9 4.7h-.7l-.6-1.4h-2l-.5 1.4zm1.4-1.9h1.6l-.5-1.3-.3-1-.3.9zM277.7 37.1v-4.7h.5v.4l.4-.4h.6l.8.2a1.4 1.4 0 0 1 .5.6 2.3 2.3 0 0 1 .2.9 2.3 2.3 0 0 1-.2.9 1.4 1.4 0 0 1-.5.6l-.8.2h-.5l-.4-.3v1.7zm.5-3a1.5 1.5 0 0 0 .3 1 .8.8 0 0 0 .6.3.8.8 0 0 0 .7-.3 1.6 1.6 0 0 0 .3-1 1.5 1.5 0 0 0-.3-1 .8.8 0 0 0-.6-.3.8.8 0 0 0-.7.3 1.5 1.5 0 0 0-.3 1zM281.4 37.1v-4.7h.5v.4l.4-.4h.6l.8.2a1.4 1.4 0 0 1 .5.6 2.3 2.3 0 0 1 .2.9 2.3 2.3 0 0 1-.2.9 1.4 1.4 0 0 1-.5.6l-.8.2h-.5l-.4-.3v1.7zm.5-3a1.5 1.5 0 0 0 .3 1 .8.8 0 0 0 .6.3.8.8 0 0 0 .7-.3 1.6 1.6 0 0 0 .3-1 1.5 1.5 0 0 0-.3-1 .8.8 0 0 0-.6-.3.8.8 0 0 0-.7.3 1.5 1.5 0 0 0-.3 1z" fill="#fffdfd"/><path d="M432.3 99.4l-102.3.3V54.3h4.2v34h75.7v-34l22.3-.3v13a4.3 4.3 0 1 0 0 8.4v4.4a4.3 4.3 0 1 1 0 8.4z" fill="#67acce"/><path d="M415.6 80.1l-1.3-4.7h.6l.7 3.1.2 1 .2-.9.9-3.2h.8l.7 2.4a12.6 12.6 0 0 1 .4 1.7l.2-1 .7-3h.6l-1.3 4.7h-.6l-1-3.6-1 3.6zM423.1 79h.6a1.5 1.5 0 0 1-.5.8 1.8 1.8 0 0 1-2.2-.2 1.8 1.8 0 0 1-.4-1.3 1.9 1.9 0 0 1 .4-1.3 1.5 1.5 0 0 1 1.2-.5 1.5 1.5 0 0 1 1.1.5 1.9 1.9 0 0 1 .4 1.3v.2h-2.5a1.3 1.3 0 0 0 .3.9 1 1 0 0 0 .7.3l.5-.2a1.1 1.1 0 0 0 .4-.5zm-1.9-.9h1.9a1.2 1.2 0 0 0-.2-.6.9.9 0 0 0-.7-.3.9.9 0 0 0-.7.3 1.1 1.1 0 0 0-.3.5zM425 80.1h-.5v-4.7h.6v1.7a1.2 1.2 0 0 1 .9-.5h.6l.5.4.3.6a2.3 2.3 0 0 1 .1.7 2 2 0 0 1-.4 1.4 1.4 1.4 0 0 1-1 .5 1.1 1.1 0 0 1-1-.5zm0-1.7a1.8 1.8 0 0 0 .2.9.8.8 0 0 0 1.4.1 1.5 1.5 0 0 0 .3-1 1.5 1.5 0 0 0-.3-1 .8.8 0 0 0-.6-.3.8.8 0 0 0-.7.3 1.5 1.5 0 0 0-.3.9zM414.2 88l1.8-4.7h.7l1.9 4.7h-.7l-.6-1.4h-2l-.5 1.4zm1.4-1.9h1.6l-.5-1.3-.3-1-.3.9zM419.1 88v-4.7h2.5l.6.2.4.5a1.5 1.5 0 0 1-.2 1.7 1.8 1.8 0 0 1-1.4.4h-1.2V88zm.6-2.5h1.2a1.3 1.3 0 0 0 .9-.2.8.8 0 0 0 .3-.6.9.9 0 0 0-.2-.5l-.4-.3h-1.8zM423.7 88v-4.7h.6V88z"/><path fill="#326c97" d="M409.9 99.4l-80 .5V54.3h4.3v34h75.7v11.1"/><path d="M349.8 93.5a2.6 2.6 0 0 1 .6-1.8 2.1 2.1 0 0 1 1.6-.7 2.3 2.3 0 0 1 1.2.3 2 2 0 0 1 .8.9 2.8 2.8 0 0 1 .3 1.3 2.8 2.8 0 0 1-.3 1.3 2 2 0 0 1-.8.9 2.4 2.4 0 0 1-1.1.3 2.2 2.2 0 0 1-1.2-.3 2.1 2.1 0 0 1-.8-.9 2.7 2.7 0 0 1-.3-1.3zm.6 0a1.9 1.9 0 0 0 .5 1.3 1.6 1.6 0 0 0 2.3 0 2 2 0 0 0 .5-1.4 2.4 2.4 0 0 0-.2-1 1.5 1.5 0 0 0-.6-.7l-.8-.2a1.6 1.6 0 0 0-1.1.5 2 2 0 0 0-.6 1.5zM355 97.1v-4.7h.5v.4l.4-.4h.6l.8.2a1.4 1.4 0 0 1 .5.6 2.3 2.3 0 0 1 .2.9 2.3 2.3 0 0 1-.2.9 1.4 1.4 0 0 1-.5.6l-.8.2h-.5l-.4-.3v1.7zm.5-3a1.5 1.5 0 0 0 .3 1 .8.8 0 0 0 .6.3.8.8 0 0 0 .7-.3 1.6 1.6 0 0 0 .3-1 1.5 1.5 0 0 0-.3-1 .8.8 0 0 0-.6-.3.8.8 0 0 0-.7.3 1.5 1.5 0 0 0-.3 1zM361 94.7h.6a1.5 1.5 0 0 1-.5.8 1.8 1.8 0 0 1-2.2-.2 1.8 1.8 0 0 1-.4-1.3 1.9 1.9 0 0 1 .4-1.3 1.5 1.5 0 0 1 1.2-.5 1.5 1.5 0 0 1 1.1.5 1.9 1.9 0 0 1 .4 1.3v.2H359a1.3 1.3 0 0 0 .3.9 1 1 0 0 0 .7.3l.5-.2a1.1 1.1 0 0 0 .5-.5zm-1.9-.9h1.9a1.2 1.2 0 0 0-.2-.6.9.9 0 0 0-.7-.3.9.9 0 0 0-.7.3 1.1 1.1 0 0 0-.3.6zM362.4 95.8v-3.4h.5v.5a1.2 1.2 0 0 1 1.1-.6h.6l.4.3.2.4a3.3 3.3 0 0 1 0 .6v2.2h-.6v-2.1a1.6 1.6 0 0 0-.1-.5l-.2-.3h-.4l-.6.2a1.2 1.2 0 0 0-.3.9v1.8zM366.1 95.8v-4.7h3.2v.6h-2.6v1.5h2.2v.6h-2.2v2zM370.1 91.8v-.7h.6v.7zm0 4.1v-3.5h.6v3.4zM371.3 94.8h.6a.8.8 0 0 0 .3.5l.6.2.6-.2a.5.5 0 0 0 .2-.4.4.4 0 0 0-.2-.3l-.6-.2-.9-.3-.4-.3a.9.9 0 0 1-.1-.5.9.9 0 0 1 .1-.4l.3-.3.4-.2h1.2l.5.3a1.3 1.3 0 0 1 .2.5h-.6a.6.6 0 0 0-.2-.4h-1.1a.4.4 0 0 0-.2.3v.2l.2.2h.5l.9.3.4.3a.8.8 0 0 1 .1.5 1 1 0 0 1-.2.5l-.5.4h-.7a1.6 1.6 0 0 1-1-.3 1.3 1.3 0 0 1-.4-.4zM377.1 94.6h.6a1.5 1.5 0 0 1-.5.9 1.4 1.4 0 0 1-.9.3 1.5 1.5 0 0 1-1.1-.5 1.9 1.9 0 0 1-.4-1.3 2.4 2.4 0 0 1 .2-1 1.3 1.3 0 0 1 .6-.6l.8-.2a1.4 1.4 0 0 1 .9.3 1.3 1.3 0 0 1 .5.8h-.6a.9.9 0 0 0-.3-.5h-.7a.9.9 0 0 0-.7.3 1.5 1.5 0 0 0-.3 1 1.5 1.5 0 0 0 .3 1 .9.9 0 0 0 .7.3l.6-.2a1 1 0 0 0 .3-.6zM380.4 95.4l-.6.4h-.6a1.2 1.2 0 0 1-.9-.3.9.9 0 0 1-.3-.7.9.9 0 0 1 .1-.5l.3-.3.4-.2h.5l1-.2v-.2a.6.6 0 0 0-.2-.5l-.7-.2h-.6a.9.9 0 0 0-.3.5h-.6a1.4 1.4 0 0 1 .3-.6l.5-.3h1.5l.4.3.2.4a3.4 3.4 0 0 1 0 .5v.8a8.3 8.3 0 0 0 0 1v.5h-.6a1.2 1.2 0 0 1 .2-.4zm0-1.3l-.9.2h-.5l-.2.2a.5.5 0 0 0 .1.7l.5.2h.6l.4-.4a1.4 1.4 0 0 0 .1-.6zM387.1 94.2l.6.2a2.1 2.1 0 0 1-.7 1.2 2 2 0 0 1-1.2.4 2.2 2.2 0 0 1-1.2-.3 1.9 1.9 0 0 1-.7-.9 3.2 3.2 0 0 1-.2-1.3 2.8 2.8 0 0 1 .3-1.3 1.9 1.9 0 0 1 .8-.8 2.4 2.4 0 0 1 1.1-.3 1.9 1.9 0 0 1 1.2.4 1.9 1.9 0 0 1 .7 1h-.6a1.5 1.5 0 0 0-.5-.8l-.8-.2a1.5 1.5 0 0 0-.9.3 1.4 1.4 0 0 0-.5.7 2.8 2.8 0 0 0-.1.9 2.9 2.9 0 0 0 .2 1.1 1.3 1.3 0 0 0 .5.7l.8.2a1.3 1.3 0 0 0 .9-.3 1.5 1.5 0 0 0 .3-.9zM388.2 94.1a1.8 1.8 0 0 1 .5-1.4 1.6 1.6 0 0 1 1.1-.4 1.5 1.5 0 0 1 1.2.5 1.8 1.8 0 0 1 .4 1.3 2.3 2.3 0 0 1-.2 1 1.4 1.4 0 0 1-.6.6l-.8.2a1.5 1.5 0 0 1-1.2-.5 1.8 1.8 0 0 1-.4-1.3zm.6 0a1.5 1.5 0 0 0 .3 1 1 1 0 0 0 1.4 0 1.5 1.5 0 0 0 .3-1 1.4 1.4 0 0 0-.3-1 1 1 0 0 0-1.4 0 1.5 1.5 0 0 0-.3 1zM392.1 95.8v-3.4h.5v.5l.4-.5h.4l.6.2-.2.5h-.8l-.2.3a2.3 2.3 0 0 0-.1.7v1.7zM396.6 94.7h.6a1.5 1.5 0 0 1-.5.8 1.8 1.8 0 0 1-2.2-.2 1.8 1.8 0 0 1-.4-1.3 1.9 1.9 0 0 1 .4-1.3 1.5 1.5 0 0 1 1.2-.5 1.5 1.5 0 0 1 1.1.5 1.9 1.9 0 0 1 .4 1.3v.2h-2.6a1.3 1.3 0 0 0 .3.9 1 1 0 0 0 .7.3l.5-.2a1.1 1.1 0 0 0 .5-.5zm-1.9-.9h1.9a1.2 1.2 0 0 0-.2-.6.9.9 0 0 0-.7-.3.9.9 0 0 0-.7.3 1.1 1.1 0 0 0-.3.6z" fill="#fff"/><path d="M519.4 98.6h-71.6v-9.7a4.25 4.25 0 1 0 0-8.5v-4a4.3 4.3 0 1 1-.1-8.6v-5.5l71.4.3z" fill="#595a5b"/><path fill="#971640" d="M408.2 85.7h-71.6V51.6h-6.3V39.4h84.2v12.2h-6.3v34.1"/><path d="M414.5 28.2a10.9 10.9 0 0 0-17.3 0h-66.8v10.6h84.2z" fill="#d66990"/><path d="M335.7 35.6v-4.7h.6l2.5 3.7v-3.7h.6v4.7h-.6l-2.5-3.7v3.7zM342.8 34.5h.6a1.5 1.5 0 0 1-.5.8 1.6 1.6 0 0 1-1 .3 1.6 1.6 0 0 1-1.2-.5 1.8 1.8 0 0 1-.4-1.3 1.9 1.9 0 0 1 .4-1.3 1.5 1.5 0 0 1 1.2-.5 1.5 1.5 0 0 1 1.1.5 1.9 1.9 0 0 1 .4 1.3v.2h-2.6a1.3 1.3 0 0 0 .3.9 1 1 0 0 0 .7.3l.5-.2a1.1 1.1 0 0 0 .5-.5zm-1.9-.9h1.9a1.2 1.2 0 0 0-.2-.6.9.9 0 0 0-.7-.3.9.9 0 0 0-.7.3 1.1 1.1 0 0 0-.3.6zM344.7 35.6l-1-3.4h.6l.5 2 .2.7.2-.7.5-2h.6l.5 2 .2.7.2-.7.6-2h.6l-1.1 3.4h-.6l-.5-2.1v-.6l-.7 2.6zM350.8 35.6v-4.7h3.4v.6h-2.8v1.4h2.6v.6h-2.6v1.6h2.9v.6zM354.7 35.6l1.3-1.8-1.2-1.6h.7l.5.8.2.4.3-.4.6-.8h.7l-1.1 1.6 1.3 1.8h-.8l-.7-1.1-.2-.3-.9 1.4zM359.7 35.1v.5h-.9l-.2-.3a2.1 2.1 0 0 1-.1-.7v-2h-.4v-.5h.4v-.8l.6-.3v1.2h.6v.5h-.6v2a1 1 0 0 0 0 .3h.6zM362.6 34.5h.6a1.5 1.5 0 0 1-.5.8 1.6 1.6 0 0 1-1 .3 1.6 1.6 0 0 1-1.2-.5 1.8 1.8 0 0 1-.4-1.3 1.9 1.9 0 0 1 .4-1.3 1.5 1.5 0 0 1 1.2-.5 1.5 1.5 0 0 1 1.1.5 1.9 1.9 0 0 1 .4 1.3v.2h-2.6a1.3 1.3 0 0 0 .3.9 1 1 0 0 0 .7.3l.5-.2a1.1 1.1 0 0 0 .5-.5zm-1.9-.9h1.9a1.2 1.2 0 0 0-.2-.6.9.9 0 0 0-.7-.3.9.9 0 0 0-.7.3 1.1 1.1 0 0 0-.3.6zM363.9 35.6v-3.4h.5v.5a1.2 1.2 0 0 1 1.1-.6h.6l.4.3.2.4a3.3 3.3 0 0 1 0 .6v2.1h-.6v-1.9a1.6 1.6 0 0 0-.1-.5l-.2-.3h-.4l-.6.2a1.2 1.2 0 0 0-.3.9v1.9zM367.4 34.6h.6a.8.8 0 0 0 .3.5l.6.2.6-.2a.5.5 0 0 0 .2-.4.4.4 0 0 0-.2-.3l-.6-.2-.9-.3-.4-.3a.9.9 0 0 1-.1-.5.9.9 0 0 1 .1-.4l.3-.3.4-.2h1.2l.5.3a1.2 1.2 0 0 1 .2.5h-.6a.6.6 0 0 0-.2-.4h-1.2a.4.4 0 0 0-.2.3v.2l.2.2h.5l.9.3.4.3a.8.8 0 0 1 .1.5 1 1 0 0 1-.2.5l-.5.4h-.7a1.6 1.6 0 0 1-1-.3 1.3 1.3 0 0 1-.3-.4zM370.9 31.6v-.7h.6v.7zm0 4.1v-3.5h.6v3.4zM372.2 33.9a1.8 1.8 0 0 1 .5-1.4 1.6 1.6 0 0 1 1.1-.4 1.5 1.5 0 0 1 1.2.5 1.8 1.8 0 0 1 .4 1.3 2.3 2.3 0 0 1-.2 1 1.4 1.4 0 0 1-.6.6l-.8.2a1.5 1.5 0 0 1-1.2-.5 1.8 1.8 0 0 1-.4-1.3zm.6 0a1.5 1.5 0 0 0 .3 1 .9.9 0 0 0 .7.3.9.9 0 0 0 .7-.3 1.5 1.5 0 0 0 .3-1 1.4 1.4 0 0 0-.3-1 1 1 0 0 0-1.4 0 1.5 1.5 0 0 0-.3 1zM376 35.6v-3.4h.5v.5a1.2 1.2 0 0 1 1.1-.6h.6l.4.3.2.4a3.3 3.3 0 0 1 0 .6v2.1h-.6v-1.9a1.5 1.5 0 0 0-.1-.5l-.2-.3h-.4l-.6.2a1.2 1.2 0 0 0-.3.9v1.9z"/><path d="M352.4 67.1v-4.7h.6l2.5 3.7v-3.7h.6v4.7h-.6l-2.5-3.7v3.7zM359.5 66h.6a1.5 1.5 0 0 1-.5.8 1.8 1.8 0 0 1-2.2-.2 1.8 1.8 0 0 1-.4-1.3 1.9 1.9 0 0 1 .4-1.3 1.5 1.5 0 0 1 1.2-.5 1.5 1.5 0 0 1 1.1.5 1.9 1.9 0 0 1 .4 1.3v.2h-2.6a1.3 1.3 0 0 0 .3.9 1 1 0 0 0 .7.3l.5-.2a1.1 1.1 0 0 0 .5-.5zm-1.9-.9h1.9a1.2 1.2 0 0 0-.2-.6.9.9 0 0 0-.7-.3.9.9 0 0 0-.7.3 1.1 1.1 0 0 0-.3.6zM361.4 67.1l-1-3.4h.6l.5 2 .2.7.2-.7.5-2h.6l.5 2 .2.7.2-.7.6-2h.6l-1.1 3.4h-.6l-.5-2.1v-.6l-.7 2.6zM370.9 65.4l.6.2a2.1 2.1 0 0 1-.7 1.2 2 2 0 0 1-1.2.4 2.2 2.2 0 0 1-1.2-.3 1.9 1.9 0 0 1-.7-.9 3.2 3.2 0 0 1-.2-1.3 2.8 2.8 0 0 1 .3-1.3 1.9 1.9 0 0 1 .8-.8 2.4 2.4 0 0 1 1.1-.3 1.9 1.9 0 0 1 1.2.4 1.9 1.9 0 0 1 .7 1h-.6a1.5 1.5 0 0 0-.5-.8l-.8-.2a1.5 1.5 0 0 0-.9.3 1.4 1.4 0 0 0-.5.7 2.8 2.8 0 0 0-.1.9 2.9 2.9 0 0 0 .2 1.1 1.3 1.3 0 0 0 .5.7l.8.2a1.3 1.3 0 0 0 .9-.3 1.5 1.5 0 0 0 .3-.9zM372 65.4a1.8 1.8 0 0 1 .5-1.4 1.6 1.6 0 0 1 1.1-.4 1.5 1.5 0 0 1 1.2.5 1.8 1.8 0 0 1 .4 1.3 2.3 2.3 0 0 1-.2 1 1.4 1.4 0 0 1-.6.6l-.8.2a1.5 1.5 0 0 1-1.2-.5 1.8 1.8 0 0 1-.4-1.3zm.6 0a1.5 1.5 0 0 0 .3 1 1 1 0 0 0 1.4 0 1.5 1.5 0 0 0 .3-1 1.4 1.4 0 0 0-.3-1 1 1 0 0 0-1.4 0 1.5 1.5 0 0 0-.3 1zM378.1 67.1v-.5a1.3 1.3 0 0 1-1.1.6h-.6l-.4-.3-.2-.4a2.9 2.9 0 0 1 0-.5v-2.3h.6v1.9a3.4 3.4 0 0 0 0 .6l.2.4h.9l.3-.4a1.8 1.8 0 0 0 .1-.7v-1.8h.6v3.4zM379.5 67.1v-3.4h.5v.5a1.2 1.2 0 0 1 1.1-.6h.6l.4.3.2.4a3.3 3.3 0 0 1 0 .6V67h-.6v-2a1.6 1.6 0 0 0-.1-.5l-.2-.3h-.4l-.6.2a1.2 1.2 0 0 0-.3.9v1.9zM384.5 66.6v.5h-.9l-.2-.3a2.1 2.1 0 0 1-.1-.7v-2h-.4v-.5h.4v-.8l.6-.3v1.2h.6v.5h-.6v2a1 1 0 0 0 0 .3h.6zM385 67.1v-3.4h.5v.5l.4-.5h.4l.6.2-.2.5h-.8l-.2.3a2.3 2.3 0 0 0-.1.7v1.8zM387.2 68.4v-.5h.6l.2-.2.2-.4h.1l-1.3-3.4h.6l.7 2 .2.8.2-.8.7-2h.6l-1.3 3.5-.3.8-.4.4h-.8z" fill="#fcfcfc"/><path d="M471.4 83.3v-4.7h.6l2.5 3.7v-3.7h.6v4.7h-.6l-2.5-3.7v3.7zM478.5 82.2h.6a1.5 1.5 0 0 1-.5.8 1.8 1.8 0 0 1-2.2-.2 1.8 1.8 0 0 1-.4-1.3 1.9 1.9 0 0 1 .4-1.3 1.5 1.5 0 0 1 1.2-.5 1.5 1.5 0 0 1 1.1.5 1.9 1.9 0 0 1 .4 1.3v.2h-2.6a1.3 1.3 0 0 0 .3.9.9.9 0 0 0 .7.3l.5-.2a1.1 1.1 0 0 0 .5-.5zm-1.9-.9h1.9a1.2 1.2 0 0 0-.2-.6.9.9 0 0 0-.7-.3.9.9 0 0 0-.7.3 1.1 1.1 0 0 0-.3.6zM480.4 83.3l-1-3.4h.6l.5 2 .2.7.2-.7.5-2h.6l.5 2 .2.7.2-.7.6-2h.6l-1.1 3.4h-.6l-.5-2.1v-.6l-.7 2.6zM485.6 83.3l1.8-4.7h.7l1.9 4.7h-.7l-.6-1.4h-2l-.5 1.4zm1.4-1.9h1.6l-.5-1.3-.3-1-.3.9zM490.4 84.6v-4.7h.5v.4l.4-.4h.6l.8.2a1.4 1.4 0 0 1 .5.6 2.3 2.3 0 0 1 .2.9 2.3 2.3 0 0 1-.2.9 1.4 1.4 0 0 1-.5.6l-.8.2h-.5l-.4-.3v1.7zm.5-3a1.5 1.5 0 0 0 .3 1 .8.8 0 0 0 .6.3.8.8 0 0 0 .7-.3 1.6 1.6 0 0 0 .3-1 1.5 1.5 0 0 0-.3-1 .8.8 0 0 0-.6-.3.8.8 0 0 0-.7.3 1.5 1.5 0 0 0-.2 1zM494.1 84.6v-4.7h.5v.4l.4-.4h.6l.8.2a1.4 1.4 0 0 1 .5.6 2.3 2.3 0 0 1 .2.9 2.3 2.3 0 0 1-.2.9 1.4 1.4 0 0 1-.5.6l-.8.2h-.5l-.4-.3v1.7zm.5-3a1.5 1.5 0 0 0 .3 1 .8.8 0 0 0 .6.3.8.8 0 0 0 .7-.3 1.6 1.6 0 0 0 .3-1 1.5 1.5 0 0 0-.3-1 .8.8 0 0 0-.6-.3.8.8 0 0 0-.7.3 1.5 1.5 0 0 0-.3 1z" fill="#fffdfd"/></svg>