<svg fill="none" height="166" viewBox="0 0 166 166" width="166" xmlns="http://www.w3.org/2000/svg" xmlns:xlink="http://www.w3.org/1999/xlink"><linearGradient id="a" gradientUnits="userSpaceOnUse" x1="24.304" x2="141.676" y1="24.304" y2="141.676"><stop offset="0" stop-color="#00baaf"/><stop offset="1" stop-color="#6d69fb"/></linearGradient><path d="m83.0101 0h-.0202c-45.8341 0-82.9899 37.1558-82.9899 82.9899v.0202c0 45.8339 37.1558 82.9899 82.9899 82.9899h.0202c45.8339 0 82.9899-37.156 82.9899-82.9899v-.0202c0-45.8341-37.156-82.9899-82.9899-82.9899z" fill="url(#a)"/><g fill="#fff"><path d="m69.1279 63.6437c-.0361-1.641.4846-3.246 1.4773-4.5532.5304-.6458 1.2076-1.1555 1.975-1.4864s1.6028-.4735 2.4365-.4159c.7942-.0479 1.5892.0775 2.33.3675.7409.29 1.4097.7378 1.9602 1.3122 1.0032 1.1192 1.5956 2.5466 1.6796 4.0473l1.3963 7.0828v8.9242c0 10.7928-2.5228 18.7998-7.5684 24.0208-5.0457 5.221-12.8232 7.852-23.3327 7.892-1.2708.044-2.5374-.169-3.7235-.627-.8813-.357-1.6551-.935-2.2463-1.68-.5677-.742-.9494-1.609-1.113-2.529-.1954-1.034-.2903-2.085-.2833-3.137v-21.4102c-.0405-2.8975.2928-5.7882.9916-8.6005.5522-2.2551 1.6502-4.3399 3.1974-6.071 1.5818-1.6618 3.5697-2.8824 5.7673-3.5413 2.808-.8438 5.7298-1.2466 8.6613-1.194.6611-.0384 1.3225.0686 1.9379.3133.6153.2447 1.1695.6213 1.6237 1.1033.9765 1.391 1.4282 3.0832 1.2749 4.7758v.8904h-4.8365c-1.6926-.0287-3.383.1342-5.0389.4857-1.3125.2803-2.519.9256-3.4807 1.8617-.9932 1.0553-1.6911 2.3535-2.0236 3.764-.4824 2.0344-.7001 4.1225-.6476 6.2126v22.2602c3.554.067 7.1007-.349 10.5432-1.234 2.7489-.698 5.2718-2.092 7.3256-4.0478 2.0574-2.1355 3.5342-4.7618 4.2902-7.6291.9921-3.8786 1.4349-7.8772 1.3153-11.8789v-8.904c-.83.0591-1.6622-.0787-2.4288-.4022-.7667-.3236-1.446-.8237-1.9827-1.4596-.997-1.2894-1.5188-2.8833-1.4773-4.5127z"/><path d="m119.558 49.2553c-.029-1.2874.323-2.5546 1.012-3.6426.493-.5744 1.121-1.0174 1.827-1.2894.706-.2719 1.469-.3643 2.22-.2688.75-.0831 1.509.015 2.214.2861.704.2712 1.333.7074 1.833 1.2721.738 1.0695 1.12 2.3438 1.093 3.6426.04 1.3067-.343 2.5913-1.093 3.6628-.515.541-1.148.9557-1.85 1.212-.702.2562-1.454.347-2.197.2652-.743.0931-1.498.0076-2.202-.2493s-1.336-.6778-1.845-1.2279c-.706-1.0881-1.059-2.367-1.012-3.6628zm.506 20.4995h-26.1456v36.1222c.1011 4.754-.3196 9.504-1.2547 14.166-.6333 3.194-2.0209 6.192-4.0473 8.742-1.8263 2.161-4.2579 3.726-6.9816 4.492-3.2964.895-6.7031 1.317-10.1182 1.255-.6788.082-1.3674.005-2.0105-.227-.6432-.232-1.223-.612-1.6928-1.109-.7851-1.345-1.1382-2.899-1.0118-4.452v-.931h4.6948c2.2692.038 4.5356-.172 6.759-.627 1.8715-.397 3.5419-1.443 4.7151-2.955 1.398-1.94 2.3074-4.189 2.651-6.556.6327-3.9.9105-7.848.8297-11.798v-36.1222h-10.9277c-.1007-.9493.0124-1.9092.331-2.8092.3187-.8999.8348-1.7171 1.5105-2.3915 1.124-.9741 2.56-1.5126 4.0473-1.5178h5.4639c.2795-3.2091 1.0084-6.3631 2.1653-9.3695.9322-2.3149 2.4194-4.365 4.3306-5.9697 1.9087-1.5546 4.1537-2.6425 6.5566-3.1772 2.9114-.6282 5.8854-.9268 8.8634-.8904.681-.08 1.37.001 2.013.2366.644.2355 1.223.6189 1.69 1.1193.787 1.3449 1.14 2.8993 1.012 4.452v.9309h-4.715c-1.896-.0144-3.79.1142-5.666.3845-1.534.1989-2.994.7761-4.2497 1.6796-1.2768 1.0055-2.2733 2.3226-2.8938 3.8247-.8737 2.1467-1.426 4.4106-1.6392 6.7185h32.3787 1.113s-.182 6.6781-4.837 6.6781"/><path d="m124.617 55.2457c3.185 0 5.767-2.5821 5.767-5.7674 0-3.1852-2.582-5.7674-5.767-5.7674s-5.767 2.5822-5.767 5.7674c0 3.1853 2.582 5.7674 5.767 5.7674z"/></g></svg>