<svg viewBox="0 0 943 951" xmlns="http://www.w3.org/2000/svg"><g fill="none"><path d="m524.255 134.678c3.915-4.203 10.424-4.381 14.533-.554 4.11 3.827 4.395 10.333.481 14.536-3.915 4.204-10.425 4.381-14.534.554s-4.395-10.332-.48-14.536zm23.951-10.666c-9.752-9.082-25.02-8.539-34.102 1.213-9.081 9.752-8.538 25.02 1.214 34.102 9.751 9.082 25.019 8.538 34.101-1.213 9.082-9.752 8.539-25.02-1.213-34.102z" stroke="#552143"/><path d="m586.966 117.091c2.709-2.909 7.215-3.032 10.06-.383 2.845 2.65 3.042 7.153.333 10.062s-7.215 3.033-10.06.383c-2.845-2.649-3.042-7.153-.333-10.062zm16.21-6.986c-6.531-6.083-16.757-5.719-22.84.812s-5.719 16.757.813 22.84c6.531 6.083 16.757 5.719 22.84-.812 6.082-6.532 5.719-16.758-.813-22.84z" stroke="#552143"/><path d="m39.7589 813.911c1.4673-1.576 3.9087-1.643 5.4512-.207 1.5424 1.437 1.6485 3.877.1812 5.452-1.4672 1.576-3.9087 1.643-5.4511.207-1.5425-1.437-1.6486-3.877-.1813-5.452zm8.235-3.196c-3.2135-2.993-8.2446-2.814-11.2373.4-2.9927 3.213-2.8138 8.244.3997 11.237s8.2446 2.814 11.2374-.4c2.9927-3.213 2.8137-8.244-.3998-11.237z" stroke="#552143"/><path d="m629.252 716.35c1.248-1.341 3.325-1.398 4.638-.176 1.312 1.222 1.402 3.298.154 4.639-1.248 1.34-3.325 1.397-4.638.175-1.312-1.222-1.402-3.298-.154-4.638zm6.827-2.527c-2.628-2.448-6.742-2.301-9.189.327-2.448 2.628-2.301 6.742.327 9.189 2.627 2.448 6.742 2.301 9.189-.326 2.448-2.628 2.301-6.743-.327-9.19z" stroke="#552143"/><path d="m795.459 748.53c2.49-2.674 6.631-2.787 9.247-.352 2.615 2.436 2.796 6.575.306 9.249-2.49 2.673-6.632 2.787-9.247.351-2.615-2.435-2.796-6.574-.306-9.248zm14.803-6.318c-5.946-5.537-15.255-5.206-20.793.74-5.537 5.946-5.206 15.255.74 20.792 5.946 5.538 15.255 5.207 20.792-.739 5.538-5.946 5.207-15.255-.739-20.793z" stroke="#552143"/><path d="m708.432 433.24c1.168-1.254 3.112-1.308 4.341-.164 1.228 1.144 1.312 3.087.144 4.341-1.168 1.255-3.112 1.309-4.34.165-1.229-1.145-1.313-3.088-.145-4.342zm6.313-2.282c-2.414-2.249-6.193-2.114-8.442.3-2.248 2.414-2.113 6.194.301 8.442s6.193 2.114 8.442-.3c2.248-2.414 2.114-6.194-.301-8.442z" stroke="#552143"/><path d="m811.966 801.091c2.709-2.909 7.215-3.032 10.06-.383 2.845 2.65 3.042 7.153.333 10.062s-7.215 3.033-10.06.383c-2.845-2.649-3.042-7.153-.333-10.062zm16.21-6.986c-6.531-6.083-16.757-5.719-22.84.812s-5.719 16.757.813 22.84c6.531 6.083 16.757 5.719 22.84-.812 6.082-6.532 5.719-16.758-.813-22.84z" stroke="#552143"/><path d="m511.425 790.386c.327.304.838.287 1.143-.04l-1.464-1.363c.45-.484 1.205-.507 1.684-.061zm-.041-1.142c-.304.327-.285.838.041 1.142l1.363-1.464c.48.447.51 1.201.06 1.685zm1.142-.04c-.326-.304-.838-.287-1.142.04l1.464 1.363c-.451.484-1.205.507-1.685.061zm.042 1.142c.304-.327.285-.838-.042-1.142l-1.363 1.464c-.48-.447-.51-1.201-.059-1.685zm-.945-.173c.209.195.536.183.731-.026l-1.463-1.363c.558-.599 1.496-.632 2.095-.074zm-.026-.73c-.194.209-.183.536.026.73l1.363-1.463c.6.558.633 1.496.075 2.096zm.731-.026c-.209-.195-.536-.183-.731.026l1.464 1.363c-.558.599-1.497.632-2.096.074zm.026.73c.195-.209.183-.536-.026-.73l-1.363 1.463c-.599-.558-.633-1.496-.074-2.096z"/><g stroke="#552143"><path d="m337.425 543.868c-10.437-9.72-26.934-9.317-36.831 1.311-9.898 10.627-9.127 27.111 1.31 36.831s26.934 9.318 36.832-1.31c9.897-10.628 9.126-27.112-1.311-36.832z"/><path d="m538.25 251.038c-1.444-1.345-3.726-1.288-5.094.181-1.369 1.47-1.263 3.75.181 5.095s3.726 1.288 5.095-.181c1.368-1.47 1.263-3.75-.182-5.095z"/><path d="m336.799 523.971c-.524-.487-1.35-.466-1.845.066s-.457 1.357.066 1.844c.523.488 1.349.467 1.844-.065s.458-1.357-.065-1.845z"/><path d="m734.012 661.448c-1.927-1.795-4.973-1.72-6.801.242-1.827 1.962-1.685 5.006.242 6.801 1.928 1.796 4.974 1.72 6.801-.242 1.828-1.962 1.686-5.005-.242-6.801z"/><path d="m330.158 595.371c-7.73-7.198-19.947-6.9-27.277.97-7.329 7.871-6.759 20.078.97 27.277 7.73 7.198 19.947 6.9 27.277-.97 7.33-7.871 6.759-20.079-.97-27.277z"/><path d="m819.559 160.643c-21.306-19.843-54.987-19.023-75.193 2.675-20.207 21.697-18.632 55.35 2.675 75.193 21.306 19.843 54.987 19.023 75.193-2.674 20.207-21.698 18.632-55.351-2.675-75.194z"/><path d="m386.737 444.392c-4.925-4.587-12.709-4.397-17.38.618-4.67 5.015-4.306 12.793.619 17.38s12.71 4.396 17.38-.618c4.67-5.015 4.307-12.793-.619-17.38z"/><path d="m163.786 182.033c-6.859-6.388-17.701-6.123-24.205.861-6.505 6.984-5.998 17.817.861 24.205s17.701 6.123 24.205-.861 5.998-17.817-.861-24.205z"/><path d="m140.938 889.099c-1.246-1.16-3.215-1.111-4.395.157-1.181 1.268-1.09 3.235.156 4.395 1.246 1.161 3.215 1.112 4.395-.156 1.181-1.268 1.09-3.235-.156-4.396z"/><path d="m669.585 358.91c-4.828-4.497-12.46-4.31-17.039.606-4.578 4.916-4.222 12.542.606 17.039 4.829 4.496 12.461 4.31 17.039-.607 4.579-4.916 4.223-12.541-.606-17.038z"/><path d="m739.555 635.002c-1.637-1.525-4.225-1.461-5.777.206-1.552 1.666-1.432 4.252.205 5.777 1.638 1.525 4.226 1.461 5.778-.205 1.552-1.667 1.432-4.253-.206-5.778z"/><path d="m707.531 613.083c-6.195 4.847-15.036 3.692-19.772-2.363-4.737-6.054-3.731-14.913 2.464-19.759 6.195-4.847 15.036-3.692 19.772 2.363 4.737 6.054 3.73 14.913-2.464 19.759zm-35.184 9.694c11.463 14.653 32.633 17.238 47.285 5.775s17.238-32.633 5.775-47.285c-11.463-14.653-32.633-17.238-47.286-5.775-14.652 11.463-17.237 32.633-5.774 47.285z"/><path d="m837.221 339.03c-4.819 3.771-11.698 2.873-15.384-1.839-3.686-4.711-2.902-11.604 1.918-15.374 4.819-3.771 11.698-2.873 15.384 1.839 3.686 4.711 2.902 11.604-1.918 15.374zm-27.068 7.303c8.786 11.23 25.013 13.212 36.244 4.426s13.213-25.014 4.426-36.244c-8.786-11.231-25.013-13.213-36.244-4.427-11.231 8.787-13.212 25.014-4.426 36.245z"/><path d="m511.309 393.52c8.782-9.43 23.382-9.826 32.596-1.245s9.857 23.172 1.075 32.602c-8.783 9.43-23.382 9.826-32.596 1.245-9.215-8.582-9.857-23.172-1.075-32.602zm55.206-25.523c-22.755-21.192-58.381-19.925-79.572 2.83-21.192 22.755-19.925 58.381 2.83 79.573s58.381 19.924 79.573-2.831 19.924-58.381-2.831-79.572z"/><path d="m299.83 410.523c3.659-3.929 9.743-4.095 13.585-.517 3.841 3.577 4.108 9.658.449 13.587-3.66 3.929-9.744 4.095-13.585.517-3.841-3.577-4.108-9.658-.449-13.587zm22.309-9.885c-9.069-8.446-23.267-7.941-31.713 1.128-8.445 9.069-7.94 23.267 1.128 31.713 9.069 8.445 23.267 7.94 31.713-1.129 8.446-9.068 7.941-23.267-1.128-31.712z"/><path d="m630.692 381.694c7.603-8.165 20.244-8.508 28.222-1.078s8.534 20.063.931 28.228c-7.604 8.164-20.244 8.507-28.222 1.077-7.979-7.43-8.535-20.063-.931-28.227zm47.638-21.926c-19.607-18.259-50.303-17.167-68.562 2.439s-17.167 50.303 2.439 68.562 50.302 17.167 68.562-2.439c18.259-19.606 17.167-50.303-2.439-68.562z"/><path d="m83.0459 851.279c.8949-.961 2.3852-1.003 3.3274-.126.9423.878 1.0064 2.367.1114 3.328-.8949.961-2.3852 1.003-3.3274.126-.9422-.878-1.0064-2.367-.1114-3.328zm4.5601-1.449c-1.6846-1.569-4.3221-1.475-5.891.209-1.5689 1.685-1.475 4.322.2096 5.891s4.3221 1.475 5.891-.209c1.5689-1.685 1.475-4.323-.2096-5.891z"/><path d="m246.187 609.394c4.39-4.713 11.688-4.912 16.296-.621 4.607 4.291 4.928 11.585.538 16.299-4.39 4.713-11.688 4.912-16.296.621-4.607-4.291-4.928-11.585-.538-16.299zm27-12.115c-11.02-10.264-28.274-9.65-38.537 1.37-10.264 11.021-9.65 28.275 1.37 38.538 11.021 10.264 28.275 9.65 38.538-1.371 10.264-11.02 9.65-28.274-1.371-38.537z"/><path d="m284.691 611.627c1.942-2.086 5.173-2.174 7.213-.274 2.041 1.9 2.182 5.129.24 7.215-1.942 2.085-5.173 2.174-7.214.274-2.04-1.901-2.181-5.13-.239-7.215zm11.284-4.645c-4.482-4.175-11.499-3.925-15.673.557-4.175 4.482-3.925 11.5.557 15.674s11.5 3.924 15.674-.558 3.925-11.499-.558-15.673z"/><path d="m513.052 824.989c6.673-7.165 17.767-7.466 24.769-.945s7.49 17.608.817 24.773-17.767 7.466-24.769.945c-7.002-6.52-7.489-17.608-.817-24.773zm41.662-19.084c-17.12-15.944-43.924-14.991-59.867 2.129-15.944 17.12-14.991 43.924 2.129 59.868s43.924 14.99 59.868-2.13 14.99-43.924-2.13-59.867z"/><path d="m144.144 290.027c3.075-3.302 8.188-3.441 11.416-.435s3.452 8.116.378 11.418c-3.075 3.301-8.188 3.441-11.416.434-3.228-3.006-3.452-8.116-.378-11.417zm18.556-8.102c-7.507-6.992-19.261-6.574-26.252.934-6.992 7.507-6.574 19.261.934 26.252 7.507 6.992 19.261 6.574 26.252-.933 6.992-7.508 6.574-19.261-.934-26.253z"/><path d="m106.091 717.997c-7.0528-6.568-18.2003-6.296-24.8879.885-6.6877 7.181-6.1672 18.32.8853 24.888s18.1996 6.295 24.8876-.886 6.167-18.319-.885-24.887z"/><path d="m355.848 861.393c-8.63-8.037-22.271-7.704-30.455 1.083-8.184 8.788-7.547 22.418 1.083 30.456 8.63 8.037 22.271 7.704 30.455-1.084 8.184-8.787 7.547-22.418-1.083-30.455z"/><path d="m702.5 889.5-14-21-52-87.5m178.5-23 4 32-23 84m70.5-223-178-139.5-82.5-20m-116.5 282.5-29.5-133-84-25m-126.5-134.5-141.5-133.5-56.5-46m198 179.5-43.5-331m43.5 331-78.5-50.5m224-114 193-22.5 145-33.5m-253-135.5v42"/><path d="m552.27 206.369c-.822-.766-2.121-.733-2.9.103-.779.837-.719 2.135.103 2.9.823.766 2.121.734 2.9-.103.779-.836.719-2.134-.103-2.9z"/><path d="m78.3471 306.32c-5.3119-4.947-13.708-4.742-18.745.667-5.0369 5.408-4.6451 13.798.6669 18.745 5.3119 4.947 13.708 4.741 18.745-.667 5.0369-5.409 4.6451-13.798-.6669-18.745z"/><path d="m818.012 750.448c-1.927-1.795-4.973-1.72-6.801.242-1.827 1.962-1.685 5.006.242 6.801 1.928 1.796 4.974 1.72 6.801-.242 1.828-1.962 1.686-5.005-.242-6.801z"/><path d="m179.578 196.35c-10.534-9.81-27.184-9.403-37.173 1.323s-9.211 27.363 1.322 37.173c10.534 9.809 27.184 9.403 37.173-1.323s9.211-27.363-1.322-37.173z"/><path d="m608.079 424.823c-2.604-2.426-6.72-2.325-9.189.327-2.47 2.651-2.278 6.764.327 9.189 2.604 2.426 6.72 2.325 9.189-.326 2.469-2.652 2.278-6.765-.327-9.19z"/><path d="m555.061 905.089c-3.862-3.596-9.965-3.446-13.626.485-3.662 3.931-3.377 10.03.484 13.626 3.862 3.596 9.965 3.447 13.627-.485 3.661-3.931 3.376-10.029-.485-13.626z"/><path d="m238.622 387.377c-2.314-2.156-5.972-2.066-8.166.29s-2.024 6.011.291 8.166c2.314 2.156 5.972 2.065 8.166-.29 2.194-2.356 2.024-6.011-.291-8.166z"/><path d="m253.035 388.796c-10.824-10.08-27.932-9.662-38.197 1.359-10.264 11.022-9.465 28.117 1.359 38.197s27.933 9.663 38.197-1.359c10.264-11.021 9.465-28.116-1.359-38.197z"/><path d="m116.116 679.29c-.09-.085-.232-.08-.317.011-.084.091-.079.233.012.317.09.084.232.08.317-.011.084-.091.079-.233-.012-.317z"/><path d="m480.08 435.101c-2.075 1.624-5.039 1.237-6.628-.794s-1.251-5.001.825-6.625c2.075-1.623 5.039-1.237 6.629.794 1.589 2.031 1.25 5.001-.826 6.625zm-10.875 2.529c3.445 4.404 9.808 5.181 14.212 1.735 4.404-3.445 5.181-9.808 1.736-14.212-3.446-4.404-9.809-5.181-14.213-1.735-4.403 3.445-5.181 9.808-1.735 14.212z"/><path d="m419.702 833.163c-1.165.911-2.83.695-3.723-.447-.893-1.141-.702-2.809.463-3.72 1.164-.912 2.829-.696 3.722.446s.703 2.81-.462 3.721zm-5.502.945c1.673 2.138 4.762 2.515 6.9.842 2.138-1.672 2.515-4.761.843-6.899-1.673-2.138-4.762-2.516-6.9-.843s-2.515 4.762-.843 6.9z"/><path d="m45.266 296.472c1.6864-1.811 4.4922-1.888 6.2645-.238 1.7723 1.651 1.8945 4.455.2081 6.266-1.6865 1.811-4.4923 1.888-6.2646.238-1.7723-1.651-1.8944-4.455-.208-6.266zm9.6424-3.865c-3.799-3.538-9.7468-3.326-13.2849.473-3.538 3.799-3.3264 9.747.4726 13.285s9.7469 3.326 13.2849-.473 3.3265-9.747-.4726-13.285z"/><path d="m165.566 361.853c.664-.713 1.77-.744 2.469-.093.7.652.747 1.757.083 2.47-.663.712-1.769.744-2.469.092-.699-.651-.746-1.757-.083-2.469zm3.075-.743c-1.067-.993-2.737-.934-3.73.133-.993 1.066-.934 2.736.133 3.729 1.066.994 2.736.934 3.729-.132.994-1.067.934-2.737-.132-3.73z"/><path d="m392.16 316.248c.664-.713 1.769-.744 2.469-.093.699.652.747 1.757.083 2.47-.664.712-1.769.744-2.469.092-.7-.651-.747-1.757-.083-2.469zm3.074-.743c-1.066-.993-2.736-.934-3.729.133-.994 1.066-.934 2.736.132 3.729 1.067.994 2.737.934 3.73-.132.993-1.067.934-2.737-.133-3.73z"/><path d="m556.16 632.248c.664-.713 1.769-.744 2.469-.093.699.652.747 1.757.083 2.47-.664.712-1.769.744-2.469.092-.7-.651-.747-1.757-.083-2.469zm3.074-.743c-1.066-.993-2.736-.934-3.729.133-.994 1.066-.934 2.736.132 3.729 1.067.994 2.737.934 3.73-.132.993-1.067.934-2.737-.133-3.73z"/><path d="m773.16 443.248c.664-.713 1.769-.744 2.469-.093.699.652.747 1.757.083 2.47-.664.712-1.769.744-2.469.092-.7-.651-.747-1.757-.083-2.469zm3.074-.743c-1.066-.993-2.736-.934-3.729.133-.994 1.066-.934 2.736.132 3.729 1.067.994 2.737.934 3.73-.132.993-1.067.934-2.737-.133-3.73z"/><path d="m714.16 189.248c.664-.713 1.769-.744 2.469-.093.699.652.747 1.757.083 2.47-.664.712-1.769.744-2.469.092-.7-.651-.747-1.757-.083-2.469zm3.074-.743c-1.066-.993-2.736-.934-3.729.133-.994 1.066-.934 2.736.132 3.729 1.067.994 2.737.934 3.73-.132.993-1.067.934-2.737-.133-3.73z"/><path d="m197.16 676.248c.664-.713 1.769-.744 2.469-.093.699.652.747 1.757.083 2.47-.664.712-1.769.744-2.469.092-.7-.651-.747-1.757-.083-2.469zm3.074-.743c-1.066-.993-2.736-.934-3.729.133-.994 1.066-.934 2.736.132 3.729 1.067.994 2.737.934 3.73-.132.993-1.067.934-2.737-.133-3.73z"/><path d="m648.16 813.248c.664-.713 1.769-.744 2.469-.093.699.652.747 1.757.083 2.47-.664.712-1.769.744-2.469.092-.7-.651-.747-1.757-.083-2.469zm3.074-.743c-1.066-.993-2.736-.934-3.729.133-.994 1.066-.934 2.736.132 3.729 1.067.994 2.737.934 3.73-.132.993-1.067.934-2.737-.133-3.73z"/><path d="m424.048 330.498c2.673-2.87 7.118-2.992 9.925-.378 2.806 2.614 3.001 7.056.328 9.926s-7.118 2.992-9.925.378c-2.806-2.614-3.001-7.056-.328-9.926zm15.976-6.876c-6.434-5.991-16.507-5.633-22.499.801s-5.634 16.507.8 22.499 16.507 5.633 22.499-.801 5.634-16.507-.8-22.499z"/><path d="m474.719 289.872c2.819-3.027 7.507-3.155 10.467-.399 2.96 2.757 3.165 7.442.347 10.469-2.819 3.027-7.507 3.155-10.467.399-2.96-2.757-3.165-7.442-.347-10.469zm16.914-7.321c-6.824-6.356-17.508-5.976-23.863.849-6.356 6.824-5.976 17.508.848 23.863 6.825 6.356 17.509 5.976 23.864-.849 6.356-6.824 5.976-17.508-.849-23.863z"/><path d="m363.445 612.407c2.051-2.203 5.464-2.296 7.62-.289 2.155 2.007 2.304 5.418.252 7.621-2.051 2.203-5.464 2.297-7.62.29-2.155-2.007-2.304-5.418-.252-7.622zm11.988-4.979c-4.775-4.447-12.251-4.181-16.698.594s-4.181 12.25.594 16.697 12.251 4.181 16.698-.594c4.446-4.775 4.181-12.25-.594-16.697z"/><path d="m632.677 524.504c1.504-1.614 4.006-1.684 5.586-.211 1.581 1.472 1.69 3.972.186 5.587s-4.006 1.684-5.587.212c-1.58-1.472-1.689-3.973-.185-5.588zm8.469-3.307c-3.311-3.084-8.495-2.899-11.578.412-3.084 3.311-2.899 8.495.412 11.579 3.311 3.083 8.495 2.899 11.578-.412 3.084-3.311 2.899-8.495-.412-11.579z"/><path d="m761.005 714.13c1.358-1.458 3.617-1.52 5.045-.191 1.427 1.33 1.525 3.588.168 5.045-1.358 1.458-3.617 1.521-5.045.191-1.427-1.329-1.525-3.587-.168-5.045zm7.532-2.861c-2.921-2.72-7.494-2.558-10.214.363s-2.557 7.494.363 10.214c2.921 2.72 7.494 2.557 10.214-.364 2.72-2.92 2.557-7.493-.363-10.213z"/><path d="m357.445 706.407c2.051-2.203 5.464-2.296 7.62-.289 2.155 2.007 2.304 5.418.252 7.621-2.051 2.203-5.464 2.297-7.62.29-2.155-2.007-2.304-5.418-.252-7.622zm11.988-4.979c-4.775-4.447-12.251-4.181-16.698.594s-4.181 12.25.594 16.697 12.251 4.181 16.698-.594c4.446-4.775 4.181-12.25-.594-16.697z"/><path d="m580.95 714.689c-11.404-10.621-29.43-10.181-40.245 1.431-10.814 11.613-9.972 29.624 1.432 40.245 11.404 10.62 29.43 10.18 40.244-1.432 10.815-11.612 9.972-29.624-1.431-40.244z"/><path d="m243.946 518.074c-1.251-1.165-3.227-1.116-4.413.157-1.185 1.273-1.093 3.247.157 4.412 1.251 1.165 3.227 1.116 4.412-.157 1.186-1.272 1.094-3.247-.156-4.412z"/><path d="m534.856 709.176c.075.07.194.068.267-.01.072-.077.065-.197-.01-.266-.075-.07-.195-.069-.267.009s-.065.197.01.267z"/><path d="m488.548 96.4429c-7.343-6.8382-18.949-6.5547-25.911.9217-6.963 7.4764-6.421 19.0734.921 25.9114 7.343 6.838 18.949 6.555 25.912-.922 6.962-7.476 6.421-19.073-.922-25.9111z"/><path d="m430.574 308.736c-.381-.355-.981-.339-1.341.047-.36.387-.333.987.048 1.341.38.355.981.339 1.34-.047.36-.387.333-.987-.047-1.341z"/><path d="m170.823 414.5c-4.345-4.047-11.213-3.879-15.332.545-4.12 4.424-3.8 11.286.545 15.332 4.345 4.047 11.213 3.879 15.332-.545 4.12-4.424 3.8-11.286-.545-15.332z"/><path d="m699.793 285.592c-1.154-1.075-2.977-1.029-4.071.145-1.093 1.174-1.009 2.996.145 4.071s2.977 1.029 4.071-.145c1.093-1.174 1.009-2.996-.145-4.071z"/><path d="m737.652 255.284c-5.505-5.127-14.207-4.914-19.428.691-5.22 5.606-4.814 14.301.692 19.428 5.505 5.127 14.207 4.914 19.427-.691 5.22-5.606 4.814-14.301-.691-19.428z"/><path d="m170.195 207.827c-2.043-1.903-5.273-1.824-7.21.256s-1.787 5.308.256 7.211c2.044 1.903 5.274 1.823 7.211-.257s1.787-5.307-.257-7.21z"/><path d="m619.358 419.494c-9.76-9.089-25.187-8.713-34.442 1.225-9.256 9.939-8.535 25.354 1.225 34.443 9.76 9.09 25.187 8.713 34.443-1.225 9.255-9.938 8.534-25.354-1.226-34.443z"/><path d="m440.804 761.632c-10.533-9.81-27.183-9.404-37.173 1.322-9.989 10.727-9.211 27.363 1.323 37.173 10.533 9.81 27.184 9.404 37.173-1.322s9.211-27.363-1.323-37.173z"/><path d="m107.028 516.858c-1.949 1.525-4.733 1.162-6.225-.745-1.4921-1.908-1.1741-4.697.775-6.221 1.949-1.525 4.732-1.163 6.224.745 1.493 1.907 1.175 4.696-.774 6.221zm-10.1285 2.309c3.1985 4.088 9.1065 4.81 13.1955 1.611 4.088-3.199 4.81-9.106 1.611-13.195s-9.106-4.81-13.1951-1.612c-4.0887 3.199-4.8102 9.107-1.6114 13.196z"/><path d="m726.449 806.801c-2.962 2.317-7.191 1.766-9.457-1.131-2.267-2.897-1.784-7.134 1.178-9.452 2.962-2.317 7.191-1.766 9.457 1.131 2.267 2.897 1.784 7.135-1.178 9.452zm-16.107 4.071c5.171 6.61 14.72 7.776 21.33 2.605 6.609-5.171 7.776-14.721 2.605-21.33-5.171-6.61-14.721-7.776-21.33-2.605-6.61 5.171-7.776 14.721-2.605 21.33z"/><path d="m426.051 232.354c1.337-1.436 3.563-1.498 4.969-.188 1.407 1.31 1.503 3.534.166 4.971-1.338 1.436-3.564 1.498-4.97.188s-1.503-3.535-.165-4.971zm7.402-2.8c-2.867-2.67-7.356-2.51-10.026.357s-2.51 7.355.357 10.025 7.355 2.511 10.025-.356 2.511-7.356-.356-10.026z"/><path d="m585.238 216.227c.809-.869 2.158-.907 3.011-.113s.91 2.142.101 3.011c-.81.87-2.159.908-3.011.114-.853-.795-.911-2.143-.101-3.012zm4.012-1.189c-1.457-1.357-3.738-1.275-5.094.181-1.357 1.457-1.276 3.738.181 5.095s3.738 1.276 5.095-.181c1.356-1.457 1.275-3.738-.182-5.095z"/><path d="m612.637 134.465c2.856-3.066 7.604-3.195 10.603-.403 2.998 2.792 3.206 7.538.35 10.604-2.855 3.066-7.604 3.196-10.602.404-2.998-2.793-3.206-7.539-.351-10.605zm17.149-7.432c-6.922-6.447-17.759-6.061-24.205.861-6.447 6.922-6.061 17.759.861 24.205s17.759 6.061 24.205-.861 6.061-17.759-.861-24.205z"/><path d="m355.498 582.569c1.139-1.223 3.034-1.275 4.231-.16 1.198 1.115 1.28 3.009.142 4.232-1.139 1.222-3.034 1.275-4.232.16-1.197-1.116-1.279-3.01-.141-4.232zm6.124-2.192c-2.335-2.175-5.991-2.045-8.166.29s-2.045 5.991.291 8.166c2.335 2.175 5.991 2.045 8.166-.29 2.174-2.336 2.044-5.992-.291-8.166z"/><path d="m456.923 125.724c1.394-1.497 3.714-1.562 5.18-.197 1.466 1.366 1.567 3.684.173 5.181-1.395 1.497-3.715 1.562-5.18.197-1.466-1.365-1.567-3.684-.173-5.181zm7.766-2.973c-3.018-2.811-7.744-2.643-10.555.375-2.811 3.019-2.643 7.744.376 10.555 3.018 2.811 7.744 2.643 10.555-.375 2.81-3.019 2.642-7.744-.376-10.555z"/><path d="m166.975 78.1341c16.396-17.6049 43.649-18.3423 60.848-2.3251s18.4 43.254 2.004 60.859c-16.395 17.605-43.649 18.343-60.847 2.325-17.199-16.017-18.4-43.2539-2.005-60.8589zm104.093-48.7605c-43.093-40.1329-110.561-37.73282-150.694 5.3606-40.1331 43.0935-37.7331 110.5618 5.36 150.6948 43.094 40.133 110.562 37.733 150.695-5.361 40.133-43.093 37.733-110.5616-5.361-150.6944z"/><path d="m58.9405 555.175c4.4993-4.831 11.9802-5.035 16.7025-.637s5.0508 11.874.5515 16.705c-4.4992 4.832-11.9801 5.035-16.7024.637s-5.0508-11.874-.5516-16.705zm27.7042-12.45c-11.3133-10.536-29.0256-9.906-39.5617 1.407-10.536 11.313-9.9059 29.026 1.4074 39.562 11.3132 10.536 29.0256 9.906 39.5617-1.408 10.536-11.313 9.9059-29.025-1.4074-39.561z"/><path d="m447.83 576.523c3.659-3.929 9.743-4.095 13.585-.517 3.841 3.577 4.108 9.658.449 13.587-3.66 3.929-9.744 4.095-13.585.517-3.841-3.577-4.108-9.658-.449-13.587zm22.309-9.885c-9.069-8.446-23.267-7.941-31.713 1.128-8.445 9.069-7.94 23.267 1.128 31.713 9.069 8.445 23.267 7.94 31.713-1.129 8.446-9.068 7.941-23.267-1.128-31.712z"/><path d="m644.158 748.371c-7.73-7.198-19.947-6.9-27.277.97-7.329 7.871-6.759 20.078.97 27.277 7.73 7.198 19.947 6.9 27.277-.97 7.33-7.871 6.759-20.079-.97-27.277z"/><path d="m240.908 846.607c-3.764-3.506-9.715-3.36-13.284.473-3.57 3.833-3.293 9.779.472 13.285s9.715 3.36 13.285-.473 3.292-9.779-.473-13.285z"/><path d="m452.622 177.377c-2.314-2.156-5.972-2.066-8.166.29s-2.024 6.011.291 8.166c2.314 2.156 5.972 2.065 8.166-.29 2.194-2.356 2.024-6.011-.291-8.166z"/><path d="m227.292 184.898c-1.471-1.37-3.794-1.312-5.188.184-1.393 1.497-1.285 3.818.185 5.188 1.47 1.369 3.794 1.311 5.187-.185 1.394-1.496 1.286-3.818-.184-5.187z"/><path d="m795.566 874.176c-6.085-5.667-15.704-5.432-21.475.764-5.77 6.197-5.321 15.808.764 21.475 6.086 5.668 15.705 5.433 21.475-.764 5.771-6.196 5.322-15.807-.764-21.475z"/><path d="m576.652 401.284c-5.505-5.127-14.207-4.914-19.428.691-5.22 5.606-4.814 14.301.692 19.428 5.505 5.127 14.207 4.914 19.427-.691 5.22-5.606 4.814-14.301-.691-19.428z"/><path d="m314.645 472.725c-11.211-10.441-28.931-10.008-39.562 1.407s-9.803 29.121 1.407 39.562c11.211 10.44 28.931 10.008 39.562-1.408 10.631-11.415 9.803-29.121-1.407-39.561z"/><path d="m555.031 212.182c-.671-.625-1.73-.598-2.365.084s-.586 1.74.084 2.365c.671.624 1.73.597 2.365-.085.635-.681.587-1.74-.084-2.364z"/><path d="m380.492 510.243c-11.113-10.351-28.681-9.922-39.22 1.395-10.54 11.317-9.719 28.87 1.395 39.22s28.681 9.922 39.22-1.395c10.54-11.317 9.719-28.87-1.395-39.22z"/><path d="m304.574 907.736c-.381-.355-.981-.339-1.341.047-.36.387-.333.987.048 1.341.38.355.981.339 1.34-.047.36-.387.333-.987-.047-1.341z"/><path d="m423.484 517.04c-.323-.302-.834-.288-1.14.04-.306.329-.284.839.04 1.141.324.301.835.288 1.141-.041.306-.328.283-.839-.041-1.14z"/><path d="m717.765 910.259c-3.722 2.911-9.035 2.218-11.882-1.421-2.847-3.64-2.242-8.963 1.48-11.875 3.723-2.912 9.035-2.218 11.882 1.421 2.848 3.639 2.242 8.963-1.48 11.875zm-20.591 5.392c6.649 8.501 18.931 10 27.431 3.35 8.5-6.649 10-18.931 3.35-27.431s-18.931-10-27.431-3.35-10 18.931-3.35 27.431z"/><path d="m95.6927 944.949c-1.1431.895-2.7768.682-3.6533-.438s-.6892-2.757.4539-3.651c1.1431-.895 2.7768-.683 3.6533.438.8765 1.12.6892 2.757-.4539 3.651zm-5.3728.907c1.6302 2.084 4.6411 2.452 6.725.822 2.0838-1.631 2.4515-4.642.8212-6.725-1.6302-2.084-4.6411-2.452-6.725-.822-2.0838 1.631-2.4515 4.641-.8212 6.725z"/><path d="m697.155 612.821c.847-.909 2.256-.949 3.147-.119s.952 2.239.106 3.147c-.847.909-2.256.949-3.147.119s-.952-2.239-.106-3.147zm4.248-1.301c-1.555-1.447-3.988-1.361-5.436.194-1.448 1.554-1.361 3.988.193 5.436 1.555 1.447 3.988 1.361 5.436-.194 1.448-1.554 1.361-3.988-.193-5.436z"/><path d="m344.168 466.562c20.927-22.47 55.711-23.41 77.661-2.968 21.951 20.443 23.484 55.205 2.558 77.675s-55.71 23.411-77.661 2.968c-21.95-20.442-23.484-55.205-2.558-77.675zm133.186-62.589c-55.197-51.405-141.615-48.331-193.019 6.866-51.405 55.197-48.331 141.615 6.866 193.02s141.615 48.33 193.02-6.867c51.404-55.196 48.33-141.614-6.867-193.019z"/><path d="m696.977 214.885c.481-.516 1.283-.54 1.791-.066.508.473.542 1.274.061 1.791-.481.516-1.283.54-1.791.066-.508-.473-.542-1.274-.061-1.791zm1.902-.185c-.579-.539-1.485-.507-2.024.072-.539.578-.506 1.484.072 2.023.579.539 1.485.507 2.024-.072.538-.578.506-1.484-.072-2.023z"/><path d="m440.83 122.523c3.659-3.929 9.743-4.095 13.585-.517 3.841 3.577 4.108 9.658.449 13.587-3.66 3.929-9.744 4.095-13.585.517-3.841-3.577-4.108-9.658-.449-13.587zm22.309-9.885c-9.069-8.446-23.267-7.941-31.713 1.128-8.445 9.069-7.94 23.267 1.128 31.713 9.069 8.445 23.267 7.94 31.713-1.129 8.446-9.068 7.941-23.267-1.128-31.712z"/><path d="m398.898 355.807c3.184-3.419 8.479-3.563 11.822-.45s3.575 8.406.391 11.825-8.479 3.563-11.822.45c-3.343-3.114-3.575-8.406-.391-11.825zm19.26-8.436c-7.8-7.264-20.013-6.83-27.277.97s-6.83 20.013.97 27.277c7.801 7.264 20.013 6.83 27.277-.97 7.264-7.801 6.83-20.013-.97-27.277z"/><path d="m283.334 154.756c1.211-1.301 3.228-1.357 4.502-.17 1.274 1.186 1.362 3.202.15 4.503-1.211 1.301-3.228 1.357-4.502.17s-1.362-3.202-.15-4.503zm6.593-2.415c-2.53-2.357-6.492-2.216-8.849.314-2.356 2.531-2.215 6.492.315 8.849 2.531 2.357 6.492 2.216 8.849-.315 2.356-2.53 2.215-6.492-.315-8.848z"/></g><path d="m399.401 775.573c.344.32.883.302 1.204-.043l-1.464-1.363c.434-.466 1.161-.488 1.623-.058zm-.043-1.204c-.321.345-.301.883.043 1.204l1.363-1.464c.462.431.491 1.157.057 1.623zm1.203-.042c-.343-.32-.882-.303-1.203.042l1.463 1.363c-.434.466-1.16.489-1.623.058zm.044 1.203c.321-.344.3-.883-.044-1.203l-1.363 1.463c-.462-.43-.491-1.157-.057-1.623zm-1.051-.122c.253.236.65.222.886-.031l-1.464-1.363c.517-.555 1.386-.586 1.941-.069zm-.031-.885c-.236.253-.222.649.031.885l1.363-1.463c.555.517.586 1.386.069 1.941zm.885-.032c-.253-.236-.649-.222-.885.032l1.463 1.363c-.517.555-1.386.586-1.941.069zm.032.886c.236-.253.221-.65-.032-.886l-1.363 1.464c-.555-.517-.586-1.386-.069-1.941z"/><path d="m145.912 743.93c3.623-3.89 9.646-4.054 13.449-.513 3.803 3.542 4.067 9.562.445 13.452-3.623 3.89-9.647 4.054-13.449.512-3.803-3.541-4.067-9.561-.445-13.451zm22.075-9.774c-8.972-8.355-23.017-7.856-31.372 1.116-8.355 8.971-7.855 23.016 1.116 31.371s23.017 7.855 31.372-1.116c8.354-8.971 7.855-23.017-1.116-31.371z" stroke="#552143"/><path d="m836.994 308.715c-3.185-2.966-8.218-2.842-11.237.4-3.02 3.242-2.785 8.271.399 11.237 3.185 2.966 8.218 2.842 11.238-.4 3.019-3.242 2.785-8.271-.4-11.237z" stroke="#552143"/><path d="m746.518 245.535c-4.152-3.866-10.713-3.705-14.65.522-3.936 4.226-3.63 10.783.521 14.649 4.152 3.867 10.714 3.706 14.65-.521 3.937-4.226 3.631-10.783-.521-14.65z" stroke="#552143"/><path d="m768.102 642.171c-11.501-10.711-29.679-10.267-40.585 1.444-10.907 11.71-10.057 29.875 1.443 40.585 11.501 10.71 29.679 10.267 40.586-1.444 10.906-11.711 10.057-29.875-1.444-40.585z" stroke="#552143"/><path d="m531.407 256.135c-11.694-10.891-30.178-10.44-41.268 1.468s-10.226 30.377 1.468 41.268c11.694 10.89 30.178 10.44 41.268-1.468s10.226-30.378-1.468-41.268z" stroke="#552143"/><path d="m658.92 271.781c-8.213-7.648-21.195-7.331-28.983 1.031-7.788 8.363-7.182 21.334 1.031 28.983s21.195 7.332 28.983-1.031 7.182-21.334-1.031-28.983z" stroke="#552143"/><path d="m87.1561 539.96c-2.0188-1.88-5.209-1.801-7.1226.254-1.9135 2.054-1.7654 5.242.2534 7.122 2.0187 1.88 5.209 1.802 7.1226-.253 1.9135-2.055 1.7653-5.243-.2534-7.123z" stroke="#552143"/><path d="m303.098 486.556c-1.348-1.255-3.477-1.202-4.754.169-1.276 1.371-1.178 3.499.17 4.754 1.347 1.255 3.476 1.202 4.753-.169s1.178-3.499-.169-4.754z" stroke="#552143"/><path d="m248.975 636.982c-4.441-4.137-11.462-3.965-15.673.557-4.212 4.522-3.884 11.537.557 15.674 4.442 4.136 11.462 3.965 15.674-.558 4.211-4.522 3.884-11.537-.558-15.673z" stroke="#552143"/><path d="m215.256 243.222c-2.716-2.53-7.01-2.425-9.585.341-2.576 2.765-2.376 7.055.341 9.586 2.716 2.53 7.01 2.424 9.585-.341 2.576-2.766 2.376-7.056-.341-9.586z" stroke="#552143"/><path d="m388.86 771.966c-1.831-1.705-4.724-1.633-6.46.23-1.735 1.864-1.601 4.755.23 6.46s4.724 1.634 6.46-.23c1.735-1.863 1.601-4.754-.23-6.46z" stroke="#552143"/><path d="m689.414 845.694c-5.989-5.577-15.455-5.346-21.134.752s-5.237 15.556.752 21.134c5.989 5.577 15.455 5.346 21.134-.752s5.237-15.556-.752-21.134z" stroke="#552143"/><path d="m333.202 245.852c-.178-.227-.505-.267-.73-.091l1.232 1.576c-.647.506-1.577.388-2.077-.252zm-.088.731c.226-.176.266-.503.088-.731l-1.575 1.233c-.501-.64-.392-1.571.255-2.077zm-.73-.091c.178.228.505.267.73.091l-1.232-1.575c.647-.506 1.577-.388 2.077.252zm.088-.731c-.226.177-.266.504-.088.731l1.575-1.232c.501.64.392 1.57-.255 2.077zm.158.539c.07.09.201.106.291.036l1.232 1.575c-.96.751-2.347.582-3.098-.379zm.035-.291c-.09.071-.106.201-.035.291l-1.575 1.232c-.752-.96-.582-2.347.378-3.098zm.291.036c-.07-.091-.201-.106-.291-.036l-1.232-1.575c.96-.751 2.347-.582 3.099.378zm-.035.291c.09-.071.106-.201.035-.291l1.576-1.233c.751.96.581 2.348-.379 3.099z"/><path d="m831.256 822.244c-2.498 1.954-6.064 1.489-7.976-.955-1.911-2.443-1.504-6.016.993-7.971 2.498-1.954 6.064-1.489 7.976.955 1.912 2.443 1.505 6.017-.993 7.971zm-13.367 3.263c4.267 5.454 12.148 6.417 17.602 2.15s6.416-12.148 2.149-17.602-12.147-6.417-17.601-2.15-6.417 12.148-2.15 17.602z" stroke="#552143"/><path d="m534.855 842.44c1.869-2.007 4.979-2.093 6.943-.264 1.963 1.829 2.099 4.937.23 6.944s-4.979 2.092-6.942.263c-1.964-1.829-2.1-4.936-.231-6.943zm10.816-4.423c-4.287-3.992-10.999-3.753-14.992.534-3.992 4.287-3.753 10.998.534 14.991 4.287 3.992 10.998 3.754 14.991-.533 3.992-4.287 3.753-10.999-.533-14.992z" stroke="#552143"/><path d="m671.305 835.611c1.224-1.314 3.262-1.371 4.55-.172 1.288 1.2 1.376 3.237.152 4.552-1.225 1.314-3.263 1.371-4.551.172-1.288-1.2-1.376-3.237-.151-4.552zm6.676-2.455c-2.565-2.388-6.581-2.246-8.97.32-2.389 2.565-2.246 6.581.319 8.969 2.565 2.389 6.581 2.246 8.97-.319s2.246-6.581-.319-8.97z" stroke="#552143"/><path d="m399.419 278.491c3.842-4.125 10.23-4.299 14.263-.543 4.032 3.755 4.313 10.139.471 14.265-3.842 4.125-10.23 4.299-14.263.543-4.032-3.756-4.312-10.14-.471-14.265zm23.482-10.443c-9.557-8.9-24.519-8.368-33.419 1.189-8.9 9.556-8.368 24.519 1.189 33.419s24.519 8.368 33.419-1.189 8.368-24.519-1.189-33.419z" stroke="#552143"/><path d="m792.816 724.401c3.22-3.458 8.576-3.605 11.958-.456 3.381 3.15 3.616 8.502.395 11.961-3.221 3.458-8.576 3.604-11.958.455-3.381-3.149-3.616-8.502-.395-11.96zm19.494-8.548c-7.898-7.355-20.263-6.915-27.618.983-7.355 7.897-6.915 20.262.983 27.617s20.262 6.916 27.617-.982c7.356-7.898 6.916-20.263-.982-27.618z" stroke="#552143"/><path d="m716.987 392.04c1.366-1.467 3.639-1.53 5.075-.192 1.436 1.337 1.534 3.609.169 5.075-1.366 1.467-3.639 1.53-5.075.192-1.436-1.337-1.535-3.609-.169-5.075zm7.584-2.886c-2.943-2.741-7.55-2.577-10.29.366-2.74 2.942-2.576 7.549.366 10.289 2.943 2.74 7.549 2.577 10.29-.366 2.74-2.942 2.576-7.549-.366-10.289z" stroke="#552143"/><path d="m283.519 362.349c6.91-7.42 18.398-7.732 25.649-.979 7.251 6.752 7.756 18.234.846 25.654s-18.398 7.731-25.649.979c-7.251-6.753-7.756-18.234-.846-25.654zm43.185-19.809c-17.754-16.535-45.55-15.546-62.084 2.208-16.535 17.754-15.546 45.55 2.208 62.085 17.754 16.534 45.551 15.545 62.085-2.209s15.545-45.55-2.209-62.084z" stroke="#552143"/><path d="m345.198 691.188c2.161-2.321 5.756-2.419 8.027-.305 2.27 2.114 2.427 5.707.266 8.028s-5.757 2.42-8.027.305c-2.27-2.114-2.427-5.707-.266-8.028zm12.692-5.314c-5.068-4.72-13.002-4.437-17.721.63-4.72 5.068-4.438 13.002.63 17.721 5.068 4.72 13.002 4.438 17.721-.63 4.72-5.068 4.438-13.002-.63-17.721z" stroke="#552143"/><path d="m412.298 555.046c5.229-5.616 13.925-5.852 19.413-.741 5.489 5.112 5.871 13.802.641 19.417-5.23 5.616-13.925 5.852-19.414.741-5.488-5.112-5.87-13.802-.64-19.417zm32.395-14.68c-13.265-12.354-34.033-11.615-46.387 1.65-12.353 13.265-11.615 34.033 1.65 46.387 13.265 12.353 34.034 11.614 46.387-1.651 12.354-13.265 11.615-34.033-1.65-46.386z" stroke="#552143"/><path d="m353.719 258.658c-6.182-5.757-15.954-5.518-21.816.776-5.863 6.295-5.407 16.059.776 21.817 6.182 5.757 15.954 5.518 21.816-.776 5.862-6.295 5.406-16.059-.776-21.817z" stroke="#552143"/><path d="m87.2133 910.571c-3.9583-3.686-10.2144-3.533-13.9674.497-3.7531 4.03-3.4614 10.281.4968 13.968 3.9583 3.686 10.2144 3.533 13.9674-.497 3.7531-4.03 3.4614-10.281-.4968-13.968z" stroke="#552143"/><path d="m886.009 95.9628c-25.2-23.4691-65.035-22.4989-88.935 3.1637-23.899 25.6625-22.036 65.4655 3.164 88.9345 25.2 23.47 65.036 22.499 88.935-3.163 23.9-25.663 22.037-65.466-3.164-88.9352z" stroke="#552143"/><path d="m442.492 137.243c-11.113-10.351-28.681-9.922-39.22 1.395-10.54 11.317-9.719 28.87 1.395 39.22s28.681 9.922 39.22-1.395c10.54-11.317 9.719-28.87-1.395-39.22z" stroke="#552143"/><path d="m305.143 779.252c-19.139-17.824-49.393-17.087-67.545 2.403-18.151 19.49-16.736 49.72 2.403 67.545 19.14 17.824 49.394 17.087 67.545-2.403s16.737-49.72-2.403-67.545z" stroke="#552143"/><path d="m198.749 431.566c-9.373-8.729-24.189-8.368-33.078 1.177-8.889 9.544-8.197 24.348 1.177 33.077 9.373 8.73 24.189 8.368 33.077-1.176 8.889-9.545 8.197-24.349-1.176-33.078z" stroke="#552143"/><path d="m126.864 783.581c-11.984-11.161-30.9269-10.699-42.2917 1.504-11.3648 12.204-10.4796 31.132 1.5045 42.292 11.984 11.161 30.9272 10.699 42.2922-1.504 11.364-12.203 10.479-31.131-1.505-42.292z" stroke="#552143"/><path d="m540.555 517.002c-1.637-1.525-4.225-1.461-5.777.206-1.552 1.666-1.432 4.252.205 5.777 1.638 1.525 4.226 1.461 5.778-.205 1.552-1.667 1.432-4.253-.206-5.778z" stroke="#552143"/><path d="m502.083 176.437c-12.757-11.881-32.923-11.389-45.021 1.602-12.099 12.991-11.156 33.141 1.601 45.022 12.758 11.881 32.924 11.389 45.022-1.602s11.156-33.141-1.602-45.022z" stroke="#552143"/><path d="m683.18 139.719c-16.625-15.483-42.905-14.843-58.672 2.087s-14.538 43.189 2.087 58.672c16.626 15.484 42.906 14.843 58.672-2.087 15.767-16.93 14.539-43.189-2.087-58.672z" stroke="#552143"/><path d="m381.242 822.074c-4.611-4.294-11.899-4.115-16.271.579-4.372 4.695-4.032 11.977.579 16.272 4.611 4.294 11.899 4.116 16.271-.579s4.032-11.977-.579-16.272z" stroke="#552143"/><path d="m559.814 240.777c-10.806 8.454-26.224 6.438-34.484-4.12s-6.506-26.008 4.3-34.462 26.224-6.438 34.484 4.12 6.506 26.008-4.3 34.462zm-62.393 17.714c20.437 26.124 58.183 30.734 84.306 10.296 26.124-20.437 30.734-58.183 10.296-84.306-20.437-26.124-58.183-30.734-84.306-10.296-26.124 20.437-30.734 58.183-10.296 84.306z" stroke="#552143"/><path d="m737.526 722.029c-12.767 9.989-30.984 7.607-40.743-4.867s-7.687-30.729 5.081-40.717c12.767-9.989 30.984-7.607 40.743 4.867s7.687 30.729-5.081 40.717zm-73.97 21.127c24.256 31.004 69.054 36.475 100.058 12.219 31.004-24.255 36.475-69.053 12.219-100.057-24.255-31.005-69.053-36.475-100.057-12.22-31.005 24.256-36.475 69.054-12.22 100.058z" stroke="#552143"/><path d="m98.841 839.317c1.431-1.536 3.812-1.602 5.316-.201s1.607 3.78.176 5.316c-1.43 1.537-3.811 1.603-5.3151.202-1.5042-1.401-1.6076-3.78-.1769-5.317zm8-3.084c-3.115-2.902-7.9937-2.728-10.8956.388-2.9018 3.115-2.7283 7.994.3876 10.896 3.1159 2.901 7.994 2.728 10.896-.388s2.728-7.994-.388-10.896z" stroke="#552143"/><path d="m831.182 872.058c1.724-1.85 4.592-1.93 6.403-.243s1.936 4.553.212 6.404c-1.723 1.851-4.591 1.93-6.402.243s-1.936-4.553-.213-6.404zm9.882-3.978c-3.899-3.631-10.002-3.413-13.633.485-3.63 3.898-3.413 10.002.485 13.632 3.899 3.631 10.002 3.414 13.633-.485 3.63-3.898 3.413-10.001-.485-13.632z" stroke="#552143"/><path d="m793.034 124.375c2.234-2.399 5.951-2.501 8.298-.315 2.347 2.185 2.509 5.9.275 8.299-2.235 2.399-5.951 2.501-8.298.316-2.347-2.186-2.51-5.901-.275-8.3zm13.161-5.537c-5.263-4.901-13.503-4.608-18.404.655-4.901 5.262-4.608 13.502.655 18.403 5.262 4.902 13.502 4.609 18.403-.654 4.902-5.263 4.609-13.503-.654-18.404z" stroke="#552143"/><path d="m408.173 240.272c3.951-4.243 10.521-4.422 14.669-.559 4.148 3.862 4.436 10.429.485 14.671-3.952 4.243-10.522 4.422-14.67.559-4.147-3.862-4.436-10.429-.484-14.671zm24.185-10.778c-9.849-9.173-25.27-8.624-34.442 1.225-9.173 9.85-8.625 25.27 1.225 34.443 9.849 9.173 25.27 8.624 34.443-1.225 9.172-9.85 8.624-25.27-1.226-34.443z" stroke="#552143"/><path d="m505.992 482.115c1.808-1.941 4.817-2.024 6.717-.255 1.9 1.77 2.031 4.777.223 6.718-1.809 1.942-4.817 2.025-6.717.255-1.9-1.769-2.032-4.776-.223-6.718zm10.425-4.237c-4.125-3.841-10.582-3.611-14.424.513-3.841 4.125-3.611 10.583.513 14.424 4.125 3.842 10.583 3.612 14.424-.513 3.842-4.124 3.612-10.582-.513-14.424z" stroke="#552143"/><path d="m654.663 558.382c1.065-1.144 2.839-1.194 3.96-.15s1.197 2.817.132 3.961c-1.066 1.144-2.839 1.193-3.96.149s-1.198-2.816-.132-3.96zm5.654-1.969c-2.14-1.994-5.49-1.874-7.483.266s-1.874 5.49.266 7.483 5.491 1.874 7.484-.266 1.873-5.49-.267-7.483z" stroke="#552143"/><path d="m528.425 443.386c.327.304.838.287 1.143-.04l-1.464-1.363c.45-.484 1.205-.507 1.684-.061zm-.041-1.142c-.304.327-.285.838.041 1.142l1.363-1.464c.48.447.51 1.201.06 1.685zm1.142-.04c-.326-.304-.838-.287-1.142.04l1.464 1.363c-.451.484-1.205.507-1.685.061zm.042 1.142c.304-.327.285-.838-.042-1.142l-1.363 1.464c-.48-.447-.51-1.201-.059-1.685zm-.945-.173c.209.195.536.183.731-.026l-1.463-1.363c.558-.599 1.496-.632 2.095-.074zm-.026-.73c-.194.209-.183.536.026.73l1.363-1.463c.6.558.633 1.496.075 2.096zm.731-.026c-.209-.195-.536-.183-.731.026l1.464 1.363c-.558.599-1.497.632-2.096.074zm.026.73c.195-.209.183-.536-.026-.73l-1.363 1.463c-.599-.558-.633-1.496-.074-2.096z"/><path d="m621.219 259.968c7.933-8.518 21.121-8.876 29.444-1.124 8.324 7.751 8.904 20.932.971 29.45s-21.121 8.876-29.445 1.124c-8.323-7.752-8.903-20.932-.97-29.45zm49.753-22.931c-20.486-19.079-52.561-17.938-71.64 2.548-19.079 20.487-17.938 52.561 2.549 71.64 20.486 19.079 52.561 17.938 71.64-2.548 19.079-20.487 17.938-52.561-2.549-71.64z" stroke="#552143"/><path d="m725.716 302.714c-22.041-20.527-56.88-19.678-77.783 2.767-20.902 22.444-19.273 57.256 2.767 77.782 22.041 20.526 56.88 19.678 77.783-2.767 20.902-22.444 19.273-57.256-2.767-77.782z" stroke="#552143"/><path d="m227.34 485.761c-11.017-10.261-28.432-9.836-38.879 1.383-10.448 11.218-9.634 28.619 1.383 38.879s28.431 9.835 38.879-1.383c10.448-11.219 9.634-28.619-1.383-38.879z" stroke="#552143"/><path d="m532.317 455.413c-2.121-1.976-5.473-1.893-7.483.266-2.011 2.159-1.855 5.508.266 7.483 2.121 1.976 5.473 1.893 7.484-.266 2.01-2.159 1.854-5.508-.267-7.483z" stroke="#552143"/><path d="m896.244 588.915c-25.201-23.469-65.036-22.498-88.935 3.164-23.9 25.663-22.037 65.466 3.163 88.935 25.201 23.469 65.036 22.499 88.935-3.164 23.9-25.662 22.037-65.465-3.163-88.935z" stroke="#552143"/><path d="m554.121 121.284c-3.265-3.04-8.426-2.914-11.521.41-3.096 3.324-2.856 8.481.409 11.521 3.265 3.041 8.426 2.914 11.521-.41 3.096-3.323 2.856-8.48-.409-11.521z" stroke="#552143"/><path d="m867.362 310.109c-19.913-18.545-51.39-17.778-70.274 2.5-18.885 20.278-17.414 51.729 2.499 70.274 19.914 18.545 51.39 17.779 70.275-2.499s17.414-51.73-2.5-70.275z" stroke="#552143"/><path d="m371.808 174.381c-15.755-14.673-40.659-14.066-55.6 1.978-14.942 16.043-13.778 40.928 1.978 55.6 15.755 14.673 40.659 14.066 55.6-1.977 14.942-16.044 13.778-40.928-1.978-55.601z" stroke="#552143"/><path d="m624.868 255.196c-22.137-20.617-57.129-19.764-78.124 2.779-20.994 22.543-19.358 57.507 2.779 78.124 22.138 20.616 57.13 19.763 78.124-2.78 20.994-22.542 19.358-57.507-2.779-78.123z" stroke="#552143"/><path d="m709.406 563.307c-.274-.256-.706-.244-.965.034s-.24.71.034.965.706.243.965-.035c.259-.277.24-.709-.034-.964z" stroke="#552143"/><path d="m494.128 776.464c-4.539-4.227-11.712-4.051-16.015.569-4.303 4.621-3.969 11.789.57 16.015 4.538 4.227 11.711 4.051 16.014-.569 4.304-4.621 3.969-11.789-.569-16.015z" stroke="#552143"/><path d="m193.273 572.386c-10.34-9.63-26.685-9.231-36.49 1.298-9.806 10.529-9.043 26.861 1.298 36.491 10.34 9.63 26.684 9.231 36.49-1.298s9.042-26.861-1.298-36.491z" stroke="#552143"/><path d="m775.385 265.289c-2.808 2.197-6.817 1.674-8.966-1.072-2.149-2.747-1.691-6.764 1.117-8.961s6.817-1.674 8.966 1.073c2.148 2.747 1.691 6.764-1.117 8.96zm-15.198 3.804c4.871 6.226 13.867 7.325 20.093 2.454 6.226-4.872 7.325-13.868 2.454-20.094s-13.867-7.325-20.093-2.454c-6.227 4.871-7.325 13.867-2.454 20.094z" stroke="#552143"/><path d="m95.4485 305.186c-.5558.435-1.3517.332-1.7795-.215-.4277-.546-.3356-1.344.2202-1.778.5558-.435 1.3517-.333 1.7795.214.4277.547.3356 1.344-.2202 1.779zm-1.9072-.115c.4872.623 1.3869.733 2.0097.246s.7326-1.387.2454-2.01-1.387-.733-2.0097-.245c-.6228.487-.7326 1.387-.2454 2.009z" stroke="#552143"/><path d="m538.547 420.915c2.006-2.154 5.343-2.246 7.451-.283s2.253 5.298.247 7.452-5.343 2.246-7.451.283c-2.107-1.963-2.253-5.298-.247-7.452zm11.695-4.841c-4.653-4.333-11.938-4.074-16.271.579s-4.074 11.938.579 16.272c4.653 4.333 11.938 4.074 16.271-.579s4.074-11.938-.579-16.272z" stroke="#552143"/><path d="m257.958 283.626c7.604-8.165 20.246-8.508 28.225-1.078 7.979 7.431 8.535 20.065.93 28.231-7.604 8.165-20.246 8.508-28.224 1.077-7.979-7.431-8.535-20.065-.931-28.23zm47.642-21.928c-19.608-18.261-50.307-17.169-68.568 2.44-18.261 19.608-17.169 50.307 2.439 68.568s50.307 17.169 68.569-2.439c18.261-19.608 17.169-50.307-2.44-68.569z" stroke="#552143"/><path d="m650.598 221.427c4.207-4.518 11.202-4.708 15.618-.596 4.416 4.113 4.723 11.104.516 15.621s-11.203 4.708-15.618.595c-4.416-4.112-4.723-11.103-.516-15.62zm25.827-11.559c-10.532-9.809-27.022-9.222-36.831 1.311-9.809 10.532-9.223 27.022 1.31 36.831s27.023 9.223 36.832-1.31 9.222-27.023-1.311-36.832z" stroke="#552143"/><path d="m89.465 388.187c7.8235-8.4 20.83-8.753 29.038-1.108 8.209 7.644 8.781 20.643.958 29.043-7.824 8.401-20.8298 8.754-29.0385 1.109s-8.781-20.643-.9575-29.044zm49.05-22.596c-20.194-18.807-51.8098-17.682-70.6162 2.512-18.8064 20.193-17.6818 51.809 2.512 70.616 20.1938 18.806 51.8092 17.682 70.6162-2.512 18.806-20.194 17.682-51.81-2.512-70.616z" stroke="#552143"/><path d="m469.697 813.284c7.276-7.812 19.371-8.14 27.005-1.031 7.634 7.11 8.166 19.198.891 27.01-7.276 7.812-19.371 8.141-27.005 1.031s-8.166-19.198-.891-27.01zm45.532-20.924c-18.73-17.443-48.054-16.4-65.498 2.33-17.443 18.73-16.4 48.054 2.33 65.497s48.054 16.4 65.498-2.33c17.443-18.73 16.4-48.054-2.33-65.497z" stroke="#552143"/><path d="m106.369 349.658c7.421-7.969 19.759-8.304 27.547-1.051 7.787 7.252 8.33 19.583.908 27.552-7.421 7.969-19.76 8.304-27.547 1.052-7.7872-7.253-8.33-19.584-.908-27.553zm46.469-21.37c-19.12-17.806-49.055-16.742-66.862 2.379-17.8067 19.12-16.7418 49.055 2.3785 66.862 19.1205 17.807 49.0555 16.742 66.8625-2.378 17.806-19.121 16.742-49.056-2.379-66.863z" stroke="#552143"/><path d="m325.094 616.194c6.654-7.145 17.717-7.446 24.7-.943s7.469 17.56.815 24.705c-6.655 7.145-17.718 7.446-24.701.943-6.982-6.503-7.469-17.56-.814-24.705zm41.543-19.029c-17.07-15.898-43.797-14.947-59.695 2.124-15.899 17.071-14.948 43.798 2.123 59.696s43.798 14.947 59.696-2.124 14.947-43.798-2.124-59.696z" stroke="#552143"/><path d="m825.512 556.691c1.577-1.693 4.201-1.765 5.858-.222 1.658 1.544 1.772 4.166.195 5.859s-4.201 1.766-5.858.222c-1.657-1.543-1.771-4.165-.195-5.859zm8.939-3.53c-3.506-3.265-8.996-3.07-12.261.436-3.265 3.507-3.07 8.996.436 12.261 3.506 3.266 8.996 3.07 12.261-.436 3.266-3.506 3.07-8.996-.436-12.261z" stroke="#552143"/><path d="m569.381 350.842c-18.656-17.374-48.146-16.656-65.838 2.342-17.693 18.998-16.314 48.464 2.342 65.839 18.656 17.374 48.145 16.655 65.838-2.342 17.693-18.998 16.314-48.465-2.342-65.839z" stroke="#552143"/><path d="m594.18 448.719c-16.625-15.483-42.905-14.843-58.672 2.087s-14.538 43.189 2.087 58.672c16.626 15.484 42.906 14.843 58.672-2.087 15.767-16.93 14.539-43.189-2.087-58.672z" stroke="#552143"/><path d="m645.024 296.622c-6.376-5.937-16.453-5.691-22.499.801s-5.575 16.561.8 22.499c6.376 5.937 16.453 5.691 22.499-.801 6.046-6.491 5.575-16.561-.8-22.499z" stroke="#552143"/><path d="m795.232 501.799c-29.15-27.147-75.228-26.025-102.874 3.66-27.645 29.685-25.491 75.727 3.66 102.874 29.15 27.147 75.228 26.025 102.874-3.659 27.645-29.685 25.49-75.727-3.66-102.875z" stroke="#552143"/><path d="m842.492 424.243c-11.113-10.351-28.681-9.922-39.22 1.395-10.54 11.317-9.719 28.87 1.395 39.22s28.681 9.922 39.22-1.395c10.54-11.317 9.719-28.87-1.395-39.22z" stroke="#552143"/><path d="m681.005 586.889c-7.632-7.108-19.697-6.814-26.935.958s-6.675 19.827.958 26.935c7.633 7.109 19.697 6.814 26.935-.958s6.675-19.827-.958-26.935z" stroke="#552143"/><path d="m666.671 838.017c-4.249-3.956-10.963-3.792-14.992.534-4.028 4.325-3.715 11.034.534 14.991 4.248 3.956 10.963 3.792 14.991-.533 4.028-4.326 3.715-11.035-.533-14.992z" stroke="#552143"/><path d="m404.25 712.038c-1.444-1.345-3.726-1.288-5.094.181-1.369 1.47-1.263 3.75.181 5.095s3.726 1.288 5.095-.181c1.368-1.47 1.263-3.75-.182-5.095z" stroke="#552143"/><path d="m864.942 587.129c-17.109-15.933-44.153-15.274-60.378 2.148s-14.961 44.445 2.148 60.379c17.109 15.933 44.153 15.274 60.378-2.148s14.961-44.445-2.148-60.379z" stroke="#552143"/><path d="m786.437 321.042c-14.885-13.862-38.414-13.288-52.53 1.869s-13.016 38.667 1.869 52.529c14.885 13.863 38.413 13.289 52.529-1.868 14.116-15.158 13.017-38.667-1.868-52.53z" stroke="#552143"/><path d="m344.258 320.267c-21.75-20.256-56.131-19.418-76.758 2.731-20.628 22.149-19.02 56.503 2.73 76.759 21.751 20.256 56.132 19.418 76.759-2.731s19.02-56.502-2.731-76.759z" stroke="#552143"/><path d="m383.374 860.824c-14.232 11.134-34.538 8.479-45.416-5.426-10.878-13.904-8.568-34.252 5.664-45.386 14.232-11.135 34.538-8.48 45.416 5.425s8.568 34.253-5.664 45.387zm-82.611 23.674c27.106 34.648 77.168 40.761 111.815 13.655 34.648-27.106 40.762-77.168 13.656-111.815-27.107-34.648-77.168-40.762-111.816-13.656s-40.761 77.168-13.655 111.816z" stroke="#552143"/><path d="m454.134 618.574c-7.015 5.488-17.025 4.18-22.388-2.675-5.364-6.856-4.224-16.887 2.791-22.375s17.025-4.18 22.388 2.676c5.364 6.855 4.224 16.886-2.791 22.374zm-40.023 11.121c13.059 16.692 37.178 19.638 53.87 6.579s19.638-37.178 6.579-53.87c-13.059-16.693-37.178-19.638-53.87-6.579s-19.638 37.177-6.579 53.87z" stroke="#552143"/><path d="m368.5 369.004-7-130.504" stroke="#552143"/><path d="m285.5 163.5-8 85.5" stroke="#552143"/><path d="m163.5 308.5 57.928 76.241" stroke="#552143"/><path d="m168.294 466.404-56.294 41.596" stroke="#552143"/><path d="m455.5 387 171-186" stroke="#552143"/><path d="m847 205-10 92m-29 124.5-37-37.5" stroke="#552143"/><path d="m627.5 527.5-118 32 41 149.5" stroke="#552143"/><path d="m509 559.5 153 98m-362-166-37.5 99" stroke="#552143"/><path d="m317.5 665.5.499.028c.01-.18-.078-.352-.23-.449-.152-.098-.345-.105-.504-.02zm-64.5-121.5.462.191.625-1.517-1.364.91zm64.265 121.059-143.5 76.5.47.882 143.5-76.5zm-.264.413-13.5 242 .998.056 13.5-242zm123.497-286.013-16-194-.996.082 16 194zm116.087-253.466 29-5-.17-.986-29 5zm-35.311 104.561-105.5 53.5.452.892 105.5-53.5zm-138.946 281.324 87-75.5-.656-.756-87 75.5zm224.854-36.912 98.5-38.5-.364-.932-98.5 38.5zm-354.459 68.618-54 36 .554.832 54-36zm-.185.225-54 131 .924.382 54-131z"/><path d="m338 515-17-10m17 10-168.5-151m168.5 151-93 6m287-263 94.5-57.5m22.5 395.5-139-36.5 115 154.5 92 85m-110-324.5 220-118.5m-96-146-47 14m0 0-44 69.5 17-54m27-15.5 30-31.5m-332 318.5v-45m78 175-105 220m-37.5-195.5-176.5 223.5m558.5-603.5 17-12.5m-17 12.5-1.5-68m1.5 68 66.5-21.5m-191 136 12-180m-12 180 51.5-78m-51.5 78 196.5 44m-196.5-44 248.5-85m-309.5 179.5 21 23m-6-63 25-39.5m65-151-63.5-49.5m-86.5 15.5-61.667 111m141.667-132.5-142.5 134 .833-1.5m0 0 69.667-39m-144.5-54.5-37.5 109.5-13.5-41.5m20 94-88.5-155m39 386.5 100.5-54-86.5 28" stroke="#552143"/><path d="m382.5 512 94.5-210" stroke="#552143"/><path d="m382 512.5 240.5-378.5" stroke="#552143"/><path d="m765.5 709.5-7-19m62.5-129-89 32.5m-66 26-31 92.5m-15.5 35-143-119.5m204 208.5 142-17.5m-52 69.5-223-37.5m-134-19.5-242-68.5m210 12-18.5-52.5m-275 128 6.5-4.5m138.5-207.5-142.5-58.5m83.5-162 56-23.5m-135-91.5 68.5-87.5m293-86-6.5 46m285 69-178.5-119" stroke="#552143"/></g></svg>