<svg xmlns="http://www.w3.org/2000/svg" viewBox="0 0 943 951">
<path fill-opacity="0"
        d="M524.255 134.678C528.17 130.475 534.679 130.297 538.788 134.124 542.898 137.951 543.183 144.457 539.269 148.66 535.354 152.864 528.844 153.041 524.735 149.214S520.34 138.882 524.255 134.678zm23.951-10.666C538.454 114.93 523.186 115.473 514.104 125.225 505.023 134.977 505.566 150.245 515.318 159.327 525.069 168.409 540.337 167.865 549.419 158.114 558.501 148.362 557.958 133.094 548.206 124.012z"
        stroke="#552143" />
      <path fill-opacity="0"
        d="M586.966 117.091C589.675 114.182 594.181 114.059 597.026 116.708 599.871 119.358 600.068 123.861 597.359 126.77 594.65 129.679 590.144 129.803 587.299 127.153 584.454 124.504 584.257 120 586.966 117.091zM603.176 110.105C596.645 104.022 586.419 104.386 580.336 110.917 574.253 117.448 574.617 127.674 581.149 133.757 587.68 139.84 597.906 139.476 603.989 132.945 610.071 126.413 609.708 116.187 603.176 110.105z"
        stroke="#552143" />
      <path fill-opacity="0"
        d="M39.7589 813.911C41.2262 812.335 43.6676 812.268 45.2101 813.704 46.7525 815.141 46.8586 817.581 45.3913 819.156 43.9241 820.732 41.4826 820.799 39.9402 819.363 38.3977 817.926 38.2916 815.486 39.7589 813.911zM47.9939 810.715C44.7804 807.722 39.7493 807.901 36.7566 811.115 33.7639 814.328 33.9428 819.359 37.1563 822.352 40.3698 825.345 45.4009 825.166 48.3937 821.952 51.3864 818.739 51.2074 813.708 47.9939 810.715z"
        stroke="#552143" />
      <path fill-opacity="0"
        d="M629.252 716.35C630.5 715.009 632.577 714.952 633.89 716.174 635.202 717.396 635.292 719.472 634.044 720.813 632.796 722.153 630.719 722.21 629.406 720.988 628.094 719.766 628.004 717.69 629.252 716.35zM636.079 713.823C633.451 711.375 629.337 711.522 626.89 714.15 624.442 716.778 624.589 720.892 627.217 723.339 629.844 725.787 633.959 725.64 636.406 723.013 638.854 720.385 638.707 716.27 636.079 713.823z"
        stroke="#552143" />
      <path fill-opacity="0"
        d="M795.459 748.53C797.949 745.856 802.09 745.743 804.706 748.178 807.321 750.614 807.502 754.753 805.012 757.427 802.522 760.1 798.38 760.214 795.765 757.778 793.15 755.343 792.969 751.204 795.459 748.53zM810.262 742.212C804.316 736.675 795.007 737.006 789.469 742.952 783.932 748.898 784.263 758.207 790.209 763.744 796.155 769.282 805.464 768.951 811.001 763.005 816.539 757.059 816.208 747.75 810.262 742.212z"
        stroke="#552143" />
      <path fill-opacity="0"
        d="M708.432 433.24C709.6 431.986 711.544 431.932 712.773 433.076 714.001 434.22 714.085 436.163 712.917 437.417 711.749 438.672 709.805 438.726 708.577 437.582 707.348 436.437 707.264 434.494 708.432 433.24zM714.745 430.958C712.331 428.709 708.552 428.844 706.303 431.258 704.055 433.672 704.19 437.452 706.604 439.7S712.797 441.814 715.046 439.4C717.294 436.986 717.16 433.206 714.745 430.958z"
        stroke="#552143" />
      <path fill-opacity="0"
        d="M811.966 801.091C814.675 798.182 819.181 798.059 822.026 800.708 824.871 803.358 825.068 807.861 822.359 810.77 819.65 813.679 815.144 813.803 812.299 811.153 809.454 808.504 809.257 804 811.966 801.091zM828.176 794.105C821.645 788.022 811.419 788.386 805.336 794.917 799.253 801.448 799.617 811.674 806.149 817.757 812.68 823.84 822.906 823.476 828.989 816.945 835.071 810.413 834.708 800.187 828.176 794.105z"
        stroke="#552143" />
      <path fill-opacity="0"
        d="M511.425 790.386C511.752 790.69 512.263 790.673 512.568 790.346L511.104 788.983C511.554 788.499 512.309 788.476 512.788 788.922L511.425 790.386zM511.384 789.244C511.08 789.571 511.099 790.082 511.425 790.386L512.788 788.922C513.268 789.369 513.298 790.123 512.848 790.607L511.384 789.244zM512.526 789.204C512.2 788.9 511.688 788.917 511.384 789.244L512.848 790.607C512.397 791.091 511.643 791.114 511.163 790.668L512.526 789.204zM512.568 790.346C512.872 790.019 512.853 789.508 512.526 789.204L511.163 790.668C510.683 790.221 510.653 789.467 511.104 788.983L512.568 790.346zM511.623 790.173C511.832 790.368 512.159 790.356 512.354 790.147L510.891 788.784C511.449 788.185 512.387 788.152 512.986 788.71L511.623 790.173zM511.597 789.443C511.403 789.652 511.414 789.979 511.623 790.173L512.986 788.71C513.586 789.268 513.619 790.206 513.061 790.806L511.597 789.443zM512.328 789.417C512.119 789.222 511.792 789.234 511.597 789.443L513.061 790.806C512.503 791.405 511.564 791.438 510.965 790.88L512.328 789.417zM512.354 790.147C512.549 789.938 512.537 789.611 512.328 789.417L510.965 790.88C510.366 790.322 510.332 789.384 510.891 788.784L512.354 790.147z"
        fill="#552143" />
      <path fill-opacity="0"
        d="M337.425 543.868C326.988 534.148 310.491 534.551 300.594 545.179 290.696 555.806 291.467 572.29 301.904 582.01S328.838 591.328 338.736 580.7C348.633 570.072 347.862 553.588 337.425 543.868z"
        stroke="#552143" />
      <path fill-opacity="0"
        d="M538.25 251.038C536.806 249.693 534.524 249.75 533.156 251.219 531.787 252.689 531.893 254.969 533.337 256.314 534.781 257.659 537.063 257.602 538.432 256.133 539.8 254.663 539.695 252.383 538.25 251.038z"
        stroke="#552143" />
      <path fill-opacity="0"
        d="M336.799 523.971C336.275 523.484 335.449 523.505 334.954 524.037 334.459 524.569 334.497 525.394 335.02 525.881 335.543 526.369 336.369 526.348 336.864 525.816 337.359 525.284 337.322 524.459 336.799 523.971z"
        stroke="#552143" />
      <path fill-opacity="0"
        d="M734.012 661.448C732.085 659.653 729.039 659.728 727.211 661.69 725.384 663.652 725.526 666.696 727.453 668.491 729.381 670.287 732.427 670.211 734.254 668.249 736.082 666.287 735.94 663.244 734.012 661.448z"
        stroke="#552143" />
      <path fill-opacity="0"
        d="M330.158 595.371C322.428 588.173 310.211 588.471 302.881 596.341 295.552 604.212 296.122 616.419 303.851 623.618 311.581 630.816 323.798 630.518 331.128 622.648 338.458 614.777 337.887 602.569 330.158 595.371z"
        stroke="#552143" />
      <path fill-opacity="0"
        d="M819.559 160.643C798.253 140.8 764.572 141.62 744.366 163.318 724.159 185.015 725.734 218.668 747.041 238.511 768.347 258.354 802.028 257.534 822.234 235.837 842.441 214.139 840.866 180.486 819.559 160.643z"
        stroke="#552143" />
      <path fill-opacity="0"
        d="M386.737 444.392C381.812 439.805 374.028 439.995 369.357 445.01 364.687 450.025 365.051 457.803 369.976 462.39S382.686 466.786 387.356 461.772C392.026 456.757 391.663 448.979 386.737 444.392z"
        stroke="#552143" />
      <path fill-opacity="0"
        d="M163.786 182.033C156.927 175.645 146.085 175.91 139.581 182.894 133.076 189.878 133.583 200.711 140.442 207.099 147.301 213.487 158.143 213.222 164.647 206.238 171.151 199.254 170.645 188.421 163.786 182.033z"
        stroke="#552143" />
      <path fill-opacity="0"
        d="M140.938 889.099C139.692 887.939 137.723 887.988 136.543 889.256 135.362 890.524 135.453 892.491 136.699 893.651 137.945 894.812 139.914 894.763 141.094 893.495 142.275 892.227 142.184 890.26 140.938 889.099z"
        stroke="#552143" />
      <path fill-opacity="0"
        d="M669.585 358.91C664.757 354.413 657.125 354.6 652.546 359.516 647.968 364.432 648.324 372.058 653.152 376.555 657.981 381.051 665.613 380.865 670.191 375.948 674.77 371.032 674.414 363.407 669.585 358.91z"
        stroke="#552143" />
      <path fill-opacity="0"
        d="M739.555 635.002C737.918 633.477 735.33 633.541 733.778 635.208 732.226 636.874 732.346 639.46 733.983 640.985 735.621 642.51 738.209 642.446 739.761 640.78 741.313 639.113 741.193 636.527 739.555 635.002z"
        stroke="#552143" />
      <path fill-opacity="0"
        d="M707.531 613.083C701.336 617.93 692.495 616.775 687.759 610.72 683.022 604.666 684.028 595.807 690.223 590.961 696.418 586.114 705.259 587.269 709.995 593.324 714.732 599.378 713.725 608.237 707.531 613.083zM672.347 622.777C683.81 637.43 704.98 640.015 719.632 628.552 734.284 617.089 736.87 595.919 725.407 581.267 713.944 566.614 692.774 564.029 678.121 575.492 663.469 586.955 660.884 608.125 672.347 622.777z"
        stroke="#552143" />
      <path fill-opacity="0"
        d="M837.221 339.03C832.402 342.801 825.523 341.903 821.837 337.191 818.151 332.48 818.935 325.587 823.755 321.817 828.574 318.046 835.453 318.944 839.139 323.656 842.825 328.367 842.041 335.26 837.221 339.03zM810.153 346.333C818.939 357.563 835.166 359.545 846.397 350.759S859.61 325.745 850.823 314.515C842.037 303.284 825.81 301.302 814.579 310.088 803.348 318.875 801.367 335.102 810.153 346.333z"
        stroke="#552143" />
      <path fill-opacity="0"
        d="M511.309 393.52C520.091 384.09 534.691 383.694 543.905 392.275 553.119 400.856 553.762 415.447 544.98 424.877 536.197 434.307 521.598 434.703 512.384 426.122 503.169 417.54 502.527 402.95 511.309 393.52zm55.206-25.523C543.76 346.805 508.134 348.072 486.943 370.827 465.751 393.582 467.018 429.208 489.773 450.4 512.528 471.592 548.154 470.324 569.346 447.569S589.27 389.188 566.515 367.997z"
        stroke="#552143" />
      <path fill-opacity="0"
        d="M299.83 410.523C303.489 406.594 309.573 406.428 313.415 410.006 317.256 413.583 317.523 419.664 313.864 423.593 310.204 427.522 304.12 427.688 300.279 424.11 296.438 420.533 296.171 414.452 299.83 410.523zM322.139 400.638C313.07 392.192 298.872 392.697 290.426 401.766 281.981 410.835 282.486 425.033 291.554 433.479 300.623 441.924 314.821 441.419 323.267 432.35 331.713 423.282 331.208 409.083 322.139 400.638z"
        stroke="#552143" />
      <path fill-opacity="0"
        d="M630.692 381.694C638.295 373.529 650.936 373.186 658.914 380.616 666.892 388.046 667.448 400.679 659.845 408.844 652.241 417.008 639.601 417.351 631.623 409.921 623.644 402.491 623.088 389.858 630.692 381.694zm47.638-21.926C658.723 341.509 628.027 342.601 609.768 362.207S592.601 412.51 612.207 430.769 662.509 447.936 680.769 428.33C699.028 408.724 697.936 378.027 678.33 359.768z"
        stroke="#552143" />
      <path fill-opacity="0"
        d="M83.0459 851.279C83.9408 850.318 85.4311 850.276 86.3733 851.153 87.3156 852.031 87.3797 853.52 86.4847 854.481 85.5898 855.442 84.0995 855.484 83.1573 854.607 82.2151 853.729 82.1509 852.24 83.0459 851.279zM87.606 849.83C85.9214 848.261 83.2839 848.355 81.715 850.039 80.1461 851.724 80.24 854.361 81.9246 855.93 83.6092 857.499 86.2467 857.405 87.8156 855.721 89.3845 854.036 89.2906 851.398 87.606 849.83z"
        stroke="#552143" />
      <path fill-opacity="0"
        d="M246.187 609.394C250.577 604.681 257.875 604.482 262.483 608.773 267.09 613.064 267.411 620.358 263.021 625.072 258.631 629.785 251.333 629.984 246.725 625.693 242.118 621.402 241.797 614.108 246.187 609.394zm27-12.115C262.167 587.015 244.913 587.629 234.65 598.649 224.386 609.67 225 626.924 236.02 637.187 247.041 647.451 264.295 646.837 274.558 635.816 284.822 624.796 284.208 607.542 273.187 597.279z"
        stroke="#552143" />
      <path fill-opacity="0"
        d="M284.691 611.627C286.633 609.541 289.864 609.453 291.904 611.353 293.945 613.253 294.086 616.482 292.144 618.568 290.202 620.653 286.971 620.742 284.93 618.842 282.89 616.941 282.749 613.712 284.691 611.627zM295.975 606.982C291.493 602.807 284.476 603.057 280.302 607.539 276.127 612.021 276.377 619.039 280.859 623.213 285.341 627.387 292.359 627.137 296.533 622.655 300.707 618.173 300.458 611.156 295.975 606.982z"
        stroke="#552143" />
      <path fill-opacity="0"
        d="M513.052 824.989C519.725 817.824 530.819 817.523 537.821 824.044 544.823 830.565 545.311 841.652 538.638 848.817S520.871 856.283 513.869 849.762C506.867 843.242 506.38 832.154 513.052 824.989zM554.714 805.905C537.594 789.961 510.79 790.914 494.847 808.034 478.903 825.154 479.856 851.958 496.976 867.902 514.096 883.846 540.9 882.892 556.844 865.772 572.788 848.652 571.834 821.848 554.714 805.905z"
        stroke="#552143" />
      <path fill-opacity="0"
        d="M144.144 290.027C147.219 286.725 152.332 286.586 155.56 289.592 158.788 292.598 159.012 297.708 155.938 301.01 152.863 304.311 147.75 304.451 144.522 301.444 141.294 298.438 141.07 293.328 144.144 290.027zM162.7 281.925C155.193 274.933 143.439 275.351 136.448 282.859 129.456 290.366 129.874 302.12 137.382 309.111 144.889 316.103 156.643 315.685 163.634 308.178 170.626 300.67 170.208 288.917 162.7 281.925z"
        stroke="#552143" />
      <path fill-opacity="0"
        d="M106.091 717.997C99.0382 711.429 87.8907 711.701 81.2031 718.882 74.5154 726.063 75.0359 737.202 82.0884 743.77 89.1409 750.338 100.288 750.065 106.976 742.884S113.143 724.565 106.091 717.997z"
        stroke="#552143" />
      <path fill-opacity="0"
        d="M355.848 861.393C347.218 853.356 333.577 853.689 325.393 862.476 317.209 871.264 317.846 884.894 326.476 892.932 335.106 900.969 348.747 900.636 356.931 891.848 365.115 883.061 364.478 869.43 355.848 861.393z"
        stroke="#552143" />
      <path fill-opacity="0"
        d="M702.5 889.5l-14-21-52-87.5M815 758l4 32-23 84m70.5-223-178-139.5-82.5-20M489.5 774 460 641l-84-25M249.5 481.5 108 348 51.5 302m198 179.5-43.5-331m43.5 331L171 431M395 317l193-22.5L733 261M480 125.5v42"
        stroke="#552143" />
      <path fill-opacity="0"
        d="M552.27 206.369C551.448 205.603 550.149 205.636 549.37 206.472 548.591 207.309 548.651 208.607 549.473 209.372 550.296 210.138 551.594 210.106 552.373 209.269 553.152 208.433 553.092 207.135 552.27 206.369z"
        stroke="#552143" />
      <path fill-opacity="0"
        d="M78.3471 306.32C73.0352 301.373 64.6391 301.578 59.6021 306.987 54.5652 312.395 54.957 320.785 60.269 325.732 65.5809 330.679 73.977 330.473 79.014 325.065 84.0509 319.656 83.6591 311.267 78.3471 306.32z"
        stroke="#552143" />
      <path fill-opacity="0"
        d="M818.012 750.448C816.085 748.653 813.039 748.728 811.211 750.69 809.384 752.652 809.526 755.696 811.453 757.491 813.381 759.287 816.427 759.211 818.254 757.249 820.082 755.287 819.94 752.244 818.012 750.448z"
        stroke="#552143" />
      <path fill-opacity="0"
        d="M179.578 196.35C169.044 186.54 152.394 186.947 142.405 197.673S133.194 225.036 143.727 234.846C154.261 244.655 170.911 244.249 180.9 233.523S190.111 206.16 179.578 196.35z"
        stroke="#552143" />
      <path fill-opacity="0"
        d="M608.079 424.823C605.475 422.397 601.359 422.498 598.89 425.15 596.42 427.801 596.612 431.914 599.217 434.339 601.821 436.765 605.937 436.664 608.406 434.013 610.875 431.361 610.684 427.248 608.079 424.823z"
        stroke="#552143" />
      <path fill-opacity="0"
        d="M555.061 905.089C551.199 901.493 545.096 901.643 541.435 905.574 537.773 909.505 538.058 915.604 541.919 919.2 545.781 922.796 551.884 922.647 555.546 918.715 559.207 914.784 558.922 908.686 555.061 905.089z"
        stroke="#552143" />
      <path fill-opacity="0"
        d="M238.622 387.377C236.308 385.221 232.65 385.311 230.456 387.667 228.262 390.023 228.432 393.678 230.747 395.833 233.061 397.989 236.719 397.898 238.913 395.543 241.107 393.187 240.937 389.532 238.622 387.377z"
        stroke="#552143" />
      <path fill-opacity="0"
        d="M253.035 388.796C242.211 378.716 225.103 379.134 214.838 390.155 204.574 401.177 205.373 418.272 216.197 428.352 227.021 438.432 244.13 438.015 254.394 426.993 264.658 415.972 263.859 398.877 253.035 388.796z"
        stroke="#552143" />
      <path fill-opacity="0"
        d="M116.116 679.29C116.026 679.205 115.884 679.21 115.799 679.301 115.715 679.392 115.72 679.534 115.811 679.618 115.901 679.702 116.043 679.698 116.128 679.607 116.212 679.516 116.207 679.374 116.116 679.29z"
        stroke="#552143" />
      <path fill-opacity="0"
        d="M480.08 435.101C478.005 436.725 475.041 436.338 473.452 434.307S472.201 429.306 474.277 427.682C476.352 426.059 479.316 426.445 480.906 428.476 482.495 430.507 482.156 433.477 480.08 435.101zm-10.875 2.529C472.65 442.034 479.013 442.811 483.417 439.365 487.821 435.92 488.598 429.557 485.153 425.153 481.707 420.749 475.344 419.972 470.94 423.418 466.537 426.863 465.759 433.226 469.205 437.63z"
        stroke="#552143" />
      <path fill-opacity="0"
        d="M419.702 833.163C418.537 834.074 416.872 833.858 415.979 832.716 415.086 831.575 415.277 829.907 416.442 828.996 417.606 828.084 419.271 828.3 420.164 829.442 421.057 830.584 420.867 832.252 419.702 833.163zM414.2 834.108C415.873 836.246 418.962 836.623 421.1 834.95 423.238 833.278 423.615 830.189 421.943 828.051 420.27 825.913 417.181 825.535 415.043 827.208 412.905 828.881 412.528 831.97 414.2 834.108z"
        stroke="#552143" />
      <path fill-opacity="0"
        d="M45.266 296.472C46.9524 294.661 49.7582 294.584 51.5305 296.234 53.3028 297.885 53.425 300.689 51.7386 302.5 50.0521 304.311 47.2463 304.388 45.474 302.738 43.7017 301.087 43.5796 298.283 45.266 296.472zM54.9084 292.607C51.1094 289.069 45.1616 289.281 41.6235 293.08 38.0855 296.879 38.2971 302.827 42.0961 306.365S51.843 309.691 55.381 305.892 58.7075 296.145 54.9084 292.607z"
        stroke="#552143" />
      <path fill-opacity="0"
        d="M165.566 361.853C166.23 361.14 167.336 361.109 168.035 361.76 168.735 362.412 168.782 363.517 168.118 364.23 167.455 364.942 166.349 364.974 165.649 364.322 164.95 363.671 164.903 362.565 165.566 361.853zM168.641 361.11C167.574 360.117 165.904 360.176 164.911 361.243 163.918 362.309 163.977 363.979 165.044 364.972 166.11 365.966 167.78 365.906 168.773 364.84 169.767 363.773 169.707 362.103 168.641 361.11z"
        stroke="#552143" />
      <path fill-opacity="0"
        d="M392.16 316.248C392.824 315.535 393.929 315.504 394.629 316.155 395.328 316.807 395.376 317.912 394.712 318.625 394.048 319.337 392.943 319.369 392.243 318.717 391.543 318.066 391.496 316.96 392.16 316.248zM395.234 315.505C394.168 314.512 392.498 314.571 391.505 315.638 390.511 316.704 390.571 318.374 391.637 319.367 392.704 320.361 394.374 320.301 395.367 319.235 396.36 318.168 396.301 316.498 395.234 315.505z"
        stroke="#552143" />
      <path fill-opacity="0"
        d="M556.16 632.248C556.824 631.535 557.929 631.504 558.629 632.155 559.328 632.807 559.376 633.912 558.712 634.625 558.048 635.337 556.943 635.369 556.243 634.717 555.543 634.066 555.496 632.96 556.16 632.248zM559.234 631.505C558.168 630.512 556.498 630.571 555.505 631.638 554.511 632.704 554.571 634.374 555.637 635.367 556.704 636.361 558.374 636.301 559.367 635.235 560.36 634.168 560.301 632.498 559.234 631.505z"
        stroke="#552143" />
      <path fill-opacity="0"
        d="M773.16 443.248C773.824 442.535 774.929 442.504 775.629 443.155 776.328 443.807 776.376 444.912 775.712 445.625 775.048 446.337 773.943 446.369 773.243 445.717 772.543 445.066 772.496 443.96 773.16 443.248zM776.234 442.505C775.168 441.512 773.498 441.571 772.505 442.638 771.511 443.704 771.571 445.374 772.637 446.367 773.704 447.361 775.374 447.301 776.367 446.235 777.36 445.168 777.301 443.498 776.234 442.505z"
        stroke="#552143" />
      <path fill-opacity="0"
        d="M714.16 189.248C714.824 188.535 715.929 188.504 716.629 189.155 717.328 189.807 717.376 190.912 716.712 191.625 716.048 192.337 714.943 192.369 714.243 191.717 713.543 191.066 713.496 189.96 714.16 189.248zM717.234 188.505C716.168 187.512 714.498 187.571 713.505 188.638 712.511 189.704 712.571 191.374 713.637 192.367 714.704 193.361 716.374 193.301 717.367 192.235 718.36 191.168 718.301 189.498 717.234 188.505z"
        stroke="#552143" />
      <path fill-opacity="0"
        d="M197.16 676.248C197.824 675.535 198.929 675.504 199.629 676.155 200.328 676.807 200.376 677.912 199.712 678.625 199.048 679.337 197.943 679.369 197.243 678.717 196.543 678.066 196.496 676.96 197.16 676.248zM200.234 675.505C199.168 674.512 197.498 674.571 196.505 675.638 195.511 676.704 195.571 678.374 196.637 679.367 197.704 680.361 199.374 680.301 200.367 679.235 201.36 678.168 201.301 676.498 200.234 675.505z"
        stroke="#552143" />
      <path fill-opacity="0"
        d="M648.16 813.248C648.824 812.535 649.929 812.504 650.629 813.155 651.328 813.807 651.376 814.912 650.712 815.625 650.048 816.337 648.943 816.369 648.243 815.717 647.543 815.066 647.496 813.96 648.16 813.248zM651.234 812.505C650.168 811.512 648.498 811.571 647.505 812.638 646.511 813.704 646.571 815.374 647.637 816.367 648.704 817.361 650.374 817.301 651.367 816.235 652.36 815.168 652.301 813.498 651.234 812.505z"
        stroke="#552143" />
      <path fill-opacity="0"
        d="M424.048 330.498C426.721 327.628 431.166 327.506 433.973 330.12 436.779 332.734 436.974 337.176 434.301 340.046S427.183 343.038 424.376 340.424C421.57 337.81 421.375 333.368 424.048 330.498zM440.024 323.622C433.59 317.631 423.517 317.989 417.525 324.423 411.533 330.857 411.891 340.93 418.325 346.922 424.759 352.914 434.832 352.555 440.824 346.121 446.816 339.687 446.458 329.614 440.024 323.622z"
        stroke="#552143" />
      <path fill-opacity="0"
        d="M474.719 289.872C477.538 286.845 482.226 286.717 485.186 289.473 488.146 292.23 488.351 296.915 485.533 299.942 482.714 302.969 478.026 303.097 475.066 300.341 472.106 297.584 471.901 292.899 474.719 289.872zM491.633 282.551C484.809 276.195 474.125 276.575 467.77 283.4 461.414 290.224 461.794 300.908 468.618 307.263 475.443 313.619 486.127 313.239 492.482 306.414 498.838 299.59 498.458 288.906 491.633 282.551z"
        stroke="#552143" />
      <path fill-opacity="0"
        d="M363.445 612.407C365.496 610.204 368.909 610.111 371.065 612.118 373.22 614.125 373.369 617.536 371.317 619.739 369.266 621.942 365.853 622.036 363.697 620.029 361.542 618.022 361.393 614.611 363.445 612.407zM375.433 607.428C370.658 602.981 363.182 603.247 358.735 608.022 354.288 612.797 354.554 620.272 359.329 624.719 364.104 629.166 371.58 628.9 376.027 624.125 380.473 619.35 380.208 611.875 375.433 607.428z"
        stroke="#552143" />
      <path fill-opacity="0"
        d="M632.677 524.504C634.181 522.89 636.683 522.82 638.263 524.293 639.844 525.765 639.953 528.265 638.449 529.88 636.945 531.495 634.443 531.564 632.862 530.092 631.282 528.62 631.173 526.119 632.677 524.504zM641.146 521.197C637.835 518.113 632.651 518.298 629.568 521.609 626.484 524.92 626.669 530.104 629.98 533.188 633.291 536.271 638.475 536.087 641.558 532.776 644.642 529.465 644.457 524.281 641.146 521.197z"
        stroke="#552143" />
      <path fill-opacity="0"
        d="M761.005 714.13C762.363 712.672 764.622 712.61 766.05 713.939 767.477 715.269 767.575 717.527 766.218 718.984 764.86 720.442 762.601 720.505 761.173 719.175 759.746 717.846 759.648 715.588 761.005 714.13zM768.537 711.269C765.616 708.549 761.043 708.711 758.323 711.632 755.603 714.553 755.766 719.126 758.686 721.846 761.607 724.566 766.18 724.403 768.9 721.482 771.62 718.562 771.457 713.989 768.537 711.269z"
        stroke="#552143" />
      <path fill-opacity="0"
        d="M357.445 706.407C359.496 704.204 362.909 704.111 365.065 706.118 367.22 708.125 367.369 711.536 365.317 713.739 363.266 715.942 359.853 716.036 357.697 714.029 355.542 712.022 355.393 708.611 357.445 706.407zM369.433 701.428C364.658 696.981 357.182 697.247 352.735 702.022 348.288 706.797 348.554 714.272 353.329 718.719 358.104 723.166 365.58 722.9 370.027 718.125 374.473 713.35 374.208 705.875 369.433 701.428z"
        stroke="#552143" />
      <path fill-opacity="0"
        d="M580.95 714.689C569.546 704.068 551.52 704.508 540.705 716.12 529.891 727.733 530.733 745.744 542.137 756.365 553.541 766.985 571.567 766.545 582.381 754.933 593.196 743.321 592.353 725.309 580.95 714.689z"
        stroke="#552143" />
      <path fill-opacity="0"
        d="M243.946 518.074C242.695 516.909 240.719 516.958 239.533 518.231 238.348 519.504 238.44 521.478 239.69 522.643 240.941 523.808 242.917 523.759 244.102 522.486 245.288 521.214 245.196 519.239 243.946 518.074z"
        stroke="#552143" />
      <path fill-opacity="0"
        d="M534.856 709.176C534.931 709.246 535.05 709.244 535.123 709.166 535.195 709.089 535.188 708.969 535.113 708.9 535.038 708.83 534.918 708.831 534.846 708.909S534.781 709.106 534.856 709.176z"
        stroke="#552143" />
      <path fill-opacity="0"
        d="M488.548 96.4429C481.205 89.6047 469.599 89.8882 462.637 97.3646 455.674 104.841 456.216 116.438 463.558 123.276 470.901 130.114 482.507 129.831 489.47 122.354 496.432 114.878 495.891 103.281 488.548 96.4429z"
        stroke="#552143" />
      <path fill-opacity="0"
        d="M430.574 308.736C430.193 308.381 429.593 308.397 429.233 308.783 428.873 309.17 428.9 309.77 429.281 310.124 429.661 310.479 430.262 310.463 430.621 310.077 430.981 309.69 430.954 309.09 430.574 308.736z"
        stroke="#552143" />
      <path fill-opacity="0"
        d="M170.823 414.5C166.478 410.453 159.61 410.621 155.491 415.045 151.371 419.469 151.691 426.331 156.036 430.377 160.381 434.424 167.249 434.256 171.368 429.832 175.488 425.408 175.168 418.546 170.823 414.5z"
        stroke="#552143" />
      <path fill-opacity="0"
        d="M699.793 285.592C698.639 284.517 696.816 284.563 695.722 285.737 694.629 286.911 694.713 288.733 695.867 289.808S698.844 290.837 699.938 289.663C701.031 288.489 700.947 286.667 699.793 285.592z"
        stroke="#552143" />
      <path fill-opacity="0"
        d="M737.652 255.284C732.147 250.157 723.445 250.37 718.224 255.975 713.004 261.581 713.41 270.276 718.916 275.403 724.421 280.53 733.123 280.317 738.343 274.712 743.563 269.106 743.157 260.411 737.652 255.284z"
        stroke="#552143" />
      <path fill-opacity="0"
        d="M170.195 207.827C168.152 205.924 164.922 206.003 162.985 208.083 161.048 210.163 161.198 213.391 163.241 215.294 165.285 217.197 168.515 217.117 170.452 215.037 172.389 212.957 172.239 209.73 170.195 207.827z"
        stroke="#552143" />
      <path fill-opacity="0"
        d="M619.358 419.494C609.598 410.405 594.171 410.781 584.916 420.719 575.66 430.658 576.381 446.073 586.141 455.162 595.901 464.252 611.328 463.875 620.584 453.937 629.839 443.999 629.118 428.583 619.358 419.494z"
        stroke="#552143" />
      <path fill-opacity="0"
        d="M440.804 761.632C430.271 751.822 413.621 752.228 403.631 762.954 393.642 773.681 394.42 790.317 404.954 800.127 415.487 809.937 432.138 809.531 442.127 798.805 452.116 788.079 451.338 771.442 440.804 761.632z"
        stroke="#552143" />
      <path fill-opacity="0"
        d="M107.028 516.858C105.079 518.383 102.295 518.02 100.803 516.113 99.3109 514.205 99.6289 511.416 101.578 509.892 103.527 508.367 106.31 508.729 107.802 510.637 109.295 512.544 108.977 515.333 107.028 516.858zM96.8995 519.167C100.098 523.255 106.006 523.977 110.095 520.778 114.183 517.579 114.905 511.672 111.706 507.583S102.6 502.773 98.5109 505.971C94.4222 509.17 93.7007 515.078 96.8995 519.167z"
        stroke="#552143" />
      <path fill-opacity="0"
        d="M726.449 806.801C723.487 809.118 719.258 808.567 716.992 805.67 714.725 802.773 715.208 798.536 718.17 796.218 721.132 793.901 725.361 794.452 727.627 797.349 729.894 800.246 729.411 804.484 726.449 806.801zM710.342 810.872C715.513 817.482 725.062 818.648 731.672 813.477 738.281 808.306 739.448 798.756 734.277 792.147 729.106 785.537 719.556 784.371 712.947 789.542 706.337 794.713 705.171 804.263 710.342 810.872z"
        stroke="#552143" />
      <path fill-opacity="0"
        d="M426.051 232.354C427.388 230.918 429.614 230.856 431.02 232.166 432.427 233.476 432.523 235.7 431.186 237.137 429.848 238.573 427.622 238.635 426.216 237.325S424.713 233.79 426.051 232.354zM433.453 229.554C430.586 226.884 426.097 227.044 423.427 229.911 420.757 232.778 420.917 237.266 423.784 239.936 426.651 242.606 431.139 242.447 433.809 239.58 436.479 236.713 436.32 232.224 433.453 229.554z"
        stroke="#552143" />
      <path fill-opacity="0"
        d="M585.238 216.227C586.047 215.358 587.396 215.32 588.249 216.114 589.102 216.908 589.159 218.256 588.35 219.125 587.54 219.995 586.191 220.033 585.339 219.239 584.486 218.444 584.428 217.096 585.238 216.227zM589.25 215.038C587.793 213.681 585.512 213.763 584.156 215.219 582.799 216.676 582.88 218.957 584.337 220.314S588.075 221.59 589.432 220.133C590.788 218.676 590.707 216.395 589.25 215.038z"
        stroke="#552143" />
      <path fill-opacity="0"
        d="M612.637 134.465C615.493 131.399 620.241 131.27 623.24 134.062 626.238 136.854 626.446 141.6 623.59 144.666 620.735 147.732 615.986 147.862 612.988 145.07 609.99 142.277 609.782 137.531 612.637 134.465zm17.149-7.432C622.864 120.586 612.027 120.972 605.581 127.894 599.134 134.816 599.52 145.653 606.442 152.099S624.201 158.16 630.647 151.238C637.093 144.316 636.708 133.479 629.786 127.033z"
        stroke="#552143" />
      <path fill-opacity="0"
        d="M355.498 582.569C356.637 581.346 358.532 581.294 359.729 582.409 360.927 583.524 361.009 585.418 359.871 586.641 358.732 587.863 356.837 587.916 355.639 586.801 354.442 585.685 354.36 583.791 355.498 582.569zM361.622 580.377C359.287 578.202 355.631 578.332 353.456 580.667 351.281 583.002 351.411 586.658 353.747 588.833 356.082 591.008 359.738 590.878 361.913 588.543 364.087 586.207 363.957 582.551 361.622 580.377z"
        stroke="#552143" />
      <path fill-opacity="0"
        d="M456.923 125.724C458.317 124.227 460.637 124.162 462.103 125.527 463.569 126.893 463.67 129.211 462.276 130.708 460.881 132.205 458.561 132.27 457.096 130.905 455.63 129.54 455.529 127.221 456.923 125.724zM464.689 122.751C461.671 119.94 456.945 120.108 454.134 123.126 451.323 126.145 451.491 130.87 454.51 133.681 457.528 136.492 462.254 136.324 465.065 133.306 467.875 130.287 467.707 125.562 464.689 122.751z"
        stroke="#552143" />
      <path fill-opacity="0"
        d="M166.975 78.1341C183.371 60.5292 210.624 59.7918 227.823 75.809 245.022 91.8262 246.223 119.063 229.827 136.668 213.432 154.273 186.178 155.011 168.98 138.993c-17.199-16.017-18.4-43.2539-2.005-60.8589zM271.068 29.3736C227.975-10.7593 160.507-8.35922 120.374 34.7342 80.2409 77.8277 82.6409 145.296 125.734 185.429 168.828 225.562 236.296 223.162 276.429 180.068 316.562 136.975 314.162 69.5064 271.068 29.3736z"
        stroke="#552143" />
      <path fill-opacity="0"
        d="M58.9405 555.175C63.4398 550.344 70.9207 550.14 75.643 554.538S80.6938 566.412 76.1945 571.243C71.6953 576.075 64.2144 576.278 59.4921 571.88 54.7698 567.482 54.4413 560.006 58.9405 555.175zM86.6447 542.725C75.3314 532.189 57.6191 532.819 47.083 544.132 36.547 555.445 37.1771 573.158 48.4904 583.694 59.8036 594.23 77.516 593.6 88.0521 582.286 98.5881 570.973 97.958 553.261 86.6447 542.725z"
        stroke="#552143" />
      <path fill-opacity="0"
        d="M447.83 576.523C451.489 572.594 457.573 572.428 461.415 576.006 465.256 579.583 465.523 585.664 461.864 589.593 458.204 593.522 452.12 593.688 448.279 590.11 444.438 586.533 444.171 580.452 447.83 576.523zM470.139 566.638C461.07 558.192 446.872 558.697 438.426 567.766 429.981 576.835 430.486 591.033 439.554 599.479 448.623 607.924 462.821 607.419 471.267 598.35 479.713 589.282 479.208 575.083 470.139 566.638z"
        stroke="#552143" />
      <path fill-opacity="0"
        d="M644.158 748.371C636.428 741.173 624.211 741.471 616.881 749.341 609.552 757.212 610.122 769.419 617.851 776.618 625.581 783.816 637.798 783.518 645.128 775.648 652.458 767.777 651.887 755.569 644.158 748.371z"
        stroke="#552143" />
      <path fill-opacity="0"
        d="M240.908 846.607C237.144 843.101 231.193 843.247 227.624 847.08 224.054 850.913 224.331 856.859 228.096 860.365 231.861 863.871 237.811 863.725 241.381 859.892 244.951 856.059 244.673 850.113 240.908 846.607z"
        stroke="#552143" />
      <path fill-opacity="0"
        d="M452.622 177.377C450.308 175.221 446.65 175.311 444.456 177.667 442.262 180.023 442.432 183.678 444.747 185.833 447.061 187.989 450.719 187.898 452.913 185.543 455.107 183.187 454.937 179.532 452.622 177.377z"
        stroke="#552143" />
      <path fill-opacity="0"
        d="M227.292 184.898C225.821 183.528 223.498 183.586 222.104 185.082 220.711 186.579 220.819 188.9 222.289 190.27 223.759 191.639 226.083 191.581 227.476 190.085 228.87 188.589 228.762 186.267 227.292 184.898z"
        stroke="#552143" />
      <path fill-opacity="0"
        d="M795.566 874.176C789.481 868.509 779.862 868.744 774.091 874.94 768.321 881.137 768.77 890.748 774.855 896.415 780.941 902.083 790.56 901.848 796.33 895.651 802.101 889.455 801.652 879.844 795.566 874.176z"
        stroke="#552143" />
      <path fill-opacity="0"
        d="M576.652 401.284C571.147 396.157 562.445 396.37 557.224 401.975 552.004 407.581 552.41 416.276 557.916 421.403 563.421 426.53 572.123 426.317 577.343 420.712 582.563 415.106 582.157 406.411 576.652 401.284z"
        stroke="#552143" />
      <path fill-opacity="0"
        d="M314.645 472.725C303.434 462.284 285.714 462.717 275.083 474.132 264.452 485.547 265.28 503.253 276.49 513.694 287.701 524.134 305.421 523.702 316.052 512.286 326.683 500.871 325.855 483.165 314.645 472.725z"
        stroke="#552143" />
      <path fill-opacity="0"
        d="M555.031 212.182C554.36 211.557 553.301 211.584 552.666 212.266 552.031 212.948 552.08 214.006 552.75 214.631 553.421 215.255 554.48 215.228 555.115 214.546 555.75 213.865 555.702 212.806 555.031 212.182z"
        stroke="#552143" />
      <path fill-opacity="0"
        d="M380.492 510.243C369.379 499.892 351.811 500.321 341.272 511.638 330.732 522.955 331.553 540.508 342.667 550.858 353.781 561.208 371.348 560.78 381.887 549.463 392.427 538.146 391.606 520.593 380.492 510.243z"
        stroke="#552143" />
      <path fill-opacity="0"
        d="M304.574 907.736C304.193 907.381 303.593 907.397 303.233 907.783 302.873 908.17 302.9 908.77 303.281 909.124 303.661 909.479 304.262 909.463 304.621 909.077 304.981 908.69 304.954 908.09 304.574 907.736z"
        stroke="#552143" />
      <path fill-opacity="0"
        d="M423.484 517.04C423.161 516.738 422.65 516.752 422.344 517.08 422.038 517.409 422.06 517.919 422.384 518.221 422.708 518.522 423.219 518.509 423.525 518.18 423.831 517.852 423.808 517.341 423.484 517.04z"
        stroke="#552143" />
      <path fill-opacity="0"
        d="M717.765 910.259C714.043 913.17 708.73 912.477 705.883 908.838 703.036 905.198 703.641 899.875 707.363 896.963 711.086 894.051 716.398 894.745 719.245 898.384 722.093 902.023 721.487 907.347 717.765 910.259zM697.174 915.651C703.823 924.152 716.105 925.651 724.605 919.001 733.105 912.352 734.605 900.07 727.955 891.57 721.305 883.07 709.024 881.57 700.524 888.22S690.524 907.151 697.174 915.651z"
        stroke="#552143" />
      <path fill-opacity="0"
        d="M95.6927 944.949C94.5496 945.844 92.9159 945.631 92.0394 944.511 91.1629 943.391 91.3502 941.754 92.4933 940.86 93.6364 939.965 95.2701 940.177 96.1466 941.298 97.0231 942.418 96.8358 944.055 95.6927 944.949zM90.3199 945.856C91.9501 947.94 94.961 948.308 97.0449 946.678 99.1287 945.047 99.4964 942.036 97.8661 939.953 96.2359 937.869 93.225 937.501 91.1411 939.131 89.0573 940.762 88.6896 943.772 90.3199 945.856z"
        stroke="#552143" />
      <path fill-opacity="0"
        d="M697.155 612.821C698.002 611.912 699.411 611.872 700.302 612.702 701.193 613.532 701.254 614.941 700.408 615.849 699.561 616.758 698.152 616.798 697.261 615.968 696.37 615.138 696.309 613.729 697.155 612.821zM701.403 611.52C699.848 610.073 697.415 610.159 695.967 611.714 694.519 613.268 694.606 615.702 696.16 617.15 697.715 618.597 700.148 618.511 701.596 616.956 703.044 615.402 702.957 612.968 701.403 611.52z"
        stroke="#552143" />
      <path fill-opacity="0"
        d="M344.168 466.562C365.095 444.092 399.879 443.152 421.829 463.594 443.78 484.037 445.313 518.799 424.387 541.269S368.677 564.68 346.726 544.237C324.776 523.795 323.242 489.032 344.168 466.562zm133.186-62.589C422.157 352.568 335.739 355.642 284.335 410.839 232.93 466.036 236.004 552.454 291.201 603.859 346.398 655.264 432.816 652.189 484.221 596.992 535.625 541.796 532.551 455.378 477.354 403.973z"
        stroke="#552143" />
      <path fill-opacity="0"
        d="M696.977 214.885C697.458 214.369 698.26 214.345 698.768 214.819 699.276 215.292 699.31 216.093 698.829 216.61 698.348 217.126 697.546 217.15 697.038 216.676 696.53 216.203 696.496 215.402 696.977 214.885zM698.879 214.7C698.3 214.161 697.394 214.193 696.855 214.772 696.316 215.35 696.349 216.256 696.927 216.795 697.506 217.334 698.412 217.302 698.951 216.723 699.489 216.145 699.457 215.239 698.879 214.7z"
        stroke="#552143" />
      <path fill-opacity="0"
        d="M440.83 122.523C444.489 118.594 450.573 118.428 454.415 122.006 458.256 125.583 458.523 131.664 454.864 135.593 451.204 139.522 445.12 139.688 441.279 136.11 437.438 132.533 437.171 126.452 440.83 122.523zM463.139 112.638C454.07 104.192 439.872 104.697 431.426 113.766 422.981 122.835 423.486 137.033 432.554 145.479 441.623 153.924 455.821 153.419 464.267 144.35 472.713 135.282 472.208 121.083 463.139 112.638z"
        stroke="#552143" />
      <path fill-opacity="0"
        d="M398.898 355.807C402.082 352.388 407.377 352.244 410.72 355.357 414.063 358.47 414.295 363.763 411.111 367.182 407.927 370.601 402.632 370.745 399.289 367.632 395.946 364.518 395.714 359.226 398.898 355.807zM418.158 347.371C410.358 340.107 398.145 340.541 390.881 348.341 383.617 356.141 384.051 368.354 391.851 375.618 399.652 382.882 411.864 382.448 419.128 374.648 426.392 366.847 425.958 354.635 418.158 347.371z"
        stroke="#552143" />
      <path fill-opacity="0"
        d="M283.334 154.756C284.545 153.455 286.562 153.399 287.836 154.586 289.11 155.772 289.198 157.788 287.986 159.089 286.775 160.39 284.758 160.446 283.484 159.259 282.21 158.072 282.122 156.057 283.334 154.756zM289.927 152.341C287.397 149.984 283.435 150.125 281.078 152.655 278.722 155.186 278.863 159.147 281.393 161.504 283.924 163.861 287.885 163.72 290.242 161.189 292.598 158.659 292.457 154.697 289.927 152.341z"
        stroke="#552143" />
      <path fill-opacity="0"
        d="M399.401 775.573C399.745 775.893 400.284 775.875 400.605 775.53L399.141 774.167C399.575 773.701 400.302 773.679 400.764 774.109L399.401 775.573zM399.358 774.369C399.037 774.714 399.057 775.252 399.401 775.573L400.764 774.109C401.226 774.54 401.255 775.266 400.821 775.732L399.358 774.369zM400.561 774.327C400.218 774.007 399.679 774.024 399.358 774.369L400.821 775.732C400.387 776.198 399.661 776.221 399.198 775.79L400.561 774.327zM400.605 775.53C400.926 775.186 400.905 774.647 400.561 774.327L399.198 775.79C398.736 775.36 398.707 774.633 399.141 774.167L400.605 775.53zM399.554 775.408C399.807 775.644 400.204 775.63 400.44 775.377L398.976 774.014C399.493 773.459 400.362 773.428 400.917 773.945L399.554 775.408zM399.523 774.523C399.287 774.776 399.301 775.172 399.554 775.408L400.917 773.945C401.472 774.462 401.503 775.331 400.986 775.886L399.523 774.523zM400.408 774.491C400.155 774.255 399.759 774.269 399.523 774.523L400.986 775.886C400.469 776.441 399.6 776.472 399.045 775.955L400.408 774.491zM400.44 775.377C400.676 775.124 400.661 774.727 400.408 774.491L399.045 775.955C398.49 775.438 398.459 774.569 398.976 774.014L400.44 775.377z"
        fill="#552143" />
      <path fill-opacity="0"
        d="M145.912 743.93C149.535 740.04 155.558 739.876 159.361 743.417 163.164 746.959 163.428 752.979 159.806 756.869 156.183 760.759 150.159 760.923 146.357 757.381 142.554 753.84 142.29 747.82 145.912 743.93zm22.075-9.774C159.015 725.801 144.97 726.3 136.615 735.272 128.26 744.243 128.76 758.288 137.731 766.643S160.748 774.498 169.103 765.527C177.457 756.556 176.958 742.51 167.987 734.156z"
        stroke="#552143" />
      <path fill-opacity="0"
        d="M836.994 308.715C833.809 305.749 828.776 305.873 825.757 309.115 822.737 312.357 822.972 317.386 826.156 320.352 829.341 323.318 834.374 323.194 837.394 319.952 840.413 316.71 840.179 311.681 836.994 308.715z"
        stroke="#552143" />
      <path fill-opacity="0"
        d="M746.518 245.535C742.366 241.669 735.805 241.83 731.868 246.057 727.932 250.283 728.238 256.84 732.389 260.706 736.541 264.573 743.103 264.412 747.039 260.185 750.976 255.959 750.67 249.402 746.518 245.535z"
        stroke="#552143" />
      <path fill-opacity="0"
        d="M768.102 642.171C756.601 631.46 738.423 631.904 727.517 643.615 716.61 655.325 717.46 673.49 728.96 684.2 740.461 694.91 758.639 694.467 769.546 682.756 780.452 671.045 779.603 652.881 768.102 642.171z"
        stroke="#552143" />
      <path fill-opacity="0"
        d="M531.407 256.135C519.713 245.244 501.229 245.695 490.139 257.603 479.049 269.511 479.913 287.98 491.607 298.871 503.301 309.761 521.785 309.311 532.875 297.403 543.965 285.495 543.101 267.025 531.407 256.135z"
        stroke="#552143" />
      <path fill-opacity="0"
        d="M658.92 271.781C650.707 264.133 637.725 264.45 629.937 272.812 622.149 281.175 622.755 294.146 630.968 301.795 639.181 309.444 652.163 309.127 659.951 300.764S667.133 279.43 658.92 271.781z"
        stroke="#552143" />
      <path fill-opacity="0"
        d="M87.1561 539.96C85.1373 538.08 81.9471 538.159 80.0335 540.214 78.12 542.268 78.2681 545.456 80.2869 547.336 82.3056 549.216 85.4959 549.138 87.4095 547.083 89.323 545.028 89.1748 541.84 87.1561 539.96z"
        stroke="#552143" />
      <path fill-opacity="0"
        d="M303.098 486.556C301.75 485.301 299.621 485.354 298.344 486.725 297.068 488.096 297.166 490.224 298.514 491.479 299.861 492.734 301.99 492.681 303.267 491.31S304.445 487.811 303.098 486.556z"
        stroke="#552143" />
      <path fill-opacity="0"
        d="M248.975 636.982C244.534 632.845 237.513 633.017 233.302 637.539 229.09 642.061 229.418 649.076 233.859 653.213 238.301 657.349 245.321 657.178 249.533 652.655 253.744 648.133 253.417 641.118 248.975 636.982z"
        stroke="#552143" />
      <path fill-opacity="0"
        d="M215.256 243.222C212.54 240.692 208.246 240.797 205.671 243.563 203.095 246.328 203.295 250.618 206.012 253.149 208.728 255.679 213.022 255.573 215.597 252.808 218.173 250.042 217.973 245.752 215.256 243.222z"
        stroke="#552143" />
      <path fill-opacity="0"
        d="M388.86 771.966C387.029 770.261 384.136 770.333 382.4 772.196 380.665 774.06 380.799 776.951 382.63 778.656 384.461 780.361 387.354 780.29 389.09 778.426 390.825 776.563 390.691 773.672 388.86 771.966z"
        stroke="#552143" />
      <path fill-opacity="0"
        d="M689.414 845.694C683.425 840.117 673.959 840.348 668.28 846.446 662.601 852.544 663.043 862.002 669.032 867.58 675.021 873.157 684.487 872.926 690.166 866.828 695.845 860.73 695.403 851.272 689.414 845.694z"
        stroke="#552143" />
      <path fill-opacity="0"
        d="M333.202 245.852C333.024 245.625 332.697 245.585 332.472 245.761L333.704 247.337C333.057 247.843 332.127 247.725 331.627 247.085L333.202 245.852zM333.114 246.583C333.34 246.407 333.38 246.08 333.202 245.852L331.627 247.085C331.126 246.445 331.235 245.514 331.882 245.008L333.114 246.583zM332.384 246.492C332.562 246.72 332.889 246.759 333.114 246.583L331.882 245.008C332.529 244.502 333.459 244.62 333.959 245.26L332.384 246.492zM332.472 245.761C332.246 245.938 332.206 246.265 332.384 246.492L333.959 245.26C334.46 245.9 334.351 246.83 333.704 247.337L332.472 245.761zM332.63 246.3C332.7 246.39 332.831 246.406 332.921 246.336L334.153 247.911C333.193 248.662 331.806 248.493 331.055 247.532L332.63 246.3zM332.665 246.009C332.575 246.08 332.559 246.21 332.63 246.3L331.055 247.532C330.303 246.572 330.473 245.185 331.433 244.434L332.665 246.009zM332.956 246.045C332.886 245.954 332.755 245.939 332.665 246.009L331.433 244.434C332.393 243.683 333.78 243.852 334.532 244.812L332.956 246.045zM332.921 246.336C333.011 246.265 333.027 246.135 332.956 246.045L334.532 244.812C335.283 245.772 335.113 247.16 334.153 247.911L332.921 246.336z"
        fill="#552143" />
      <path fill-opacity="0"
        d="M831.256 822.244C828.758 824.198 825.192 823.733 823.28 821.289 821.369 818.846 821.776 815.273 824.273 813.318 826.771 811.364 830.337 811.829 832.249 814.273 834.161 816.716 833.754 820.29 831.256 822.244zM817.889 825.507C822.156 830.961 830.037 831.924 835.491 827.657 840.945 823.39 841.907 815.509 837.64 810.055 833.373 804.601 825.493 803.638 820.039 807.905 814.585 812.172 813.622 820.053 817.889 825.507z"
        stroke="#552143" />
      <path fill-opacity="0"
        d="M534.855 842.44C536.724 840.433 539.834 840.347 541.798 842.176 543.761 844.005 543.897 847.113 542.028 849.12S537.049 851.212 535.086 849.383C533.122 847.554 532.986 844.447 534.855 842.44zm10.816-4.423C541.384 834.025 534.672 834.264 530.679 838.551 526.687 842.838 526.926 849.549 531.213 853.542 535.5 857.534 542.211 857.296 546.204 853.009 550.196 848.722 549.957 842.01 545.671 838.017z"
        stroke="#552143" />
      <path fill-opacity="0"
        d="M671.305 835.611C672.529 834.297 674.567 834.24 675.855 835.439 677.143 836.639 677.231 838.676 676.007 839.991 674.782 841.305 672.744 841.362 671.456 840.163 670.168 838.963 670.08 836.926 671.305 835.611zM677.981 833.156C675.416 830.768 671.4 830.91 669.011 833.476 666.622 836.041 666.765 840.057 669.33 842.445 671.895 844.834 675.911 844.691 678.3 842.126 680.689 839.561 680.546 835.545 677.981 833.156z"
        stroke="#552143" />
      <path fill-opacity="0"
        d="M399.419 278.491C403.261 274.366 409.649 274.192 413.682 277.948 417.714 281.703 417.995 288.087 414.153 292.213 410.311 296.338 403.923 296.512 399.89 292.756 395.858 289 395.578 282.616 399.419 278.491zm23.482-10.443C413.344 259.148 398.382 259.68 389.482 269.237 380.582 278.793 381.114 293.756 390.671 302.656 400.228 311.556 415.19 311.024 424.09 301.467 432.99 291.91 432.458 276.948 422.901 268.048z"
        stroke="#552143" />
      <path fill-opacity="0"
        d="M792.816 724.401C796.036 720.943 801.392 720.796 804.774 723.945 808.155 727.095 808.39 732.447 805.169 735.906 801.948 739.364 796.593 739.51 793.211 736.361 789.83 733.212 789.595 727.859 792.816 724.401zM812.31 715.853C804.412 708.498 792.047 708.938 784.692 716.836 777.337 724.733 777.777 737.098 785.675 744.453 793.573 751.808 805.937 751.369 813.292 743.471 820.648 735.573 820.208 723.208 812.31 715.853z"
        stroke="#552143" />
      <path fill-opacity="0"
        d="M716.987 392.04C718.353 390.573 720.626 390.51 722.062 391.848 723.498 393.185 723.596 395.457 722.231 396.923 720.865 398.39 718.592 398.453 717.156 397.115 715.72 395.778 715.621 393.506 716.987 392.04zM724.571 389.154C721.628 386.413 717.021 386.577 714.281 389.52 711.541 392.462 711.705 397.069 714.647 399.809 717.59 402.549 722.196 402.386 724.937 399.443 727.677 396.501 727.513 391.894 724.571 389.154z"
        stroke="#552143" />
      <path fill-opacity="0"
        d="M283.519 362.349C290.429 354.929 301.917 354.617 309.168 361.37 316.419 368.122 316.924 379.604 310.014 387.024 303.104 394.444 291.616 394.755 284.365 388.003 277.114 381.25 276.609 369.769 283.519 362.349zm43.185-19.809C308.95 326.005 281.154 326.994 264.62 344.748 248.085 362.502 249.074 390.298 266.828 406.833c17.754 16.534 45.551 15.545 62.085-2.209 16.534-17.754 15.545-45.55-2.209-62.084z"
        stroke="#552143" />
      <path fill-opacity="0"
        d="M345.198 691.188C347.359 688.867 350.954 688.769 353.225 690.883 355.495 692.997 355.652 696.59 353.491 698.911 351.33 701.232 347.734 701.331 345.464 699.216 343.194 697.102 343.037 693.509 345.198 691.188zM357.89 685.874C352.822 681.154 344.888 681.437 340.169 686.504 335.449 691.572 335.731 699.506 340.799 704.225 345.867 708.945 353.801 708.663 358.52 703.595 363.24 698.527 362.958 690.593 357.89 685.874z"
        stroke="#552143" />
      <path fill-opacity="0"
        d="M412.298 555.046C417.527 549.43 426.223 549.194 431.711 554.305 437.2 559.417 437.582 568.107 432.352 573.722 427.122 579.338 418.427 579.574 412.938 574.463 407.45 569.351 407.068 560.661 412.298 555.046zM444.693 540.366C431.428 528.012 410.66 528.751 398.306 542.016 385.953 555.281 386.691 576.049 399.956 588.403 413.221 600.756 433.99 600.017 446.343 586.752 458.697 573.487 457.958 552.719 444.693 540.366z"
        stroke="#552143" />
      <path fill-opacity="0"
        d="M353.719 258.658C347.537 252.901 337.765 253.14 331.903 259.434 326.04 265.729 326.496 275.493 332.679 281.251 338.861 287.008 348.633 286.769 354.495 280.475 360.357 274.18 359.901 264.416 353.719 258.658z"
        stroke="#552143" />
      <path fill-opacity="0"
        d="M87.2133 910.571C83.255 906.885 76.9989 907.038 73.2459 911.068 69.4928 915.098 69.7845 921.349 73.7427 925.036 77.701 928.722 83.9571 928.569 87.7101 924.539 91.4632 920.509 91.1715 914.258 87.2133 910.571z"
        stroke="#552143" />
      <path fill-opacity="0"
        d="M886.009 95.9628C860.809 72.4937 820.974 73.4639 797.074 99.1265 773.175 124.789 775.038 164.592 800.238 188.061 825.438 211.531 865.274 210.56 889.173 184.898 913.073 159.235 911.21 119.432 886.009 95.9628z"
        stroke="#552143" />
      <path fill-opacity="0"
        d="M442.492 137.243C431.379 126.892 413.811 127.321 403.272 138.638 392.732 149.955 393.553 167.508 404.667 177.858 415.781 188.208 433.348 187.78 443.887 176.463 454.427 165.146 453.606 147.593 442.492 137.243z"
        stroke="#552143" />
      <path fill-opacity="0"
        d="M305.143 779.252C286.004 761.428 255.75 762.165 237.598 781.655 219.447 801.145 220.862 831.375 240.001 849.2 259.141 867.024 289.395 866.287 307.546 846.797S324.283 797.077 305.143 779.252z"
        stroke="#552143" />
      <path fill-opacity="0"
        d="M198.749 431.566C189.376 422.837 174.56 423.198 165.671 432.743 156.782 442.287 157.474 457.091 166.848 465.82 176.221 474.55 191.037 474.188 199.925 464.644 208.814 455.099 208.122 440.295 198.749 431.566z"
        stroke="#552143" />
      <path fill-opacity="0"
        d="M126.864 783.581C114.88 772.42 95.9371 772.882 84.5723 785.085 73.2075 797.289 74.0927 816.217 86.0768 827.377 98.0608 838.538 117.004 838.076 128.369 825.873 139.733 813.67 138.848 794.742 126.864 783.581z"
        stroke="#552143" />
      <path fill-opacity="0"
        d="M540.555 517.002C538.918 515.477 536.33 515.541 534.778 517.208 533.226 518.874 533.346 521.46 534.983 522.985 536.621 524.51 539.209 524.446 540.761 522.78 542.313 521.113 542.193 518.527 540.555 517.002z"
        stroke="#552143" />
      <path fill-opacity="0"
        d="M502.083 176.437C489.326 164.556 469.16 165.048 457.062 178.039c-12.099 12.991-11.156 33.141 1.601 45.022 12.758 11.881 32.924 11.389 45.022-1.602C515.783 208.468 514.841 188.318 502.083 176.437z"
        stroke="#552143" />
      <path fill-opacity="0"
        d="M683.18 139.719C666.555 124.236 640.275 124.876 624.508 141.806 608.741 158.736 609.97 184.995 626.595 200.478 643.221 215.962 669.501 215.321 685.267 198.391 701.034 181.461 699.806 155.202 683.18 139.719z"
        stroke="#552143" />
      <path fill-opacity="0"
        d="M381.242 822.074C376.631 817.78 369.343 817.959 364.971 822.653 360.599 827.348 360.939 834.63 365.55 838.925 370.161 843.219 377.449 843.041 381.821 838.346 386.193 833.651 385.853 826.369 381.242 822.074z"
        stroke="#552143" />
      <path fill-opacity="0"
        d="M559.814 240.777C549.008 249.231 533.59 247.215 525.33 236.657 517.07 226.099 518.824 210.649 529.63 202.195 540.436 193.741 555.854 195.757 564.114 206.315S570.62 232.323 559.814 240.777zm-62.393 17.714C517.858 284.615 555.604 289.225 581.727 268.787 607.851 248.35 612.461 210.604 592.023 184.481c-20.437-26.124-58.183-30.734-84.306-10.296-26.124 20.437-30.734 58.183-10.296 84.306z"
        stroke="#552143" />
      <path fill-opacity="0"
        d="M737.526 722.029C724.759 732.018 706.542 729.636 696.783 717.162 687.024 704.688 689.096 686.433 701.864 676.445 714.631 666.456 732.848 668.838 742.607 681.312 752.366 693.786 750.294 712.041 737.526 722.029zM663.556 743.156C687.812 774.16 732.61 779.631 763.614 755.375 794.618 731.12 800.089 686.322 775.833 655.318c-24.255-31.005-69.053-36.475-100.057-12.22C644.771 667.354 639.301 712.152 663.556 743.156z"
        stroke="#552143" />
      <path fill-opacity="0"
        d="M98.841 839.317C100.272 837.781 102.653 837.715 104.157 839.116 105.661 840.517 105.764 842.896 104.333 844.432 102.903 845.969 100.522 846.035 99.0179 844.634 97.5137 843.233 97.4103 840.854 98.841 839.317zM106.841 836.233C103.726 833.331 98.8473 833.505 95.9454 836.621 93.0436 839.736 93.2171 844.615 96.333 847.517 99.4489 850.418 104.327 850.245 107.229 847.129S109.957 839.135 106.841 836.233z"
        stroke="#552143" />
      <path fill-opacity="0"
        d="M831.182 872.058C832.906 870.208 835.774 870.128 837.585 871.815 839.396 873.502 839.521 876.368 837.797 878.219 836.074 880.07 833.206 880.149 831.395 878.462S829.459 873.909 831.182 872.058zM841.064 868.08C837.165 864.449 831.062 864.667 827.431 868.565 823.801 872.463 824.018 878.567 827.916 882.197 831.815 885.828 837.918 885.611 841.549 881.712 845.179 877.814 844.962 871.711 841.064 868.08z"
        stroke="#552143" />
      <path fill-opacity="0"
        d="M793.034 124.375C795.268 121.976 798.985 121.874 801.332 124.06 803.679 126.245 803.841 129.96 801.607 132.359 799.372 134.758 795.656 134.86 793.309 132.675 790.962 130.489 790.799 126.774 793.034 124.375zM806.195 118.838C800.932 113.937 792.692 114.23 787.791 119.493 782.89 124.755 783.183 132.995 788.446 137.896 793.708 142.798 801.948 142.505 806.849 137.242 811.751 131.979 811.458 123.739 806.195 118.838z"
        stroke="#552143" />
      <path fill-opacity="0"
        d="M408.173 240.272C412.124 236.029 418.694 235.85 422.842 239.713 426.99 243.575 427.278 250.142 423.327 254.384 419.375 258.627 412.805 258.806 408.657 254.943 404.51 251.081 404.221 244.514 408.173 240.272zm24.185-10.778C422.509 220.321 407.088 220.87 397.916 230.719 388.743 240.569 389.291 255.989 399.141 265.162 408.99 274.335 424.411 273.786 433.584 263.937 442.756 254.087 442.208 238.667 432.358 229.494z"
        stroke="#552143" />
      <path fill-opacity="0"
        d="M505.992 482.115C507.8 480.174 510.809 480.091 512.709 481.86 514.609 483.63 514.74 486.637 512.932 488.578 511.123 490.52 508.115 490.603 506.215 488.833 504.315 487.064 504.183 484.057 505.992 482.115zM516.417 477.878C512.292 474.037 505.835 474.267 501.993 478.391 498.152 482.516 498.382 488.974 502.506 492.815 506.631 496.657 513.089 496.427 516.93 492.302 520.772 488.178 520.542 481.72 516.417 477.878z"
        stroke="#552143" />
      <path fill-opacity="0"
        d="M654.663 558.382C655.728 557.238 657.502 557.188 658.623 558.232 659.744 559.276 659.82 561.049 658.755 562.193 657.689 563.337 655.916 563.386 654.795 562.342 653.674 561.298 653.597 559.526 654.663 558.382zM660.317 556.413C658.177 554.419 654.827 554.539 652.834 556.679 650.841 558.819 650.96 562.169 653.1 564.162 655.24 566.155 658.591 566.036 660.584 563.896 662.577 561.756 662.457 558.406 660.317 556.413z"
        stroke="#552143" />
      <path fill-opacity="0"
        d="M528.425 443.386C528.752 443.69 529.263 443.673 529.568 443.346L528.104 441.983C528.554 441.499 529.309 441.476 529.788 441.922L528.425 443.386zM528.384 442.244C528.08 442.571 528.099 443.082 528.425 443.386L529.788 441.922C530.268 442.369 530.298 443.123 529.848 443.607L528.384 442.244zM529.526 442.204C529.2 441.9 528.688 441.917 528.384 442.244L529.848 443.607C529.397 444.091 528.643 444.114 528.163 443.668L529.526 442.204zM529.568 443.346C529.872 443.019 529.853 442.508 529.526 442.204L528.163 443.668C527.683 443.221 527.653 442.467 528.104 441.983L529.568 443.346zM528.623 443.173C528.832 443.368 529.159 443.356 529.354 443.147L527.891 441.784C528.449 441.185 529.387 441.152 529.986 441.71L528.623 443.173zM528.597 442.443C528.403 442.652 528.414 442.979 528.623 443.173L529.986 441.71C530.586 442.268 530.619 443.206 530.061 443.806L528.597 442.443zM529.328 442.417C529.119 442.222 528.792 442.234 528.597 442.443L530.061 443.806C529.503 444.405 528.564 444.438 527.965 443.88L529.328 442.417zM529.354 443.147C529.549 442.938 529.537 442.611 529.328 442.417L527.965 443.88C527.366 443.322 527.332 442.384 527.891 441.784L529.354 443.147z"
        fill="#552143" />
      <path fill-opacity="0"
        d="M621.219 259.968C629.152 251.45 642.34 251.092 650.663 258.844 658.987 266.595 659.567 279.776 651.634 288.294 643.701 296.812 630.513 297.17 622.189 289.418 613.866 281.666 613.286 268.486 621.219 259.968zM670.972 237.037c-20.486-19.079-52.561-17.938-71.64 2.548C580.253 260.072 581.394 292.146 601.881 311.225c20.486 19.079 52.561 17.938 71.64-2.548C692.6 288.19 691.459 256.116 670.972 237.037z"
        stroke="#552143" />
      <path fill-opacity="0"
        d="M725.716 302.714C703.675 282.187 668.836 283.036 647.933 305.481 627.031 327.925 628.66 362.737 650.7 383.263 672.741 403.789 707.58 402.941 728.483 380.496 749.385 358.052 747.756 323.24 725.716 302.714z"
        stroke="#552143" />
      <path fill-opacity="0"
        d="M227.34 485.761C216.323 475.5 198.908 475.925 188.461 487.144 178.013 498.362 178.827 515.763 189.844 526.023S218.275 535.858 228.723 524.64C239.171 513.421 238.357 496.021 227.34 485.761z"
        stroke="#552143" />
      <path fill-opacity="0"
        d="M532.317 455.413C530.196 453.437 526.844 453.52 524.834 455.679 522.823 457.838 522.979 461.187 525.1 463.162 527.221 465.138 530.573 465.055 532.584 462.896 534.594 460.737 534.438 457.388 532.317 455.413z"
        stroke="#552143" />
      <path fill-opacity="0"
        d="M896.244 588.915C871.043 565.446 831.208 566.417 807.309 592.079 783.409 617.742 785.272 657.545 810.472 681.014 835.673 704.483 875.508 703.513 899.407 677.85 923.307 652.188 921.444 612.385 896.244 588.915z"
        stroke="#552143" />
      <path fill-opacity="0"
        d="M554.121 121.284C550.856 118.244 545.695 118.37 542.6 121.694 539.504 125.018 539.744 130.175 543.009 133.215 546.274 136.256 551.435 136.129 554.53 132.805 557.626 129.482 557.386 124.325 554.121 121.284z"
        stroke="#552143" />
      <path fill-opacity="0"
        d="M867.362 310.109c-19.913-18.545-51.39-17.778-70.274 2.5C778.203 332.887 779.674 364.338 799.587 382.883 819.501 401.428 850.977 400.662 869.862 380.384c18.885-20.278 17.414-51.73-2.5-70.275z"
        stroke="#552143" />
      <path fill-opacity="0"
        d="M371.808 174.381C356.053 159.708 331.149 160.315 316.208 176.359 301.266 192.402 302.43 217.287 318.186 231.959 333.941 246.632 358.845 246.025 373.786 229.982 388.728 213.938 387.564 189.054 371.808 174.381z"
        stroke="#552143" />
      <path fill-opacity="0"
        d="M624.868 255.196C602.731 234.579 567.739 235.432 546.744 257.975 525.75 280.518 527.386 315.482 549.523 336.099 571.661 356.715 606.653 355.862 627.647 333.319 648.641 310.777 647.005 275.812 624.868 255.196z"
        stroke="#552143" />
      <path fill-opacity="0"
        d="M709.406 563.307C709.132 563.051 708.7 563.063 708.441 563.341S708.201 564.051 708.475 564.306 709.181 564.549 709.44 564.271C709.699 563.994 709.68 563.562 709.406 563.307z"
        stroke="#552143" />
      <path fill-opacity="0"
        d="M494.128 776.464C489.589 772.237 482.416 772.413 478.113 777.033 473.81 781.654 474.144 788.822 478.683 793.048 483.221 797.275 490.394 797.099 494.697 792.479 499.001 787.858 498.666 780.69 494.128 776.464z"
        stroke="#552143" />
      <path fill-opacity="0"
        d="M193.273 572.386c-10.34-9.63-26.685-9.231-36.49 1.298C146.977 584.213 147.74 600.545 158.081 610.175c10.34 9.63 26.684 9.231 36.49-1.298s9.042-26.861-1.298-36.491z"
        stroke="#552143" />
      <path fill-opacity="0"
        d="M775.385 265.289C772.577 267.486 768.568 266.963 766.419 264.217 764.27 261.47 764.728 257.453 767.536 255.256 770.344 253.059 774.353 253.582 776.502 256.329 778.65 259.076 778.193 263.093 775.385 265.289zM760.187 269.093C765.058 275.319 774.054 276.418 780.28 271.547 786.506 266.675 787.605 257.679 782.734 251.453 777.863 245.227 768.867 244.128 762.641 248.999 756.414 253.87 755.316 262.866 760.187 269.093z"
        stroke="#552143" />
      <path fill-opacity="0"
        d="M95.4485 305.186C94.8927 305.621 94.0968 305.518 93.669 304.971 93.2413 304.425 93.3334 303.627 93.8892 303.193 94.445 302.758 95.2409 302.86 95.6687 303.407 96.0964 303.954 96.0043 304.751 95.4485 305.186zM93.5413 305.071C94.0285 305.694 94.9282 305.804 95.551 305.317 96.1738 304.83 96.2836 303.93 95.7964 303.307S94.4094 302.574 93.7867 303.062C93.1639 303.549 93.0541 304.449 93.5413 305.071z"
        stroke="#552143" />
      <path fill-opacity="0"
        d="M538.547 420.915C540.553 418.761 543.89 418.669 545.998 420.632 548.106 422.595 548.251 425.93 546.245 428.084S540.902 430.33 538.794 428.367C536.687 426.404 536.541 423.069 538.547 420.915zM550.242 416.074C545.589 411.741 538.304 412 533.971 416.653 529.638 421.306 529.897 428.591 534.55 432.925 539.203 437.258 546.488 436.999 550.821 432.346S554.895 420.408 550.242 416.074z"
        stroke="#552143" />
      <path fill-opacity="0"
        d="M257.958 283.626C265.562 275.461 278.204 275.118 286.183 282.548 294.162 289.979 294.718 302.613 287.113 310.779 279.509 318.944 266.867 319.287 258.889 311.856 250.91 304.425 250.354 291.791 257.958 283.626zM305.6 261.698c-19.608-18.261-50.307-17.169-68.568 2.44C218.771 283.746 219.863 314.445 239.471 332.706 259.079 350.967 289.778 349.875 308.04 330.267c18.261-19.608 17.169-50.307-2.44-68.569z"
        stroke="#552143" />
      <path fill-opacity="0"
        d="M650.598 221.427C654.805 216.909 661.8 216.719 666.216 220.831 670.632 224.944 670.939 231.935 666.732 236.452S655.529 241.16 651.114 237.047C646.698 232.935 646.391 225.944 650.598 221.427zm25.827-11.559C665.893 200.059 649.403 200.646 639.594 211.179 629.785 221.711 630.371 238.201 640.904 248.01 651.437 257.819 667.927 257.233 677.736 246.7 687.545 236.167 686.958 219.677 676.425 209.868z"
        stroke="#552143" />
      <path fill-opacity="0"
        d="M89.465 388.187C97.2885 379.787 110.295 379.434 118.503 387.079 126.712 394.723 127.284 407.722 119.461 416.122 111.637 424.523 98.6312 424.876 90.4225 417.231 82.2138 409.586 81.6415 396.588 89.465 388.187zm49.05-22.596c-20.194-18.807-51.8098-17.682-70.6162 2.512-18.8064 20.193-17.6818 51.809 2.512 70.616 20.1938 18.806 51.8092 17.682 70.6162-2.512 18.806-20.194 17.682-51.81-2.512-70.616z"
        stroke="#552143" />
      <path fill-opacity="0"
        d="M469.697 813.284C476.973 805.472 489.068 805.144 496.702 812.253 504.336 819.363 504.868 831.451 497.593 839.263 490.317 847.075 478.222 847.404 470.588 840.294 462.954 833.184 462.422 821.096 469.697 813.284zm45.532-20.924C496.499 774.917 467.175 775.96 449.731 794.69 432.288 813.42 433.331 842.744 452.061 860.187 470.791 877.63 500.115 876.587 517.559 857.857 535.002 839.127 533.959 809.803 515.229 792.36z"
        stroke="#552143" />
      <path fill-opacity="0"
        d="M106.369 349.658C113.79 341.689 126.128 341.354 133.916 348.607 141.703 355.859 142.246 368.19 134.824 376.159 127.403 384.128 115.064 384.463 107.277 377.211 99.4898 369.958 98.947 357.627 106.369 349.658zm46.469-21.37C133.718 310.482 103.783 311.546 85.976 330.667c-17.8067 19.12-16.7418 49.055 2.3785 66.862C107.475 415.336 137.41 414.271 155.217 395.151 173.023 376.03 171.959 346.095 152.838 328.288z"
        stroke="#552143" />
      <path fill-opacity="0"
        d="M325.094 616.194C331.748 609.049 342.811 608.748 349.794 615.251 356.777 621.754 357.263 632.811 350.609 639.956 343.954 647.101 332.891 647.402 325.908 640.899 318.926 634.396 318.439 623.339 325.094 616.194zm41.543-19.029C349.567 581.267 322.84 582.218 306.942 599.289 291.043 616.36 291.994 643.087 309.065 658.985 326.136 674.883 352.863 673.932 368.761 656.861 384.659 639.79 383.708 613.063 366.637 597.165z"
        stroke="#552143" />
      <path fill-opacity="0"
        d="M825.512 556.691C827.089 554.998 829.713 554.926 831.37 556.469 833.028 558.013 833.142 560.635 831.565 562.328S827.364 564.094 825.707 562.55C824.05 561.007 823.936 558.385 825.512 556.691zM834.451 553.161C830.945 549.896 825.455 550.091 822.19 553.597 818.925 557.104 819.12 562.593 822.626 565.858 826.132 569.124 831.622 568.928 834.887 565.422 838.153 561.916 837.957 556.426 834.451 553.161z"
        stroke="#552143" />
      <path fill-opacity="0"
        d="M569.381 350.842C550.725 333.468 521.235 334.186 503.543 353.184 485.85 372.182 487.229 401.648 505.885 419.023 524.541 436.397 554.03 435.678 571.723 416.681 589.416 397.683 588.037 368.216 569.381 350.842z"
        stroke="#552143" />
      <path fill-opacity="0"
        d="M594.18 448.719C577.555 433.236 551.275 433.876 535.508 450.806 519.741 467.736 520.97 493.995 537.595 509.478 554.221 524.962 580.501 524.321 596.267 507.391 612.034 490.461 610.806 464.202 594.18 448.719z"
        stroke="#552143" />
      <path fill-opacity="0"
        d="M645.024 296.622C638.648 290.685 628.571 290.931 622.525 297.423 616.479 303.915 616.95 313.984 623.325 319.922 629.701 325.859 639.778 325.613 645.824 319.121 651.87 312.63 651.399 302.56 645.024 296.622z"
        stroke="#552143" />
      <path fill-opacity="0"
        d="M795.232 501.799C766.082 474.652 720.004 475.774 692.358 505.459 664.713 535.144 666.867 581.186 696.018 608.333 725.168 635.48 771.246 634.358 798.892 604.674 826.537 574.989 824.382 528.947 795.232 501.799z"
        stroke="#552143" />
      <path fill-opacity="0"
        d="M842.492 424.243C831.379 413.892 813.811 414.321 803.272 425.638 792.732 436.955 793.553 454.508 804.667 464.858 815.781 475.208 833.348 474.78 843.887 463.463 854.427 452.146 853.606 434.593 842.492 424.243z"
        stroke="#552143" />
      <path fill-opacity="0"
        d="M681.005 586.889C673.373 579.781 661.308 580.075 654.07 587.847 646.832 595.619 647.395 607.674 655.028 614.782 662.661 621.891 674.725 621.596 681.963 613.824 689.201 606.052 688.638 593.997 681.005 586.889z"
        stroke="#552143" />
      <path fill-opacity="0"
        d="M666.671 838.017C662.422 834.061 655.708 834.225 651.679 838.551 647.651 842.876 647.964 849.585 652.213 853.542 656.461 857.498 663.176 857.334 667.204 853.009 671.232 848.683 670.919 841.974 666.671 838.017z"
        stroke="#552143" />
      <path fill-opacity="0"
        d="M404.25 712.038C402.806 710.693 400.524 710.75 399.156 712.219 397.787 713.689 397.893 715.969 399.337 717.314 400.781 718.659 403.063 718.602 404.432 717.133 405.8 715.663 405.695 713.383 404.25 712.038z"
        stroke="#552143" />
      <path fill-opacity="0"
        d="M864.942 587.129C847.833 571.196 820.789 571.855 804.564 589.277 788.339 606.699 789.603 633.722 806.712 649.656 823.821 665.589 850.865 664.93 867.09 647.508 883.315 630.086 882.051 603.063 864.942 587.129z"
        stroke="#552143" />
      <path fill-opacity="0"
        d="M786.437 321.042C771.552 307.18 748.023 307.754 733.907 322.911S720.891 361.578 735.776 375.44c14.885 13.863 38.413 13.289 52.529-1.868C802.421 358.414 801.322 334.905 786.437 321.042z"
        stroke="#552143" />
      <path fill-opacity="0"
        d="M344.258 320.267C322.508 300.011 288.127 300.849 267.5 322.998 246.872 345.147 248.48 379.501 270.23 399.757 291.981 420.013 326.362 419.175 346.989 397.026 367.616 374.877 366.009 340.524 344.258 320.267z"
        stroke="#552143" />
      <path fill-opacity="0"
        d="M383.374 860.824C369.142 871.958 348.836 869.303 337.958 855.398 327.08 841.494 329.39 821.146 343.622 810.012 357.854 798.877 378.16 801.532 389.038 815.437S397.606 849.69 383.374 860.824zM300.763 884.498C327.869 919.146 377.931 925.259 412.578 898.153c34.648-27.106 40.762-77.168 13.656-111.815C399.127 751.69 349.066 745.576 314.418 772.682c-34.648 27.106-40.761 77.168-13.655 111.816z"
        stroke="#552143" />
      <path fill-opacity="0"
        d="M454.134 618.574C447.119 624.062 437.109 622.754 431.746 615.899 426.382 609.043 427.522 599.012 434.537 593.524 441.552 588.036 451.562 589.344 456.925 596.2 462.289 603.055 461.149 613.086 454.134 618.574zM414.111 629.695C427.17 646.387 451.289 649.333 467.981 636.274S487.619 599.096 474.56 582.404C461.501 565.711 437.382 562.766 420.69 575.825 403.998 588.884 401.052 613.002 414.111 629.695z"
        stroke="#552143" />
      <path fill-opacity="0" d="M368.5 369.004l-7-130.504" stroke="#552143" />
      <path fill-opacity="0" d="M285.5 163.5l-8 85.5" stroke="#552143" />
      <path fill-opacity="0" d="M163.5 308.5l57.928 76.241" stroke="#552143" />
      <path fill-opacity="0" d="M168.294 466.404 112 508" stroke="#552143" />
      <path fill-opacity="0" d="M455.5 387l171-186" stroke="#552143" />
      <path fill-opacity="0" d="M847 205l-10 92M808 421.5 771 384" stroke="#552143" />
      <path fill-opacity="0" d="M627.5 527.5l-118 32 41 149.5" stroke="#552143" />
      <path fill-opacity="0" d="M509 559.5l153 98m-362-166-37.5 99" stroke="#552143" />
      <path fill-opacity="0"
        d="M317.5 665.5 317.999 665.528C318.009 665.348 317.921 665.176 317.769 665.079 317.617 664.981 317.424 664.974 317.265 665.059L317.5 665.5zM253 544 253.462 544.191 254.087 542.674 252.723 543.584 253 544zm64.265 121.059-143.5 76.5L174.235 742.441l143.5-76.5L317.265 665.059zM317.001 665.472l-13.5 242L304.499 907.528l13.5-242L317.001 665.472zM440.498 379.459l-16-194L423.502 185.541l16 194L440.498 379.459zM556.585 125.993l29-5L585.415 120.007l-29 5L556.585 125.993zM521.274 230.554l-105.5 53.5L416.226 284.946l105.5-53.5L521.274 230.554zM382.328 511.878l87-75.5L468.672 435.622l-87 75.5L382.328 511.878zm224.854-36.912 98.5-38.5L705.318 435.534l-98.5 38.5L607.182 474.966zM252.723 543.584l-54 36L199.277 580.416l54-36L252.723 543.584zM252.538 543.809l-54 131L199.462 675.191l54-131L252.538 543.809z"
        fill="#552143" />
      <path fill-opacity="0"
        d="M338 515l-17-10m17 10L169.5 364M338 515l-93 6M532 258l94.5-57.5M649 596 510 559.5 625 714l92 85M607 474.5 827 356M731 210l-47 14m0 0-44 69.5 17-54M684 224l30-31.5M382 511V466m78 175L355 861M317.5 665.5 141 889M699.5 285.5l17-12.5m-17 12.5-1.5-68m1.5 68L766 264M575 4e2l12-180M575 4e2l51.5-78M575 4e2l196.5 44M575 4e2l248.5-85M514 494.5l21 23m-6-63L554 415m65-151-63.5-49.5M469 230 407.333 341M549 208.5l-142.5 134L407.333 341m0 0L477 302M332.5 247.5 295 357l-13.5-41.5m20 94-88.5-155M252 641l100.5-54L266 615"
        stroke="#552143" />
      <path fill-opacity="0" d="M382.5 512 477 302" stroke="#552143" />
      <path fill-opacity="0" d="M382 512.5 622.5 134" stroke="#552143" />
      <path fill-opacity="0"
        d="M765.5 709.5l-7-19m62.5-129L732 594m-66 26-31 92.5m-15.5 35L476.5 628m204 208.5 142-17.5m-52 69.5-223-37.5m-134-19.5-242-68.5m210 12L363 722.5M88 850.5l6.5-4.5M233 638.5 90.5 580M174 418l56-23.5M95 303l68.5-87.5m293-86-6.5 46m285 69-178.5-119"
        stroke="#552143" />
</svg>