<svg viewBox="0 0 168 30" xmlns="http://www.w3.org/2000/svg"><g fill="#fff"><path d="m60.6373 15.569c0-4.3913-2.8133-7.44611-6.9226-7.44611-4.1094 0-6.9227 3.05481-6.9227 7.44611 0 4.3595 2.8133 7.4144 6.9227 7.4144 4.1093 0 6.9226-3.0549 6.9226-7.4144zm-3.8881 0c0 2.3548-1.0747 4.0731-3.0345 4.0731-1.9599 0-3.0346-1.7183-3.0346-4.0731 0-2.3865 1.0747-4.1049 3.0346-4.1049 1.9598 0 3.0345 1.7184 3.0345 4.1049z"/><path d="m66.084 21.456c.5058.7955 1.8018 1.5274 3.5088 1.5274 4.3938 0 7.5548-3.8504 7.5548-8.6872 0-3.4685-1.8018-6.17331-5.3105-6.17331-1.5173 0-2.9398.76371-3.73 1.6547l.2529-1.33648h-3.9197l-3.4139 19.47449h3.9196zm1.3909-8.0508c.6638-.9865 1.6753-1.8456 3.0978-1.8456 1.6753 0 2.592 1.2728 2.592 2.9593 0 2.8958-1.5173 5.0278-3.9513 5.0278-1.296 0-2.2127-.6683-2.4972-1.6547z"/><path d="m88.2556 18.0193c-.3161 1.2092-1.2961 1.782-2.6237 1.782-1.7386 0-2.9398-1.2729-3.0662-3.4049h9.4199v-1.2092c0-4.1686-2.276-7.06431-6.4169-7.06431-3.9513 0-6.7962 3.15031-6.7962 7.44611 0 4.3914 2.7501 7.4144 6.8594 7.4144 3.5404 0 5.7531-1.9411 6.2588-4.9641zm-2.6553-6.6825c1.6121 0 2.4972 1.1774 2.5288 2.673h-5.4686c.3477-1.7502 1.4225-2.673 2.9398-2.673z"/><path d="m94.4756 22.6652h3.9197v-9.0054c.3161-1.2411 1.3592-1.9729 2.5607-1.9729 1.549 0 2.307 1.0182 2.307 2.5138v8.4645h3.92v-9.2918c0-3.1503-1.802-5.25051-4.994-5.25051-1.644 0-3.0351.73189-3.7937 1.62288v-1.30466h-3.9197z"/><path d="m168 22.6652v-9.0691c0-3.4048-2.181-5.47321-5.942-5.47321-3.225 0-5.532 1.97291-5.943 4.55041h3.73c.316-.8273.98-1.3365 2.086-1.3365 1.581 0 2.308.9865 2.308 2.1957v1.0501c-.569-.4137-1.992-.8274-3.225-.8274-3.066 0-5.468 1.8457-5.468 4.5505 0 2.9593 2.402 4.614 5.247 4.614 1.549 0 2.972-.5409 3.446-1.0183v.7638zm-3.761-3.8822c-.348.7637-1.423 1.241-2.561 1.241-1.232 0-2.497-.5091-2.497-1.7502 0-1.2092 1.265-1.7501 2.497-1.7501 1.138 0 2.213.4773 2.561 1.241z"/><path d="m141.005 15.569c0 4.3914 2.782 7.4144 6.796 7.4144 3.54 0 5.785-2.0684 6.196-5.1232h-3.857c-.221 1.0819-1.074 1.7501-2.339 1.7501-1.802 0-2.908-1.6547-2.908-4.0413 0-2.4184 1.106-4.0731 2.908-4.0731 1.265 0 2.118.6683 2.339 1.7502h3.857c-.411-3.023-2.656-5.12321-6.196-5.12321-4.014 0-6.796 3.02301-6.796 7.44611z"/><path d="m127.174 18.4329c.411 2.8958 2.845 4.5505 6.29 4.5505 3.288 0 5.785-1.7184 5.785-4.6141 0-2.1638-1.296-3.5321-3.762-4.1367l-2.908-.6683c-.885-.2227-1.264-.5409-1.264-1.1137 0-.891.916-1.3365 1.865-1.3365 1.296 0 1.96.6046 2.213 1.4001h3.73c-.475-2.67297-2.434-4.39131-6.006-4.39131-3.161 0-5.627 1.84563-5.627 4.61411 0 2.3865 1.517 3.5003 3.667 4.0094l2.845.6364c.98.2546 1.422.5728 1.422 1.2092 0 .9229-.79 1.4002-1.991 1.4002-1.17 0-2.055-.541-2.371-1.5593z"/><path d="m118.716 2.45885c-.569-.25457-1.265-.38185-2.182-.38185-3.003 0-4.994 1.84562-4.994 5.05956v1.68652h-2.308v3.18212h2.308v11.0419h3.856v-11.0419h5.348v-3.18212h-2.408-2.94v-1.43195c0-1.30467.727-1.97291 1.929-1.97291.474 0 .98.09546 1.391.38185z"/><path d="m124.664 8.82308h-3.92v3.18212 11.0419h3.92z"/><path clip-rule="evenodd" d="m121.332 6.95063.669-3.81342h3.249l-.669 3.81342z" fill-rule="evenodd"/></g><path clip-rule="evenodd" d="m36.3805 14.9997.0023-.0024-8.3517-8.40744-2.3046 2.32001 6.0505 6.09083-6.0495 6.0898 2.3047 2.32 8.3517-8.4074z" fill="#c42323" fill-rule="evenodd"/><path clip-rule="evenodd" d="m17.2608 7.27058c-.9426-.74035-1.1352-2.11056-.3959-3.06437.7327-.94532 2.0821-1.09632 3.0237-.37817l1.3173 1.0347 2.309-2.32929-1.6537-1.31756-.0014.00172c-2.3718-1.814565-5.7211-1.435765-7.5594.85046l-.1194.15401c-1.7691 2.36879-1.2994 5.76452 1.072 7.63056l.2883.23256c-1.9469 1.0648-3.1491 3.252-2.8612 5.5998.2058 1.6781 1.1301 3.0902 2.4241 3.9624l4.0212 3.0796-.0017.0022.0004.0003c.9425.7403 1.1351 2.1105.3959 3.0643-.7324.9449-2.0809 1.0962-3.0224.3792l-1.3187-1.0357-2.3089 2.3293 1.6537 1.3175.0013-.0017c2.3718 1.8146 5.7211 1.4358 7.5595-.8504l.1193-.154c1.7702-2.3702 1.2989-5.7684-1.076-7.6337l-.0004-.0003-.2844-.2295c1.9464-1.0649 3.1482-3.2519 2.8603-5.5993-.2051-1.6731-1.1246-3.0819-2.4126-3.9546l-4.0314-3.08745.0018-.00231zm1.2005 9.92802c1.2235-.1521 2.0734-1.2682 1.9259-2.4713-.1476-1.2031-1.2416-2.0777-2.4651-1.9257s-2.0733 1.2682-1.9258 2.4713 1.2415 2.0777 2.465 1.9257z" fill="#c42323" fill-rule="evenodd"/><path clip-rule="evenodd" d="m.00330257 14.9997-.00234127-.0024 8.3517387-8.40744 2.3046 2.32001-6.05048 6.09083 6.04948 6.0898-2.30467 2.32-8.35173872-8.4074z" fill="#c42323" fill-rule="evenodd"/></svg>